<svg width="58" height="60" viewBox="0 0 58 60" fill="none" xmlns="http://www.w3.org/2000/svg">
<path d="M3.59303 31.419L7.84203 33.8858L23.3863 24.9039L23.6814 24.7268L23.6224 3.77689L22.2768 2.99791V1.62879L21.97 1.45174L21.6395 1.64059V1.2629L21.3326 1.08586L21.0021 1.2747V0.897012L20.6953 0.71997L20.3648 0.908815V0.531126L20.0579 0.354084L19.7274 0.542928V0.165239L19.4206 0L9.35279 5.80697V5.72435L7.49975 6.7866V6.86922L7.05124 7.12889V6.29089L5.1982 7.35314V8.19114L3.8999 8.93471L3.95891 26.2612L3.55762 27.1346L3.59303 31.419Z" fill="#E8F5FC"/>
<path d="M56.2936 18.3769L28.8167 2.51395C28.4863 2.33691 28.203 2.31331 27.9787 2.43133L27.4594 2.7264C27.2588 2.85623 27.1289 3.10409 27.1289 3.46998L27.0699 23.4521C27.0699 24.1839 27.5775 25.0691 28.2148 25.435L29.5249 26.1903C29.3479 26.3556 29.218 26.6034 29.218 26.8277L27.247 25.671C27.1408 25.612 25.3821 26.5562 25.2169 26.6625L7.27666 37.2614C7.19404 37.3086 7.12322 37.3912 7.08781 37.4738C7.0288 37.5564 6.99339 37.6509 7.00519 37.7453C7.00519 37.8397 7.0288 37.8987 7.07601 37.9223L36.0519 54.7413C36.1109 54.7767 36.1699 54.7767 36.2407 54.7295L48.8343 47.7776L48.8225 52.2981C48.8225 52.7702 49.1175 53.2187 49.7313 53.5728C50.9352 54.2692 52.9062 54.2692 54.0983 53.5728C54.7003 53.2305 54.9953 52.7702 54.9953 52.3217V51.6962C56.0104 51.0942 56.8248 49.6661 56.8248 48.4976C56.8248 47.9075 56.6241 47.4944 56.2818 47.2937C56.2818 47.2819 56.2818 47.2819 56.2818 47.2819L55.8687 47.0577C55.6445 46.916 55.3376 46.8924 55.0071 46.9869C54.9835 46.5502 54.6885 46.1253 54.1219 45.783C53.8269 45.6059 53.4846 45.4879 53.1305 45.4053L55.8097 43.9181C56.1402 43.7293 56.4117 43.2572 56.4117 42.8677C56.4117 42.667 56.3291 42.5372 56.2228 42.4782L52.4931 40.3065C52.682 40.1294 52.8354 39.858 52.8354 39.6219C52.8354 39.6101 52.8354 39.6101 52.8354 39.5983L55.7271 41.2625C56.093 41.475 56.4235 41.4514 56.6359 41.2625C56.6123 41.2979 56.5769 41.3215 56.5415 41.3451L57.0608 41.0501C57.2733 40.9202 57.4031 40.6724 57.4031 40.3065L57.4621 20.3362C57.4385 19.628 56.931 18.7428 56.2936 18.3769ZM49.1884 37.5564C48.9877 37.6745 48.8225 37.9341 48.7753 38.182L32.8533 28.9404C33.0421 28.8106 33.2074 28.5745 33.2546 28.3503L49.1884 37.5564C49.2002 37.5564 49.2002 37.5564 49.1884 37.5564ZM55.0189 47.8839C55.2786 47.754 55.5147 47.7068 55.7153 47.7304C55.8923 47.9075 55.9986 48.1435 55.9986 48.5094C56.0104 49.2412 55.5855 50.091 55.0189 50.6457V47.8839V47.8839Z" fill="#E8F5FC"/>
<path d="M7.84284 33.8972L23.694 24.7383L19.445 22.2715L3.58203 31.4304L7.84284 33.8972Z" fill="#B1B2B1"/>
<path d="M23.3861 24.9158L19.1371 22.449L19.0781 1.49902L23.3271 3.96581L23.3861 24.9158Z" fill="#253E67"/>
<path d="M22.4902 5.22909L22.7734 5.05205L18.6779 2.67969L18.3828 2.85673L22.4902 5.22909Z" fill="#253E67"/>
<path d="M18.6653 22.3662L18.3584 22.1891L18.5118 22.0947L18.8187 22.2718L18.6653 22.3662Z" fill="#253E67"/>
<path d="M17.5432 23.0158L17.2363 22.8387L17.4488 22.7207L17.7557 22.8977L17.5432 23.0158Z" fill="#253E67"/>
<path d="M17.9104 22.1888L17.6035 22.0117L18.3589 22.1888L18.6658 22.3658L17.9104 22.1888Z" fill="#253E67"/>
<path d="M18.8196 22.272L18.5127 22.095V20.0059L18.8196 20.1829V22.272Z" fill="#253E67"/>
<path d="M16.8948 23.3935L16.5879 23.2165L16.8712 22.5791L17.178 22.7561L16.8948 23.3935Z" fill="#253E67"/>
<path d="M17.4846 22.0832L17.1777 21.9061L18.0984 19.8643L18.4052 20.0413L17.4846 22.0832Z" fill="#253E67"/>
<path d="M18.7141 19.3682L18.4072 19.1911L18.5135 18.9551L18.8203 19.1321L18.7141 19.3682Z" fill="#253E67"/>
<path d="M14.9836 24.4906L14.6768 24.3136L16.5888 23.2041L16.8957 23.3811L14.9836 24.4906Z" fill="#253E67"/>
<path d="M14.9465 24.4905L14.6396 24.3135L14.6751 24.3253L14.9819 24.5023L14.9465 24.4905Z" fill="#253E67"/>
<path d="M16.176 21.7757L15.8691 21.5986L17.1793 21.9055L17.4861 22.0825L16.176 21.7757Z" fill="#253E67"/>
<path d="M18.8196 19.1327L18.5127 18.9556V16.9609L18.8196 17.138V19.1327Z" fill="#253E67"/>
<path d="M17.4036 19.0618L17.0967 18.8848L18.4068 19.1916L18.7137 19.3687L17.4036 19.0618Z" fill="#253E67"/>
<path d="M14.5237 24.3849L14.2168 24.2078L15.1374 22.1777L15.4443 22.3548L14.5237 24.3849Z" fill="#253E67"/>
<path d="M18.6184 16.3587L18.3115 16.1816L18.5004 16.217L18.8072 16.3941L18.6184 16.3587Z" fill="#253E67"/>
<path d="M15.7385 21.6818L15.4316 21.5048L16.3523 19.4629L16.6591 19.6399L15.7385 21.6818Z" fill="#253E67"/>
<path d="M18.8078 16.3941L18.501 16.2171V15.7686L18.8078 15.9456V16.3941Z" fill="#253E67"/>
<path d="M16.9661 18.9669L16.6592 18.7898L17.5798 16.7598L17.8867 16.9368L16.9661 18.9669Z" fill="#253E67"/>
<path d="M18.1926 16.2639L17.8857 16.0868L18.4995 14.7295L18.8064 14.9065L18.1926 16.2639Z" fill="#253E67"/>
<path d="M12.3157 26.025L12.0088 25.848L13.7438 24.8447L14.0507 25.0218L12.3157 26.025Z" fill="#253E67"/>
<path d="M13.2014 24.0774L12.8945 23.9004L14.2046 24.2073L14.5115 24.3843L13.2014 24.0774Z" fill="#253E67"/>
<path d="M18.8078 14.8953L18.501 14.7183V13.9629L18.8078 14.1399V14.8953Z" fill="#253E67"/>
<path d="M14.428 21.3626L14.1211 21.1855L15.4312 21.5042L15.7381 21.6813L14.428 21.3626Z" fill="#253E67"/>
<path d="M11.6672 26.4025L11.3604 26.2254L12.1511 24.4668L12.458 24.6438L11.6672 26.4025Z" fill="#253E67"/>
<path d="M11.2883 26.6269L10.9814 26.4498L11.3709 26.2256L11.6778 26.4026L11.2883 26.6269Z" fill="#253E67"/>
<path d="M15.6555 18.6604L15.3486 18.4834L16.6587 18.7903L16.9656 18.9673L15.6555 18.6604Z" fill="#253E67"/>
<path d="M12.7639 23.9718L12.457 23.7947L13.3776 21.7646L13.6845 21.9417L12.7639 23.9718Z" fill="#253E67"/>
<path d="M16.8723 15.9456L16.5654 15.7686L17.8755 16.0754L18.1824 16.2525L16.8723 15.9456Z" fill="#253E67"/>
<path d="M13.9934 21.2687L13.6865 21.0917L14.6071 19.0498L14.914 19.2268L13.9934 21.2687Z" fill="#253E67"/>
<path d="M18.1116 13.2425L17.8047 13.0654L18.5011 13.2307L18.8079 13.4077L18.1116 13.2425Z" fill="#253E67"/>
<path d="M15.22 18.5539L14.9131 18.3768L15.8337 16.335L16.1406 16.512L15.22 18.5539Z" fill="#253E67"/>
<path d="M9.70726 27.5362L9.40039 27.3591L10.0613 26.9814L10.3682 27.1585L9.70726 27.5362Z" fill="#253E67"/>
<path d="M18.7952 13.4078L18.4883 13.2308V11.543L18.7952 11.72V13.4078Z" fill="#253E67"/>
<path d="M10.2385 26.3792L9.93164 26.2021L10.9821 26.45L11.289 26.627L10.2385 26.3792Z" fill="#253E67"/>
<path d="M16.4465 15.839L16.1396 15.662L17.0603 13.6201L17.3671 13.7972L16.4465 15.839Z" fill="#253E67"/>
<path d="M11.4553 23.6643L11.1484 23.4873L12.4585 23.7942L12.7654 23.9712L11.4553 23.6643Z" fill="#253E67"/>
<path d="M9.05785 27.9133L8.75098 27.7363L9.18768 26.7803L9.49455 26.9573L9.05785 27.9133Z" fill="#253E67"/>
<path d="M17.6741 13.1368L17.3672 12.9598L18.2878 10.9297L18.5947 11.1067L17.6741 13.1368Z" fill="#253E67"/>
<path d="M12.6819 20.9495L12.375 20.7725L13.6851 21.0793L13.992 21.2564L12.6819 20.9495Z" fill="#253E67"/>
<path d="M9.80297 26.2726L9.49609 26.0956L10.4167 24.0537L10.7236 24.2308L9.80297 26.2726Z" fill="#253E67"/>
<path d="M13.9094 18.2474L13.6025 18.0703L14.9126 18.3772L15.2195 18.5542L13.9094 18.2474Z" fill="#253E67"/>
<path d="M11.0295 23.5587L10.7227 23.3816L11.6433 21.3516L11.9501 21.5286L11.0295 23.5587Z" fill="#253E67"/>
<path d="M7.59496 28.7515L7.28809 28.5744L8.75163 27.7246L9.0585 27.9017L7.59496 28.7515Z" fill="#253E67"/>
<path d="M15.136 15.5325L14.8291 15.3555L16.1392 15.6623L16.4461 15.8394L15.136 15.5325Z" fill="#253E67"/>
<path d="M12.2571 20.8556L11.9502 20.6786L12.8708 18.6367L13.1777 18.8138L12.2571 20.8556Z" fill="#253E67"/>
<path d="M7.26488 28.6809L6.95801 28.5039L7.28849 28.5747L7.59536 28.7518L7.26488 28.6809Z" fill="#253E67"/>
<path d="M16.3635 12.8294L16.0566 12.6523L17.3667 12.9592L17.6736 13.1363L16.3635 12.8294Z" fill="#253E67"/>
<path d="M13.4719 18.1407L13.165 17.9637L14.0857 15.9336L14.3925 16.1106L13.4719 18.1407Z" fill="#253E67"/>
<path d="M8.49242 25.9661L8.18555 25.7891L9.49566 26.0959L9.80253 26.273L8.49242 25.9661Z" fill="#253E67"/>
<path d="M6.44945 29.4127L6.14258 29.2356L6.2252 29.0586L6.53207 29.2356L6.44945 29.4127Z" fill="#253E67"/>
<path d="M18.7952 10.3982L18.4883 10.2211V7.9668L18.7952 8.14384V10.3982Z" fill="#253E67"/>
<path d="M17.5803 10.1145L17.2734 9.9375L18.4773 10.2208L18.7842 10.3978L17.5803 10.1145Z" fill="#253E67"/>
<path d="M14.6985 15.4377L14.3916 15.2606L15.3122 13.2188L15.6191 13.3958L14.6985 15.4377Z" fill="#253E67"/>
<path d="M9.71898 23.2513L9.41211 23.0742L10.7222 23.3811L11.0291 23.5581L9.71898 23.2513Z" fill="#253E67"/>
<path d="M6.84008 28.5744L6.5332 28.3974L7.45382 26.3555L7.76069 26.5325L6.84008 28.5744Z" fill="#253E67"/>
<path d="M15.928 12.7227L15.6211 12.5457L16.5417 10.5156L16.8486 10.6927L15.928 12.7227Z" fill="#253E67"/>
<path d="M10.9465 20.5481L10.6396 20.3711L11.9498 20.678L12.2566 20.855L10.9465 20.5481Z" fill="#253E67"/>
<path d="M8.05492 25.8595L7.74805 25.6825L8.66866 23.6406L8.97554 23.8177L8.05492 25.8595Z" fill="#253E67"/>
<path d="M17.1555 10.0197L16.8486 9.84266L17.7693 7.80078L18.0761 7.97782L17.1555 10.0197Z" fill="#253E67"/>
<path d="M12.1614 17.8333L11.8545 17.6562L13.1646 17.9631L13.4715 18.1402L12.1614 17.8333Z" fill="#253E67"/>
<path d="M18.3821 7.3055L18.0752 7.12846L18.4765 6.23145L18.7834 6.40849L18.3821 7.3055Z" fill="#253E67"/>
<path d="M9.28148 23.1563L8.97461 22.9793L9.89523 20.9492L10.2021 21.1263L9.28148 23.1563Z" fill="#253E67"/>
<path d="M4.5139 30.5337L4.20703 30.3566L6.14269 29.2354L6.44956 29.4124L4.5139 30.5337Z" fill="#253E67"/>
<path d="M13.3909 15.1311L13.084 14.9541L14.3941 15.261L14.701 15.438L13.3909 15.1311Z" fill="#253E67"/>
<path d="M10.509 20.4416L10.2021 20.2645L11.1228 18.2227L11.4296 18.3997L10.509 20.4416Z" fill="#253E67"/>
<path d="M5.51683 28.2669L5.20996 28.0898L6.52007 28.3967L6.82694 28.5738L5.51683 28.2669Z" fill="#253E67"/>
<path d="M14.6174 12.4163L14.3105 12.2393L15.6207 12.5461L15.9275 12.7232L14.6174 12.4163Z" fill="#253E67"/>
<path d="M11.7385 17.7393L11.4316 17.5623L12.3523 15.5322L12.6591 15.7093L11.7385 17.7393Z" fill="#253E67"/>
<path d="M18.0998 7.5891L17.8047 7.41206V6.18457L18.0998 6.36161V7.5891Z" fill="#253E67"/>
<path d="M6.74437 25.553L6.4375 25.376L7.74761 25.6828L8.05448 25.8599L6.74437 25.553Z" fill="#253E67"/>
<path d="M4.5139 29.4362L4.20703 29.2592L4.4785 28.6572L4.78537 28.8343L4.5139 29.4362Z" fill="#253E67"/>
<path d="M15.845 9.71317L15.5381 9.53613L16.8482 9.84301L17.1551 10.02L15.845 9.71317Z" fill="#253E67"/>
<path d="M12.9524 15.0246L12.6455 14.8475L13.5661 12.8057L13.873 12.9827L12.9524 15.0246Z" fill="#253E67"/>
<path d="M7.97387 22.8499L7.66699 22.6729L8.9771 22.9797L9.28398 23.1568L7.97387 22.8499Z" fill="#253E67"/>
<path d="M5.09203 28.1612L4.78516 27.9842L5.70577 25.9541L6.01265 26.1311L5.09203 28.1612Z" fill="#253E67"/>
<path d="M16.4474 8.15556L16.1523 7.97852L17.4152 8.27359L17.7103 8.45063L16.4474 8.15556Z" fill="#253E67"/>
<path d="M14.1799 12.3224L13.873 12.1453L14.7937 10.1152L15.1005 10.2923L14.1799 12.3224Z" fill="#253E67"/>
<path d="M9.20043 20.136L8.89355 19.959L10.2037 20.2659L10.5105 20.4429L9.20043 20.136Z" fill="#253E67"/>
<path d="M6.32152 25.4591L6.01465 25.282L6.93527 23.252L7.24214 23.429L6.32152 25.4591Z" fill="#253E67"/>
<path d="M4.50121 28.0315L4.19434 27.8545L4.77267 27.9843L5.07955 28.1614L4.50121 28.0315Z" fill="#253E67"/>
<path d="M17.6281 5.54716L17.333 5.37012L17.7933 5.47634L18.0884 5.65338L17.6281 5.54716Z" fill="#253E67"/>
<path d="M15.4094 9.6076L15.1025 9.43055L16.0232 7.38867L16.33 7.56571L15.4094 9.6076Z" fill="#253E67"/>
<path d="M18.0998 5.65386L17.8047 5.47682V4.34375L18.0998 4.52079V5.65386Z" fill="#253E67"/>
<path d="M10.428 17.4212L10.1211 17.2441L11.4312 17.551L11.7381 17.7281L10.428 17.4212Z" fill="#253E67"/>
<path d="M7.54808 22.7442L7.24121 22.5672L8.16183 20.5371L8.4687 20.7142L7.54808 22.7442Z" fill="#253E67"/>
<path d="M16.0343 8.06111L15.7393 7.88407L16.6245 5.9248L16.9195 6.10185L16.0343 8.06111Z" fill="#253E67"/>
<path d="M11.6418 14.7181L11.335 14.541L12.6451 14.8479L12.9519 15.0249L11.6418 14.7181Z" fill="#253E67"/>
<path d="M8.76293 20.0412L8.45605 19.8641L9.37667 17.8223L9.68354 17.9993L8.76293 20.0412Z" fill="#253E67"/>
<path d="M17.215 5.45311L16.9199 5.27607L17.4628 4.08398L17.7579 4.26103L17.215 5.45311Z" fill="#253E67"/>
<path d="M5.39867 25.2347L5.0918 25.0576L6.01241 25.2701L6.31929 25.4471L5.39867 25.2347Z" fill="#253E67"/>
<path d="M12.8713 12.0032L12.5645 11.8262L13.8746 12.133L14.1814 12.3101L12.8713 12.0032Z" fill="#253E67"/>
<path d="M9.98949 17.3263L9.68262 17.1493L10.6032 15.1074L10.9101 15.2845L9.98949 17.3263Z" fill="#253E67"/>
<path d="M3.90071 31.5961L3.59383 31.4191L3.58203 27.1465L3.8889 27.3235L3.90071 31.5961Z" fill="#253E67"/>
<path d="M6.62621 22.5315L6.31934 22.3545L7.23995 22.5669L7.54683 22.744L6.62621 22.5315Z" fill="#253E67"/>
<path d="M14.0989 9.30009L13.792 9.12305L15.1021 9.42992L15.409 9.60696L14.0989 9.30009Z" fill="#253E67"/>
<path d="M11.219 14.6114L10.9121 14.4344L11.8327 12.4043L12.1396 12.5813L11.219 14.6114Z" fill="#253E67"/>
<path d="M7.8557 19.8284L7.54883 19.6514L8.45764 19.8638L8.76452 20.0409L7.8557 19.8284Z" fill="#253E67"/>
<path d="M14.7707 7.75419L14.4756 7.57715L15.7385 7.87222L16.0336 8.04926L14.7707 7.75419Z" fill="#253E67"/>
<path d="M12.4338 11.9094L12.127 11.7323L13.0476 9.69043L13.3544 9.86747L12.4338 11.9094Z" fill="#253E67"/>
<path d="M9.08226 17.1136L8.77539 16.9365L9.68421 17.149L9.99108 17.326L9.08226 17.1136Z" fill="#253E67"/>
<path d="M16.1281 5.19364L15.833 5.0166L16.9189 5.27626L17.2139 5.4533L16.1281 5.19364Z" fill="#253E67"/>
<path d="M13.6614 9.19443L13.3545 9.01738L14.2751 6.9873L14.582 7.16435L13.6614 9.19443Z" fill="#253E67"/>
<path d="M10.3215 14.3997L10.0146 14.2227L10.9117 14.4351L11.2185 14.6121L10.3215 14.3997Z" fill="#253E67"/>
<path d="M14.3576 7.65974L14.0625 7.4827L14.9477 5.52344L15.2428 5.70048L14.3576 7.65974Z" fill="#253E67"/>
<path d="M11.5491 11.6966L11.2422 11.5195L12.1392 11.732L12.4461 11.909L11.5491 11.6966Z" fill="#253E67"/>
<path d="M12.7756 8.98173L12.4688 8.80469L13.354 9.01714L13.6608 9.19418L12.7756 8.98173Z" fill="#253E67"/>
<path d="M13.5089 7.45927L13.2139 7.28223L14.0637 7.48287L14.3587 7.65992L13.5089 7.45927Z" fill="#253E67"/>
<path d="M13.6613 5.93697L13.3662 5.75993L18.3942 2.85645L18.6893 3.03349L13.6613 5.93697Z" fill="#253E67"/>
<path d="M14.1699 4.68549L19.3867 1.67578L19.4457 22.6257L3.90145 31.5959L3.88965 27.3232L14.1699 4.68549ZM15.3502 19.321L14.4295 21.3628L15.7397 21.6697L16.6603 19.6278L15.3502 19.321ZM11.4316 18.4003L10.1215 18.1053L9.2009 20.1471L10.511 20.454L11.4316 18.4003ZM5.51843 28.2675L6.82854 28.5743L7.74916 26.5443L6.43905 26.2374L5.51843 28.2675ZM12.6827 20.9497L13.9928 21.2566L14.9135 19.2147L13.6033 18.9079L12.6827 20.9497ZM9.41335 23.924L8.49274 25.9659L9.80285 26.2728L10.7235 24.2309L9.41335 23.924ZM15.1023 10.28L13.7922 9.97314L12.8716 12.0032L14.1817 12.3101L15.1023 10.28ZM17.156 10.0204L18.0766 7.97847L16.7665 7.6716L15.8459 9.71348L17.156 10.0204ZM13.1784 18.8134L11.8683 18.5066L10.9477 20.5484L12.2578 20.8553L13.1784 18.8134ZM13.8866 12.9829L12.5765 12.676L11.6559 14.7179L12.966 15.0247L13.8866 12.9829ZM8.97665 23.8296L7.66654 23.5227L6.74592 25.5646L8.05603 25.8715L8.97665 23.8296ZM16.4478 15.8391L17.3684 13.7972L16.0583 13.4904L15.1377 15.5205L16.4478 15.8391ZM9.72023 23.2513L11.0303 23.5582L11.951 21.5281L10.6408 21.2212L9.72023 23.2513ZM14.6184 12.4163L15.9285 12.7232L16.8491 10.6931L15.539 10.3862L14.6184 12.4163ZM12.6591 15.6975L11.349 15.3906L10.4284 17.4325L11.7385 17.7394L12.6591 15.6975ZM12.1634 17.8338L13.4735 18.1407L14.3941 16.1106L13.084 15.8037L12.1634 17.8338ZM10.2041 21.115L8.89403 20.8081L7.97341 22.85L9.28352 23.1569L10.2041 21.115ZM14.8308 16.205L13.9102 18.2469L15.2203 18.5538L16.1409 16.5119L14.8308 16.205ZM16.1764 21.7759L17.4865 22.0828L18.4071 20.0409L17.097 19.7341L16.1764 21.7759ZM17.5573 4.86253L16.2472 4.55566L15.3266 6.58574L16.6367 6.89261L17.5573 4.86253ZM16.3652 12.8294L17.6753 13.1363L18.5959 11.1062L17.2858 10.7993L16.3652 12.8294ZM14.701 15.4378L15.6216 13.4078L14.3115 13.1009L13.3909 15.131L14.701 15.4378ZM15.657 18.66L16.9671 18.9669L17.8878 16.9368L16.5776 16.6299L15.657 18.66ZM15.4092 9.60726L16.3298 7.57718L15.0197 7.2703L14.0991 9.30038L15.4092 9.60726ZM12.3759 21.6343L11.4552 23.6644L12.7653 23.9713L13.686 21.9412L12.3759 21.6343ZM13.202 24.0775L14.5122 24.3844L15.4328 22.3543L14.1227 22.0474L13.202 24.0775ZM11.29 26.6269L11.6795 26.4026L12.4703 24.644L11.1602 24.3371L10.2395 26.379L11.29 26.6269ZM18.8084 14.8949V14.1395L17.8051 13.9035L16.8845 15.9454L18.1946 16.2522L18.8084 14.8949ZM18.7848 6.4205V5.1458L17.994 4.95696L17.0734 6.99884L18.3835 7.30571L18.7848 6.4205ZM6.32102 23.2041L5.40041 25.2342L6.32102 25.4466L7.24164 23.4165L6.32102 23.2041ZM7.54851 20.4894L6.6279 22.5195L7.54851 22.732L8.46913 20.7019L7.54851 20.4894ZM8.78781 17.7866L7.85539 19.8285L8.7642 20.0409L9.68482 17.999L8.78781 17.7866ZM10.0153 15.0719L9.08288 17.1138L9.99169 17.3263L10.9123 15.2844L10.0153 15.0719ZM11.2428 12.3691L10.3222 14.3992L11.2192 14.6116L12.1398 12.5816L11.2428 12.3691ZM12.4703 9.65447L11.5379 11.6964L12.4349 11.9088L13.3555 9.86692L12.4703 9.65447ZM13.6978 6.95163L12.7771 8.99351L13.6624 9.20596L14.583 7.17588L13.6978 6.95163ZM9.05927 27.9134L9.49597 26.9574L8.18586 26.6505L7.26525 28.6806L7.59572 28.7514L9.05927 27.9134ZM18.8202 19.1321V17.1374L18.3245 17.0194L17.4038 19.0495L18.714 19.3564L18.8202 19.1321ZM16.8963 23.3929L17.1796 22.7556L15.8695 22.4487L14.9489 24.4788L14.9843 24.4906L16.8963 23.3929ZM4.50339 27.2052V28.0314L5.08173 28.1612L6.00235 26.1312L5.08173 25.9187L4.50339 27.2052ZM18.7966 10.398V8.14371L18.5133 8.07289L17.5927 10.103L18.7966 10.398ZM14.4886 5.21662L14.0046 6.27887L14.8898 6.47952L15.8105 4.44944L14.4886 5.21662ZM6.45085 29.4123L6.53347 29.2353L5.22336 28.9284L4.5152 30.4864V30.5218L6.45085 29.4123ZM18.8202 22.2717V20.1826L17.9232 22.189L18.6785 22.3661L18.8202 22.2717ZM12.3168 26.0249L14.0519 25.0217L12.8952 24.7384L12.3168 26.0249ZM18.4189 2.95048L16.7311 3.91831L17.8642 4.17797L18.4189 2.95048ZM18.7966 13.4078V11.72L18.112 13.2425L18.7966 13.4078ZM18.773 4.40223V3.22195L18.2891 4.2842L18.773 4.40223ZM9.70842 27.5357L10.3694 27.158L9.92087 27.0518L9.70842 27.5357ZM4.5152 28.775V29.4477L4.78666 28.8458L4.5152 28.775ZM18.8084 16.3939V15.9454L18.6313 16.3585L18.8084 16.3939ZM17.5455 23.0152L17.7579 22.8972L17.6163 22.8618L17.5455 23.0152Z" fill="#3264A5"/>
<path d="M3.8889 27.3236L3.58203 27.1465L13.8623 4.50879L14.1691 4.68583L3.8889 27.3236Z" fill="#565656"/>
<path d="M4.30152 31.7847L3.99464 31.6076L3.92383 8.94629L4.2307 9.12333L4.30152 31.7847Z" fill="#FDD47A"/>
<path d="M4.2307 9.12356L3.92383 8.94652L19.4209 0L19.7278 0.177042L4.2307 9.12356Z" fill="#FDD47A"/>
<path d="M19.7285 0.176758L19.7993 22.8381L4.30226 31.7846L4.23145 9.12327L19.7285 0.176758Z" fill="#FABA3B"/>
<path d="M7.06202 6.29102V8.02603L5.20898 9.08828V7.35327L7.06202 6.29102Z" fill="#E8F5FC"/>
<path d="M4.93824 32.1509L4.63136 31.9739L4.56055 9.3125L4.86742 9.48954L4.93824 32.1509Z" fill="#7AB974"/>
<path d="M4.86742 9.48977L4.56055 9.31273L20.0576 0.366211L20.3645 0.543253L4.86742 9.48977Z" fill="#7AB974"/>
<path d="M20.3652 0.542969L20.436 23.2043L4.93898 32.1508L4.86816 9.48948L20.3652 0.542969Z" fill="#458538"/>
<path d="M9.35108 5.72461V7.45962L7.49805 8.52187V6.78686L9.35108 5.72461Z" fill="#3264A5"/>
<path d="M5.57593 32.5171L5.26906 32.3401L5.19824 9.67871L5.50511 9.85575L5.57593 32.5171Z" fill="#B4CDE7"/>
<path d="M5.50512 9.85509L5.19824 9.67804L20.6953 0.719727L21.0022 0.896768L5.50512 9.85509Z" fill="#B4CDE7"/>
<path d="M21.0019 0.90918L21.0728 23.5705L5.5757 32.5171L5.50488 9.8557L21.0019 0.90918Z" fill="#3264A5"/>
<path d="M11.6909 5.08691V6.82192L9.83789 7.88418V6.14917L11.6909 5.08691Z" fill="#CF512A"/>
<path d="M6.21469 32.8824L5.90781 32.7054L5.8252 10.0322L6.13207 10.2093L6.21469 32.8824Z" fill="#E55575"/>
<path d="M6.13207 10.2095L5.8252 10.0325L21.3341 1.08594L21.6409 1.26298L6.13207 10.2095Z" fill="#CF512A"/>
<path d="M21.6396 1.2627L21.7105 23.9241L6.2134 32.8824L6.14258 10.221L21.6396 1.2627Z" fill="#9B3931"/>
<path d="M13.7344 5.58301V7.259L11.9521 8.28585V6.60985L13.7344 5.58301Z" fill="#F8BA49"/>
<path d="M6.85141 33.2368L6.54453 33.0598L6.46191 10.3984L6.76879 10.5755L6.85141 33.2368Z" fill="#F4A411"/>
<path d="M6.76879 10.5757L6.46191 10.3987L21.959 1.45215L22.2658 1.62919L6.76879 10.5757Z" fill="#F4A411"/>
<path d="M22.2783 1.62891L22.3491 24.2903L6.85207 33.2368L6.78125 10.5754L22.2783 1.62891Z" fill="#EB7A23"/>
<path d="M22.6086 24.6562L22.3018 24.4792L22.4552 24.3848L22.7621 24.5618L22.6086 24.6562Z" fill="#253E67"/>
<path d="M21.4875 25.3048L21.1807 25.1278L21.3931 25.0098L21.7 25.1868L21.4875 25.3048Z" fill="#253E67"/>
<path d="M21.8518 24.4788L21.5449 24.3018L22.3003 24.4788L22.6072 24.6558L21.8518 24.4788Z" fill="#253E67"/>
<path d="M22.761 24.562L22.4541 24.385V22.2959L22.761 22.4729V24.562Z" fill="#253E67"/>
<path d="M20.8381 25.6826L20.5312 25.5055L20.8145 24.8682L21.1214 25.0452L20.8381 25.6826Z" fill="#253E67"/>
<path d="M21.4289 24.3732L21.1221 24.1962L22.0427 22.1543L22.3496 22.3313L21.4289 24.3732Z" fill="#253E67"/>
<path d="M22.6555 21.6699L22.3486 21.4929L22.4549 21.2568L22.7617 21.4339L22.6555 21.6699Z" fill="#253E67"/>
<path d="M18.925 26.7806L18.6182 26.6036L20.5302 25.4941L20.8371 25.6712L18.925 26.7806Z" fill="#253E67"/>
<path d="M18.8909 26.7806L18.584 26.6035L18.6194 26.6153L18.9263 26.7924L18.8909 26.7806Z" fill="#253E67"/>
<path d="M20.1184 24.0657L19.8115 23.8887L21.1216 24.1955L21.4285 24.3726L20.1184 24.0657Z" fill="#253E67"/>
<path d="M22.761 21.4226L22.4541 21.2456V19.2627L22.761 19.4397V21.4226Z" fill="#253E67"/>
<path d="M21.345 21.3626L21.0381 21.1855L22.3482 21.4924L22.6551 21.6695L21.345 21.3626Z" fill="#253E67"/>
<path d="M18.4661 26.6739L18.1592 26.4969L19.0798 24.4668L19.3867 24.6438L18.4661 26.6739Z" fill="#253E67"/>
<path d="M22.5598 18.6487L22.2529 18.4717L22.4418 18.5071L22.7486 18.6841L22.5598 18.6487Z" fill="#253E67"/>
<path d="M19.6799 23.9719L19.373 23.7948L20.2937 21.7529L20.6005 21.93L19.6799 23.9719Z" fill="#253E67"/>
<path d="M22.7493 18.6959L22.4424 18.5188V18.0703L22.7493 18.2474V18.6959Z" fill="#253E67"/>
<path d="M20.9075 21.257L20.6006 21.08L21.5212 19.0381L21.8281 19.2151L20.9075 21.257Z" fill="#253E67"/>
<path d="M22.137 18.5539L21.8301 18.3769L22.4438 17.0195L22.7507 17.1966L22.137 18.5539Z" fill="#253E67"/>
<path d="M16.258 28.315L15.9512 28.138L17.6862 27.1348L17.9931 27.3118L16.258 28.315Z" fill="#253E67"/>
<path d="M17.1428 26.3675L16.8359 26.1904L18.146 26.4973L18.4529 26.6743L17.1428 26.3675Z" fill="#253E67"/>
<path d="M22.7493 17.1854L22.4424 17.0083V16.2529L22.7493 16.43V17.1854Z" fill="#253E67"/>
<path d="M18.3694 23.6526L18.0625 23.4756L19.3726 23.7825L19.6795 23.9595L18.3694 23.6526Z" fill="#253E67"/>
<path d="M15.6086 28.6925L15.3018 28.5155L16.0925 26.7568L16.3994 26.9339L15.6086 28.6925Z" fill="#253E67"/>
<path d="M15.2327 28.9169L14.9258 28.7399L15.3035 28.5156L15.6103 28.6927L15.2327 28.9169Z" fill="#253E67"/>
<path d="M19.5989 20.9495L19.292 20.7725L20.6021 21.0793L20.909 21.2564L19.5989 20.9495Z" fill="#253E67"/>
<path d="M16.7073 26.2609L16.4004 26.0839L17.321 24.042L17.6279 24.219L16.7073 26.2609Z" fill="#253E67"/>
<path d="M20.8137 18.2356L20.5068 18.0586L21.8169 18.3655L22.1238 18.5425L20.8137 18.2356Z" fill="#253E67"/>
<path d="M17.9348 23.5588L17.6279 23.3817L18.5485 21.3398L18.8554 21.5169L17.9348 23.5588Z" fill="#253E67"/>
<path d="M22.053 15.5325L21.7461 15.3555L22.4425 15.5207L22.7493 15.6977L22.053 15.5325Z" fill="#253E67"/>
<path d="M19.1614 20.8439L18.8545 20.6669L19.7751 18.625L20.082 18.802L19.1614 20.8439Z" fill="#253E67"/>
<path d="M13.6487 29.8252L13.3418 29.6482L14.0028 29.2705L14.3096 29.4475L13.6487 29.8252Z" fill="#253E67"/>
<path d="M22.7366 15.6978L22.4297 15.5208V13.833L22.7366 14.01V15.6978Z" fill="#253E67"/>
<path d="M14.1799 28.6692L13.873 28.4922L14.9235 28.74L15.2304 28.9171L14.1799 28.6692Z" fill="#253E67"/>
<path d="M20.3889 18.1408L20.082 17.9638L21.0026 15.9219L21.3095 16.0989L20.3889 18.1408Z" fill="#253E67"/>
<path d="M15.3967 25.9661L15.0898 25.7891L16.4 26.0959L16.7068 26.273L15.3967 25.9661Z" fill="#253E67"/>
<path d="M12.9993 30.2034L12.6924 30.0263L13.1291 29.0703L13.436 29.2474L12.9993 30.2034Z" fill="#253E67"/>
<path d="M21.6155 15.4259L21.3086 15.2488L22.2292 13.2188L22.5361 13.3958L21.6155 15.4259Z" fill="#253E67"/>
<path d="M16.6243 23.2513L16.3174 23.0742L17.6275 23.3929L17.9344 23.5699L16.6243 23.2513Z" fill="#253E67"/>
<path d="M13.7444 28.5627L13.4375 28.3856L14.3581 26.3438L14.665 26.5208L13.7444 28.5627Z" fill="#253E67"/>
<path d="M17.8508 20.5364L17.5439 20.3594L18.8541 20.6662L19.1609 20.8433L17.8508 20.5364Z" fill="#253E67"/>
<path d="M14.9719 25.8477L14.665 25.6707L15.5857 23.6406L15.8925 23.8177L14.9719 25.8477Z" fill="#253E67"/>
<path d="M11.5491 31.0415L11.2422 30.8644L12.7057 30.0146L13.0126 30.1917L11.5491 31.0415Z" fill="#253E67"/>
<path d="M19.0784 17.8225L18.7715 17.6455L20.0816 17.9524L20.3885 18.1294L19.0784 17.8225Z" fill="#253E67"/>
<path d="M16.1985 23.1457L15.8916 22.9686L16.8122 20.9268L17.1191 21.1038L16.1985 23.1457Z" fill="#253E67"/>
<path d="M11.2073 30.97L10.9004 30.793L11.2309 30.8638L11.5377 31.0408L11.2073 30.97Z" fill="#253E67"/>
<path d="M20.3078 15.1194L20.001 14.9424L21.3111 15.2493L21.618 15.4263L20.3078 15.1194Z" fill="#253E67"/>
<path d="M17.4153 20.4308L17.1084 20.2537L18.029 18.2236L18.3359 18.4007L17.4153 20.4308Z" fill="#253E67"/>
<path d="M12.4338 28.2561L12.127 28.0791L13.4371 28.386L13.7439 28.563L12.4338 28.2561Z" fill="#253E67"/>
<path d="M10.3928 31.7027L10.0859 31.5257L10.1686 31.3486L10.4754 31.5257L10.3928 31.7027Z" fill="#253E67"/>
<path d="M22.7386 12.6999L22.4317 12.5229L22.4199 10.2686L22.7268 10.4456L22.7386 12.6999Z" fill="#253E67"/>
<path d="M21.5217 12.4046L21.2148 12.2275L22.4187 12.5108L22.7256 12.6878L21.5217 12.4046Z" fill="#253E67"/>
<path d="M18.6428 17.7276L18.3359 17.5506L19.2566 15.5205L19.5634 15.6975L18.6428 17.7276Z" fill="#253E67"/>
<path d="M13.6614 25.5413L13.3545 25.3643L14.6646 25.6711L14.9715 25.8482L13.6614 25.5413Z" fill="#253E67"/>
<path d="M10.7815 30.8643L10.4746 30.6873L11.3952 28.6572L11.7021 28.8343L10.7815 30.8643Z" fill="#253E67"/>
<path d="M19.8694 15.0128L19.5625 14.8357L20.4831 12.8057L20.79 12.9827L19.8694 15.0128Z" fill="#253E67"/>
<path d="M14.8879 22.8382L14.5811 22.6611L15.8912 22.968L16.198 23.145L14.8879 22.8382Z" fill="#253E67"/>
<path d="M11.9963 28.1496L11.6895 27.9725L12.6101 25.9307L12.9169 26.1077L11.9963 28.1496Z" fill="#253E67"/>
<path d="M21.0969 12.3107L20.79 12.1337L21.7107 10.0918L22.0175 10.2688L21.0969 12.3107Z" fill="#253E67"/>
<path d="M16.1047 20.1233L15.7979 19.9463L17.108 20.2532L17.4148 20.4302L16.1047 20.1233Z" fill="#253E67"/>
<path d="M22.3235 9.59554L22.0166 9.4185L22.4179 8.52148L22.7248 8.69853L22.3235 9.59554Z" fill="#253E67"/>
<path d="M13.2258 25.4465L12.9189 25.2694L13.8396 23.2275L14.1464 23.4046L13.2258 25.4465Z" fill="#253E67"/>
<path d="M8.45531 32.8237L8.14844 32.6467L10.0841 31.5254L10.391 31.7024L8.45531 32.8237Z" fill="#253E67"/>
<path d="M17.3323 17.4212L17.0254 17.2441L18.3355 17.551L18.6424 17.7281L17.3323 17.4212Z" fill="#253E67"/>
<path d="M14.4524 22.7326L14.1455 22.5556L15.0661 20.5137L15.373 20.6907L14.4524 22.7326Z" fill="#253E67"/>
<path d="M9.45824 30.5569L9.15137 30.3799L10.4733 30.6868L10.7802 30.8638L9.45824 30.5569Z" fill="#253E67"/>
<path d="M18.5588 14.7063L18.252 14.5293L19.5621 14.8362L19.8689 15.0132L18.5588 14.7063Z" fill="#253E67"/>
<path d="M15.6799 20.0295L15.373 19.8524L16.2937 17.8105L16.6005 17.9876L15.6799 20.0295Z" fill="#253E67"/>
<path d="M22.7268 8.71053L22.4199 8.53349V7.25879L22.7268 7.43583V8.71053Z" fill="#253E67"/>
<path d="M10.6877 27.8431L10.3809 27.666L11.691 27.9729L11.9978 28.1499L10.6877 27.8431Z" fill="#253E67"/>
<path d="M8.45531 31.738L8.14844 31.5609L8.4199 30.959L8.72677 31.136L8.45531 31.738Z" fill="#253E67"/>
<path d="M19.7864 12.0032L19.4795 11.8262L20.7896 12.133L21.0965 12.3101L19.7864 12.0032Z" fill="#253E67"/>
<path d="M16.8948 17.3146L16.5879 17.1376L17.5085 15.0957L17.8154 15.2727L16.8948 17.3146Z" fill="#253E67"/>
<path d="M11.9153 25.1399L11.6084 24.9629L12.9185 25.2698L13.2254 25.4468L11.9153 25.1399Z" fill="#253E67"/>
<path d="M9.03539 30.4513L8.72852 30.2743L9.64913 28.2324L9.95601 28.4095L9.03539 30.4513Z" fill="#253E67"/>
<path d="M21.0032 9.28837L20.6963 9.11133L22.0064 9.4182L22.3133 9.59524L21.0032 9.28837Z" fill="#253E67"/>
<path d="M18.1243 14.6115L17.8174 14.4345L18.738 12.3926L19.0449 12.5696L18.1243 14.6115Z" fill="#253E67"/>
<path d="M13.1418 22.4251L12.835 22.248L14.1451 22.5549L14.4519 22.732L13.1418 22.4251Z" fill="#253E67"/>
<path d="M10.2629 27.7481L9.95605 27.5711L10.8767 25.541L11.1835 25.7181L10.2629 27.7481Z" fill="#253E67"/>
<path d="M8.44555 30.3216L8.13867 30.1445L8.71701 30.2744L9.02388 30.4514L8.44555 30.3216Z" fill="#253E67"/>
<path d="M21.4269 7.75419L21.1318 7.57715L21.5921 7.68337L21.8872 7.86042L21.4269 7.75419Z" fill="#253E67"/>
<path d="M19.3508 11.8976L19.0439 11.7205L19.9646 9.69043L20.2714 9.86747L19.3508 11.8976Z" fill="#253E67"/>
<path d="M21.8888 7.86089L21.5938 7.68385V6.55078L21.8888 6.72782V7.86089Z" fill="#253E67"/>
<path d="M14.3694 19.7229L14.0625 19.5459L15.3726 19.8528L15.6795 20.0298L14.3694 19.7229Z" fill="#253E67"/>
<path d="M11.4778 25.0334L11.1709 24.8563L12.0915 22.8145L12.3984 22.9915L11.4778 25.0334Z" fill="#253E67"/>
<path d="M20.5784 9.18279L20.2715 9.00575L21.1921 6.96387L21.499 7.14091L20.5784 9.18279Z" fill="#253E67"/>
<path d="M15.5862 17.0081L15.2793 16.8311L16.5894 17.1379L16.8963 17.315L15.5862 17.0081Z" fill="#253E67"/>
<path d="M12.7043 22.3312L12.3975 22.1542L13.3181 20.1123L13.625 20.2893L12.7043 22.3312Z" fill="#253E67"/>
<path d="M21.0138 7.64842L20.7188 7.47138L21.2617 6.2793L21.5567 6.45634L21.0138 7.64842Z" fill="#253E67"/>
<path d="M9.34105 27.5237L9.03418 27.3467L9.9548 27.5591L10.2617 27.7362L9.34105 27.5237Z" fill="#253E67"/>
<path d="M16.8137 14.2933L16.5068 14.1162L17.8169 14.4231L18.1238 14.6001L16.8137 14.2933Z" fill="#253E67"/>
<path d="M13.9338 19.6164L13.627 19.4393L14.5476 17.3975L14.8544 17.5745L13.9338 19.6164Z" fill="#253E67"/>
<path d="M7.84309 33.898L7.53622 33.7209L7.52441 29.4365L7.83129 29.6136L7.84309 33.898Z" fill="#253E67"/>
<path d="M10.5705 24.8216L10.2637 24.6445L11.1843 24.857L11.4912 25.034L10.5705 24.8216Z" fill="#253E67"/>
<path d="M18.0403 11.5901L17.7334 11.4131L19.0435 11.72L19.3504 11.897L18.0403 11.5901Z" fill="#253E67"/>
<path d="M15.1614 16.9015L14.8545 16.7244L15.7751 14.6943L16.082 14.8714L15.1614 16.9015Z" fill="#253E67"/>
<path d="M11.7971 22.1184L11.4902 21.9414L12.399 22.1539L12.7059 22.3309L11.7971 22.1184Z" fill="#253E67"/>
<path d="M19.2668 8.87528L18.96 8.69824L20.2701 9.00512L20.5769 9.18216L19.2668 8.87528Z" fill="#253E67"/>
<path d="M16.3752 14.1984L16.0684 14.0214L16.989 11.9795L17.2959 12.1565L16.3752 14.1984Z" fill="#253E67"/>
<path d="M13.0237 19.4036L12.7168 19.2266L13.6256 19.439L13.9325 19.6161L13.0237 19.4036Z" fill="#253E67"/>
<path d="M19.9289 7.40067L19.6338 7.22363L20.7196 7.48329L21.0147 7.66034L19.9289 7.40067Z" fill="#253E67"/>
<path d="M17.6028 11.4845L17.2959 11.3074L18.2165 9.27734L18.5234 9.45439L17.6028 11.4845Z" fill="#253E67"/>
<path d="M14.2629 16.6888L13.9561 16.5117L14.8531 16.7242L15.1599 16.9012L14.2629 16.6888Z" fill="#253E67"/>
<path d="M18.8323 8.78134L18.5254 8.6043L19.446 6.57422L19.7529 6.75126L18.8323 8.78134Z" fill="#253E67"/>
<path d="M15.4905 13.9866L15.1836 13.8096L16.0806 14.022L16.3875 14.1991L15.4905 13.9866Z" fill="#253E67"/>
<path d="M16.717 11.2718L16.4102 11.0947L17.2954 11.3072L17.6022 11.4842L16.717 11.2718Z" fill="#253E67"/>
<path d="M17.9465 8.56864L17.6396 8.3916L18.5249 8.59225L18.8317 8.76929L17.9465 8.56864Z" fill="#253E67"/>
<path d="M17.4503 8.144L17.1553 7.96696L22.1833 5.06348L22.4783 5.24052L17.4503 8.144Z" fill="#253E67"/>
<path d="M18.1113 6.98762L23.635 3.78906L23.694 24.739L7.84286 33.898L7.83105 29.6254L18.1113 6.98762ZM19.2916 21.6231L18.3709 23.665L19.6811 23.9718L20.6017 21.93L19.2916 21.6231ZM15.373 20.7025L14.0511 20.3956L13.1305 22.4375L14.4406 22.7443L15.373 20.7025ZM9.45984 30.5578L10.7699 30.8647L11.6906 28.8346L10.3805 28.5277L9.45984 30.5578ZM16.6241 23.2519L17.9342 23.5587L18.8549 21.5169L17.5448 21.21L16.6241 23.2519ZM13.3548 26.2144L12.4341 28.2562L13.7443 28.5631L14.6649 26.5212L13.3548 26.2144ZM19.0437 12.5703L17.7336 12.2635L16.813 14.2935L18.1231 14.6004L19.0437 12.5703ZM21.0974 12.3107L22.018 10.2688L20.7079 9.96192L19.7873 12.0038L21.0974 12.3107ZM17.1199 21.1038L15.8097 20.7969L14.8891 22.8388L16.1992 23.1456L17.1199 21.1038ZM17.828 15.285L16.5179 14.9781L15.5973 17.02L16.9074 17.3269L17.828 15.285ZM12.9181 26.1199L11.6079 25.8131L10.6873 27.8549L11.9974 28.1618L12.9181 26.1199ZM20.3892 18.1413L21.3098 16.0994L19.9997 15.7925L19.0791 17.8226L20.3892 18.1413ZM13.6616 25.5416L14.9717 25.8485L15.8924 23.8184L14.5823 23.5115L13.6616 25.5416ZM18.5598 14.7066L19.8699 15.0135L20.7905 12.9834L19.4804 12.6766L18.5598 14.7066ZM16.6005 17.9878L15.2904 17.6809L14.3698 19.7228L15.6799 20.0297L16.6005 17.9878ZM16.1048 20.1241L17.4149 20.431L18.3355 18.4009L17.0254 18.094L16.1048 20.1241ZM14.1455 23.4171L12.8354 23.1102L11.9148 25.1403L13.2249 25.4472L14.1455 23.4171ZM18.7722 18.4953L17.8516 20.5372L19.1617 20.8441L20.0824 18.8022L18.7722 18.4953ZM20.1178 24.0663L21.4279 24.3731L22.3485 22.3312L21.0384 22.0244L20.1178 24.0663ZM21.4987 7.15286L20.1886 6.84599L19.268 8.87606L20.5781 9.18294L21.4987 7.15286ZM20.3066 15.1197L21.6167 15.4266L22.5373 13.3965L21.2272 13.0897L20.3066 15.1197ZM18.6424 17.7282L19.563 15.6981L18.2529 15.3912L17.3323 17.4213L18.6424 17.7282ZM19.5984 20.9503L20.9085 21.2572L21.8292 19.2271L20.5191 18.9202L19.5984 20.9503ZM19.3506 11.8976L20.2712 9.8675L18.9611 9.56063L18.0405 11.5907L19.3506 11.8976ZM16.3173 23.9246L15.3966 25.9547L16.7068 26.2616L17.6274 24.2315L16.3173 23.9246ZM17.1435 26.3678L18.4536 26.6747L19.3742 24.6446L18.0641 24.3377L17.1435 26.3678ZM15.2314 28.9172L15.6209 28.6929L16.4117 26.9343L15.1016 26.6275L14.181 28.6693L15.2314 28.9172ZM22.7498 17.1852V16.4298L21.7465 16.1938L20.8259 18.2357L22.136 18.5426L22.7498 17.1852ZM22.7262 8.71083V7.43612L21.9354 7.24728L21.0148 9.28916L22.3249 9.59604L22.7262 8.71083ZM10.2624 25.4944L9.33001 27.5245L10.2506 27.7369L11.1712 25.7068L10.2624 25.4944ZM11.4899 22.7798L10.5693 24.8098L11.4899 25.0223L12.4105 22.9922L11.4899 22.7798ZM12.7292 20.0769L11.7968 22.1188L12.7056 22.3312L13.6262 20.2894L12.7292 20.0769ZM13.9567 17.3623L13.0361 19.4042L13.9449 19.6166L14.8655 17.5747L13.9567 17.3623ZM15.1842 14.6594L14.2636 16.6895L15.1606 16.902L16.0812 14.8719L15.1842 14.6594ZM16.4117 11.9566L15.4793 13.9985L16.3763 14.2109L17.2969 12.169L16.4117 11.9566ZM17.6392 9.24195L16.7186 11.272L17.6038 11.4845L18.5244 9.4544L17.6392 9.24195ZM13.0007 30.2037L13.4374 29.2477L12.1273 28.9408L11.2067 30.9709L11.5371 31.0417L13.0007 30.2037ZM22.7616 21.4224V19.4278L22.2659 19.3097L21.3453 21.3398L22.6554 21.6467L22.7616 21.4224ZM20.8377 25.6832L21.121 25.0459L19.8109 24.739L18.8903 26.7691L18.9257 26.7809L20.8377 25.6832ZM8.4448 29.4955V30.3217L9.02314 30.4516L9.94375 28.4215L9.02314 28.209L8.4448 29.4955ZM22.738 12.7002L22.7262 10.4458L22.4429 10.375L21.5223 12.4051L22.738 12.7002ZM18.43 7.50694L17.946 8.56919L18.8313 8.76984L19.7519 6.73976L18.43 7.50694ZM10.3923 31.7027L10.4749 31.5256L9.16477 31.2187L8.4566 32.7767V32.8121L10.3923 31.7027ZM22.7616 24.562V22.4729L21.8646 24.4794L22.62 24.6564L22.7616 24.562ZM16.2582 28.3153L17.9933 27.312L16.8366 27.0288L16.2582 28.3153ZM22.3603 5.24081L20.6725 6.22044L21.8056 6.4801L22.3603 5.24081ZM22.738 15.6981V14.0103L22.0534 15.5328L22.738 15.6981ZM22.7144 6.69255V5.51227L22.2305 6.57452L22.7144 6.69255ZM13.6498 29.826L14.3108 29.4483L13.8623 29.3421L13.6498 29.826ZM8.4566 31.0653V31.7381L8.72807 31.1361L8.4566 31.0653ZM22.7498 18.696V18.2475L22.5727 18.6606L22.7498 18.696ZM21.4869 25.3055L21.6993 25.1875L21.5577 25.1521L21.4869 25.3055Z" fill="#3264A5"/>
<path d="M7.83129 29.6136L7.52441 29.4366L17.8046 6.79883L18.1115 6.97587L7.83129 29.6136Z" fill="#253E67"/>
<path d="M7.84284 33.8977L3.59383 31.4309L3.58203 27.1465L7.83104 29.6133L7.84284 33.8977Z" fill="#253E67"/>
<path d="M7.83178 29.613L7.96161 29.3298L4.01948 27.04L3.88965 27.3233L7.83178 29.613Z" fill="#253E67"/>
<path d="M56.2373 42.5249C56.131 42.4541 55.9658 42.4659 55.8006 42.5603L36.2551 54.0917L7.2793 37.2609L25.2313 26.6738C25.4084 26.5675 27.1552 25.6233 27.2732 25.6823L56.2373 42.5249Z" fill="#7BA4D7"/>
<path d="M36.2564 54.1034C36.1738 54.1506 36.103 54.2332 36.0558 54.3159C36.0086 54.4103 35.9731 54.5047 35.9731 54.5991C35.9731 54.6935 36.0086 54.7526 36.0558 54.7762L7.07991 37.9336C7.0327 37.8982 7.0091 37.8392 7.0091 37.7565C6.99729 37.6621 7.0327 37.5559 7.09172 37.4733C7.13893 37.3789 7.20974 37.308 7.29236 37.249L36.2564 54.1034Z" fill="#5E81A0"/>
<path d="M55.7877 42.5606C56.13 42.36 56.4014 42.5252 56.4014 42.9029C56.4014 43.2924 56.13 43.7645 55.7877 43.9533L36.2305 54.7411C36.077 54.8237 35.959 54.7529 35.959 54.5758C35.959 54.4814 35.9944 54.387 36.0416 54.2926C36.0888 54.21 36.1596 54.1273 36.2423 54.0801L55.7877 42.5606Z" fill="#B4CDE7"/>
<path d="M28.3345 27.9246C28.4643 27.9954 28.4525 28.1135 28.3345 28.1843L27.7443 28.5266C27.6145 28.5974 27.4256 28.5974 27.3076 28.5266L26.0329 27.783C25.9031 27.7122 25.9031 27.6059 26.0329 27.5233L26.6231 27.181C26.7411 27.1102 26.9417 27.1102 27.0598 27.181L28.3345 27.9246Z" fill="#253E67"/>
<path d="M27.1299 28.6326C27.2597 28.7034 27.2479 28.8215 27.1299 28.8923L25.8552 29.6359C25.7372 29.7067 25.5365 29.7067 25.4185 29.6359L24.1438 28.8923C24.014 28.8215 24.0258 28.7034 24.1438 28.6326L25.4185 27.8891C25.5365 27.8182 25.7372 27.8182 25.8552 27.8891L27.1299 28.6326Z" fill="#253E67"/>
<path d="M36.1021 32.4099C36.2201 32.4807 36.2201 32.5987 36.1021 32.6695L35.5119 33.0118C35.3821 33.0826 35.1932 33.0826 35.0752 33.0118L33.7887 32.2683C33.6707 32.1974 33.6707 32.0912 33.7887 32.0204L34.3789 31.6781C34.4969 31.6073 34.6975 31.6073 34.8156 31.6781L36.1021 32.4099Z" fill="#253E67"/>
<path d="M34.1538 31.2889C34.2836 31.3597 34.2718 31.4777 34.1538 31.5485L33.5637 31.8908C33.4338 31.9616 33.245 31.9616 33.127 31.8908L31.8523 31.1472C31.7224 31.0764 31.7224 30.9702 31.8523 30.8876L32.4424 30.5453C32.5604 30.4745 32.7611 30.4745 32.8791 30.5453L34.1538 31.2889Z" fill="#253E67"/>
<path d="M32.7607 31.8787C32.8906 31.9495 32.8788 32.0676 32.7607 32.1384L31.486 32.882C31.368 32.9528 31.1674 32.9528 31.0493 32.882L29.7746 32.1384C29.6448 32.0676 29.6566 31.9495 29.7746 31.8787L31.0493 31.1351C31.1674 31.0643 31.368 31.0643 31.486 31.1351L32.7607 31.8787Z" fill="#253E67"/>
<path d="M38.0479 33.5311C38.166 33.6019 38.166 33.7199 38.0479 33.7907L37.4578 34.133C37.328 34.2038 37.1391 34.2038 37.0211 34.133L35.7346 33.3894C35.6166 33.3186 35.6048 33.2124 35.7346 33.1298L36.3247 32.7875C36.4428 32.7167 36.6434 32.7167 36.7614 32.7875L38.0479 33.5311Z" fill="#253E67"/>
<path d="M40.2564 36.2107C40.3744 36.2816 40.3744 36.3996 40.2564 36.4704L38.9817 37.214C38.8636 37.2848 38.663 37.2848 38.5449 37.214L37.2584 36.4704C37.1404 36.3996 37.1404 36.2816 37.2584 36.2107L38.5331 35.4672C38.6512 35.3964 38.8518 35.3964 38.9698 35.4672L40.2564 36.2107Z" fill="#253E67"/>
<path d="M43.8673 36.8943C43.9853 36.9652 43.9853 37.0832 43.8673 37.154L43.2771 37.4963C43.1473 37.5671 42.9585 37.5671 42.8404 37.4963L41.5539 36.7527C41.4359 36.6819 41.4241 36.5757 41.5539 36.4931L42.1441 36.1508C42.2621 36.08 42.4628 36.08 42.5808 36.1508L43.8673 36.8943Z" fill="#253E67"/>
<path d="M42.1329 37.2958C42.2509 37.3666 42.2509 37.4728 42.1329 37.5437L40.8582 38.2872C40.7402 38.358 40.5395 38.358 40.4215 38.2872L39.135 37.5437C39.0052 37.4728 39.017 37.3548 39.135 37.284L40.4097 36.5404C40.5277 36.4696 40.7284 36.4696 40.8464 36.5404L42.1329 37.2958Z" fill="#253E67"/>
<path d="M26.2195 30.238C26.3376 30.3088 26.3376 30.4268 26.2195 30.4976L24.9448 31.2412C24.8268 31.312 24.6262 31.312 24.5081 31.2412L22.301 29.9665C22.1712 29.8957 22.183 29.7777 22.301 29.7068L23.5757 28.9633C23.6937 28.8925 23.8944 28.8925 24.0124 28.9633L26.2195 30.238Z" fill="#253E67"/>
<path d="M28.062 31.3006C28.18 31.3714 28.18 31.4894 28.062 31.5603L26.7873 32.3038C26.6693 32.3747 26.4686 32.3747 26.3506 32.3038L25.0641 31.5603C24.9461 31.4894 24.9461 31.3714 25.0641 31.3006L26.3388 30.557C26.4568 30.4862 26.6575 30.4862 26.7755 30.557L28.062 31.3006Z" fill="#253E67"/>
<path d="M29.9033 32.3621C30.0214 32.4329 30.0214 32.551 29.9033 32.6218L28.6286 33.3654C28.5106 33.4362 28.3099 33.4362 28.1919 33.3654L26.9172 32.6218C26.7874 32.551 26.7992 32.4329 26.9172 32.3621L28.1919 31.6185C28.3099 31.5477 28.5106 31.5477 28.6286 31.6185L29.9033 32.3621Z" fill="#253E67"/>
<path d="M26.6931 32.6336C26.8111 32.7044 26.8111 32.8106 26.6931 32.8815L25.4184 33.625C25.3003 33.6959 25.1115 33.6959 24.9935 33.625L23.7069 32.8815C23.5889 32.8106 23.5771 32.7044 23.6951 32.6336L24.9698 31.89C25.0879 31.8192 25.2885 31.8192 25.4065 31.89L26.6931 32.6336Z" fill="#253E67"/>
<path d="M34.6362 32.9647C34.7543 33.0355 34.7543 33.1535 34.6362 33.2243L33.3615 33.9679C33.2435 34.0387 33.0429 34.0387 32.9248 33.9679L31.6383 33.2243C31.5203 33.1535 31.5203 33.0355 31.6383 32.9647L32.9012 32.2211C33.0193 32.1503 33.2199 32.1503 33.3379 32.2211L34.6362 32.9647Z" fill="#253E67"/>
<path d="M23.8474 33.1181C23.9654 33.1889 23.9654 33.2951 23.8474 33.366L22.5727 34.1095C22.4429 34.1803 22.254 34.1803 22.136 34.1095L18.7014 32.1267C18.5834 32.0558 18.5716 31.9496 18.7014 31.867L19.9761 31.1234C20.0941 31.0526 20.2948 31.0526 20.4128 31.1234L23.8474 33.1181Z" fill="#253E67"/>
<path d="M31.7788 33.4363C31.8968 33.5072 31.8968 33.6252 31.7788 33.696L30.5041 34.4396C30.3861 34.5104 30.1854 34.5104 30.0674 34.4396L28.7809 33.696C28.6629 33.6252 28.6629 33.5072 28.7809 33.4363L30.0556 32.6928C30.1736 32.6219 30.3743 32.6219 30.4923 32.6928L31.7788 33.4363Z" fill="#253E67"/>
<path d="M28.5222 33.696C28.6403 33.7668 28.6403 33.8849 28.5222 33.9557L27.2475 34.6993C27.1295 34.7701 26.9289 34.7701 26.8108 34.6993L25.5243 33.9557C25.4063 33.8849 25.3945 33.7786 25.5125 33.7078L26.7872 32.9642C26.9053 32.8934 27.1059 32.8934 27.2239 32.9642L28.5222 33.696Z" fill="#253E67"/>
<path d="M36.5132 34.0507C36.6312 34.1215 36.6312 34.2277 36.5132 34.2985L35.2385 35.0421C35.1205 35.1129 34.9198 35.1129 34.8018 35.0421L33.5153 34.2985C33.3973 34.2277 33.3973 34.1097 33.5153 34.0389L34.79 33.2953C34.908 33.2245 35.1087 33.2245 35.2267 33.2953L36.5132 34.0507Z" fill="#253E67"/>
<path d="M25.8412 34.1922C25.9711 34.263 25.9593 34.381 25.8412 34.4519L24.5665 35.1954C24.4485 35.2663 24.2479 35.2663 24.1298 35.1954L22.8551 34.4519C22.7371 34.381 22.7371 34.263 22.8551 34.1922L24.1298 33.4486C24.2479 33.3778 24.4485 33.3778 24.5665 33.4486L25.8412 34.1922Z" fill="#253E67"/>
<path d="M33.644 34.5223C33.7738 34.5931 33.762 34.7111 33.644 34.7819L32.3693 35.5255C32.2512 35.5963 32.0506 35.5963 31.9326 35.5255L30.6579 34.7819C30.5398 34.7111 30.5398 34.5931 30.6579 34.5223L31.9326 33.7787C32.0506 33.7079 32.2512 33.7079 32.3693 33.7787L33.644 34.5223Z" fill="#253E67"/>
<path d="M30.3982 34.7702C30.5162 34.8411 30.5162 34.9591 30.3982 35.0299L29.1235 35.7735C29.0055 35.8443 28.8048 35.8443 28.6868 35.7735L27.4003 35.0299C27.2823 34.9591 27.2705 34.8529 27.3885 34.782L28.6632 34.0385C28.7812 33.9676 28.9819 33.9676 29.0999 34.0385L30.3982 34.7702Z" fill="#253E67"/>
<path d="M23.4825 35.0887C23.6006 35.1595 23.6124 35.2657 23.4825 35.3483L22.0544 36.1745C21.9364 36.2454 21.7357 36.2454 21.6177 36.1745L20.343 35.431C20.2132 35.3601 20.225 35.2421 20.343 35.1713L21.7711 34.3451C21.901 34.2743 22.0898 34.2743 22.2078 34.3451L23.4825 35.0887Z" fill="#253E67"/>
<path d="M27.7197 35.2781C27.8496 35.3489 27.8378 35.467 27.7197 35.5378L26.445 36.2814C26.327 36.3522 26.1264 36.3522 26.0083 36.2814L24.7336 35.5378C24.6038 35.467 24.6156 35.3489 24.7336 35.2781L26.0083 34.5346C26.1264 34.4637 26.327 34.4637 26.445 34.5346L27.7197 35.2781Z" fill="#253E67"/>
<path d="M35.5313 35.6082C35.6611 35.679 35.6493 35.7971 35.5313 35.8679L34.2566 36.6115C34.1385 36.6823 33.9379 36.6823 33.8198 36.6115L32.5451 35.8679C32.4153 35.7971 32.4271 35.679 32.5451 35.6082L33.8198 34.8646C33.9379 34.7938 34.1385 34.7938 34.2566 34.8646L35.5313 35.6082Z" fill="#253E67"/>
<path d="M32.2745 35.8562C32.4043 35.927 32.3925 36.045 32.2745 36.1158L30.9998 36.8594C30.8817 36.9302 30.6929 36.9302 30.5631 36.8594L29.2884 36.1158C29.1585 36.045 29.1585 35.9388 29.2766 35.868L30.5513 35.1244C30.6693 35.0536 30.8699 35.0536 30.988 35.1244L32.2745 35.8562Z" fill="#253E67"/>
<path d="M29.5952 36.3641C29.7132 36.4349 29.7132 36.5529 29.5952 36.6237L28.3205 37.3673C28.2025 37.4381 28.0018 37.4381 27.8838 37.3673L26.5973 36.6237C26.4793 36.5529 26.4793 36.4349 26.5973 36.3641L27.872 35.6205C27.99 35.5497 28.1907 35.5497 28.3087 35.6205L29.5952 36.3641Z" fill="#253E67"/>
<path d="M25.7593 36.4108C25.8774 36.4816 25.8774 36.5878 25.7593 36.6586L24.3312 37.4848C24.2132 37.5556 24.0125 37.5556 23.8945 37.4848L22.2067 36.5052C22.0887 36.4344 22.0887 36.3163 22.2067 36.2455L23.6348 35.4193C23.7647 35.3485 23.9535 35.3485 24.0715 35.4193L25.7593 36.4108Z" fill="#253E67"/>
<path d="M37.4097 36.6941C37.5277 36.765 37.5277 36.883 37.4097 36.9538L36.135 37.6974C36.0169 37.7682 35.8163 37.7682 35.6983 37.6974L34.4118 36.9538C34.2937 36.883 34.2937 36.765 34.4118 36.6941L35.6865 35.9506C35.8045 35.8798 36.0051 35.8798 36.1232 35.9506L37.4097 36.6941Z" fill="#253E67"/>
<path d="M34.1511 36.9421C34.2692 37.0129 34.2692 37.131 34.1511 37.2018L32.8764 37.9454C32.7584 38.0162 32.5578 38.0162 32.4397 37.9454L31.1532 37.2018C31.0352 37.131 31.0234 37.0247 31.1414 36.9539L32.4161 36.2103C32.5342 36.1395 32.7348 36.1395 32.8528 36.2103L34.1511 36.9421Z" fill="#253E67"/>
<path d="M31.4731 37.449C31.5912 37.5198 31.5912 37.6379 31.4731 37.7087L30.1984 38.4523C30.0804 38.5231 29.8798 38.5231 29.7617 38.4523L28.4752 37.7087C28.3572 37.6379 28.3572 37.5198 28.4752 37.449L29.7499 36.7055C29.868 36.6346 30.0686 36.6346 30.1866 36.7055L31.4731 37.449Z" fill="#253E67"/>
<path d="M45.8146 38.0164C45.9326 38.0872 45.9326 38.2053 45.8146 38.2761L45.2244 38.6184C45.0946 38.6892 44.9057 38.6892 44.7877 38.6184L43.5012 37.8748C43.3832 37.804 43.3714 37.6977 43.5012 37.6151L44.0913 37.2728C44.2094 37.202 44.41 37.202 44.528 37.2728L45.8146 38.0164Z" fill="#253E67"/>
<path d="M39.2852 37.7802C39.4033 37.851 39.4033 37.9572 39.2852 38.028L38.0105 38.7716C37.8925 38.8424 37.6919 38.8424 37.5738 38.7716L36.2873 38.028C36.1575 37.9572 36.1693 37.8392 36.2873 37.7684L37.562 37.0248C37.6801 36.954 37.8807 36.954 37.9987 37.0248L39.2852 37.7802Z" fill="#253E67"/>
<path d="M36.027 38.0163C36.1569 38.0871 36.1451 38.2052 36.027 38.276L34.7523 39.0196C34.6343 39.0904 34.4455 39.0904 34.3156 39.0196L33.0409 38.276C32.9229 38.2052 32.9111 38.099 33.0291 38.0281L34.3038 37.2846C34.4219 37.2137 34.6225 37.2137 34.7405 37.2846L36.027 38.0163Z" fill="#253E67"/>
<path d="M44.0078 38.3699C44.1376 38.4407 44.1258 38.5588 44.0078 38.6296L42.7331 39.3732C42.6151 39.444 42.4144 39.444 42.2964 39.3732L41.0217 38.6296C40.8919 38.5588 40.9037 38.4407 41.0217 38.3699L42.2964 37.6264C42.4144 37.5555 42.6151 37.5555 42.7331 37.6264L44.0078 38.3699Z" fill="#253E67"/>
<path d="M33.3477 38.535C33.4775 38.6058 33.4657 38.7238 33.3477 38.7946L32.073 39.5382C31.9549 39.609 31.7543 39.609 31.6363 39.5382L30.3616 38.7946C30.2317 38.7238 30.2435 38.6058 30.3616 38.535L31.6363 37.7914C31.7543 37.7206 31.9549 37.7206 32.073 37.7914L33.3477 38.535Z" fill="#253E67"/>
<path d="M47.7485 39.1375C47.8784 39.2083 47.8666 39.3264 47.7485 39.3972L47.1584 39.7395C47.0286 39.8103 46.8397 39.8103 46.7217 39.7395L45.447 38.9959C45.3172 38.9251 45.3172 38.8188 45.447 38.7362L46.0371 38.3939C46.1551 38.3231 46.3558 38.3231 46.4738 38.3939L47.7485 39.1375Z" fill="#253E67"/>
<path d="M41.1514 38.8543C41.2694 38.9251 41.2694 39.0432 41.1514 39.114L39.8767 39.8575C39.7586 39.9284 39.558 39.9284 39.44 39.8575L38.1653 39.114C38.0354 39.0432 38.0472 38.9251 38.1653 38.8543L39.44 38.1107C39.558 38.0399 39.7586 38.0399 39.8767 38.1107L41.1514 38.8543Z" fill="#253E67"/>
<path d="M37.9053 39.1023C38.0351 39.1731 38.0233 39.2911 37.9053 39.3619L36.6306 40.1055C36.5126 40.1763 36.3237 40.1763 36.1939 40.1055L34.9192 39.3619C34.7894 39.2911 34.7894 39.1849 34.9074 39.1141L36.1821 38.3705C36.3001 38.2997 36.5008 38.2997 36.6188 38.3705L37.9053 39.1023Z" fill="#253E67"/>
<path d="M45.8843 39.4559C46.0023 39.5267 46.0023 39.6447 45.8843 39.7155L44.6096 40.4591C44.4916 40.5299 44.2909 40.5299 44.1729 40.4591L42.8864 39.7155C42.7683 39.6447 42.7683 39.5267 42.8864 39.4559L44.1611 38.7123C44.2791 38.6415 44.4797 38.6415 44.5978 38.7123L45.8843 39.4559Z" fill="#253E67"/>
<path d="M35.2261 39.6091C35.3441 39.6799 35.3441 39.7979 35.2261 39.8688L33.9514 40.6123C33.8333 40.6832 33.6327 40.6832 33.5147 40.6123L32.2282 39.8688C32.1101 39.7979 32.1101 39.6917 32.2282 39.6209L33.5029 38.8773C33.6209 38.8065 33.8215 38.8065 33.9396 38.8773L35.2261 39.6091Z" fill="#253E67"/>
<path d="M49.6958 40.2585C49.8138 40.3293 49.8138 40.4474 49.6958 40.5182L49.1057 40.8605C48.9758 40.9313 48.787 40.9313 48.669 40.8605L47.3825 40.1169C47.2644 40.0461 47.2644 39.9398 47.3825 39.869L47.9726 39.5267C48.0906 39.4559 48.2913 39.4559 48.4093 39.5267L49.6958 40.2585Z" fill="#253E67"/>
<path d="M43.0269 39.9402C43.1449 40.0111 43.1449 40.1291 43.0269 40.1999L41.7522 40.9435C41.6341 41.0143 41.4335 41.0143 41.3155 40.9435L40.029 40.1999C39.9109 40.1291 39.9109 40.0111 40.029 39.9402L41.3037 39.1967C41.4217 39.1259 41.6223 39.1259 41.7404 39.1967L43.0269 39.9402Z" fill="#253E67"/>
<path d="M39.782 40.1872C39.9 40.258 39.9 40.3761 39.782 40.4469L38.5073 41.1905C38.3893 41.2613 38.1886 41.2613 38.0706 41.1905L36.7841 40.4469C36.6661 40.3761 36.6543 40.2699 36.7723 40.199L38.047 39.4555C38.165 39.3846 38.3657 39.3846 38.4837 39.4555L39.782 40.1872Z" fill="#253E67"/>
<path d="M47.7602 40.5418C47.89 40.6126 47.8782 40.7307 47.7602 40.8015L46.4855 41.545C46.3674 41.6159 46.1668 41.6159 46.0488 41.545L44.7741 40.8015C44.656 40.7307 44.656 40.6126 44.7741 40.5418L46.0488 39.7982C46.1668 39.7274 46.3674 39.7274 46.4855 39.7982L47.7602 40.5418Z" fill="#253E67"/>
<path d="M37.104 40.6952C37.222 40.766 37.222 40.8723 37.104 40.9431L35.8293 41.6866C35.7113 41.7575 35.5106 41.7575 35.3926 41.6866L34.1061 40.9431C33.9881 40.8723 33.9881 40.7542 34.1061 40.6834L35.3808 39.9398C35.4988 39.869 35.6995 39.869 35.8175 39.9398L37.104 40.6952Z" fill="#253E67"/>
<path d="M51.631 41.3797C51.749 41.4505 51.749 41.5685 51.631 41.6394L51.0408 41.9816C50.911 42.0525 50.7221 42.0525 50.6041 41.9816L49.3176 41.2381C49.1996 41.1672 49.1878 41.061 49.3176 40.9784L49.9077 40.6361C50.0258 40.5653 50.2264 40.5653 50.3444 40.6361L51.631 41.3797Z" fill="#253E67"/>
<path d="M44.9028 41.0135C45.0326 41.0843 45.0208 41.2023 44.9028 41.2731L43.6281 42.0167C43.51 42.0875 43.3094 42.0875 43.1913 42.0167L41.9166 41.2731C41.7986 41.2023 41.7986 41.0843 41.9166 41.0135L43.1913 40.2699C43.3094 40.1991 43.51 40.1991 43.6281 40.2699L44.9028 41.0135Z" fill="#253E67"/>
<path d="M41.659 41.2741C41.777 41.345 41.777 41.463 41.659 41.5338L40.3843 42.2774C40.2662 42.3482 40.0656 42.3482 39.9476 42.2774L38.661 41.5338C38.543 41.463 38.5312 41.3568 38.6492 41.2859L39.9239 40.5424C40.042 40.4716 40.2426 40.4716 40.3607 40.5424L41.659 41.2741Z" fill="#253E67"/>
<path d="M49.6011 41.6043C49.7191 41.6751 49.7191 41.7932 49.6011 41.864L48.3264 42.6075C48.2083 42.6784 48.0077 42.6784 47.8897 42.6075L46.6032 41.864C46.4851 41.7932 46.4851 41.6751 46.6032 41.6043L47.8779 40.8607C47.9959 40.7899 48.1965 40.7899 48.3146 40.8607L49.6011 41.6043Z" fill="#253E67"/>
<path d="M35.1191 41.8165C35.2371 41.8874 35.2489 41.9936 35.1191 42.0762L33.6909 42.9024C33.5729 42.9732 33.3723 42.9732 33.2542 42.9024L24.5202 37.8626C24.4021 37.7918 24.4021 37.6738 24.5202 37.6029L25.9483 36.7767C26.0781 36.7059 26.267 36.7059 26.385 36.7767L35.1191 41.8165Z" fill="#253E67"/>
<path d="M46.7808 42.0993C46.9106 42.1702 46.8988 42.2882 46.7808 42.359L45.5061 43.1026C45.388 43.1734 45.1874 43.1734 45.0694 43.1026L43.7829 42.359C43.6648 42.2882 43.6648 42.182 43.7829 42.1111L45.0576 41.3676C45.1756 41.2967 45.3762 41.2967 45.4943 41.3676L46.7808 42.0993Z" fill="#253E67"/>
<path d="M43.5235 42.3474C43.6533 42.4182 43.6415 42.5362 43.5235 42.607L42.2488 43.3506C42.1308 43.4214 41.9419 43.4214 41.8121 43.3506L40.5374 42.607C40.4075 42.5362 40.4075 42.43 40.5256 42.3592L41.8003 41.6156C41.9183 41.5448 42.119 41.5448 42.237 41.6156L43.5235 42.3474Z" fill="#253E67"/>
<path d="M40.8433 42.867C40.9613 42.9378 40.9613 43.0558 40.8433 43.1267L39.5686 43.8702C39.4505 43.9411 39.2499 43.9411 39.1319 43.8702L37.8454 43.1267C37.7273 43.0558 37.7273 42.9378 37.8454 42.867L39.1201 42.1234C39.2381 42.0526 39.4387 42.0526 39.5568 42.1234L40.8433 42.867Z" fill="#253E67"/>
<path d="M48.6577 43.1854C48.7757 43.2562 48.7757 43.3742 48.6577 43.445L47.383 44.1886C47.265 44.2594 47.0643 44.2594 46.9463 44.1886L45.6598 43.445C45.5418 43.3742 45.5418 43.2562 45.6598 43.1854L46.9345 42.4418C47.0525 42.371 47.2532 42.371 47.3712 42.4418L48.6577 43.1854Z" fill="#253E67"/>
<path d="M52.3753 43.2088C52.4933 43.2796 52.4933 43.3858 52.3753 43.4566L51.1006 44.2002C50.9826 44.271 50.7819 44.271 50.6639 44.2002L48.445 42.9255C48.3269 42.8547 48.3269 42.7366 48.445 42.6658L49.7197 41.9223C49.8377 41.8514 50.0383 41.8514 50.1564 41.9223L52.3753 43.2088Z" fill="#253E67"/>
<path d="M37.421 43.1381C37.5391 43.2089 37.5509 43.3152 37.421 43.3978L35.9929 44.224C35.8749 44.2948 35.6742 44.2948 35.5562 44.224L33.8684 43.2562C33.7386 43.1853 33.7504 43.0673 33.8684 42.9965L35.2965 42.1703C35.4264 42.0995 35.6152 42.0995 35.7332 42.1703L37.421 43.1381Z" fill="#253E67"/>
<path d="M45.4129 43.4333C45.5309 43.5041 45.5309 43.6222 45.4129 43.693L44.1382 44.4366C44.0201 44.5074 43.8195 44.5074 43.7015 44.4366L42.415 43.693C42.2969 43.6222 42.2851 43.5159 42.4032 43.4451L43.6779 42.7016C43.7959 42.6307 43.9965 42.6307 44.1146 42.7016L45.4129 43.4333Z" fill="#253E67"/>
<path d="M42.7217 43.9412C42.8515 44.012 42.8397 44.1301 42.7217 44.2009L41.447 44.9445C41.329 45.0153 41.1283 45.0153 41.0103 44.9445L39.7356 44.2009C39.6057 44.1301 39.6175 44.012 39.7356 43.9412L41.0103 43.1976C41.1283 43.1268 41.329 43.1268 41.447 43.1976L42.7217 43.9412Z" fill="#253E67"/>
<path d="M50.5333 44.2714C50.6513 44.3422 50.6513 44.4484 50.5333 44.5192L49.2586 45.2628C49.1406 45.3336 48.9399 45.3336 48.8219 45.2628L47.5354 44.5192C47.4056 44.4484 47.4174 44.3304 47.5354 44.2596L48.8101 43.516C48.9281 43.4452 49.1288 43.4452 49.2468 43.516L50.5333 44.2714Z" fill="#253E67"/>
<path d="M39.3787 44.2714C39.5085 44.3422 39.5085 44.4484 39.3787 44.531L37.9506 45.3572C37.8325 45.4281 37.6319 45.4281 37.5139 45.3572L36.2038 44.6019C36.0857 44.531 36.0857 44.413 36.2038 44.3422L37.6319 43.516C37.7617 43.4452 37.9506 43.4452 38.0686 43.516L39.3787 44.2714Z" fill="#253E67"/>
<path d="M48.67 45.3218C48.7881 45.3926 48.7881 45.5106 48.67 45.5814L47.3953 46.325C47.2773 46.3958 47.0767 46.3958 46.9586 46.325L44.303 44.7906C44.1732 44.7198 44.1732 44.6136 44.2912 44.5428L45.5659 43.7992C45.6839 43.7284 45.8846 43.7284 46.0026 43.7992L48.67 45.3218Z" fill="#253E67"/>
<path d="M40.4438 45.8417C40.5736 45.9125 40.5736 46.0187 40.4438 46.1014L39.83 46.4554C39.712 46.5263 39.5114 46.5263 39.3933 46.4554L38.0832 45.7001C37.9534 45.6292 37.9652 45.5112 38.0832 45.4404L38.697 45.0863C38.8268 45.0155 39.0157 45.0155 39.1337 45.0863L40.4438 45.8417Z" fill="#253E67"/>
<path d="M46.8397 46.3842C46.9577 46.455 46.9577 46.5731 46.8397 46.6439L45.565 47.3875C45.4352 47.4583 45.2463 47.4583 45.1283 47.3875L41.5403 45.322C41.4222 45.2512 41.4104 45.1449 41.5403 45.0623L42.815 44.3187C42.933 44.2479 43.1336 44.2479 43.2517 44.3187L46.8397 46.3842Z" fill="#253E67"/>
<path d="M43.1464 46.4433C43.2644 46.5142 43.2762 46.6204 43.1464 46.703L41.7182 47.5292C41.6002 47.6 41.3996 47.6 41.2815 47.5292L39.9596 46.762C39.8416 46.6912 39.8416 46.5732 39.9596 46.5024L41.3878 45.6762C41.5176 45.6053 41.7064 45.6053 41.8245 45.6762L43.1464 46.4433Z" fill="#253E67"/>
<path d="M44.2202 48.0126C44.35 48.0834 44.35 48.1896 44.2202 48.2723L43.6064 48.6263C43.4884 48.6972 43.2877 48.6972 43.1697 48.6263L41.8596 47.871C41.7298 47.8001 41.7416 47.6821 41.8596 47.6113L42.4733 47.2572C42.6032 47.1864 42.792 47.1864 42.91 47.2572L44.2202 48.0126Z" fill="#253E67"/>
<path d="M24.8292 31.56C24.9472 31.6309 24.9472 31.7489 24.8292 31.8197L23.5545 32.5633C23.4365 32.6341 23.2358 32.6341 23.1178 32.5633L20.4622 31.0289C20.3324 30.9581 20.3324 30.8519 20.4504 30.7811L21.7251 30.0375C21.8431 29.9667 22.0438 29.9667 22.1618 30.0375L24.8292 31.56Z" fill="#253E67"/>
<path d="M32.2179 30.1669C32.3359 30.2377 32.3359 30.3439 32.2179 30.4148L31.6277 30.757C31.4979 30.8278 31.3091 30.8278 31.191 30.757L29.9045 30.0135C29.7865 29.9426 29.7747 29.8364 29.9045 29.7538L30.4947 29.4115C30.6127 29.3407 30.8133 29.3407 30.9314 29.4115L32.2179 30.1669Z" fill="#253E67"/>
<path d="M30.2823 29.0457C30.4003 29.1165 30.4003 29.2346 30.2823 29.3054L29.6922 29.6477C29.5624 29.7185 29.3735 29.7185 29.2555 29.6477L27.969 28.9041C27.8509 28.8333 27.8391 28.727 27.969 28.6444L28.5591 28.3021C28.6771 28.2313 28.8778 28.2313 28.9958 28.3021L30.2823 29.0457Z" fill="#253E67"/>
<path d="M30.8862 30.7928C31.0043 30.8636 31.0043 30.9816 30.8862 31.0524L29.6115 31.796C29.4935 31.8668 29.2929 31.8668 29.1748 31.796L27.8883 31.0524C27.7703 30.9816 27.7703 30.8636 27.8883 30.7928L29.163 30.0492C29.2811 29.9784 29.4817 29.9784 29.5997 30.0492L30.8862 30.7928Z" fill="#253E67"/>
<path d="M29.0054 29.7186C29.1234 29.7894 29.1234 29.9074 29.0054 29.9782L27.7307 30.7218C27.6126 30.7926 27.412 30.7926 27.294 30.7218L26.0075 29.9782C25.8894 29.9074 25.8894 29.7894 26.0075 29.7186L27.2822 28.975C27.4002 28.9042 27.6008 28.9042 27.7189 28.975L29.0054 29.7186Z" fill="#253E67"/>
<path d="M19.7418 32.9294C19.8598 33.0002 19.8716 33.1065 19.7418 33.1891L18.3137 34.0153C18.1957 34.0861 17.995 34.0861 17.877 34.0153L16.5905 33.2717C16.4724 33.2009 16.4724 33.0947 16.5905 33.0238L18.0186 32.1976C18.1484 32.1268 18.3373 32.1268 18.4553 32.1976L19.7418 32.9294Z" fill="#253E67"/>
<path d="M21.6188 34.0145C21.7368 34.0853 21.7486 34.1915 21.6188 34.2741L20.1906 35.1003C20.0726 35.1711 19.872 35.1711 19.7539 35.1003L18.4674 34.3567C18.3494 34.2859 18.3494 34.1679 18.4674 34.0971L19.8956 33.2709C20.0254 33.2001 20.2142 33.2001 20.3323 33.2709L21.6188 34.0145Z" fill="#253E67"/>
<path d="M41.9194 35.7733C42.0493 35.8441 42.0375 35.9621 41.9194 36.0329L41.3293 36.3752C41.1995 36.446 41.0106 36.446 40.8926 36.3752L39.6179 35.6316C39.4881 35.5608 39.4881 35.4546 39.6179 35.372L40.208 35.0297C40.326 34.9589 40.5267 34.9589 40.6447 35.0297L41.9194 35.7733Z" fill="#253E67"/>
<path d="M39.9844 34.6522C40.1142 34.723 40.1024 34.841 39.9844 34.9118L39.3942 35.2541C39.2644 35.3249 39.0756 35.3249 38.9575 35.2541L37.6828 34.5105C37.5648 34.4397 37.553 34.3335 37.6828 34.2509L38.273 33.9086C38.391 33.8378 38.5917 33.8378 38.7097 33.9086L39.9844 34.6522Z" fill="#253E67"/>
<path d="M38.3789 35.1248C38.5087 35.1956 38.4969 35.3137 38.3789 35.3845L37.1042 36.1281C36.9862 36.1989 36.7855 36.1989 36.6675 36.1281L35.3928 35.3845C35.263 35.3137 35.2748 35.1956 35.3928 35.1248L36.6675 34.3812C36.7855 34.3104 36.9862 34.3104 37.1042 34.3812L38.3789 35.1248Z" fill="#253E67"/>
<path d="M53.5816 42.5009C53.6996 42.5717 53.6996 42.6779 53.5816 42.7487L52.9915 43.091C52.8616 43.1618 52.6728 43.1618 52.5548 43.091L51.2683 42.3474C51.1384 42.2766 51.1384 42.1704 51.2683 42.0878L51.8584 41.7455C51.9764 41.6747 52.1771 41.6747 52.2951 41.7455L53.5816 42.5009Z" fill="#253E67"/>
<path d="M38.9697 41.7811C39.0996 41.8519 39.0878 41.9699 38.9697 42.0407L37.695 42.7843C37.577 42.8551 37.3764 42.8551 37.2583 42.7843L35.9836 42.0407C35.8538 41.9699 35.8656 41.8519 35.9836 41.7811L37.2583 41.0375C37.3764 40.9667 37.577 40.9667 37.695 41.0375L38.9697 41.7811Z" fill="#253E67"/>
<path d="M32.5607 43.8702C32.6787 43.9411 32.6905 44.0473 32.5607 44.1299L27.2612 47.1514C27.1432 47.2222 26.9426 47.2222 26.8245 47.1514L18.0905 42.1116C17.9724 42.0408 17.9724 41.9228 18.0905 41.852L23.3899 38.8305C23.5198 38.7596 23.7086 38.7596 23.8266 38.8305L32.5607 43.8702Z" fill="#B4CDE7"/>
<path d="M55.7746 19.5336C55.9989 19.6634 56.1877 19.9821 56.1759 20.2418L56.1169 40.2121C56.1169 40.4717 55.9281 40.578 55.7038 40.4481L28.2387 24.5852C28.0145 24.4554 27.8256 24.1485 27.8374 23.877L27.8965 3.9067C27.8965 3.64704 28.0735 3.54081 28.3096 3.67065L55.7746 19.5336Z" fill="white"/>
<path d="M57.4399 20.3712L57.3809 40.3534C57.3809 40.7193 57.2511 40.9671 57.0505 41.0969L56.5311 41.4038C56.7318 41.2858 56.8734 41.0261 56.8734 40.6602L56.9324 20.6899C56.9324 19.9463 56.4131 19.0729 55.7876 18.6952L28.2989 2.8205C27.9802 2.63165 27.6851 2.61985 27.4727 2.73788L27.992 2.43101C28.1926 2.31298 28.4877 2.32478 28.8182 2.51362L56.2951 18.3766C56.9324 18.7425 57.4399 19.6277 57.4399 20.3712Z" fill="#3264A5"/>
<path d="M55.7747 18.6713C56.4121 19.0372 56.9314 19.9224 56.9196 20.6659L56.8606 40.6363C56.8606 41.368 56.3413 41.6631 55.7039 41.2972L28.2388 25.4461C27.6015 25.0802 27.0821 24.195 27.0939 23.4514L27.153 3.48108C27.153 2.7493 27.6723 2.45423 28.3096 2.82012L55.7747 18.6713ZM56.117 40.2114L56.176 20.241C56.176 19.9814 55.999 19.6627 55.7747 19.5329L28.2978 3.66992C28.0736 3.54009 27.8847 3.63451 27.8847 3.90598L27.8257 23.8763C27.8257 24.136 28.0028 24.4546 28.227 24.5845L55.7039 40.4474C55.94 40.5772 56.117 40.471 56.117 40.2114Z" fill="#253E67"/>
<path d="M33.1608 27.9134C33.0782 27.8662 32.972 27.878 32.8539 27.9488C32.6179 28.0904 32.4172 28.4209 32.4172 28.7042C32.4172 28.8458 32.4644 28.9402 32.5471 28.9875L29.3603 27.1344C29.2777 27.0872 29.2305 26.9928 29.2305 26.8512C29.2305 26.5679 29.4193 26.2374 29.6672 26.0958C29.7852 26.025 29.9032 26.025 29.974 26.0604L33.1608 27.9134Z" fill="#CAD0DC"/>
<path d="M32.842 27.9492C32.6059 28.0908 32.4053 28.4331 32.4053 28.7046C32.4053 28.9878 32.6059 29.0941 32.842 28.9524C33.078 28.8108 33.2787 28.4803 33.2787 28.197C33.2787 27.9138 33.0898 27.8075 32.842 27.9492Z" fill="#B1B2B1"/>
<path d="M52.696 39.3734C52.6133 39.3262 52.5071 39.338 52.3891 39.4088C52.153 39.5504 51.9524 39.8809 51.9524 40.1642C51.9524 40.3058 51.9996 40.4002 52.0822 40.4474L48.8955 38.5944C48.8128 38.5472 48.7656 38.4527 48.7656 38.3111C48.7656 38.0278 48.9545 37.6974 49.2023 37.5557C49.3204 37.4849 49.4384 37.4849 49.5092 37.5203L52.696 39.3734Z" fill="#CAD0DC"/>
<path d="M52.3879 39.4091C52.1518 39.5508 51.9512 39.8931 51.9512 40.1645C51.9512 40.4478 52.1518 40.554 52.3879 40.4124C52.6239 40.2707 52.8246 39.9403 52.8246 39.657C52.8246 39.3737 52.6239 39.2675 52.3879 39.4091Z" fill="#B4CDE7"/>
<path d="M20.1554 46.8802V47.9307C20.1554 48.1077 20.0373 48.2966 19.8131 48.4382L14.431 51.5423C13.9707 51.802 13.2271 51.802 12.755 51.5305L0.857813 44.6259C0.63356 44.4843 0.515532 44.319 0.515532 44.1302V43.1033C0.503729 42.9263 0.609954 42.7374 0.84601 42.5958L6.21628 39.4917C6.68839 39.2202 7.44377 39.2202 7.90408 39.4917L19.8013 46.4081C20.0373 46.5379 20.1554 46.7032 20.1554 46.8802Z" fill="#253E67"/>
<path d="M19.533 47.2228L14.1628 50.3269C14.0802 50.3741 13.9975 50.4095 13.8795 50.4331C13.5962 50.504 13.254 50.4685 13.0297 50.3269L8.82792 47.8837L7.87189 47.329L6.39654 46.4792L1.1325 43.4223C0.825626 43.2452 0.825626 42.9502 1.1325 42.7613L3.31601 41.4984C3.39863 41.4512 3.51666 41.4512 3.63469 41.4748C3.81173 41.522 4.03598 41.4984 4.18942 41.404C4.33105 41.3214 4.36646 41.2034 4.29565 41.0853C4.24843 41.0145 4.26024 40.9437 4.35466 40.9083L6.51457 39.6572C6.82144 39.4802 7.32896 39.4802 7.63584 39.6572L7.94271 39.8224L9.40625 40.684L10.3623 41.2388L15.3431 44.1186L19.533 46.55C19.8517 46.7507 19.8399 47.0457 19.533 47.2228Z" fill="#3264A5"/>
<path d="M0.517578 43.0801V44.1423C0.517578 44.3194 0.635606 44.4964 0.859859 44.6262L12.7571 51.5427C13.2292 51.8141 13.9728 51.8141 14.4331 51.5427L19.8151 48.4385C20.0512 48.3087 20.1692 48.1199 20.1692 47.9428V46.8924C20.1692 47.0694 20.0512 47.2465 19.8151 47.3881L14.4331 50.4922C13.9728 50.7637 13.2174 50.7637 12.7571 50.4922L0.859859 43.564C0.623803 43.4342 0.517578 43.2571 0.517578 43.0801Z" fill="#253E67"/>
<path d="M6.23121 39.5034C6.69152 39.2319 7.4587 39.2319 7.91901 39.5034L19.8044 46.408C20.2647 46.6795 20.2647 47.1162 19.8044 47.3877L14.4223 50.4918C13.962 50.7633 13.2067 50.7633 12.7464 50.4918L0.849138 43.5754C0.388829 43.3039 0.388829 42.8672 0.849138 42.6075L6.23121 39.5034ZM13.0178 50.3266C13.3247 50.5036 13.844 50.5036 14.1509 50.3266L19.5212 47.2224C19.828 47.0454 19.828 46.7503 19.5212 46.5615L7.63574 39.6568C7.32887 39.4798 6.82135 39.4798 6.50267 39.6568L4.33096 40.9079C4.24834 40.9551 4.23654 41.026 4.28375 41.0968C4.35457 41.203 4.31916 41.3328 4.17752 41.4155C4.02409 41.4981 3.79984 41.5217 3.62279 41.4863C3.51657 41.4627 3.38674 41.4627 3.30412 41.5099L1.1324 42.761C0.825532 42.938 0.825532 43.2331 1.1324 43.4101L13.0178 50.3266Z" fill="#253E67"/>
<path d="M3.76298 45.7354C3.66856 45.6764 3.58594 45.7236 3.58594 45.8416C3.58594 45.9596 3.66856 46.0895 3.76298 46.1485L4.57737 46.6206C4.67179 46.6796 4.75441 46.6324 4.75441 46.5144C4.75441 46.3963 4.67179 46.2665 4.57737 46.2075L3.76298 45.7354Z" fill="#C0C0C0"/>
<path d="M3.79699 45.6289L3.64355 45.7233C3.67896 45.7115 3.71437 45.7115 3.77339 45.7351L4.58778 46.2072C4.6822 46.2662 4.76482 46.4078 4.76482 46.5141C4.76482 46.5731 4.74121 46.6085 4.71761 46.6203L4.87105 46.5259C4.90645 46.5023 4.91826 46.4669 4.91826 46.4078C4.91826 46.2898 4.83564 46.16 4.74121 46.101L3.92682 45.6289C3.86781 45.6171 3.8324 45.6053 3.79699 45.6289Z" fill="#D3D9E6"/>
<path d="M2.23926 44.8852C2.27467 44.8852 2.31007 44.8852 2.34548 44.9088L3.15988 45.3809C3.2543 45.4399 3.33692 45.5816 3.33692 45.6878C3.33692 45.7468 3.31331 45.7822 3.28971 45.8058L3.44314 45.7114C3.47855 45.6996 3.49035 45.6524 3.49035 45.5934C3.49035 45.4753 3.40773 45.3455 3.31331 45.2865L2.49892 44.8144C2.45171 44.779 2.4045 44.779 2.36909 44.8026L2.23926 44.8852Z" fill="#D3D9E6"/>
<path d="M2.34599 44.9092C2.25156 44.8502 2.16895 44.8974 2.16895 45.0154C2.16895 45.1334 2.25156 45.2633 2.34599 45.3223L3.16038 45.7944C3.2548 45.8534 3.33742 45.8062 3.33742 45.6882C3.33742 45.5702 3.2548 45.4403 3.16038 45.3813L2.34599 44.9092Z" fill="#C0C0C0"/>
<path opacity="0.12" d="M9.40433 40.6956L7.85816 47.3288L6.38281 46.479L7.94078 39.834L9.40433 40.6956Z" fill="#8DA5D1"/>
<path opacity="0.12" d="M15.3267 44.1299L13.8631 50.4208C13.5799 50.4916 13.2376 50.4562 13.0133 50.3145L8.81152 47.8714L10.3577 41.25L15.3267 44.1299Z" fill="#8DA5D1"/>
<path d="M46.8159 21.0786C46.8159 22.5901 46.2895 23.66 45.4403 24.1695C44.778 24.5771 43.9119 24.662 42.9438 24.3223C42.6212 24.2204 42.2645 24.0676 41.9249 23.8638C41.6022 23.677 41.2795 23.4562 40.9568 23.2015C39.9888 22.4203 39.1397 21.3673 38.4604 20.2125C37.5942 18.701 37.0508 17.0027 37.0508 15.4573C37.0508 12.3664 39.2416 11.1097 41.9419 12.6721C44.6421 14.2175 46.8329 17.9707 46.8159 21.0786Z" fill="#B4CDE7"/>
<path d="M42.9156 16.6123C43.2043 16.8841 43.3572 18.5314 43.4421 18.5824C43.4761 18.5654 43.51 18.4635 43.544 18.3106C43.578 18.3616 43.6119 18.4465 43.6119 18.5993C43.6459 18.888 43.6629 19.2787 43.493 19.1768C43.4761 19.1598 43.4591 19.1428 43.4251 19.1258C43.4251 19.1428 43.2723 19.5843 42.9496 19.89C42.7118 20.1278 42.3722 20.2806 41.9306 20.0599C41.523 19.8051 41.2004 19.3126 40.9626 18.8201C40.6229 18.1238 40.4701 17.4615 40.4531 17.4275C40.4361 17.4275 40.4022 17.4105 40.3852 17.4105C40.2154 17.3086 40.2323 16.952 40.2663 16.6803C40.2833 16.4935 40.3512 16.4765 40.3852 16.4765C40.4022 16.5614 40.4191 16.6123 40.4191 16.6123C40.3852 16.2897 40.521 15.7802 40.6569 15.6104C40.9286 15.984 41.2173 16.2217 41.4891 16.3916C42.2533 16.8161 42.8817 16.6293 42.9156 16.6123Z" fill="#F4CAB6"/>
<path d="M40.9688 19.584V19.9916C40.9688 20.4161 41.2744 20.9426 41.6481 21.1634L42.2764 21.52C42.6501 21.7408 42.9557 21.554 42.9557 21.1294V20.7388V24.3392C42.6331 24.2373 42.2764 24.0844 41.9368 23.8807C41.6141 23.6938 41.2914 23.4731 40.9688 23.2183V19.584Z" fill="white"/>
<path d="M42.9557 19.9068V20.739V21.1296C42.9557 21.5542 42.6501 21.741 42.2764 21.5202L41.6481 21.1636C41.2744 20.9428 40.9688 20.4163 40.9688 19.9917V19.6011V18.8369C41.2065 19.3294 41.5292 19.8219 41.9368 20.0767C42.3613 20.2974 42.701 20.1446 42.9557 19.9068Z" fill="#DCB5A5"/>
<path d="M40.6636 15.6098C40.6297 15.6437 40.6127 15.6777 40.5957 15.7286C40.6297 15.6437 40.6467 15.5928 40.6467 15.5928C40.6636 15.5928 40.6636 15.5928 40.6636 15.6098Z" fill="#D3D9E6"/>
<path d="M42.6523 15.0835C42.6863 15.1005 43.3486 15.508 43.5864 16.4421C43.7732 17.1214 43.6373 17.9026 43.5354 18.3102C43.5015 18.4631 43.4505 18.565 43.4335 18.5819C43.3486 18.531 43.1958 16.8837 42.9071 16.6119C42.8731 16.6289 42.2447 16.8157 41.4975 16.3742C41.2257 16.2213 40.937 15.9666 40.6653 15.593L40.6483 15.576C40.5974 15.7118 40.3936 16.1704 40.4276 16.5949C40.4276 16.5949 40.4106 16.544 40.3936 16.4591C40.3257 16.1534 40.1898 15.4401 40.4276 15.0665C40.4106 15.0495 40.1558 14.7438 40.2917 14.1494C40.2917 14.1494 40.3596 14.2343 40.4785 14.2853C40.5974 14.3532 40.7502 14.4042 40.8861 14.3192C41.8541 13.7248 43.6373 16.3742 42.6523 15.0835Z" fill="#6F4D42"/>
<path d="M40.976 19.5842L40.959 23.1846C39.991 22.4204 39.1418 21.3674 38.4795 20.1956C38.5644 19.7201 38.6663 19.3295 38.8191 19.3125C39.0739 19.2615 40.0589 19.3125 40.976 19.5842Z" fill="#CF512A"/>
<path d="M45.4414 24.1692C44.7791 24.5768 43.913 24.6447 42.9619 24.322L42.9789 20.7217C43.896 21.5199 44.881 22.6068 45.1357 22.9464C45.2546 23.1332 45.3735 23.6427 45.4414 24.1692Z" fill="#CF512A"/>
<path d="M42.2512 24.583L42.445 25.3838L43.065 25.7455L42.5612 25.8746L42.755 26.6754L42.2512 25.9651L41.7475 26.0942L41.9412 25.5259L41.4375 24.8155L42.0575 25.1772L42.2512 24.583Z" fill="#F4A411"/>
<path d="M44.2385 25.7324L44.4323 26.5332L45.0523 26.8949L44.5485 27.0241L44.7423 27.8249L44.2385 27.1145L43.7348 27.2436L43.9285 26.6753L43.4248 25.9649L44.0448 26.3266L44.2385 25.7324Z" fill="#F4A411"/>
<path d="M46.2278 26.8818L46.4215 27.6826L47.0415 28.0443L46.5378 28.1735L46.7315 28.9743L46.2278 28.2639L45.7241 28.393L45.9178 27.8247L45.4141 27.1143L46.034 27.476L46.2278 26.8818Z" fill="#CED6DC"/>
<path d="M38.2815 22.2969L38.4752 23.0977L39.0952 23.4593L38.5915 23.5885L38.7852 24.3893L38.2815 23.6789L37.7778 23.8081L37.9715 23.2398L37.4678 22.5294L38.0878 22.891L38.2815 22.2969Z" fill="#F4A411"/>
<path d="M40.2717 23.4463L40.4655 24.2471L41.0855 24.6088L40.5817 24.7379L40.7755 25.5387L40.2717 24.8283L39.768 24.9575L39.9617 24.3892L39.458 23.6788L40.078 24.0404L40.2717 23.4463Z" fill="#F4A411"/>
<path d="M41.7348 27.3605V27.735L39.9395 26.7017V26.3271L41.7348 27.3605Z" fill="#B4CDE7"/>
<path d="M42.8724 28.8455V29.2201L41.3096 28.316V27.9414L42.8724 28.8455Z" fill="#B4CDE7"/>
<path d="M44.5789 29.8408V30.2153L43.1064 29.3629V28.9883L44.5789 29.8408Z" fill="#B4CDE7"/>
<path d="M44.0198 31.1711V31.5457L42.8057 30.8482V30.4736L44.0198 31.1711Z" fill="#B4CDE7"/>
<path d="M43.6712 30.1372V30.5118L41.54 29.2847V28.9102L43.6712 30.1372Z" fill="#B4CDE7"/>
<path d="M42.5655 30.3315V30.706L40.8477 29.7115V29.3369L42.5655 30.3315Z" fill="#B4CDE7"/>
<path d="M45.4175 29.4916V29.8662L42.0205 27.9029V27.5283L45.4175 29.4916Z" fill="#B4CDE7"/>
<path d="M45.0923 32.6303V33.0048L43.5811 32.1265V31.752L45.0923 32.6303Z" fill="#B4CDE7"/>
<path d="M45.4579 31.9972V32.3718L44.1533 31.6226V31.248L45.4579 31.9972Z" fill="#B4CDE7"/>
<path d="M46.812 31.1323V31.5069L44.9004 30.3961V30.0215L46.812 31.1323Z" fill="#B4CDE7"/>
<path d="M46.8142 30.2924V30.667L45.5742 29.9566V29.582L46.8142 30.2924Z" fill="#B4CDE7"/>
<path d="M41.2311 28.7296V29.1042L39.9395 28.355V27.9805L41.2311 28.7296Z" fill="#B4CDE7"/>
<path d="M41.089 27.8257V28.2003L39.9395 27.5416V27.167L41.089 27.8257Z" fill="#B4CDE7"/>
<path d="M45.4566 31.1706V31.5452L43.9971 30.7056V30.3311L45.4566 31.1706Z" fill="#B4CDE7"/>
<path d="M46.8116 33.6245V33.9991L45.3779 33.1724V32.7979L46.8116 33.6245Z" fill="#B4CDE7"/>
<path d="M46.8132 32.7855V33.16L45.6895 32.5142V32.1396L46.8132 32.7855Z" fill="#B4CDE7"/>
<path d="M46.8132 31.9583V32.3329L45.6895 31.6871V31.3125L46.8132 31.9583Z" fill="#B4CDE7"/>
<path d="M41.3078 30.4473V30.8219L39.9258 30.0211V29.6465L41.3078 30.4473Z" fill="#B4CDE7"/>
<path d="M43.2056 31.5456V31.9201L41.4619 30.9127V30.5381L43.2056 31.5456Z" fill="#B4CDE7"/>
<path d="M37.811 25.0099V25.3844L36.0156 24.3511V23.9766L37.811 25.0099Z" fill="#B4CDE7"/>
<path d="M38.9467 26.495V26.8695L37.3838 25.9654V25.5908L38.9467 26.495Z" fill="#B4CDE7"/>
<path d="M40.0852 28.8205V29.1951L38.8711 28.4976V28.123L40.0852 28.8205Z" fill="#B4CDE7"/>
<path d="M39.7318 27.7866V28.1612L37.6006 26.9341V26.5596L39.7318 27.7866Z" fill="#B4CDE7"/>
<path d="M38.6231 27.9809V28.3555L36.9053 27.3609V26.9863L38.6231 27.9809Z" fill="#B4CDE7"/>
<path d="M37.2916 26.379V26.7536L36 26.0045V25.6299L37.2916 26.379Z" fill="#B4CDE7"/>
<path d="M37.1496 25.4751V25.8497L36 25.191V24.8164L37.1496 25.4751Z" fill="#B4CDE7"/>
<path d="M36.8137 26.9347V27.3093L36 26.8443V26.4697L36.8137 26.9347Z" fill="#B4CDE7"/>
<path d="M37.382 28.0967V28.4713L36 27.6705V27.2959L37.382 28.0967Z" fill="#B4CDE7"/>
<path d="M39.2818 29.195V29.5695L37.5381 28.5621V28.1875L39.2818 29.195Z" fill="#B4CDE7"/>
<path d="M15.2061 52.7815L22.63 48.4971L31.8008 53.8319V54.1034L31.2815 54.3985L31.8008 54.6935V54.965L24.3768 59.2494L15.2061 53.9146V53.6431L15.7254 53.348L15.2061 53.0529V52.7815V52.7815Z" fill="#E8F5FC"/>
<path d="M48.4337 59.4813V59.7528L57.6045 54.4179V54.1465L48.4337 59.4813Z" fill="#B4CDE7"/>
<path d="M40.9989 55.1973V55.4687L48.4229 59.7531V59.4817L40.9989 55.1973Z" fill="#B4CDE7"/>
<path d="M50.1805 49.8623L41.0098 55.1972L48.4337 59.4816L57.6045 54.1467L50.1805 49.8623Z" fill="white"/>
<path d="M43.1453 54.2051L42.744 54.4411L46.7569 56.7545L47.1582 56.5184L43.1453 54.2051Z" fill="#B4CDE7"/>
<path d="M42.3279 54.6768L41.9266 54.9128L45.9395 57.2262L46.3408 56.9901L42.3279 54.6768Z" fill="#B4CDE7"/>
<path d="M50.1778 50.1094L48.1477 51.2897L50.2014 52.4699L52.2314 51.2897L50.1778 50.1094Z" fill="#E76180"/>
<path d="M52.6589 51.5488L52.2576 51.7849L56.2706 54.0982L56.6719 53.8622L52.6589 51.5488Z" fill="#B4CDE7"/>
<path d="M51.8425 52.0215L51.4412 52.2575L55.4542 54.5709L55.8555 54.3348L51.8425 52.0215Z" fill="#B4CDE7"/>
<path d="M51.029 52.4932L50.6277 52.7292L54.6407 55.0426L55.042 54.8065L51.029 52.4932Z" fill="#B4CDE7"/>
<path d="M47.3132 51.7734L47.0889 51.9033L53.5804 55.6566L53.8047 55.5267L47.3132 51.7734Z" fill="#B4CDE7"/>
<path d="M46.5534 52.2217L46.3291 52.3515L52.8207 56.1048L53.0449 55.975L46.5534 52.2217Z" fill="#B4CDE7"/>
<path d="M43.9578 53.7207L43.5565 53.9568L47.5694 56.2701L47.9707 56.0341L43.9578 53.7207Z" fill="#B4CDE7"/>
<path d="M45.7995 52.6592L45.5752 52.789L52.0668 56.5423L52.291 56.4125L45.7995 52.6592Z" fill="#B4CDE7"/>
<path d="M45.0339 53.0957L44.8096 53.2255L51.3011 56.9788L51.5254 56.849L45.0339 53.0957Z" fill="#B4CDE7"/>
<path d="M48.4092 56.2939L46.3791 57.4742L48.4328 58.6545L50.4629 57.4742L48.4092 56.2939Z" fill="#B4CDE7"/>
<path d="M48.4327 58.619V58.8905L57.6035 53.5556V53.2842L48.4327 58.619Z" fill="#B4CDE7"/>
<path d="M40.9979 54.3232V54.5947L48.4219 58.8791V58.6077L40.9979 54.3232Z" fill="#B4CDE7"/>
<path d="M50.1796 49L41.0088 54.3349L48.4327 58.6193L57.6035 53.2844L50.1796 49Z" fill="white"/>
<path d="M43.1443 53.627L42.743 53.863L46.7559 56.1764L47.1572 55.9403L43.1443 53.627Z" fill="#B4CDE7"/>
<path d="M42.3269 54.0986L41.9256 54.3347L45.9385 56.648L46.3398 56.412L42.3269 54.0986Z" fill="#B4CDE7"/>
<path d="M50.1768 49.5312L48.1467 50.7115L50.2004 51.8918L52.2305 50.7115L50.1768 49.5312Z" fill="#F4A411"/>
<path d="M52.6579 50.9717L52.2567 51.2077L56.2696 53.5211L56.6709 53.285L52.6579 50.9717Z" fill="#B4CDE7"/>
<path d="M51.8415 51.4434L51.4402 51.6794L55.4532 53.9928L55.8545 53.7567L51.8415 51.4434Z" fill="#B4CDE7"/>
<path d="M51.0281 51.916L50.6268 52.1521L54.6397 54.4654L55.041 54.2294L51.0281 51.916Z" fill="#B4CDE7"/>
<path d="M47.3122 51.1953L47.0879 51.3251L53.5795 55.0784L53.8037 54.9486L47.3122 51.1953Z" fill="#B4CDE7"/>
<path d="M46.5524 51.6436L46.3282 51.7734L52.8197 55.5267L53.0439 55.3968L46.5524 51.6436Z" fill="#B4CDE7"/>
<path d="M43.9568 53.1426L43.5555 53.3786L47.5684 55.692L47.9697 55.4559L43.9568 53.1426Z" fill="#B4CDE7"/>
<path d="M45.7985 52.0811L45.5743 52.2109L52.0658 55.9642L52.29 55.8343L45.7985 52.0811Z" fill="#B4CDE7"/>
<path d="M45.0329 52.5176L44.8086 52.6474L51.3002 56.4007L51.5244 56.2709L45.0329 52.5176Z" fill="#B4CDE7"/>
<path d="M48.4082 55.7158L46.3781 56.8961L48.4318 58.0764L50.4619 56.8961L48.4082 55.7158Z" fill="#458538"/>
</svg>
