<svg width="201" height="148" viewBox="0 0 201 148" fill="none" xmlns="http://www.w3.org/2000/svg">
<path fill-rule="evenodd" clip-rule="evenodd" d="M0 81.721C0 98.7645 6.25838 114.295 16.557 126.033C28.3718 139.503 45.5044 147.972 64.6017 148C72.948 148.012 80.9285 146.402 88.259 143.463C92.0492 141.942 96.2914 142.117 99.9624 143.918C104.268 146.028 109.09 147.211 114.182 147.211C116.285 147.211 118.345 147.008 120.337 146.622C126.024 145.524 131.2 142.926 135.45 139.247C138.121 136.933 141.542 135.77 145.038 135.774H145.098C156.65 135.774 167.382 132.185 176.291 126.033C184.256 120.54 190.761 113.002 195.095 104.152C198.873 96.4389 201 87.7262 201 78.5049C201 46.8778 175.97 21.2353 145.098 21.2353C139.497 21.2353 134.093 18.7221 130.306 14.5961C122.058 5.61193 110.348 0 97.3587 0C90.489 0 83.9763 1.56949 78.1465 4.38295C75.8245 5.49993 73.6104 6.81386 71.5248 8.30312C65.9965 12.2507 59.7137 15.2773 53.0358 16.5225C43.4246 18.3145 34.5532 22.2826 26.9269 27.9109C10.6159 39.9416 0 59.5627 0 81.721Z" fill="url(#paint0_linear_9221_313054)"/>
<defs>
<linearGradient id="paint0_linear_9221_313054" x1="100.5" y1="42.2857" x2="100.5" y2="148" gradientUnits="userSpaceOnUse">
<stop stop-color="white"/>
<stop offset="1" stop-color="#EAFBE9" stop-opacity="0.82"/>
</linearGradient>
</defs>
</svg>
