<svg width="44" height="44" viewBox="0 0 44 44" fill="none" xmlns="http://www.w3.org/2000/svg">
<path d="M21.9999 4.40002C28.1973 4.40002 31.7129 8.63062 32.2233 13.7412H32.3773C36.3703 13.7412 39.5999 17.0676 39.5999 21.1706C39.5999 21.3796 39.5911 21.5886 39.5757 21.7932C37.9964 19.8205 35.8624 18.366 33.4488 17.6172C31.0352 16.8684 28.4527 16.8596 26.0341 17.592C23.6155 18.3244 21.4717 19.7645 19.8791 21.7265C18.2864 23.6885 17.3179 26.0825 17.0983 28.6H11.6203C7.6317 28.6 4.3999 25.2736 4.3999 21.1706C4.3999 17.0676 7.6339 13.7412 11.6203 13.7412H11.7765C12.2913 8.59762 15.8025 4.40002 21.9999 4.40002ZM29.6999 39.6C27.0743 39.6 24.5562 38.557 22.6995 36.7004C20.8429 34.8438 19.7999 32.3257 19.7999 29.7C19.7999 27.0744 20.8429 24.5563 22.6995 22.6997C24.5562 20.8431 27.0743 19.8 29.6999 19.8C32.3255 19.8 34.8436 20.8431 36.7003 22.6997C38.5569 24.5563 39.5999 27.0744 39.5999 29.7C39.5999 32.3257 38.5569 34.8438 36.7003 36.7004C34.8436 38.557 32.3255 39.6 29.6999 39.6ZM33.2243 28.8244L30.7999 31.2488V25.3C30.7999 25.0083 30.684 24.7285 30.4777 24.5222C30.2714 24.3159 29.9916 24.2 29.6999 24.2C29.4082 24.2 29.1284 24.3159 28.9221 24.5222C28.7158 24.7285 28.5999 25.0083 28.5999 25.3V31.2488L26.1755 28.8244C25.9433 28.5922 25.6283 28.4617 25.2999 28.4617C24.9715 28.4617 24.6565 28.5922 24.4243 28.8244C24.1921 29.0566 24.0616 29.3716 24.0616 29.7C24.0616 30.0284 24.1921 30.3434 24.4243 30.5756L28.8243 34.9756C29.3083 35.4596 30.0915 35.4596 30.5755 34.9756L34.9755 30.5756C35.2077 30.3434 35.3382 30.0284 35.3382 29.7C35.3382 29.3716 35.2077 29.0566 34.9755 28.8244C34.7433 28.5922 34.4283 28.4617 34.0999 28.4617C33.7715 28.4617 33.4565 28.5922 33.2243 28.8244Z" fill="#0060AF"/>
</svg>
