<svg width="172" height="166" viewBox="0 0 172 166" fill="none" xmlns="http://www.w3.org/2000/svg">
<g clip-path="url(#clip0_401_2014)">
<path d="M68.9156 145.296C75.5718 147.55 82.8337 143.819 85.1356 136.962C87.4374 130.106 83.9075 122.721 77.2513 120.467C70.5951 118.213 63.3332 121.944 61.0314 128.8C58.7296 135.656 62.2595 143.042 68.9156 145.296Z" fill="#E2E5EB"/>
<path d="M129 144.163C129.292 141.31 128.901 138.567 128.071 135.992C125.171 126.994 125.219 117.23 128.255 108.186L135.219 87.4428C142.14 66.8271 133.912 44.8389 116.608 34.1769C114.097 32.6296 113.002 29.4834 113.966 26.6112C114.831 24.0358 113.505 21.2618 111.004 20.4151C108.504 19.5684 105.776 20.9698 104.912 23.5453C103.948 26.4174 101.179 28.2553 98.2478 27.9597C78.048 25.922 58.243 38.4172 51.3217 59.0332L44.3578 79.7762C41.3216 88.82 35.4729 96.6204 27.7403 102.018C25.5272 103.562 23.5622 105.507 22.0745 107.955C21.1372 109.498 21.8324 111.513 23.4967 112.076L125.383 146.578C127.048 147.141 128.816 145.96 129 144.163Z" fill="#E5EAF0"/>
<path d="M158.795 66.6495L162.447 64.7732C164.036 63.9574 164.697 61.9864 163.925 60.3708C163.153 58.7557 161.24 58.1077 159.651 58.9235L155.999 60.7999L154.224 57.0857C153.452 55.4706 151.538 54.8226 149.95 55.6384C148.361 56.4542 147.7 58.4252 148.472 60.0408L150.247 63.755L146.595 65.6313C145.007 66.4471 144.345 68.4181 145.117 70.0337C145.503 70.8415 146.174 71.4072 146.948 71.669C147.721 71.9309 148.597 71.8887 149.391 71.4808L153.043 69.6045L154.818 73.3187C155.204 74.1265 155.875 74.6921 156.649 74.954C157.422 75.2158 158.298 75.1736 159.091 74.7658C160.68 73.95 161.342 71.9791 160.569 70.3634L158.795 66.6495Z" fill="#F0F2F3"/>
<path d="M69.7053 12.9697C69.2377 11.9915 68.0789 11.5991 67.1169 12.0932L65.6026 12.8712L64.8665 11.3311C64.399 10.353 63.2401 9.96056 62.2781 10.4546C61.316 10.9487 60.9153 12.1424 61.3829 13.1209L62.119 14.6609L60.6047 15.4389C59.6427 15.933 59.2419 17.1266 59.7096 18.1051C59.9434 18.5944 60.35 18.9369 60.8183 19.0955C61.2866 19.2541 61.817 19.2286 62.2978 18.9816L63.8121 18.2036L64.5482 19.7436C64.782 20.2328 65.1885 20.5754 65.6569 20.734C66.1252 20.8926 66.6556 20.867 67.1363 20.62C68.0984 20.1259 68.4991 18.9323 68.0314 17.9538L67.2954 16.4138L68.8097 15.6358C69.772 15.1415 70.1728 13.9478 69.7053 12.9697Z" fill="#EEEEEE"/>
<path d="M125.257 128.984L34.205 98.1511C33.1942 97.8088 32.6582 96.6873 33.0077 95.6462C33.3573 94.605 34.46 94.0384 35.4708 94.3807L126.523 125.213C127.534 125.556 128.07 126.677 127.72 127.718C127.371 128.759 126.268 129.326 125.257 128.984Z" fill="#D5DAE5"/>
</g>
<path d="M141.643 41.3493C145.522 42.6627 149.726 40.5696 151.034 36.6742C152.342 32.7788 150.258 28.5563 146.379 27.2429C142.5 25.9295 138.296 28.0226 136.988 31.9179C135.68 35.8133 137.764 40.0359 141.643 41.3493Z" fill="#CBD1DC"/>
<path d="M6.61301 103.575C9.83792 104.667 13.3337 102.926 14.4211 99.6877C15.5084 96.4489 13.7756 92.938 10.5506 91.846C7.32573 90.7539 3.82995 92.4942 2.7426 95.7331C1.65526 98.9719 3.38809 102.483 6.61301 103.575Z" fill="#E8EFF7"/>
<path d="M64.9995 49.6405C64.9995 31.6139 50.4489 17.0006 32.5 17.0006C14.5676 17.0006 -0.000254346 31.631 3.33059e-09 49.6408C0.000254353 67.6671 14.5508 82.2804 32.4998 82.2804H59.1589C61.3142 82.2804 62.3937 79.6634 60.8696 78.1325L55.4807 72.7204C61.3618 66.8139 64.9995 58.654 64.9995 49.6405Z" fill="#31A7FB"/>
<ellipse cx="21.0626" cy="53.0302" rx="3.4718" ry="3.48677" fill="white"/>
<ellipse cx="31.4777" cy="53.0302" rx="3.4718" ry="3.48677" fill="white"/>
<ellipse cx="41.8942" cy="53.0302" rx="3.4718" ry="3.48677" fill="white"/>
<defs>
<clipPath id="clip0_401_2014">
<rect width="128.049" height="131.783" fill="white" transform="matrix(0.947169 0.320736 -0.318267 0.948001 50.7163 0)"/>
</clipPath>
</defs>
</svg>
