<svg width="81" height="53" viewBox="0 0 81 53" fill="none" xmlns="http://www.w3.org/2000/svg">
<g style="mix-blend-mode:luminosity" opacity="0.4">
<path d="M1 26H13" stroke="#B7B7B7" stroke-linecap="round" stroke-linejoin="round"/>
<path d="M67.5 4.34473C74.9725 8.66734 80 16.7466 80 26.0002C80 32.0864 77.8252 37.6646 74.2102 42.0001M42.5 4.34473C35.0275 8.66734 30 16.7466 30 26.0002C30 32.0864 32.1748 37.6646 35.7898 42.0001" stroke="#B7B7B7" stroke-linecap="round" stroke-dasharray="3 3"/>
<path d="M53.924 45.8276C64.9277 45.8276 74.1332 36.9119 74.4849 25.9138C74.8367 14.9157 66.2016 6 55.1979 6C44.1942 6 34.9888 14.9157 34.637 25.9138C34.2852 36.9119 42.9203 45.8276 53.924 45.8276Z" fill="#FAFAFA"/>
<path d="M59.985 32.3773V46.8843H38.6077V32.3773C38.6077 31.9896 39.0498 31.6758 39.5967 31.6758H59.0006C59.5428 31.6728 59.985 31.9896 59.985 32.3773Z" fill="#D2D2D2"/>
<path d="M59.892 47.0966H38.9778C38.773 47.0966 38.6055 46.9778 38.6055 46.8329V32.6293C38.6078 32.1018 39.2082 31.6758 39.9459 31.6758H58.9262C59.6639 31.6758 60.2643 32.1018 60.2643 32.6293V46.8329C60.2643 46.9778 60.0968 47.0966 59.892 47.0966ZM39.3502 46.5691H59.5197V32.6293C59.5197 32.3945 59.252 32.2061 58.9239 32.2061H39.9459C39.6178 32.2061 39.3502 32.3974 39.3502 32.6293V46.5691V46.5691Z" fill="#B7B7B7"/>
<path d="M70.3151 47.0079V44.1087C70.3151 43.5975 70.1941 43.0933 69.9567 42.6218L67.6203 37.9718C67.462 37.6567 67.099 37.4536 66.6987 37.4536H62.554C62.0002 37.4536 61.551 37.8364 61.551 38.3056V47.0056H70.3151V47.0079Z" fill="white"/>
<path d="M70.3152 47.2437C70.1616 47.2437 70.0383 47.1386 70.0383 47.0079V44.1087C70.0383 43.6279 69.9265 43.1587 69.7031 42.7152L67.3667 38.0652C67.2526 37.8365 66.9897 37.6894 66.6988 37.6894H62.5541C62.1538 37.6894 61.828 37.9672 61.828 38.3057V47.0056C61.828 47.1363 61.7047 47.2414 61.5511 47.2414C61.3975 47.2414 61.2742 47.1363 61.2742 47.0056V38.308C61.2742 37.7081 61.849 37.2202 62.5541 37.2202H66.6965C67.2108 37.2202 67.6715 37.4793 67.874 37.8808L70.2105 42.5307C70.4618 43.0326 70.5898 43.5625 70.5898 44.1087V47.0056C70.5921 47.1363 70.4688 47.2437 70.3152 47.2437Z" fill="#B7B7B7"/>
<path d="M68.0671 38.8633H63.9341C63.5687 38.8633 63.2732 39.1154 63.2732 39.4258V41.1205C63.2732 41.431 63.5687 41.6831 63.9341 41.6831H69.4821L68.0671 38.8633Z" fill="#F5F5F5    "/>
<path d="M69.4843 41.9168H63.9364C63.4198 41.9168 62.9985 41.5597 62.9985 41.1185V39.4238C62.9985 38.985 63.4198 38.6255 63.9364 38.6255H68.0694C68.1811 38.6255 68.2812 38.6815 68.3254 38.7679L69.7403 41.5854C69.7776 41.6577 69.7682 41.7418 69.717 41.8071C69.6635 41.8772 69.5774 41.9168 69.4843 41.9168ZM63.9364 39.0994C63.7246 39.0994 63.5524 39.2464 63.5524 39.4262V41.1209C63.5524 41.3006 63.7246 41.4477 63.9364 41.4477H69.0631L67.8832 39.1017H63.9364V39.0994Z" fill="#B7B7B7"/>
<path d="M63.9133 49.2909H52.9198C52.7662 49.2909 52.6428 49.1858 52.6428 49.0551C52.6428 48.9244 52.7662 48.8193 52.9198 48.8193H63.9133C64.0668 48.8193 64.1902 48.9244 64.1902 49.0551C64.1902 49.1858 64.0668 49.2909 63.9133 49.2909Z" fill="#B7B7B7"/>
<path d="M70.3758 47.0078H38.3005C37.8584 47.0078 37.5 47.2599 37.5 47.5704V48.4948C37.5 48.8052 37.8584 49.0573 38.3005 49.0573H44.5141H67.1247H70.3758C70.8179 49.0573 71.1763 48.8052 71.1763 48.4948V47.5704C71.1763 47.2576 70.8179 47.0078 70.3758 47.0078Z" fill="white"/>
<path d="M70.3314 49.2906H38.6239C38.0049 49.2906 37.5022 48.9334 37.5022 48.4922V47.5679C37.5022 47.129 38.0049 46.7695 38.6239 46.7695H70.3314C70.9505 46.7695 71.4531 47.1267 71.4531 47.5679V48.4922C71.4531 48.9334 70.9505 49.2906 70.3314 49.2906ZM38.6239 47.2434C38.3702 47.2434 38.1654 47.3905 38.1654 47.5702V48.4946C38.1654 48.6743 38.3702 48.8214 38.6239 48.8214H70.3314C70.5851 48.8214 70.7899 48.6743 70.7899 48.4946V47.5702C70.7899 47.3905 70.5851 47.2434 70.3314 47.2434H38.6239Z" fill="#B7B7B7"/>
<path d="M67.9533 49.921C67.9533 51.0018 67.048 51.8771 65.9333 51.8771C64.8186 51.8771 63.9133 51.0018 63.9133 49.921C63.9133 48.8402 64.8186 47.9648 65.9333 47.9648C67.048 47.9648 67.9533 48.8402 67.9533 49.921Z" fill="#D2D2D2"/>
<path d="M65.9331 52.1482C64.6672 52.1482 63.6362 51.1491 63.6362 49.9213C63.6362 48.6934 64.6672 47.6943 65.9331 47.6943C67.1991 47.6943 68.23 48.6934 68.23 49.9213C68.23 51.1491 67.1991 52.1482 65.9331 52.1482ZM65.9331 48.2336C64.972 48.2336 64.1901 48.9899 64.1901 49.9213C64.1901 50.8526 64.972 51.609 65.9331 51.609C66.8943 51.609 67.6762 50.8526 67.6762 49.9213C67.6762 48.9922 66.8943 48.2336 65.9331 48.2336Z" fill="#B7B7B7"/>
<path d="M50.7416 49.921C50.7416 51.0018 49.8363 51.8771 48.7216 51.8771C47.6069 51.8771 46.7017 51.0018 46.7017 49.921C46.7017 48.8402 47.6069 47.9648 48.7216 47.9648C49.8387 47.9648 50.7416 48.8402 50.7416 49.921Z" fill="#D2D2D2"/>
<path d="M48.7217 52.1482C47.4557 52.1482 46.4248 51.1491 46.4248 49.9213C46.4248 48.6934 47.4557 47.6943 48.7217 47.6943C49.9877 47.6943 51.0186 48.6934 51.0186 49.9213C51.0186 51.1491 49.99 52.1482 48.7217 52.1482ZM48.7217 48.2336C47.7606 48.2336 46.9787 48.9899 46.9787 49.9213C46.9787 50.8526 47.7606 51.609 48.7217 51.609C49.6828 51.609 50.4648 50.8526 50.4648 49.9213C50.4648 48.9922 49.6828 48.2336 48.7217 48.2336Z" fill="#B7B7B7"/>
<path d="M62.2843 49.921C62.2843 51.0018 61.3791 51.8771 60.2644 51.8771C59.1497 51.8771 58.2444 51.0018 58.2444 49.921C58.2444 48.8402 59.1497 47.9648 60.2644 47.9648C61.3791 47.9648 62.2843 48.8402 62.2843 49.921Z" fill="#D2D2D2"/>
<path d="M60.2644 52.1482C58.9985 52.1482 57.9675 51.1491 57.9675 49.9213C57.9675 48.6934 58.9985 47.6943 60.2644 47.6943C61.5304 47.6943 62.5613 48.6934 62.5613 49.9213C62.5613 51.1491 61.5304 52.1482 60.2644 52.1482ZM60.2644 48.2336C59.3033 48.2336 58.5214 48.9899 58.5214 49.9213C58.5214 50.8526 59.3033 51.609 60.2644 51.609C61.2256 51.609 62.0075 50.8526 62.0075 49.9213C62.0075 48.9922 61.2256 48.2336 60.2644 48.2336Z" fill="#B7B7B7"/>
<path d="M45.1562 49.921C45.1562 51.0018 44.2509 51.8771 43.1362 51.8771C42.0215 51.8771 41.1162 51.0018 41.1162 49.921C41.1162 48.8402 42.0215 47.9648 43.1362 47.9648C44.2509 47.9648 45.1562 48.8402 45.1562 49.921Z" fill="#D2D2D2"/>
<path d="M43.1363 52.1482C41.8703 52.1482 40.8394 51.1491 40.8394 49.9213C40.8394 48.6934 41.8703 47.6943 43.1363 47.6943C44.4022 47.6943 45.4332 48.6934 45.4332 49.9213C45.4332 51.1491 44.4022 52.1482 43.1363 52.1482ZM43.1363 48.2336C42.1751 48.2336 41.3932 48.9899 41.3932 49.9213C41.3932 50.8526 42.1751 51.609 43.1363 51.609C44.0974 51.609 44.8793 50.8526 44.8793 49.9213C44.8793 48.9922 44.0974 48.2336 43.1363 48.2336Z" fill="#B7B7B7"/>
<path d="M52.1795 46.9053C52.0259 46.9053 51.9026 46.7843 51.9026 46.6368V31.9442C51.9026 31.7967 52.0259 31.6758 52.1795 31.6758C52.3331 31.6758 52.4565 31.7967 52.4565 31.9442V46.6339C52.4565 46.7843 52.3331 46.9053 52.1795 46.9053Z" fill="#B7B7B7"/>
<path d="M44.8912 46.9053C44.7376 46.9053 44.6143 46.7843 44.6143 46.6368V31.9442C44.6143 31.7967 44.7376 31.6758 44.8912 31.6758C45.0448 31.6758 45.1681 31.7967 45.1681 31.9442V46.6339C45.1704 46.7843 45.0448 46.9053 44.8912 46.9053Z" fill="#B7B7B7"/>
<path d="M59.6569 40.5512H39.7155C39.513 40.5512 39.3501 40.4765 39.3501 40.3855C39.3501 40.2944 39.513 40.2197 39.7155 40.2197H59.6569C59.8594 40.2197 60.0223 40.2944 60.0223 40.3855C60.0223 40.4765 59.8594 40.5512 59.6569 40.5512Z" fill="#B7B7B7"/>
<path d="M56.6453 12.6913V16.5644L53.0146 16.5676V12.6851L56.6453 12.6913Z" fill="white"/>
<path d="M52.6189 16.9646V12.2881L57.0411 12.2943V16.9584L52.6189 16.9646ZM53.4105 13.0821V16.1675L56.2496 16.1643V13.0852L53.4105 13.0821Z" fill="#B7B7B7"/>
<path d="M65.8485 24.4265C64.3121 19.7813 59.949 16.4302 54.8038 16.4302C49.6585 16.4302 45.2923 19.7813 43.759 24.4265" fill="#D5D5D5"/>
<path d="M44.1327 24.5516L43.3816 24.3015C45.0146 19.3562 49.6052 16.0332 54.8034 16.0332C60.0017 16.0332 64.5891 19.3562 66.2221 24.3015L65.471 24.5516C63.9471 19.9313 59.6588 16.8272 54.8034 16.8272C49.948 16.8272 45.6597 19.9313 44.1327 24.5516Z" fill="#B7B7B7"/>
<path d="M60.9526 22.0629C59.3944 20.4843 57.2315 19.5059 54.8412 19.5059C52.4509 19.5059 50.2881 20.4843 48.7298 22.0629L46.3083 27.1959C46.3426 27.7117 46.7727 28.1305 47.3087 28.1305H51.2074C51.6531 28.1305 52.052 27.8367 52.1673 27.4053C52.4852 26.2237 53.5603 25.3546 54.8381 25.3546C56.1158 25.3546 57.191 26.2237 57.5089 27.4053C57.6242 27.8367 58.0231 28.1305 58.4688 28.1305H62.3706C62.9066 28.1305 63.3367 27.7117 63.3709 27.1959L60.9526 22.0629Z" fill="white"/>
<path d="M62.3702 28.5276H58.4716C57.842 28.5276 57.2904 28.1087 57.1284 27.5085C56.851 26.4738 55.9098 25.7517 54.8378 25.7517C53.7657 25.7517 52.8277 26.4738 52.5472 27.5085C52.3851 28.1087 51.8335 28.5276 51.204 28.5276H47.3084C46.5729 28.5276 45.959 27.9524 45.9122 27.2209L45.906 27.1177L48.3992 21.8316L48.4459 21.7848C50.1475 20.0592 52.4194 19.1089 54.8378 19.1089C57.2561 19.1089 59.528 20.0592 61.2296 21.7848L61.2764 21.8316L63.7695 27.1209L63.7633 27.224C63.7166 27.9555 63.1026 28.5276 62.3702 28.5276ZM54.8409 24.9577C56.2682 24.9577 57.5242 25.9205 57.895 27.3022C57.9636 27.5554 58.2004 27.7336 58.4716 27.7336H62.3702C62.657 27.7336 62.9032 27.5304 62.9624 27.2584L60.6219 22.2943C59.0762 20.75 57.0224 19.9029 54.8409 19.9029C52.6594 19.9029 50.6056 20.7532 49.0567 22.2943L46.7163 27.2584C46.7755 27.5304 47.0217 27.7336 47.3115 27.7336H51.2102C51.4813 27.7336 51.7182 27.5554 51.7868 27.3022C52.1576 25.9205 53.4135 24.9577 54.8409 24.9577Z" fill="#B7B7B7"/>
<path d="M45.1207 27.7052L41.9762 26.1735C41.6209 26.0015 41.4744 25.5733 41.6458 25.2169L44.3229 19.6932C44.4943 19.3369 44.9212 19.1899 45.2734 19.3619L48.4179 20.8936C49.1565 21.2531 49.465 22.144 49.1035 22.8849L47.1028 27.0112C46.7475 27.7552 45.8593 28.0647 45.1207 27.7052Z" fill="white"/>
<path d="M45.7688 28.2529C45.4883 28.2529 45.2078 28.1903 44.9491 28.0622L41.8015 26.5304C41.5366 26.3991 41.3341 26.1741 41.2374 25.8927C41.1408 25.6114 41.1595 25.3113 41.2873 25.0424L43.9643 19.5188C44.0952 19.2531 44.3196 19.0499 44.6001 18.953C44.8806 18.8561 45.1798 18.8748 45.4478 19.003L48.5923 20.5347C49.5241 20.9911 49.9168 22.1196 49.4618 23.0574L47.461 27.1869C47.2429 27.6402 46.8595 27.9809 46.3827 28.1466C46.1833 28.2185 45.9745 28.2529 45.7688 28.2529ZM44.9616 19.6907C44.9273 19.6907 44.893 19.697 44.8588 19.7095C44.7777 19.7376 44.7154 19.7939 44.678 19.872L42.001 25.3926C41.9636 25.4676 41.9573 25.5551 41.9854 25.6364C42.0134 25.7177 42.0695 25.7802 42.1474 25.8177L45.292 27.3494C45.5537 27.4776 45.8498 27.4932 46.124 27.3995C46.3983 27.3026 46.6196 27.1056 46.7473 26.843L48.7481 22.7167C49.0099 22.1759 48.7855 21.5194 48.2432 21.2568L45.0987 19.7251C45.0582 19.7001 45.0115 19.6907 44.9616 19.6907Z" fill="#B7B7B7"/>
<path d="M64.5578 27.7055L67.7023 26.1738C68.0576 26.0018 68.204 25.5736 68.0326 25.2203L65.3556 19.6967C65.1842 19.3403 64.7572 19.1934 64.4051 19.3653L61.2606 20.897C60.522 21.2565 60.2134 22.1475 60.575 22.8883L62.5757 27.0147C62.931 27.7555 63.8223 28.065 64.5578 27.7055Z" fill="white"/>
<path d="M63.9097 28.253C63.704 28.253 63.4952 28.2186 63.2926 28.1498C62.8189 27.9841 62.4356 27.6434 62.2143 27.1901L60.2136 23.0638C59.9923 22.6105 59.9643 22.0978 60.1263 21.6227C60.2915 21.1475 60.6312 20.763 61.0831 20.5411L64.2276 19.0093C64.4925 18.8812 64.7948 18.8624 65.0753 18.9593C65.3557 19.0562 65.5801 19.2563 65.711 19.5251L68.388 25.0488C68.6561 25.599 68.4254 26.2679 67.8769 26.5336L64.7324 28.0654C64.4707 28.1904 64.1933 28.253 63.9097 28.253ZM64.7169 19.6908C64.6701 19.6908 64.6234 19.7002 64.5797 19.7221L61.4352 21.2538C61.1734 21.382 60.9771 21.6039 60.8805 21.879C60.7839 22.1541 60.8026 22.4511 60.9304 22.7137L62.9311 26.84C63.0589 27.1026 63.2802 27.2995 63.5544 27.3964C63.8287 27.4902 64.1247 27.4746 64.3865 27.3464L67.531 25.8147C67.6868 25.7396 67.7523 25.549 67.6775 25.3895L65.0005 19.8659C64.9631 19.7908 64.9007 19.7314 64.8197 19.7033C64.7854 19.6939 64.7511 19.6908 64.7169 19.6908Z" fill="#B7B7B7"/>
<path d="M47.4796 19.0307C47.1275 19.3183 46.7909 19.6247 46.473 19.9498L45.8279 19.6341C45.7157 19.5809 45.6004 19.5434 45.4851 19.5215V19.5184V17.7022C45.4851 17.1489 45.9339 16.6987 46.4855 16.6987C47.0371 16.6987 47.4859 17.1489 47.4859 17.7022V19.0401L47.4796 19.0307Z" fill="white"/>
<path d="M46.5167 20.1908L45.7407 19.8125C45.6472 19.7656 45.5475 19.7344 45.4477 19.7156L45.2483 19.6781L45.2857 19.4937V17.6962C45.2857 17.0335 45.8248 16.4927 46.4855 16.4927C47.1462 16.4927 47.6854 17.0335 47.6854 17.6962V19.5999L47.4516 19.3092C47.1618 19.553 46.8813 19.8156 46.6164 20.0876L46.5167 20.1908ZM45.6846 19.3655C45.7625 19.3905 45.8404 19.4186 45.9152 19.4561L46.4325 19.7093C46.7037 19.4374 46.9904 19.1748 47.2896 18.931V17.7024C47.2896 17.2585 46.9281 16.8959 46.4855 16.8959C46.043 16.8959 45.6815 17.2585 45.6815 17.7024V19.3655H45.6846Z" fill="#B7B7B7"/>
<path d="M62.1986 19.0307C62.5508 19.3183 62.8874 19.6247 63.2052 19.9498L63.8503 19.6341C63.9625 19.5809 64.0778 19.5434 64.1931 19.5215V19.5184V17.7022C64.1931 17.1489 63.7444 16.6987 63.1928 16.6987C62.6412 16.6987 62.1924 17.1489 62.1924 17.7022V19.0401L62.1986 19.0307Z" fill="white"/>
<path d="M63.1621 20.1908L63.0624 20.0876C62.7975 19.8156 62.517 19.5562 62.2271 19.3092L61.9934 19.5999V17.6962C61.9934 17.0335 62.5326 16.4927 63.1932 16.4927C63.8539 16.4927 64.3931 17.0335 64.3931 17.6962V19.4937L64.4305 19.6718L64.231 19.7125C64.1313 19.7312 64.0316 19.7625 63.9381 19.8094L63.1621 20.1908ZM62.3892 18.9278C62.6853 19.1717 62.972 19.4343 63.2462 19.7062L63.7636 19.453C63.8384 19.4155 63.9163 19.3874 63.9942 19.3624V17.6962C63.9942 17.2523 63.6327 16.8897 63.1901 16.8897C62.7476 16.8897 62.3861 17.2523 62.3861 17.6962V18.9278H62.3892Z" fill="#B7B7B7"/>
<path d="M58.9951 1.50046C60.0079 1.81931 60.7808 2.78212 60.7808 4.15757V7.59619L48.7949 7.6337V4.17007C48.7949 2.08815 50.4778 0.396973 52.5565 0.396973H59.2849C59.2849 1.64113 58.2783 2.65083 57.0379 2.65083H54.5417" fill="#FAFAFA"/>
<path d="M48.3989 8.03074V4.17011C48.3989 1.87248 50.2626 0 52.5563 0H59.6805V0.397004C59.6805 0.709606 59.6275 1.0097 59.5278 1.28792C60.5438 1.79121 61.1795 2.87281 61.1795 4.1576V7.99323L48.3989 8.03074ZM52.5532 0.794009C50.6989 0.794009 49.1874 2.307 49.1874 4.17011V7.23673L60.3817 7.20234V4.16073C60.3817 3.1604 59.9142 2.35389 59.1476 1.98815C58.6645 2.63211 57.8979 3.05099 57.0315 3.05099H54.5352V2.25698H57.0315C57.9166 2.25698 58.6583 1.63178 58.8422 0.797135H52.5532V0.794009Z" fill="#B7B7B7"/>
<path d="M59.3533 6.95179V6.44537C59.3533 4.34782 57.658 2.65039 55.57 2.65039H54.0086C51.9175 2.65039 50.2252 4.35094 50.2252 6.44537V6.95492C49.1874 6.97055 48.3491 7.8177 48.3491 8.86179C48.3491 9.90587 49.1874 10.753 50.2252 10.7687V10.925C50.2252 13.2163 52.0764 15.0732 54.3608 15.0732H55.2178C57.5022 15.0732 59.3533 13.2163 59.3533 10.925V10.7718C60.4036 10.7718 61.2544 9.91838 61.2544 8.86491C61.2575 7.80519 60.4036 6.95179 59.3533 6.95179Z" fill="white"/>
<path d="M55.2178 15.4671H54.3608C51.93 15.4671 49.9386 13.5383 49.8326 11.1251C48.7668 10.925 47.9534 9.98093 47.9534 8.85869C47.9534 7.73958 48.7636 6.79552 49.8295 6.59545V6.44541C49.8295 4.13215 51.7056 2.25342 54.0086 2.25342H55.57C57.8762 2.25342 59.7492 4.13528 59.7492 6.44541V6.5892C60.8274 6.77676 61.6502 7.72395 61.6502 8.86182C61.6502 9.99969 60.8243 10.9469 59.7429 11.1344C59.637 13.5415 57.6455 15.4671 55.2178 15.4671ZM54.0086 3.0443C52.1388 3.0443 50.6211 4.5698 50.6211 6.44228V7.34257L50.2315 7.34883C49.4119 7.36133 48.7449 8.03655 48.7449 8.85869C48.7449 9.68083 49.4119 10.3561 50.2315 10.3686L50.6211 10.3748V10.9219C50.6211 12.9913 52.2977 14.6731 54.3608 14.6731H55.2178C57.2809 14.6731 58.9576 12.9913 58.9576 10.9219V10.3717H59.3534C60.1855 10.3717 60.8586 9.69334 60.8586 8.86182C60.8586 8.0303 60.1823 7.35195 59.3534 7.35195H58.9576V6.44853C58.9576 4.57292 57.4367 3.05055 55.57 3.05055H54.0086V3.0443Z" fill="#B7B7B7"/>
</g>
</svg>
