<svg width="81" height="52" viewBox="0 0 81 52" fill="none" xmlns="http://www.w3.org/2000/svg">
<g style="mix-blend-mode:luminosity" opacity="0.4">
<path d="M1 26H13" stroke="#B7B7B7" stroke-linecap="round" stroke-linejoin="round"/>
<path d="M54.362 44.3774C65.3657 44.3774 74.5712 35.4617 74.9229 24.4636C75.2747 13.4655 66.6396 4.5498 55.6359 4.5498C44.6322 4.5498 35.4267 13.4655 35.075 24.4636C34.7232 35.4617 43.3583 44.3774 54.362 44.3774Z" fill="#FAFAFA"/>
<path d="M63.3779 21.0568H46.6226C44.8782 21.0568 43.4648 19.5975 43.4648 17.7964V6.64022C43.4648 4.83917 44.8782 3.37988 46.6226 3.37988H63.3779C65.1223 3.37988 66.5357 4.83917 66.5357 6.64022V17.7992C66.533 19.5975 65.1223 21.0568 63.3779 21.0568Z" fill="#D2D2D2"/>
<path d="M63.378 21.3958H46.6226C44.7023 21.3958 43.1392 19.7819 43.1392 17.7991V6.64014C43.1392 4.65735 44.7023 3.04346 46.6226 3.04346H63.378C65.2984 3.04346 66.8615 4.65735 66.8615 6.64014V17.7991C66.8615 19.7819 65.2984 21.3958 63.378 21.3958ZM46.6226 3.71614C45.0622 3.71614 43.7933 5.02624 43.7933 6.63743V17.7964C43.7933 19.4075 45.0622 20.7176 46.6226 20.7176H63.378C64.9385 20.7176 66.2074 19.4075 66.2074 17.7964V6.64014C66.2074 5.02896 64.9385 3.71885 63.378 3.71885H46.6226V3.71614Z" fill="#B7B7B7"/>
<path d="M59.8628 14.9724H50.1348C48.3879 14.9724 46.7722 13.9227 46.0182 12.298L45.5322 11.2455L43.1705 6.38757C43.0891 6.22211 43.1548 6.01868 43.315 5.93459C43.4753 5.85051 43.6723 5.91832 43.7537 6.08378L46.1181 10.9472L46.6067 12.005C47.253 13.3965 48.6374 14.2943 50.1322 14.2943H59.8602C61.3655 14.2943 62.7526 13.3856 63.3962 11.9833L63.8612 10.977L66.2387 6.08378C66.3202 5.91832 66.5146 5.85051 66.6774 5.93459C66.8377 6.01868 66.9034 6.22211 66.8219 6.38757L64.4471 11.2727L63.9873 12.2735C63.2412 13.9118 61.6203 14.9724 59.8628 14.9724Z" fill="#B7B7B7"/>
<path d="M57.0308 15.6536H52.9694C52.7907 15.6536 52.6462 15.5044 52.6462 15.32V14.1862C52.6462 14.0017 52.7907 13.8525 52.9694 13.8525H57.0308C57.2094 13.8525 57.3539 14.0017 57.3539 14.1862V15.32C57.3566 15.5017 57.2094 15.6536 57.0308 15.6536Z" fill="#D2D2D2"/>
<path d="M57.0308 15.9899H52.9694C52.6095 15.9899 52.3179 15.6888 52.3179 15.3172V14.1834C52.3179 13.8118 52.6095 13.5107 52.9694 13.5107H57.0308C57.3907 13.5107 57.6823 13.8118 57.6823 14.1834V15.3172C57.6823 15.6888 57.3907 15.9899 57.0308 15.9899ZM57.0308 15.3145V15.6508V15.3145ZM57.0282 14.1834L52.9694 14.1861L52.972 15.3199L57.0282 15.3172V14.1834Z" fill="#B7B7B7"/>
<path d="M58.2078 0.336426H51.7926C51.4983 0.336426 51.2593 0.583257 51.2593 0.887049V3.36892H52.8513V2.20258C52.8513 1.98016 53.0273 1.79843 53.2427 1.79843H56.7577C56.9731 1.79843 57.1491 1.98016 57.1491 2.20258V3.36892H58.7411V0.889762C58.7411 0.583257 58.5021 0.336426 58.2078 0.336426Z" fill="white"/>
<path d="M58.741 3.70789H57.149C56.9678 3.70789 56.8233 3.556 56.8233 3.37155V2.20521C56.8233 2.16994 56.7944 2.14011 56.7602 2.14011H53.2426C53.2084 2.14011 53.1795 2.16994 53.1795 2.20521V3.37155C53.1795 3.55871 53.0324 3.70789 52.8538 3.70789H51.2618C51.0805 3.70789 50.936 3.556 50.936 3.37155V0.889677C50.936 0.398727 51.3222 0 51.7977 0H58.2104C58.6859 0 59.072 0.398727 59.072 0.889677V3.37155C59.0668 3.556 58.9223 3.70789 58.741 3.70789ZM57.4748 3.0325H58.4153V0.889677C58.4153 0.773043 58.3233 0.675395 58.2077 0.675395H51.7925C51.6795 0.675395 51.5849 0.77033 51.5849 0.889677V3.03521H52.5254V2.20249C52.5254 1.79563 52.8459 1.462 53.2426 1.462H56.7576C57.1517 1.462 57.4748 1.79292 57.4748 2.20249V3.0325Z" fill="#B7B7B7"/>
<path d="M67.4365 42.2598C66.8454 43.2362 65.6738 43.4912 64.82 42.8294C65.6738 43.4912 65.8866 44.8203 65.2955 45.7968C64.7044 46.7732 63.5327 47.0282 62.6789 46.3664L61.7989 45.6856C62.2691 46.0517 62.5449 46.6186 62.6001 47.2181C62.6448 47.7063 62.5397 48.2135 62.2744 48.653C61.6833 49.6294 60.5116 49.8844 59.6578 49.2226L58.0632 47.9857C58.5334 48.3519 58.8093 48.9188 58.8644 49.5182C58.9091 50.0065 58.8382 50.3238 58.5755 50.7497C58.2182 51.3274 57.3434 52.0869 56.2847 51.3708L38.9802 38.5166C39.1326 38.4298 44.9174 28.9716 44.9174 28.9716C45.2431 28.4372 45.5873 28.0439 45.5873 28.0439C45.8605 27.9761 46.336 28.2284 47.0926 28.1714C49.2415 28.0086 54.0175 27.7103 55.7776 28.7112C56.3687 29.0475 65.75 38.362 65.75 38.362L66.9689 39.2924C67.8148 39.9569 68.0276 41.2833 67.4365 42.2598Z" fill="white"/>
<path d="M57.1412 51.9999C56.7891 51.9999 56.4424 51.8832 56.1009 51.6527L38.7859 38.7903C38.694 38.7225 38.644 38.6113 38.6493 38.4974C38.6546 38.4106 38.6913 38.3319 38.7491 38.275C39.0539 37.8817 42.4244 32.408 44.6364 28.7923C44.9726 28.239 45.3247 27.8348 45.3404 27.8186C45.3851 27.767 45.4429 27.7318 45.5059 27.7182C45.6924 27.6721 45.8921 27.7101 46.1207 27.7562C46.3702 27.805 46.6776 27.8647 47.0638 27.8375C51.7215 27.4849 54.6218 27.6748 55.9301 28.418C56.5264 28.7571 64.3498 36.5119 65.9549 38.1068L67.1581 39.0263C68.1459 39.7912 68.3955 41.3237 67.7151 42.444C67.3709 43.0109 66.8481 43.3879 66.2466 43.5045C66.0784 43.5371 65.9129 43.5479 65.7474 43.5371C66.0653 44.302 66.0259 45.2324 65.5714 45.981C65.2273 46.5479 64.7071 46.9249 64.1029 47.0415C63.6825 47.1229 63.2622 47.066 62.8787 46.8869C62.8997 46.9873 62.9128 47.0904 62.9233 47.1934C62.9759 47.7712 62.8419 48.3544 62.5503 48.8372C62.2061 49.4041 61.686 49.7811 61.0818 49.8977C60.5091 50.009 59.9337 49.8652 59.4582 49.4963L59.1561 49.2603C59.1693 49.3363 59.1798 49.4122 59.1876 49.4909C59.2376 50.0632 59.1456 50.4538 58.8488 50.9366C58.7253 51.1346 58.2655 51.7964 57.4984 51.9646C57.3776 51.9863 57.2594 51.9999 57.1412 51.9999ZM39.4269 38.4377L56.4713 51.0966C56.7629 51.2946 57.065 51.3652 57.3592 51.3001C57.7717 51.2078 58.1132 50.8607 58.2971 50.5677C58.5177 50.2097 58.5755 49.971 58.5361 49.5478C58.4888 49.0189 58.2445 48.5469 57.8636 48.254C57.7191 48.1428 57.6902 47.9312 57.7979 47.782C57.9056 47.6329 58.1106 47.603 58.255 47.7142L59.8497 48.9511C60.1754 49.2034 60.5695 49.301 60.9609 49.2278C61.3812 49.1464 61.749 48.8779 61.9933 48.4737C62.2114 48.1157 62.3086 47.679 62.2718 47.2477C62.2245 46.7215 61.9802 46.2495 61.5993 45.9539C61.4548 45.8427 61.4259 45.6311 61.5336 45.4819C61.6413 45.3327 61.8462 45.3029 61.9907 45.4141C61.9907 45.4141 61.9907 45.4141 61.9933 45.4168L62.8708 46.0976C63.1965 46.3499 63.5906 46.4475 63.982 46.3743C64.4024 46.2929 64.7701 46.0244 65.0145 45.6202C65.5162 44.7902 65.3402 43.6591 64.6204 43.1004C64.5337 43.0353 64.489 42.9322 64.489 42.8319C64.489 42.7613 64.5101 42.6908 64.5547 42.6284C64.6624 42.4792 64.8673 42.4494 65.0118 42.5606C65.3376 42.8129 65.7316 42.9105 66.1231 42.8373C66.5434 42.7559 66.9112 42.4874 67.1581 42.0832C67.6599 41.2532 67.4839 40.1221 66.7641 39.5634L65.5478 38.633C65.5372 38.6249 65.5267 38.614 65.5162 38.6059C61.7937 34.9089 56.0825 29.2995 55.6096 29.0066C54.4353 28.3393 51.5744 28.1712 47.1084 28.5102C46.6382 28.5455 46.2678 28.4723 45.9946 28.4207C45.9079 28.4044 45.808 28.3827 45.7345 28.3773C45.6163 28.5211 45.3956 28.8086 45.1854 29.1558C41.2396 35.6114 39.905 37.7271 39.4269 38.4377Z" fill="#B7B7B7"/>
<path d="M64.82 43.168C64.7543 43.168 64.6886 43.1463 64.6308 43.1057L61.2314 40.5994C61.0843 40.4909 61.0501 40.2793 61.1552 40.1301C61.2603 39.9809 61.4652 39.943 61.6097 40.0515L65.0091 42.5577C65.1562 42.6662 65.1904 42.8778 65.0853 43.027C65.0222 43.1192 64.9198 43.168 64.82 43.168Z" fill="#B7B7B7"/>
<path d="M61.7964 46.0219C61.728 46.0219 61.6597 46.0002 61.5993 45.9541L58.9828 43.9307C58.8383 43.8195 58.8094 43.6079 58.9171 43.4587C59.0248 43.3095 59.2297 43.2797 59.3742 43.3909L61.9908 45.4144C62.1352 45.5256 62.1641 45.7371 62.0564 45.8863C61.996 45.9758 61.8962 46.0219 61.7964 46.0219Z" fill="#B7B7B7"/>
<path d="M58.0607 48.3221C57.9846 48.3221 57.9084 48.2949 57.8479 48.2407L57.2569 47.7145C57.1203 47.5924 57.1045 47.3808 57.2227 47.2398C57.3409 47.0988 57.5458 47.0825 57.6824 47.2045L58.2735 47.7307C58.4101 47.8528 58.4259 48.0644 58.3077 48.2054C58.242 48.2814 58.1527 48.3221 58.0607 48.3221Z" fill="#B7B7B7"/>
<path d="M41.7729 24.2466L46.9351 27.4039C47.4842 27.7619 47.6497 28.5132 47.3029 29.0801L41.371 38.7961C41.0242 39.363 40.2965 39.5338 39.7475 39.1758L35.2368 36.2409L41.7729 24.2466Z" fill="#D2D2D2"/>
<path d="M40.3726 39.7018C40.0915 39.7018 39.8157 39.6204 39.574 39.4631L35.0634 36.5282C34.9162 36.4333 34.8663 36.2353 34.953 36.078L41.4891 24.0836C41.5312 24.005 41.6047 23.948 41.6888 23.9236C41.7729 23.8992 41.8648 23.9127 41.941 23.9588L47.1032 27.1161C47.4499 27.3412 47.6864 27.6857 47.7757 28.0926C47.865 28.4967 47.7967 28.9144 47.5813 29.2644L41.6494 38.9803C41.434 39.3302 41.1003 39.5743 40.7089 39.6665C40.5959 39.6882 40.4856 39.7018 40.3726 39.7018ZM35.6755 36.1268L39.9234 38.8908C40.1152 39.0155 40.3437 39.0562 40.5644 39.0047C40.7851 38.9532 40.9742 38.8148 41.0951 38.6168L47.027 28.9009C47.1478 28.7029 47.1872 28.4669 47.1373 28.2391C47.0874 28.0112 46.9534 27.8159 46.7616 27.6911L41.8937 24.7129L35.6755 36.1268Z" fill="#B7B7B7"/>
<path d="M62.1694 27.7126C61.841 27.653 60.4171 27.5011 59.5108 27.4767C57.1281 27.4116 55.4336 27.9296 53.5526 28.9359L47.9701 32.1502C46.943 32.8717 46.6776 34.3147 47.3764 35.3753L47.379 35.378C48.0778 36.4385 49.4754 36.7125 50.5026 35.991L57.1333 32.039L68.1906 40.0976L70.3921 38.7658" fill="white"/>
<path d="M68.1906 40.434C68.1249 40.434 68.0592 40.4123 68.0014 40.3716L57.1149 32.4378L50.6655 36.2813C49.5122 37.0923 47.9071 36.7776 47.1084 35.5652C46.3072 34.35 46.6119 32.6954 47.7862 31.8709C47.7941 31.8654 47.802 31.86 47.8099 31.8546L53.3924 28.6404C55.5045 27.5093 57.2752 27.0753 59.5187 27.1377C60.4092 27.1621 61.8594 27.3113 62.2245 27.3791C62.4032 27.4116 62.5214 27.5852 62.4899 27.7697C62.4583 27.9541 62.2902 28.0762 62.1116 28.0436C61.8121 27.9894 60.3961 27.8375 59.5003 27.8131C57.3461 27.7534 55.7226 28.1521 53.6997 29.2344L48.1382 32.435C47.2713 33.0535 47.048 34.2822 47.6417 35.1827C48.2381 36.0887 49.436 36.3247 50.3134 35.7089L56.9625 31.7461C57.0729 31.681 57.2095 31.6864 57.3146 31.7624L68.2011 39.6962L70.2213 38.4729C70.3763 38.378 70.576 38.4322 70.6679 38.5923C70.7598 38.7523 70.7073 38.9584 70.5523 39.0534L68.3508 40.3852C68.3062 40.4177 68.2484 40.434 68.1906 40.434Z" fill="#B7B7B7"/>
<path d="M53.0034 46.6727C53.7022 45.9567 54.8135 45.9838 55.4886 46.7324C56.1638 47.4838 56.1428 48.6718 55.4466 49.3879L53.8099 50.915C53.1216 51.368 52.2048 51.2595 51.6216 50.6085C51.3274 50.283 51.1645 49.8734 51.133 49.453C51.0909 48.9105 51.2696 48.3545 51.6636 47.9503L53.0034 46.6727Z" fill="white"/>
<path d="M52.8957 51.5282C52.3387 51.5282 51.7844 51.2922 51.3772 50.842C51.0462 50.4731 50.8413 49.9902 50.8019 49.4857C50.752 48.8212 50.9806 48.1783 51.4298 47.7172L52.7748 46.4288C53.1742 46.022 53.7022 45.805 54.2512 45.8158C54.8134 45.8267 55.3362 46.0708 55.725 46.5048C56.5158 47.3863 56.4921 48.7859 55.6725 49.6295L54.0227 51.1674C54.0096 51.181 53.9938 51.1919 53.978 51.2027C53.6497 51.4224 53.2714 51.5282 52.8957 51.5282ZM54.2118 46.4912C53.8441 46.4912 53.4973 46.6404 53.2319 46.9144C53.2293 46.9171 53.2267 46.9198 53.2241 46.9225L51.8816 48.2055C51.5769 48.5174 51.4193 48.9677 51.4534 49.4342C51.4797 49.7895 51.6242 50.1286 51.8554 50.3863C52.3125 50.8962 53.0454 51.0047 53.6076 50.6521L55.2233 49.144C55.7854 48.5662 55.8012 47.5843 55.2469 46.9686C54.9789 46.6702 54.6217 46.5021 54.2381 46.4966C54.2302 46.4912 54.2223 46.4912 54.2118 46.4912Z" fill="#B7B7B7"/>
<path d="M46.7536 42.6665C47.1477 42.2624 47.3263 41.7063 47.2843 41.1638C47.2528 40.7461 47.0899 40.3365 46.7957 40.0083C46.2098 39.3574 45.293 39.2516 44.6047 39.7045L42.306 41.8799C41.6072 42.596 41.5888 43.7868 42.264 44.5354C42.9391 45.2867 44.0504 45.3139 44.7492 44.5951L46.7536 42.6665Z" fill="white"/>
<path d="M43.5408 45.4576C43.5277 45.4576 43.5119 45.4576 43.4988 45.4576C42.9366 45.4467 42.4138 45.2026 42.025 44.7686C41.2342 43.8871 41.2579 42.4847 42.0775 41.6439L44.3841 39.4577C44.3972 39.4441 44.413 39.4332 44.4287 39.4224C45.2589 38.8745 46.3544 39.0264 47.0348 39.7832C47.3658 40.152 47.5707 40.6349 47.6101 41.1394C47.66 41.8039 47.4315 42.4468 46.9822 42.9079C46.9796 42.9106 46.977 42.9133 46.9744 42.916L44.9725 44.8473C44.5942 45.2379 44.082 45.4576 43.5408 45.4576ZM44.807 39.9757L42.532 42.1294C41.9672 42.7099 41.9541 43.6918 42.5084 44.3075C42.7763 44.6031 43.1336 44.7713 43.5145 44.7794C43.8876 44.7876 44.2501 44.6384 44.5233 44.359L46.5278 42.4223C46.8378 42.1023 46.9954 41.6547 46.9612 41.1909C46.935 40.8356 46.7905 40.4965 46.5593 40.2388C46.0996 39.7316 45.3666 39.6231 44.807 39.9757Z" fill="#B7B7B7"/>
<path d="M50.4998 44.0443L51.2196 43.3065C51.9184 42.5905 53.0323 42.6176 53.7048 43.3662C54.38 44.1176 54.359 45.3056 53.6628 46.0217L51.661 47.9529L50.3553 49.2929C49.6565 50.0089 48.5453 49.9818 47.8701 49.2332C47.5759 48.9077 47.4156 48.4981 47.3815 48.0804C47.3395 47.5379 47.5181 46.9819 47.9122 46.5777L50.4998 44.0443Z" fill="white"/>
<path d="M49.1443 50.1527C49.1312 50.1527 49.1154 50.1527 49.1023 50.1527C48.5401 50.1419 48.0173 49.8978 47.6285 49.4638C47.2975 49.0949 47.0926 48.6121 47.0558 48.1076C47.0059 47.443 47.2345 46.8002 47.6811 46.3391L50.2713 43.8029L50.9885 43.0679C51.3878 42.6583 51.9185 42.4413 52.4702 42.4494C53.0324 42.4603 53.5552 42.7044 53.944 43.1384C54.7347 44.0199 54.7111 45.4223 53.8914 46.2631L51.8817 48.2025L50.584 49.5343C50.1978 49.933 49.6855 50.1527 49.1443 50.1527ZM52.4308 43.1248C52.063 43.1248 51.7162 43.274 51.4509 43.548L50.7311 44.2858C50.7285 44.2885 50.7285 44.2885 50.7258 44.2912L48.1382 46.8246C47.8308 47.1392 47.6732 47.5895 47.7073 48.056C47.7336 48.4114 47.8781 48.7504 48.1093 49.0054C48.3772 49.301 48.7345 49.4692 49.1154 49.4773C49.5016 49.4882 49.851 49.3363 50.1242 49.0542L51.4299 47.7143L53.4396 45.7749C54.0044 45.1917 54.0202 44.2125 53.4658 43.5941C53.1979 43.2984 52.8406 43.1303 52.4597 43.1221C52.4492 43.1248 52.4413 43.1248 52.4308 43.1248Z" fill="#B7B7B7"/>
<path d="M46.7537 42.6665L48.0593 41.3266C48.7581 40.6105 49.872 40.6376 50.5445 41.3862C50.8387 41.7117 51.0016 42.1213 51.0331 42.5417C51.0752 43.0842 50.8965 43.6403 50.5025 44.0444L47.9148 46.5778L47.195 47.3156C46.4962 48.0317 45.385 48.0046 44.7098 47.2559C44.0347 46.5046 44.0557 45.3165 44.7518 44.6005L46.7537 42.6665Z" fill="white"/>
<path d="M45.9839 48.1726C45.9708 48.1726 45.9576 48.1726 45.9419 48.1726C45.3797 48.1618 44.8569 47.9177 44.4681 47.4837C43.6774 46.6021 43.701 45.1998 44.5206 44.359L46.5251 42.4223L47.8255 41.0878C48.2248 40.6782 48.7502 40.4558 49.3098 40.4693C49.872 40.4802 50.3947 40.7243 50.7809 41.1583C51.1119 41.5272 51.3168 42.01 51.3562 42.5145C51.4062 43.1791 51.1776 43.8219 50.7284 44.283L48.1355 46.8218L47.4235 47.5542C47.0347 47.9556 46.5251 48.1726 45.9839 48.1726ZM49.2704 41.1447C48.9026 41.1447 48.5558 41.2939 48.2905 41.5679L46.9874 42.9078C46.9848 42.9105 46.9822 42.9132 46.9796 42.9159L44.9777 44.8472C44.4103 45.4277 44.3972 46.4096 44.9515 47.028C45.2194 47.3236 45.5767 47.4918 45.9576 47.5C46.3359 47.5135 46.6932 47.3589 46.9664 47.0795L47.6862 46.3417L50.2792 43.8029C50.5865 43.4883 50.7441 43.038 50.71 42.5715C50.6837 42.2161 50.5392 41.8771 50.3081 41.6194C50.0401 41.3238 49.6828 41.1556 49.3019 41.1474C49.2888 41.1447 49.2782 41.1447 49.2704 41.1447Z" fill="#B7B7B7"/>
<path d="M44.7518 44.9367C44.6651 44.9367 44.5784 44.9014 44.5127 44.8309C44.3892 44.6953 44.3971 44.481 44.5285 44.3535L46.5303 42.4223C46.6616 42.2948 46.8692 42.3029 46.9926 42.4386C47.1161 42.5742 47.1082 42.7885 46.9769 42.9159L44.9751 44.8472C44.912 44.9069 44.8332 44.9367 44.7518 44.9367Z" fill="#B7B7B7"/>
<path d="M75.197 35.5111L70.5524 38.7117C69.9849 39.1023 69.2204 38.945 68.8421 38.3591L62.3743 28.353C61.996 27.7671 62.1484 26.9778 62.7158 26.5872L67.4892 23.4326L75.197 35.5111Z" fill="#F5F5F5"/>
<path d="M69.8719 39.265C69.7695 39.265 69.667 39.2542 69.5646 39.2325C69.1548 39.1484 68.8027 38.9043 68.5715 38.5462L62.1037 28.5401C61.8725 28.182 61.7911 27.7535 61.8725 27.3303C61.954 26.9072 62.1904 26.5437 62.5372 26.305L67.3158 23.1478C67.4656 23.0474 67.6652 23.0908 67.765 23.2454L75.4728 35.3212C75.5727 35.4758 75.5306 35.6846 75.3809 35.7877L70.7362 38.9884C70.4762 39.1728 70.1767 39.265 69.8719 39.265ZM67.3946 23.8991L62.8918 26.8747C62.6948 27.0103 62.5582 27.2218 62.5109 27.466C62.4636 27.7101 62.5109 27.9596 62.6449 28.1685L69.1127 38.1746C69.2467 38.3835 69.4516 38.5245 69.688 38.5734C69.9245 38.6222 70.1662 38.5734 70.3685 38.435L74.7425 35.4215L67.3946 23.8991Z" fill="#B7B7B7"/>
<path d="M72 7.66943C76.9207 12.2351 80 18.7579 80 25.9999C80 33.2419 76.9207 39.7647 72 44.3303M38 7.66943C33.0793 12.2351 30 18.7579 30 25.9999C30 33.2419 33.0793 39.7647 38 44.3303" stroke="#B7B7B7" stroke-linecap="round" stroke-dasharray="3 3"/>
</g>
</svg>
