<svg width="81" height="52" viewBox="0 0 81 52" fill="none" xmlns="http://www.w3.org/2000/svg">
    <path d="M0.5 26H12.5" stroke="#51B747" stroke-linecap="round" stroke-linejoin="round"/>
    <path d="M74.5018 41C77.6403 36.8217 79.5 31.628 79.5 26C79.5 12.1929 68.3071 1 54.5 1C40.6929 1 29.5 12.1929 29.5 26C29.5 31.3235 31.1639 36.2583 34 40.3129" stroke="#0059C8" stroke-linecap="round" stroke-dasharray="3 3"/>
    <path d="M53.1501 45.8276C64.1538 45.8276 73.3592 36.9119 73.711 25.9138C74.0628 14.9157 65.4277 6 54.424 6C43.4203 6 34.2148 14.9157 33.863 25.9138C33.5113 36.9119 42.1464 45.8276 53.1501 45.8276Z" fill="#E8F5FF"/>
    <path d="M51.9319 11.7322V10.1078C51.9319 9.69656 51.5873 9.36243 51.161 9.36243H40.0233C39.597 9.36243 39.2523 9.69656 39.2523 10.1078V11.7322" fill="white"/>
    <path d="M51.9319 12.0971C51.7267 12.0971 51.5609 11.9352 51.5609 11.7347V10.1078C51.5609 9.89701 51.382 9.72481 51.1636 9.72481H40.0232C39.8049 9.72481 39.6259 9.89701 39.6259 10.1078V11.7322C39.6259 11.9326 39.4602 12.0946 39.2549 12.0946C39.0497 12.0946 38.884 11.9326 38.884 11.7322V10.1078C38.8787 9.49863 39.3918 9 40.0232 9H51.1636C51.7925 9 52.3056 9.49863 52.3056 10.1078V11.7322C52.3056 11.9326 52.1372 12.0971 51.9319 12.0971Z" fill="#366088"/>
    <path d="M37.8263 17.2685V12.4775C37.8263 12.0663 38.171 11.7322 38.5972 11.7322H52.5872C53.0134 11.7322 53.3581 12.0663 53.3581 12.4775V28.2434L52.6372 51.5708H38.5972C38.171 51.5708 37.8263 51.2367 37.8263 50.8254V48.0804V17.2685Z" fill="#64BDFA"/>
    <path d="M52.6371 51.8921H38.5972C37.992 51.8921 37.5 51.414 37.5 50.828V12.4775C37.5 11.8915 37.992 11.4135 38.5972 11.4135H52.5871C53.1923 11.4135 53.6843 11.8915 53.6843 12.4775V28.2433L52.9634 51.5811C52.9608 51.7558 52.8134 51.8921 52.6371 51.8921ZM38.5972 12.0534C38.3525 12.0534 38.1552 12.2436 38.1552 12.4801V50.8305C38.1552 51.0644 38.3551 51.2572 38.5972 51.2572H52.3188L53.0292 28.2382V12.4801C53.0292 12.2462 52.8292 12.0534 52.5871 12.0534H38.5972Z" fill="#0C6BC2"/>
    <path d="M69.5529 25.1539V23.491C69.5529 23.0746 69.2082 22.7379 68.782 22.7379H57.6442C57.218 22.7379 56.8733 23.0746 56.8733 23.491V25.1539" fill="white"/>
    <path d="M69.5555 25.5163C69.3503 25.5163 69.1845 25.3544 69.1845 25.1539V23.491C69.1845 23.2776 69.0056 23.1029 68.7872 23.1029H57.6442C57.4258 23.1029 57.2469 23.2776 57.2469 23.491V25.1539C57.2469 25.3544 57.0811 25.5163 56.8759 25.5163C56.6706 25.5163 56.5049 25.3544 56.5049 25.1539V23.491C56.5049 22.8767 57.018 22.3755 57.6468 22.3755H68.7872C69.416 22.3755 69.9291 22.8767 69.9291 23.491V25.1539C69.9265 25.3544 69.7607 25.5163 69.5555 25.5163Z" fill="#366088"/>
    <path d="M61.2542 51.5682H70.3581C70.7843 51.5682 71.129 51.2315 71.129 50.8151V25.907C71.129 25.4906 70.7843 25.1539 70.3581 25.1539H56.0682C55.6419 25.1539 55.2972 25.4906 55.2972 25.907V31.3071" fill="white"/>
    <path d="M70.358 51.9332H61.2542C61.0489 51.9332 60.8832 51.7712 60.8832 51.5708C60.8832 51.3703 61.0489 51.2084 61.2542 51.2084H70.358C70.5764 51.2084 70.7553 51.0336 70.7553 50.8203V25.907C70.7553 25.6937 70.5764 25.5189 70.358 25.5189H56.0681C55.8497 25.5189 55.6708 25.6937 55.6708 25.907V31.307C55.6708 31.5075 55.5051 31.6694 55.2998 31.6694C55.0946 31.6694 54.9288 31.5075 54.9288 31.307V25.907C54.9288 25.2927 55.4419 24.7915 56.0708 24.7915H70.3607C70.9895 24.7915 71.5026 25.2927 71.5026 25.907V50.8177C71.5 51.432 70.9895 51.9332 70.358 51.9332Z" fill="#366088"/>
    <path d="M64.1274 30.1042H68.1294C68.282 30.1042 68.4057 29.9834 68.4057 29.8343V28.3462C68.4057 28.1971 68.282 28.0763 68.1294 28.0763H64.1274C63.9748 28.0763 63.8511 28.1971 63.8511 28.3462V29.8343C63.8485 29.9834 63.9721 30.1042 64.1274 30.1042Z" fill="#64BDFA"/>
    <path d="M68.1294 30.4229H64.1274C63.7932 30.4229 63.5222 30.1582 63.5222 29.8318V28.3436C63.5222 28.0172 63.7932 27.7524 64.1274 27.7524H68.1294C68.4636 27.7524 68.7346 28.0172 68.7346 28.3436V29.8318C68.7346 30.1582 68.4636 30.4229 68.1294 30.4229ZM64.1747 29.7855H68.0794V28.395H64.1747V29.7855Z" fill="#0C6BC2"/>
    <path d="M64.1274 33.7489H68.1294C68.282 33.7489 68.4057 33.6281 68.4057 33.479V31.9908C68.4057 31.8417 68.282 31.7209 68.1294 31.7209H64.1274C63.9748 31.7209 63.8511 31.8417 63.8511 31.9908V33.479C63.8485 33.6281 63.9721 33.7489 64.1274 33.7489Z" fill="#64BDFA"/>
    <path d="M68.1294 34.0701H64.1274C63.7932 34.0701 63.5222 33.8054 63.5222 33.479V31.9908C63.5222 31.6644 63.7932 31.3997 64.1274 31.3997H68.1294C68.4636 31.3997 68.7346 31.6644 68.7346 31.9908V33.479C68.7346 33.8054 68.4636 34.0701 68.1294 34.0701ZM64.1747 33.4301H68.0794V32.0396H64.1747V33.4301Z" fill="#0C6BC2"/>
    <path d="M64.1274 37.4217H68.1294C68.282 37.4217 68.4057 37.3009 68.4057 37.1518V35.6637C68.4057 35.5146 68.282 35.3938 68.1294 35.3938H64.1274C63.9748 35.3938 63.8511 35.5146 63.8511 35.6637V37.1518C63.8485 37.3009 63.9721 37.4217 64.1274 37.4217Z" fill="#64BDFA"/>
    <path d="M68.1294 37.743H64.1274C63.7932 37.743 63.5222 37.4782 63.5222 37.1518V35.6637C63.5222 35.3372 63.7932 35.0725 64.1274 35.0725H68.1294C68.4636 35.0725 68.7346 35.3372 68.7346 35.6637V37.1518C68.7346 37.4757 68.4636 37.743 68.1294 37.743ZM64.1747 37.103H68.0794V35.7125H64.1747V37.103Z" fill="#0C6BC2"/>
    <path d="M64.1274 41.0946H68.1294C68.282 41.0946 68.4057 40.9738 68.4057 40.8247V39.3365C68.4057 39.1875 68.282 39.0667 68.1294 39.0667H64.1274C63.9748 39.0667 63.8511 39.1875 63.8511 39.3365V40.8247C63.8485 40.9738 63.9721 41.0946 64.1274 41.0946Z" fill="#64BDFA"/>
    <path d="M68.1294 41.4133H64.1274C63.7932 41.4133 63.5222 41.1485 63.5222 40.8221V39.334C63.5222 39.0075 63.7932 38.7428 64.1274 38.7428H68.1294C68.4636 38.7428 68.7346 39.0075 68.7346 39.334V40.8221C68.7346 41.1485 68.4636 41.4133 68.1294 41.4133ZM64.1747 40.7759H68.0794V39.3854H64.1747V40.7759Z" fill="#0C6BC2"/>
    <path d="M64.1274 44.6568H68.1294C68.282 44.6568 68.4057 44.536 68.4057 44.3869V42.8988C68.4057 42.7497 68.282 42.6289 68.1294 42.6289H64.1274C63.9748 42.6289 63.8511 42.7497 63.8511 42.8988V44.3869C63.8485 44.536 63.9721 44.6568 64.1274 44.6568Z" fill="#64BDFA"/>
    <path d="M68.1294 44.9781H64.1274C63.7932 44.9781 63.5222 44.7134 63.5222 44.3869V42.8988C63.5222 42.5724 63.7932 42.3076 64.1274 42.3076H68.1294C68.4636 42.3076 68.7346 42.5724 68.7346 42.8988V44.3869C68.7346 44.7134 68.4636 44.9781 68.1294 44.9781ZM64.1747 44.3381H68.0794V42.9476H64.1747V44.3381Z" fill="#0C6BC2"/>
    <path d="M68.9529 51.5682V47.5998C68.9529 47.3813 68.7714 47.2014 68.5451 47.2014H63.709C63.4853 47.2014 63.3011 47.3788 63.3011 47.5998V51.5682H68.9529Z" fill="#64BDFA"/>
    <path d="M68.9529 51.8895H63.3038C63.1223 51.8895 62.9775 51.7456 62.9775 51.5708V47.6024C62.9775 47.2065 63.3064 46.8853 63.7116 46.8853H68.5477C68.9529 46.8853 69.2818 47.2065 69.2818 47.6024V51.5708C69.2792 51.7456 69.1345 51.8895 68.9529 51.8895ZM63.6301 51.2495H68.624V47.5998C68.624 47.5561 68.5872 47.5227 68.5451 47.5227H63.709C63.6643 47.5227 63.6301 47.5587 63.6301 47.5998V51.2495Z" fill="#0C6BC2"/>
    <path d="M40.6074 17.6694H50.5795C50.8506 17.6694 51.0716 17.4535 51.0716 17.1888V14.5466C51.0716 14.2818 50.8506 14.0659 50.5795 14.0659H40.6074C40.3364 14.0659 40.1154 14.2818 40.1154 14.5466V17.1862C40.1127 17.4535 40.3338 17.6694 40.6074 17.6694Z" fill="#F07F23"/>
    <path d="M50.5795 18.0318H40.6074C40.1311 18.0318 39.7417 17.6514 39.7417 17.1862V14.5465C39.7417 14.0813 40.1311 13.7009 40.6074 13.7009H50.5795C51.0557 13.7009 51.4452 14.0813 51.4452 14.5465V17.1862C51.4452 17.6514 51.0557 18.0318 50.5795 18.0318ZM40.6074 14.4283C40.5416 14.4283 40.4863 14.4823 40.4863 14.5465V17.1862C40.4863 17.2504 40.5416 17.3044 40.6074 17.3044H50.5795C50.6453 17.3044 50.7005 17.2504 50.7005 17.1862V14.5465C50.7005 14.4823 50.6453 14.4283 50.5795 14.4283H40.6074Z" fill="#366088"/>
    <path d="M40.6074 23.7198H50.5795C50.8506 23.7198 51.0716 23.5039 51.0716 23.2392V20.597C51.0716 20.3322 50.8506 20.1163 50.5795 20.1163H40.6074C40.3364 20.1163 40.1154 20.3322 40.1154 20.597V23.2366C40.1127 23.5039 40.3338 23.7198 40.6074 23.7198Z" fill="white"/>
    <path d="M50.5795 24.0822H40.6074C40.1311 24.0822 39.7417 23.7018 39.7417 23.2366V20.5969C39.7417 20.1317 40.1311 19.7513 40.6074 19.7513H50.5795C51.0557 19.7513 51.4452 20.1292 51.4452 20.5969V23.2366C51.4452 23.7044 51.0557 24.0822 50.5795 24.0822ZM40.6074 20.4787C40.5416 20.4787 40.4863 20.5327 40.4863 20.5969V23.2366C40.4863 23.3008 40.5416 23.3548 40.6074 23.3548H50.5795C50.6453 23.3548 50.7005 23.3008 50.7005 23.2366V20.5969C50.7005 20.5327 50.6453 20.4787 50.5795 20.4787H40.6074Z" fill="#366088"/>
    <path d="M40.6074 29.4411H50.5795C50.8506 29.4411 51.0716 29.2252 51.0716 28.9605V26.3183C51.0716 26.0535 50.8506 25.8376 50.5795 25.8376H40.6074C40.3364 25.8376 40.1154 26.0535 40.1154 26.3183V28.9579C40.1127 29.2252 40.3338 29.4411 40.6074 29.4411Z" fill="white"/>
    <path d="M50.5795 29.8061H40.6074C40.1311 29.8061 39.7417 29.4257 39.7417 28.9605V26.3183C39.7417 25.8531 40.1311 25.4727 40.6074 25.4727H50.5795C51.0557 25.4727 51.4452 25.8505 51.4452 26.3183V28.9579C51.4452 29.4257 51.0557 29.8061 50.5795 29.8061ZM40.6074 26.2026C40.5416 26.2026 40.4863 26.2566 40.4863 26.3208V28.9605C40.4863 29.0247 40.5416 29.0787 40.6074 29.0787H50.5795C50.6453 29.0787 50.7005 29.0247 50.7005 28.9605V26.3183C50.7005 26.254 50.6453 26.2 50.5795 26.2H40.6074V26.2026Z" fill="#366088"/>
    <path d="M61.3858 51.63V32.2298C61.3858 31.8751 60.8622 31.5898 60.2149 31.5898H44.3069C43.6596 31.5898 43.136 31.8777 43.136 32.2298V50.99C43.136 51.3447 43.6596 51.63 44.3069 51.63H61.2805H61.3858Z" fill="white"/>
    <path d="M61.3858 51.9923H44.3068C43.428 51.9923 42.7623 51.5605 42.7623 50.9874V32.2298C42.7623 31.6567 43.4254 31.2249 44.3068 31.2249H60.2149C61.0937 31.2249 61.7594 31.6567 61.7594 32.2298V51.6299C61.7568 51.8304 61.591 51.9923 61.3858 51.9923ZM44.3068 31.9548C43.7727 31.9548 43.507 32.1784 43.507 32.2324V50.9925C43.507 51.0465 43.7727 51.2701 44.3068 51.2701H61.0121V32.2298C61.0121 32.1758 60.7464 31.9522 60.2123 31.9522H44.3068V31.9548Z" fill="#366088"/>
    <path d="M49.1981 52C48.9929 52 48.8271 51.8381 48.8271 51.6376V31.9316C48.8271 31.7311 48.9929 31.5692 49.1981 31.5692C49.4034 31.5692 49.5691 31.7311 49.5691 31.9316V51.635C49.5718 51.8355 49.4034 52 49.1981 52Z" fill="#366088"/>
    <path d="M55.3235 52C55.1183 52 54.9525 51.8381 54.9525 51.6376V31.9316C54.9525 31.7311 55.1183 31.5692 55.3235 31.5692C55.5287 31.5692 55.6945 31.7311 55.6945 31.9316V51.635C55.6945 51.8355 55.5287 52 55.3235 52Z" fill="#366088"/>
    <path d="M61.3858 36.2008H43.136C42.9308 36.2008 42.765 36.0388 42.765 35.8384C42.765 35.6379 42.9308 35.476 43.136 35.476H61.3858C61.591 35.476 61.7568 35.6379 61.7568 35.8384C61.7568 36.0388 61.591 36.2008 61.3858 36.2008Z" fill="#366088"/>
    <path d="M61.3858 48.0393H43.136C42.9308 48.0393 42.765 47.8773 42.765 47.6769C42.765 47.4764 42.9308 47.3145 43.136 47.3145H61.3858C61.591 47.3145 61.7568 47.4764 61.7568 47.6769C61.7568 47.8773 61.591 48.0393 61.3858 48.0393Z" fill="#366088"/>
    <path d="M61.3858 44.0939H43.136C42.9308 44.0939 42.765 43.932 42.765 43.7315C42.765 43.5311 42.9308 43.3691 43.136 43.3691H61.3858C61.591 43.3691 61.7568 43.5311 61.7568 43.7315C61.7568 43.932 61.591 44.0939 61.3858 44.0939Z" fill="#366088"/>
    <path d="M61.3858 40.1461H43.136C42.9308 40.1461 42.765 39.9841 42.765 39.7837C42.765 39.5832 42.9308 39.4213 43.136 39.4213H61.3858C61.591 39.4213 61.7568 39.5832 61.7568 39.7837C61.7568 39.9841 61.591 40.1461 61.3858 40.1461Z" fill="#366088"/>
</svg>
