<svg width="81" height="52" viewBox="0 0 81 52" fill="none" xmlns="http://www.w3.org/2000/svg">
    <path d="M1 26H13" stroke="#0059C8" stroke-linecap="round" stroke-linejoin="round"/>
    <path d="M75.0018 41C78.1403 36.8217 80 31.628 80 26C80 12.1929 68.8071 1 55 1C41.1929 1 30 12.1929 30 26C30 31.3235 31.6639 36.2583 34.5 40.3129" stroke="#0059C8" stroke-linecap="round" stroke-dasharray="3 3"/>
    <path d="M53.6501 45.8276C64.6538 45.8276 73.8592 36.9119 74.211 25.9138C74.5628 14.9157 65.9277 6 54.924 6C43.9203 6 34.7148 14.9157 34.363 25.9138C34.0113 36.9119 42.6464 45.8276 53.6501 45.8276Z" fill="#E8F5FF"/>
    <path d="M52.4321 11.7322V10.1078C52.4321 9.69656 52.0874 9.36243 51.6611 9.36243H40.5234C40.0971 9.36243 39.7524 9.69656 39.7524 10.1078V11.7322" fill="white"/>
    <path d="M52.4321 12.0971C52.2268 12.0971 52.0611 11.9352 52.0611 11.7347V10.1078C52.0611 9.89701 51.8821 9.72481 51.6638 9.72481H40.5234C40.305 9.72481 40.1261 9.89701 40.1261 10.1078V11.7322C40.1261 11.9326 39.9603 12.0946 39.7551 12.0946C39.5498 12.0946 39.3841 11.9326 39.3841 11.7322V10.1078C39.3788 9.49863 39.8919 9 40.5234 9H51.6638C52.2926 9 52.8057 9.49863 52.8057 10.1078V11.7322C52.8057 11.9326 52.6373 12.0971 52.4321 12.0971Z" fill="#366088"/>
    <path d="M38.3262 17.2685V12.4775C38.3262 12.0663 38.6709 11.7322 39.0971 11.7322H53.087C53.5133 11.7322 53.858 12.0663 53.858 12.4775V28.2434L53.137 51.5708H39.0971C38.6709 51.5708 38.3262 51.2367 38.3262 50.8254V48.0804V17.2685Z" fill="#64BDFA"/>
    <path d="M53.1371 51.8921H39.0972C38.492 51.8921 38 51.414 38 50.828V12.4775C38 11.8915 38.492 11.4135 39.0972 11.4135H53.0871C53.6923 11.4135 54.1843 11.8915 54.1843 12.4775V28.2433L53.4634 51.5811C53.4608 51.7558 53.3134 51.8921 53.1371 51.8921ZM39.0972 12.0534C38.8525 12.0534 38.6552 12.2436 38.6552 12.4801V50.8305C38.6552 51.0644 38.8551 51.2572 39.0972 51.2572H52.8188L53.5292 28.2382V12.4801C53.5292 12.2462 53.3292 12.0534 53.0871 12.0534H39.0972Z" fill="#0C6BC2"/>
    <path d="M70.0532 25.1539V23.491C70.0532 23.0746 69.7085 22.7379 69.2822 22.7379H58.1445C57.7182 22.7379 57.3735 23.0746 57.3735 23.491V25.1539" fill="white"/>
    <path d="M70.0557 25.5163C69.8505 25.5163 69.6847 25.3544 69.6847 25.1539V23.491C69.6847 23.2776 69.5058 23.1029 69.2874 23.1029H58.1444C57.926 23.1029 57.7471 23.2776 57.7471 23.491V25.1539C57.7471 25.3544 57.5814 25.5163 57.3761 25.5163C57.1709 25.5163 57.0051 25.3544 57.0051 25.1539V23.491C57.0051 22.8767 57.5182 22.3755 58.1471 22.3755H69.2874C69.9163 22.3755 70.4294 22.8767 70.4294 23.491V25.1539C70.4267 25.3544 70.261 25.5163 70.0557 25.5163Z" fill="#366088"/>
    <path d="M61.7543 51.5682H70.8582C71.2844 51.5682 71.6291 51.2315 71.6291 50.8151V25.907C71.6291 25.4906 71.2844 25.1539 70.8582 25.1539H56.5683C56.142 25.1539 55.7974 25.4906 55.7974 25.907V31.3071" fill="white"/>
    <path d="M70.8581 51.9332H61.7543C61.5491 51.9332 61.3833 51.7712 61.3833 51.5708C61.3833 51.3703 61.5491 51.2084 61.7543 51.2084H70.8581C71.0765 51.2084 71.2555 51.0336 71.2555 50.8203V25.907C71.2555 25.6937 71.0765 25.5189 70.8581 25.5189H56.5683C56.3499 25.5189 56.1709 25.6937 56.1709 25.907V31.307C56.1709 31.5075 56.0052 31.6694 55.8 31.6694C55.5947 31.6694 55.429 31.5075 55.429 31.307V25.907C55.429 25.2927 55.942 24.7915 56.5709 24.7915H70.8608C71.4896 24.7915 72.0027 25.2927 72.0027 25.907V50.8177C72.0001 51.432 71.4896 51.9332 70.8581 51.9332Z" fill="#366088"/>
    <path d="M64.6276 30.1042H68.6296C68.7823 30.1042 68.9059 29.9834 68.9059 29.8343V28.3462C68.9059 28.1971 68.7823 28.0763 68.6296 28.0763H64.6276C64.475 28.0763 64.3514 28.1971 64.3514 28.3462V29.8343C64.3487 29.9834 64.4724 30.1042 64.6276 30.1042Z" fill="#64BDFA"/>
    <path d="M68.6296 30.4229H64.6276C64.2935 30.4229 64.0225 30.1582 64.0225 29.8318V28.3436C64.0225 28.0172 64.2935 27.7524 64.6276 27.7524H68.6296C68.9638 27.7524 69.2348 28.0172 69.2348 28.3436V29.8318C69.2348 30.1582 68.9638 30.4229 68.6296 30.4229ZM64.675 29.7855H68.5796V28.395H64.675V29.7855Z" fill="#0C6BC2"/>
    <path d="M64.6276 33.7489H68.6296C68.7823 33.7489 68.9059 33.6281 68.9059 33.479V31.9908C68.9059 31.8417 68.7823 31.7209 68.6296 31.7209H64.6276C64.475 31.7209 64.3514 31.8417 64.3514 31.9908V33.479C64.3487 33.6281 64.4724 33.7489 64.6276 33.7489Z" fill="#64BDFA"/>
    <path d="M68.6296 34.0701H64.6276C64.2935 34.0701 64.0225 33.8054 64.0225 33.479V31.9908C64.0225 31.6644 64.2935 31.3997 64.6276 31.3997H68.6296C68.9638 31.3997 69.2348 31.6644 69.2348 31.9908V33.479C69.2348 33.8054 68.9638 34.0701 68.6296 34.0701ZM64.675 33.4301H68.5796V32.0396H64.675V33.4301Z" fill="#0C6BC2"/>
    <path d="M64.6276 37.4217H68.6296C68.7823 37.4217 68.9059 37.3009 68.9059 37.1518V35.6637C68.9059 35.5146 68.7823 35.3938 68.6296 35.3938H64.6276C64.475 35.3938 64.3514 35.5146 64.3514 35.6637V37.1518C64.3487 37.3009 64.4724 37.4217 64.6276 37.4217Z" fill="#64BDFA"/>
    <path d="M68.6296 37.743H64.6276C64.2935 37.743 64.0225 37.4782 64.0225 37.1518V35.6637C64.0225 35.3372 64.2935 35.0725 64.6276 35.0725H68.6296C68.9638 35.0725 69.2348 35.3372 69.2348 35.6637V37.1518C69.2348 37.4757 68.9638 37.743 68.6296 37.743ZM64.675 37.103H68.5796V35.7125H64.675V37.103Z" fill="#0C6BC2"/>
    <path d="M64.6276 41.0946H68.6296C68.7823 41.0946 68.9059 40.9738 68.9059 40.8247V39.3365C68.9059 39.1875 68.7823 39.0667 68.6296 39.0667H64.6276C64.475 39.0667 64.3514 39.1875 64.3514 39.3365V40.8247C64.3487 40.9738 64.4724 41.0946 64.6276 41.0946Z" fill="#64BDFA"/>
    <path d="M68.6296 41.4133H64.6276C64.2935 41.4133 64.0225 41.1485 64.0225 40.8221V39.334C64.0225 39.0075 64.2935 38.7428 64.6276 38.7428H68.6296C68.9638 38.7428 69.2348 39.0075 69.2348 39.334V40.8221C69.2348 41.1485 68.9638 41.4133 68.6296 41.4133ZM64.675 40.7759H68.5796V39.3854H64.675V40.7759Z" fill="#0C6BC2"/>
    <path d="M64.6276 44.6568H68.6296C68.7823 44.6568 68.9059 44.536 68.9059 44.3869V42.8988C68.9059 42.7497 68.7823 42.6289 68.6296 42.6289H64.6276C64.475 42.6289 64.3514 42.7497 64.3514 42.8988V44.3869C64.3487 44.536 64.4724 44.6568 64.6276 44.6568Z" fill="#64BDFA"/>
    <path d="M68.6296 44.9781H64.6276C64.2935 44.9781 64.0225 44.7134 64.0225 44.3869V42.8988C64.0225 42.5724 64.2935 42.3076 64.6276 42.3076H68.6296C68.9638 42.3076 69.2348 42.5724 69.2348 42.8988V44.3869C69.2348 44.7134 68.9638 44.9781 68.6296 44.9781ZM64.675 44.3381H68.5796V42.9476H64.675V44.3381Z" fill="#0C6BC2"/>
    <path d="M69.4533 51.5682V47.5998C69.4533 47.3813 69.2717 47.2014 69.0454 47.2014H64.2093C63.9857 47.2014 63.8015 47.3788 63.8015 47.5998V51.5682H69.4533Z" fill="#64BDFA"/>
    <path d="M69.4532 51.8895H63.804C63.6225 51.8895 63.4778 51.7456 63.4778 51.5708V47.6024C63.4778 47.2065 63.8067 46.8853 64.2119 46.8853H69.048C69.4532 46.8853 69.7821 47.2065 69.7821 47.6024V51.5708C69.7794 51.7456 69.6347 51.8895 69.4532 51.8895ZM64.1303 51.2495H69.1243V47.5998C69.1243 47.5561 69.0874 47.5227 69.0453 47.5227H64.2092C64.1645 47.5227 64.1303 47.5587 64.1303 47.5998V51.2495Z" fill="#0C6BC2"/>
    <path d="M41.1073 17.6694H51.0794C51.3504 17.6694 51.5715 17.4535 51.5715 17.1888V14.5466C51.5715 14.2818 51.3504 14.0659 51.0794 14.0659H41.1073C40.8363 14.0659 40.6153 14.2818 40.6153 14.5466V17.1862C40.6126 17.4535 40.8336 17.6694 41.1073 17.6694Z" fill="#F07F23"/>
    <path d="M51.0795 18.0318H41.1074C40.6311 18.0318 40.2417 17.6514 40.2417 17.1862V14.5465C40.2417 14.0813 40.6311 13.7009 41.1074 13.7009H51.0795C51.5557 13.7009 51.9452 14.0813 51.9452 14.5465V17.1862C51.9452 17.6514 51.5557 18.0318 51.0795 18.0318ZM41.1074 14.4283C41.0416 14.4283 40.9863 14.4823 40.9863 14.5465V17.1862C40.9863 17.2504 41.0416 17.3044 41.1074 17.3044H51.0795C51.1453 17.3044 51.2005 17.2504 51.2005 17.1862V14.5465C51.2005 14.4823 51.1453 14.4283 51.0795 14.4283H41.1074Z" fill="#366088"/>
    <path d="M41.1073 23.7198H51.0794C51.3504 23.7198 51.5715 23.5039 51.5715 23.2392V20.597C51.5715 20.3322 51.3504 20.1163 51.0794 20.1163H41.1073C40.8363 20.1163 40.6153 20.3322 40.6153 20.597V23.2366C40.6126 23.5039 40.8336 23.7198 41.1073 23.7198Z" fill="white"/>
    <path d="M51.0795 24.0822H41.1074C40.6311 24.0822 40.2417 23.7018 40.2417 23.2366V20.5969C40.2417 20.1317 40.6311 19.7513 41.1074 19.7513H51.0795C51.5557 19.7513 51.9452 20.1292 51.9452 20.5969V23.2366C51.9452 23.7044 51.5557 24.0822 51.0795 24.0822ZM41.1074 20.4787C41.0416 20.4787 40.9863 20.5327 40.9863 20.5969V23.2366C40.9863 23.3008 41.0416 23.3548 41.1074 23.3548H51.0795C51.1453 23.3548 51.2005 23.3008 51.2005 23.2366V20.5969C51.2005 20.5327 51.1453 20.4787 51.0795 20.4787H41.1074Z" fill="#366088"/>
    <path d="M41.1073 29.4411H51.0794C51.3504 29.4411 51.5715 29.2252 51.5715 28.9605V26.3183C51.5715 26.0535 51.3504 25.8376 51.0794 25.8376H41.1073C40.8363 25.8376 40.6153 26.0535 40.6153 26.3183V28.9579C40.6126 29.2252 40.8336 29.4411 41.1073 29.4411Z" fill="white"/>
    <path d="M51.0795 29.8061H41.1074C40.6311 29.8061 40.2417 29.4257 40.2417 28.9605V26.3183C40.2417 25.8531 40.6311 25.4727 41.1074 25.4727H51.0795C51.5557 25.4727 51.9452 25.8505 51.9452 26.3183V28.9579C51.9452 29.4257 51.5557 29.8061 51.0795 29.8061ZM41.1074 26.2026C41.0416 26.2026 40.9863 26.2566 40.9863 26.3208V28.9605C40.9863 29.0247 41.0416 29.0787 41.1074 29.0787H51.0795C51.1453 29.0787 51.2005 29.0247 51.2005 28.9605V26.3183C51.2005 26.254 51.1453 26.2 51.0795 26.2H41.1074V26.2026Z" fill="#366088"/>
    <path d="M61.8858 51.63V32.2298C61.8858 31.8751 61.3622 31.5898 60.7149 31.5898H44.8069C44.1596 31.5898 43.636 31.8777 43.636 32.2298V50.99C43.636 51.3447 44.1596 51.63 44.8069 51.63H61.7805H61.8858Z" fill="white"/>
    <path d="M61.8859 51.9923H44.8069C43.9281 51.9923 43.2625 51.5605 43.2625 50.9874V32.2298C43.2625 31.6567 43.9255 31.2249 44.8069 31.2249H60.715C61.5938 31.2249 62.2595 31.6567 62.2595 32.2298V51.6299C62.2569 51.8304 62.0911 51.9923 61.8859 51.9923ZM44.8069 31.9548C44.2728 31.9548 44.0071 32.1784 44.0071 32.2324V50.9925C44.0071 51.0465 44.2728 51.2701 44.8069 51.2701H61.5123V32.2298C61.5123 32.1758 61.2465 31.9522 60.7124 31.9522H44.8069V31.9548Z" fill="#366088"/>
    <path d="M49.6981 52C49.4929 52 49.3271 51.8381 49.3271 51.6376V31.9316C49.3271 31.7311 49.4929 31.5692 49.6981 31.5692C49.9034 31.5692 50.0691 31.7311 50.0691 31.9316V51.635C50.0718 51.8355 49.9034 52 49.6981 52Z" fill="#366088"/>
    <path d="M55.8236 52C55.6184 52 55.4526 51.8381 55.4526 51.6376V31.9316C55.4526 31.7311 55.6184 31.5692 55.8236 31.5692C56.0289 31.5692 56.1946 31.7311 56.1946 31.9316V51.635C56.1946 51.8355 56.0289 52 55.8236 52Z" fill="#366088"/>
    <path d="M61.8857 36.2008H43.6359C43.4307 36.2008 43.2649 36.0388 43.2649 35.8384C43.2649 35.6379 43.4307 35.476 43.6359 35.476H61.8857C62.0909 35.476 62.2567 35.6379 62.2567 35.8384C62.2567 36.0388 62.0909 36.2008 61.8857 36.2008Z" fill="#366088"/>
    <path d="M61.8857 48.0393H43.6359C43.4307 48.0393 43.2649 47.8773 43.2649 47.6769C43.2649 47.4764 43.4307 47.3145 43.6359 47.3145H61.8857C62.0909 47.3145 62.2567 47.4764 62.2567 47.6769C62.2567 47.8773 62.0909 48.0393 61.8857 48.0393Z" fill="#366088"/>
    <path d="M61.8857 44.0939H43.6359C43.4307 44.0939 43.2649 43.932 43.2649 43.7315C43.2649 43.5311 43.4307 43.3691 43.6359 43.3691H61.8857C62.0909 43.3691 62.2567 43.5311 62.2567 43.7315C62.2567 43.932 62.0909 44.0939 61.8857 44.0939Z" fill="#366088"/>
    <path d="M61.8857 40.1461H43.6359C43.4307 40.1461 43.2649 39.9841 43.2649 39.7837C43.2649 39.5832 43.4307 39.4213 43.6359 39.4213H61.8857C62.0909 39.4213 62.2567 39.5832 62.2567 39.7837C62.2567 39.9841 62.0909 40.1461 61.8857 40.1461Z" fill="#366088"/>
</svg>
