<svg width="81" height="53" viewBox="0 0 81 53" fill="none" xmlns="http://www.w3.org/2000/svg">
    <path d="M0.5 26H12.5" stroke="#0059C8" stroke-linecap="round" stroke-linejoin="round"/>
    <path d="M67 4.3446C74.4725 8.66722 79.5 16.7465 79.5 26C79.5 32.0863 77.3252 37.6645 73.7102 42M42 4.3446C34.5275 8.66722 29.5 16.7465 29.5 26C29.5 32.0863 31.6748 37.6645 35.2898 42" stroke="#0059C8" stroke-linecap="round" stroke-dasharray="3 3"/>
    <path d="M53.424 45.8276C64.4277 45.8276 73.6332 36.9119 73.9849 25.9138C74.3367 14.9157 65.7016 6 54.6979 6C43.6942 6 34.4888 14.9157 34.137 25.9138C33.7852 36.9119 42.4203 45.8276 53.424 45.8276Z" fill="#E8F5FF"/>
    <path d="M59.485 32.3776V46.8845H38.1077V32.3776C38.1077 31.9898 38.5498 31.676 39.0967 31.676H58.5006C59.0428 31.6731 59.485 31.9898 59.485 32.3776Z" fill="#40A0FF"/>
    <path d="M59.392 47.0968H38.4778C38.273 47.0968 38.1055 46.978 38.1055 46.8331V32.6295C38.1078 32.102 38.7082 31.676 39.4459 31.676H58.4262C59.1639 31.676 59.7643 32.102 59.7643 32.6295V46.8331C59.7643 46.978 59.5968 47.0968 59.392 47.0968ZM38.8502 46.5694H59.0197V32.6295C59.0197 32.3948 58.752 32.2064 58.4239 32.2064H39.4459C39.1178 32.2064 38.8502 32.3977 38.8502 32.6295V46.5694Z" fill="#0059C8"/>
    <path d="M69.8151 47.008V44.1088C69.8151 43.5976 69.6941 43.0934 69.4567 42.6219L67.1203 37.9719C66.962 37.6568 66.599 37.4537 66.1987 37.4537H62.054C61.5002 37.4537 61.051 37.8366 61.051 38.3058V47.0057H69.8151V47.008Z" fill="white"/>
    <path d="M69.8152 47.2438C69.6616 47.2438 69.5383 47.1388 69.5383 47.008V44.1089C69.5383 43.628 69.4265 43.1588 69.2031 42.7153L66.8667 38.0654C66.7526 37.8366 66.4897 37.6895 66.1988 37.6895H62.0541C61.6538 37.6895 61.328 37.9673 61.328 38.3058V47.0057C61.328 47.1364 61.2047 47.2415 61.0511 47.2415C60.8975 47.2415 60.7742 47.1364 60.7742 47.0057V38.3081C60.7742 37.7082 61.349 37.2203 62.0541 37.2203H66.1965C66.7108 37.2203 67.1715 37.4794 67.374 37.8809L69.7105 42.5309C69.9618 43.0327 70.0898 43.5626 70.0898 44.1089V47.0057C70.0921 47.1364 69.9688 47.2438 69.8152 47.2438Z" fill="#0059C8"/>
    <path d="M67.5671 38.8638H63.4341C63.0687 38.8638 62.7732 39.1159 62.7732 39.4263V41.121C62.7732 41.4315 63.0687 41.6836 63.4341 41.6836H68.9821L67.5671 38.8638Z" fill="#E8F5FF"/>
    <path d="M68.9844 41.917H63.4365C62.9199 41.917 62.4987 41.5598 62.4987 41.1186V39.4239C62.4987 38.9851 62.9199 38.6256 63.4365 38.6256H67.5695C67.6812 38.6256 67.7813 38.6816 67.8255 38.768L69.2404 41.5855C69.2777 41.6579 69.2684 41.7419 69.2172 41.8073C69.1636 41.8773 69.0775 41.917 68.9844 41.917ZM63.4365 39.0995C63.2247 39.0995 63.0525 39.2465 63.0525 39.4263V41.121C63.0525 41.3007 63.2247 41.4478 63.4365 41.4478H68.5632L67.3834 39.1018H63.4365V39.0995Z" fill="#0059C8"/>
    <path d="M63.4133 49.2911H52.4198C52.2662 49.2911 52.1428 49.1861 52.1428 49.0553C52.1428 48.9246 52.2662 48.8196 52.4198 48.8196H63.4133C63.5668 48.8196 63.6902 48.9246 63.6902 49.0553C63.6902 49.1861 63.5668 49.2911 63.4133 49.2911Z" fill="#0059C8"/>
    <path d="M69.8758 47.0082H37.8005C37.3584 47.0082 37 47.2603 37 47.5707V48.4951C37 48.8056 37.3584 49.0577 37.8005 49.0577H44.0141H66.6247H69.8758C70.3179 49.0577 70.6763 48.8056 70.6763 48.4951V47.5707C70.6763 47.2579 70.3179 47.0082 69.8758 47.0082Z" fill="white"/>
    <path d="M69.8316 49.2911H38.124C37.505 49.2911 37.0023 48.9339 37.0023 48.4927V47.5683C37.0023 47.1295 37.505 46.77 38.124 46.77H69.8316C70.4506 46.77 70.9533 47.1272 70.9533 47.5683V48.4927C70.9533 48.9339 70.4506 49.2911 69.8316 49.2911ZM38.124 47.2439C37.8703 47.2439 37.6656 47.3909 37.6656 47.5707V48.4951C37.6656 48.6748 37.8703 48.8219 38.124 48.8219H69.8316C70.0852 48.8219 70.29 48.6748 70.29 48.4951V47.5707C70.29 47.3909 70.0852 47.2439 69.8316 47.2439H38.124Z" fill="#0059C8"/>
    <path d="M67.4533 49.9211C67.4533 51.0019 66.548 51.8773 65.4333 51.8773C64.3186 51.8773 63.4133 51.0019 63.4133 49.9211C63.4133 48.8403 64.3186 47.965 65.4333 47.965C66.548 47.965 67.4533 48.8403 67.4533 49.9211Z" fill="#40A0FF"/>
    <path d="M65.4331 52.1483C64.1672 52.1483 63.1362 51.1492 63.1362 49.9214C63.1362 48.6935 64.1672 47.6945 65.4331 47.6945C66.6991 47.6945 67.73 48.6935 67.73 49.9214C67.73 51.1492 66.6991 52.1483 65.4331 52.1483ZM65.4331 48.2337C64.472 48.2337 63.6901 48.99 63.6901 49.9214C63.6901 50.8528 64.472 51.6091 65.4331 51.6091C66.3943 51.6091 67.1762 50.8528 67.1762 49.9214C67.1762 48.9923 66.3943 48.2337 65.4331 48.2337Z" fill="#0059C8"/>
    <path d="M50.2419 49.921C50.2419 51.0018 49.3366 51.8771 48.2219 51.8771C47.1072 51.8771 46.2019 51.0018 46.2019 49.921C46.2019 48.8402 47.1072 47.9648 48.2219 47.9648C49.3389 47.9648 50.2419 48.8402 50.2419 49.921Z" fill="#40A0FF"/>
    <path d="M48.2218 52.1483C46.9559 52.1483 45.9249 51.1492 45.9249 49.9214C45.9249 48.6935 46.9559 47.6945 48.2218 47.6945C49.4878 47.6945 50.5187 48.6935 50.5187 49.9214C50.5187 51.1492 49.4901 52.1483 48.2218 52.1483ZM48.2218 48.2337C47.2607 48.2337 46.4788 48.99 46.4788 49.9214C46.4788 50.8528 47.2607 51.6091 48.2218 51.6091C49.1829 51.6091 49.9649 50.8528 49.9649 49.9214C49.9649 48.9923 49.1829 48.2337 48.2218 48.2337Z" fill="#0059C8"/>
    <path d="M61.7841 49.921C61.7841 51.0018 60.8788 51.8771 59.7641 51.8771C58.6494 51.8771 57.7441 51.0018 57.7441 49.921C57.7441 48.8402 58.6494 47.9648 59.7641 47.9648C60.8788 47.9648 61.7841 48.8402 61.7841 49.921Z" fill="#40A0FF"/>
    <path d="M59.7643 52.1483C58.4983 52.1483 57.4674 51.1492 57.4674 49.9214C57.4674 48.6935 58.4983 47.6945 59.7643 47.6945C61.0303 47.6945 62.0612 48.6935 62.0612 49.9214C62.0612 51.1492 61.0303 52.1483 59.7643 52.1483ZM59.7643 48.2337C58.8032 48.2337 58.0213 48.99 58.0213 49.9214C58.0213 50.8528 58.8032 51.6091 59.7643 51.6091C60.7254 51.6091 61.5074 50.8528 61.5074 49.9214C61.5074 48.9923 60.7254 48.2337 59.7643 48.2337Z" fill="#0059C8"/>
    <path d="M44.6563 49.9211C44.6563 51.0019 43.751 51.8773 42.6363 51.8773C41.5216 51.8773 40.6163 51.0019 40.6163 49.9211C40.6163 48.8403 41.5216 47.965 42.6363 47.965C43.751 47.965 44.6563 48.8403 44.6563 49.9211Z" fill="#40A0FF"/>
    <path d="M42.6364 52.1483C41.3704 52.1483 40.3395 51.1492 40.3395 49.9214C40.3395 48.6935 41.3704 47.6945 42.6364 47.6945C43.9024 47.6945 44.9333 48.6935 44.9333 49.9214C44.9333 51.1492 43.9024 52.1483 42.6364 52.1483ZM42.6364 48.2337C41.6753 48.2337 40.8933 48.99 40.8933 49.9214C40.8933 50.8528 41.6753 51.6091 42.6364 51.6091C43.5975 51.6091 44.3794 50.8528 44.3794 49.9214C44.3794 48.9923 43.5975 48.2337 42.6364 48.2337Z" fill="#0059C8"/>
    <path d="M51.6795 46.9055C51.5259 46.9055 51.4026 46.7846 51.4026 46.6371V31.9445C51.4026 31.797 51.5259 31.676 51.6795 31.676C51.8331 31.676 51.9565 31.797 51.9565 31.9445V46.6341C51.9565 46.7846 51.8331 46.9055 51.6795 46.9055Z" fill="#0059C8"/>
    <path d="M44.3912 46.9055C44.2376 46.9055 44.1143 46.7846 44.1143 46.6371V31.9445C44.1143 31.797 44.2376 31.676 44.3912 31.676C44.5448 31.676 44.6681 31.797 44.6681 31.9445V46.6341C44.6704 46.7846 44.5448 46.9055 44.3912 46.9055Z" fill="#0059C8"/>
    <path d="M59.1569 40.5514H39.2155C39.013 40.5514 38.8501 40.4767 38.8501 40.3857C38.8501 40.2947 39.013 40.22 39.2155 40.22H59.1569C59.3594 40.22 59.5223 40.2947 59.5223 40.3857C59.5223 40.4767 59.3594 40.5514 59.1569 40.5514Z" fill="#0059C8"/>
    <path d="M56.1452 12.6912V16.5643L52.5145 16.5674V12.6849L56.1452 12.6912Z" fill="white"/>
    <path d="M52.1189 16.9647V12.2882L56.5411 12.2945V16.9585L52.1189 16.9647ZM52.9105 13.0822V16.1676L55.7496 16.1645V13.0853L52.9105 13.0822Z" fill="#0059C8"/>
    <path d="M65.3482 24.4264C63.8118 19.7811 59.4488 16.4301 54.3035 16.4301C49.1582 16.4301 44.7921 19.7811 43.2588 24.4264" fill="#F07F23"/>
    <path d="M43.6325 24.5515L42.8815 24.3014C44.5145 19.356 49.105 16.0331 54.3033 16.0331C59.5015 16.0331 64.089 19.356 65.722 24.3014L64.9709 24.5515C63.447 19.9312 59.1587 16.8271 54.3033 16.8271C49.4478 16.8271 45.1596 19.9312 43.6325 24.5515Z" fill="#0059C8"/>
    <path d="M60.4526 22.0632C58.8944 20.4845 56.7315 19.5061 54.3412 19.5061C51.9509 19.5061 49.7881 20.4845 48.2298 22.0632L45.8083 27.1961C45.8426 27.7119 46.2727 28.1308 46.8087 28.1308H50.7074C51.1531 28.1308 51.552 27.8369 51.6673 27.4055C51.9852 26.2239 53.0603 25.3549 54.3381 25.3549C55.6158 25.3549 56.691 26.2239 57.0089 27.4055C57.1242 27.8369 57.5231 28.1308 57.9688 28.1308H61.8706C62.4066 28.1308 62.8367 27.7119 62.8709 27.1961L60.4526 22.0632Z" fill="white"/>
    <path d="M61.8704 28.5276H57.9717C57.3422 28.5276 56.7905 28.1087 56.6285 27.5085C56.3511 26.4738 55.41 25.7517 54.3379 25.7517C53.2658 25.7517 52.3278 26.4738 52.0473 27.5085C51.8852 28.1087 51.3336 28.5276 50.7041 28.5276H46.8085C46.073 28.5276 45.4591 27.9524 45.4124 27.2209L45.4061 27.1177L47.8993 21.8316L47.946 21.7848C49.6476 20.0592 51.9195 19.1089 54.3379 19.1089C56.7563 19.1089 59.0282 20.0592 60.7297 21.7848L60.7765 21.8316L63.2697 27.1209L63.2634 27.224C63.2167 27.9555 62.6027 28.5276 61.8704 28.5276ZM54.341 24.9577C55.7683 24.9577 57.0243 25.9205 57.3951 27.3022C57.4637 27.5554 57.7005 27.7336 57.9717 27.7336H61.8704C62.1571 27.7336 62.4033 27.5304 62.4625 27.2584L60.122 22.2943C58.5763 20.75 56.5225 19.9029 54.341 19.9029C52.1595 19.9029 50.1057 20.7532 48.5569 22.2943L46.2164 27.2584C46.2756 27.5304 46.5218 27.7336 46.8116 27.7336H50.7103C50.9815 27.7336 51.2183 27.5554 51.2869 27.3022C51.6577 25.9205 52.9137 24.9577 54.341 24.9577Z" fill="#0059C8"/>
    <path d="M44.6207 27.7053L41.4762 26.1736C41.1209 26.0017 40.9744 25.5734 41.1458 25.217L43.8229 19.6934C43.9943 19.337 44.4212 19.1901 44.7734 19.362L47.9179 20.8937C48.6565 21.2532 48.965 22.1442 48.6035 22.885L46.6028 27.0114C46.2475 27.7554 45.3593 28.0648 44.6207 27.7053Z" fill="white"/>
    <path d="M45.2689 28.2529C44.9884 28.2529 44.7079 28.1903 44.4493 28.0622L41.3016 26.5304C41.0367 26.3991 40.8342 26.1741 40.7376 25.8927C40.641 25.6114 40.6597 25.3113 40.7874 25.0424L43.4645 19.5188C43.5954 19.2531 43.8197 19.0499 44.1002 18.953C44.3807 18.8561 44.6799 18.8748 44.9479 19.003L48.0924 20.5347C49.0242 20.9911 49.4169 22.1196 48.9619 23.0574L46.9611 27.1869C46.743 27.6402 46.3597 27.9809 45.8828 28.1466C45.6834 28.2185 45.4746 28.2529 45.2689 28.2529ZM44.4617 19.6907C44.4275 19.6907 44.3932 19.697 44.3589 19.7095C44.2779 19.7376 44.2155 19.7939 44.1781 19.872L41.5011 25.3926C41.4637 25.4676 41.4575 25.5551 41.4855 25.6364C41.5136 25.7177 41.5697 25.7802 41.6476 25.8177L44.7921 27.3494C45.0539 27.4776 45.3499 27.4932 45.6242 27.3995C45.8984 27.3026 46.1197 27.1056 46.2475 26.843L48.2482 22.7167C48.51 22.1759 48.2856 21.5194 47.7434 21.2568L44.5989 19.7251C44.5583 19.7001 44.5116 19.6907 44.4617 19.6907Z" fill="#0059C8"/>
    <path d="M64.0578 27.7054L67.2023 26.1736C67.5576 26.0017 67.704 25.5734 67.5326 25.2202L64.8556 19.6965C64.6842 19.3402 64.2572 19.1932 63.9051 19.3652L60.7606 20.8969C60.022 21.2564 59.7134 22.1473 60.075 22.8882L62.0757 27.0145C62.431 27.7554 63.3223 28.0649 64.0578 27.7054Z" fill="white"/>
    <path d="M63.4097 28.2527C63.204 28.2527 62.9952 28.2183 62.7926 28.1496C62.3189 27.9839 61.9356 27.6431 61.7143 27.1899L59.7136 23.0635C59.4923 22.6103 59.4643 22.0976 59.6263 21.6224C59.7915 21.1473 60.1312 20.7628 60.5831 20.5408L63.7276 19.0091C63.9925 18.8809 64.2948 18.8622 64.5753 18.9591C64.8557 19.056 65.0801 19.256 65.211 19.5249L67.888 25.0485C68.1561 25.5987 67.9254 26.2677 67.3769 26.5334L64.2324 28.0652C63.9707 28.1902 63.6933 28.2527 63.4097 28.2527ZM64.2169 19.6906C64.1701 19.6906 64.1234 19.6999 64.0797 19.7218L60.9352 21.2536C60.6734 21.3817 60.4771 21.6037 60.3805 21.8788C60.2839 22.1539 60.3026 22.4508 60.4304 22.7134L62.4311 26.8398C62.5589 27.1023 62.7802 27.2993 63.0544 27.3962C63.3287 27.49 63.6247 27.4743 63.8865 27.3462L67.031 25.8144C67.1868 25.7394 67.2523 25.5487 67.1775 25.3893L64.5005 19.8656C64.4631 19.7906 64.4007 19.7312 64.3197 19.7031C64.2854 19.6937 64.2511 19.6906 64.2169 19.6906Z" fill="#0059C8"/>
    <path d="M46.9796 19.031C46.6275 19.3186 46.2909 19.6249 45.973 19.95L45.3279 19.6343C45.2157 19.5812 45.1004 19.5436 44.9851 19.5218V19.5186V17.7024C44.9851 17.1491 45.4339 16.699 45.9855 16.699C46.5371 16.699 46.9859 17.1491 46.9859 17.7024V19.0404L46.9796 19.031Z" fill="white"/>
    <path d="M46.0167 20.1909L45.2407 19.8126C45.1472 19.7657 45.0475 19.7345 44.9477 19.7157L44.7483 19.6782L44.7857 19.4938V17.6963C44.7857 17.0336 45.3248 16.4928 45.9855 16.4928C46.6462 16.4928 47.1854 17.0336 47.1854 17.6963V19.6001L46.9516 19.3093C46.6618 19.5532 46.3813 19.8158 46.1164 20.0877L46.0167 20.1909ZM45.1846 19.3656C45.2625 19.3906 45.3404 19.4187 45.4152 19.4563L45.9325 19.7095C46.2037 19.4375 46.4904 19.1749 46.7896 18.9311V17.7026C46.7896 17.2587 46.4281 16.8961 45.9855 16.8961C45.543 16.8961 45.1815 17.2587 45.1815 17.7026V19.3656H45.1846Z" fill="#0059C8"/>
    <path d="M61.6986 19.031C62.0508 19.3186 62.3874 19.6249 62.7052 19.95L63.3503 19.6343C63.4625 19.5812 63.5778 19.5436 63.6931 19.5218V19.5186V17.7024C63.6931 17.1491 63.2444 16.699 62.6928 16.699C62.1412 16.699 61.6924 17.1491 61.6924 17.7024V19.0404L61.6986 19.031Z" fill="white"/>
    <path d="M62.662 20.1909L62.5622 20.0877C62.2973 19.8158 62.0169 19.5563 61.727 19.3093L61.4933 19.6001V17.6963C61.4933 17.0336 62.0324 16.4928 62.6931 16.4928C63.3538 16.4928 63.893 17.0336 63.893 17.6963V19.4938L63.9304 19.672L63.7309 19.7126C63.6312 19.7313 63.5314 19.7626 63.438 19.8095L62.662 20.1909ZM61.8891 18.928C62.1851 19.1718 62.4719 19.4344 62.7461 19.7063L63.2634 19.4531C63.3382 19.4156 63.4161 19.3875 63.4941 19.3625V17.6963C63.4941 17.2524 63.1325 16.8898 62.69 16.8898C62.2475 16.8898 61.886 17.2524 61.886 17.6963V18.928H61.8891Z" fill="#0059C8"/>
    <path d="M58.495 1.50033C59.5078 1.81919 60.2807 2.782 60.2807 4.15745V7.59607L48.2948 7.63358V4.16995C48.2948 2.08803 49.9777 0.396851 52.0564 0.396851H58.7848C58.7848 1.64101 57.7782 2.65071 56.5378 2.65071H54.0415" fill="#CEECFF"/>
    <path d="M47.8988 8.03074V4.17011C47.8988 1.87248 49.7624 0 52.0562 0H59.1804V0.397004C59.1804 0.709606 59.1274 1.0097 59.0277 1.28792C60.0436 1.79121 60.6794 2.87281 60.6794 4.1576V7.99323L47.8988 8.03074ZM52.053 0.794009C50.1987 0.794009 48.6873 2.307 48.6873 4.17011V7.23673L59.8816 7.20234V4.16073C59.8816 3.1604 59.4141 2.35389 58.6475 1.98815C58.1644 2.63211 57.3978 3.05099 56.5314 3.05099H54.0351V2.25698H56.5314C57.4165 2.25698 58.1582 1.63178 58.342 0.797135H52.053V0.794009Z" fill="#0059C8"/>
    <path d="M58.8532 6.95216V6.44574C58.8532 4.34818 57.1579 2.65076 55.0698 2.65076H53.5085C51.4173 2.65076 49.7251 4.35131 49.7251 6.44574V6.95528C48.6873 6.97091 47.849 7.81806 47.849 8.86215C47.849 9.90624 48.6873 10.7534 49.7251 10.769V10.9253C49.7251 13.2167 51.5763 15.0735 53.8606 15.0735H54.7177C57.002 15.0735 58.8532 13.2167 58.8532 10.9253V10.7721C59.9035 10.7721 60.7542 9.91875 60.7542 8.86528C60.7574 7.80556 59.9035 6.95216 58.8532 6.95216Z" fill="white"/>
    <path d="M54.7176 15.4673H53.8606C51.4297 15.4673 49.4383 13.5386 49.3323 11.1253C48.2665 10.9252 47.4531 9.98118 47.4531 8.85894C47.4531 7.73982 48.2634 6.79576 49.3292 6.5957V6.44565C49.3292 4.1324 51.2053 2.25366 53.5084 2.25366H55.0697C57.3759 2.25366 59.2489 4.13552 59.2489 6.44565V6.58945C60.3272 6.77701 61.15 7.72419 61.15 8.86206C61.15 9.99993 60.3241 10.9471 59.2427 11.1347C59.1367 13.5417 57.1453 15.4673 54.7176 15.4673ZM53.5084 3.04454C51.6385 3.04454 50.1208 4.57004 50.1208 6.44252V7.34282L49.7313 7.34907C48.9116 7.36157 48.2447 8.03679 48.2447 8.85894C48.2447 9.68108 48.9116 10.3563 49.7313 10.3688L50.1208 10.3751V10.9221C50.1208 12.9915 51.7975 14.6733 53.8606 14.6733H54.7176C56.7807 14.6733 58.4573 12.9915 58.4573 10.9221V10.3719H58.8531C59.6852 10.3719 60.3584 9.69358 60.3584 8.86206C60.3584 8.03054 59.6821 7.3522 58.8531 7.3522H58.4573V6.44878C58.4573 4.57317 56.9365 3.0508 55.0697 3.0508H53.5084V3.04454Z" fill="#0059C8"/>
</svg>
