<svg width="81" height="52" viewBox="0 0 81 52" fill="none" xmlns="http://www.w3.org/2000/svg">
    <path d="M0.5 26H12.5" stroke="#0059C8" stroke-linecap="round" stroke-linejoin="round"/>
    <path d="M53.8618 44.3774C64.8656 44.3774 74.071 35.4617 74.4228 24.4636C74.7746 13.4655 66.1395 4.5498 55.1358 4.5498C44.132 4.5498 34.9266 13.4655 34.5748 24.4636C34.223 35.4617 42.8581 44.3774 53.8618 44.3774Z" fill="#E8F5FF"/>
    <path d="M62.8776 21.0565H46.1223C44.3779 21.0565 42.9645 19.5973 42.9645 17.7962V6.63998C42.9645 4.83893 44.3779 3.37964 46.1223 3.37964H62.8776C64.622 3.37964 66.0354 4.83893 66.0354 6.63998V17.7989C66.0327 19.5973 64.622 21.0565 62.8776 21.0565Z" fill="#40A0FF"/>
    <path d="M62.8778 21.3956H46.1224C44.202 21.3956 42.6389 19.7817 42.6389 17.799V6.64002C42.6389 4.65723 44.202 3.04333 46.1224 3.04333H62.8778C64.7982 3.04333 66.3613 4.65723 66.3613 6.64002V17.799C66.3613 19.7817 64.7982 21.3956 62.8778 21.3956ZM46.1224 3.71602C44.5619 3.71602 43.2931 5.02612 43.2931 6.6373V17.7962C43.2931 19.4074 44.5619 20.7175 46.1224 20.7175H62.8778C64.4382 20.7175 65.7071 19.4074 65.7071 17.7962V6.64002C65.7071 5.02883 64.4382 3.71873 62.8778 3.71873H46.1224V3.71602Z" fill="#0059C8"/>
    <path d="M59.3627 14.9727H49.6347C47.8877 14.9727 46.272 13.9229 45.5181 12.2982L45.0321 11.2458L42.6703 6.38781C42.5889 6.22235 42.6546 6.01892 42.8148 5.93484C42.9751 5.85075 43.1721 5.91856 43.2535 6.08402L45.6179 10.9474L46.1065 12.0053C46.7528 13.3967 48.1372 14.2945 49.632 14.2945H59.36C60.8653 14.2945 62.2524 13.3859 62.8961 11.9836L63.361 10.9772L65.7385 6.08402C65.82 5.91856 66.0144 5.85075 66.1773 5.93484C66.3375 6.01892 66.4032 6.22235 66.3217 6.38781L63.9469 11.2729L63.4871 12.2738C62.7411 13.9121 61.1202 14.9727 59.3627 14.9727Z" fill="#0059C8"/>
    <path d="M56.5307 15.6535H52.4692C52.2906 15.6535 52.1461 15.5043 52.1461 15.3198V14.186C52.1461 14.0016 52.2906 13.8524 52.4692 13.8524H56.5307C56.7093 13.8524 56.8538 14.0016 56.8538 14.186V15.3198C56.8564 15.5016 56.7093 15.6535 56.5307 15.6535Z" fill="#F07F23"/>
    <path d="M56.5307 15.9898H52.4693C52.1094 15.9898 51.8177 15.6887 51.8177 15.3171V14.1833C51.8177 13.8117 52.1094 13.5106 52.4693 13.5106H56.5307C56.8906 13.5106 57.1822 13.8117 57.1822 14.1833V15.3171C57.1822 15.6887 56.8906 15.9898 56.5307 15.9898ZM56.5307 15.3144V15.6507V15.3144ZM56.5281 14.1833L52.4693 14.186L52.4719 15.3198L56.5281 15.3171V14.1833Z" fill="#0059C8"/>
    <path d="M57.7076 0.336304H51.2923C50.9981 0.336304 50.759 0.583135 50.759 0.886927V3.3688H52.351V2.20246C52.351 1.98004 52.527 1.7983 52.7425 1.7983H56.2575C56.4729 1.7983 56.6489 1.98004 56.6489 2.20246V3.3688H58.2409V0.889639C58.2409 0.583135 58.0018 0.336304 57.7076 0.336304Z" fill="white"/>
    <path d="M58.2409 3.70789H56.6489C56.4676 3.70789 56.3232 3.556 56.3232 3.37155V2.20521C56.3232 2.16994 56.2943 2.14011 56.2601 2.14011H52.7425C52.7083 2.14011 52.6794 2.16994 52.6794 2.20521V3.37155C52.6794 3.55871 52.5323 3.70789 52.3537 3.70789H50.7617C50.5804 3.70789 50.4359 3.556 50.4359 3.37155V0.889677C50.4359 0.398727 50.8221 0 51.2976 0H57.7102C58.1857 0 58.5719 0.398727 58.5719 0.889677V3.37155C58.5667 3.556 58.4222 3.70789 58.2409 3.70789ZM56.9747 3.0325H57.9151V0.889677C57.9151 0.773043 57.8232 0.675395 57.7076 0.675395H51.2923C51.1794 0.675395 51.0848 0.77033 51.0848 0.889677V3.03521H52.0253V2.20249C52.0253 1.79563 52.3458 1.462 52.7425 1.462H56.2575C56.6515 1.462 56.9747 1.79292 56.9747 2.20249V3.0325Z" fill="#0059C8"/>
    <path d="M66.9365 42.2598C66.3454 43.2362 65.1737 43.4912 64.3199 42.8294C65.1737 43.4912 65.3865 44.8203 64.7954 45.7968C64.2044 46.7732 63.0327 47.0282 62.1789 46.3664L61.2988 45.6856C61.7691 46.0517 62.0449 46.6186 62.1001 47.2181C62.1447 47.7063 62.0397 48.2135 61.7743 48.653C61.1832 49.6294 60.0116 49.8844 59.1578 49.2226L57.5631 47.9857C58.0334 48.3519 58.3092 48.9188 58.3644 49.5182C58.4091 50.0065 58.3381 50.3238 58.0754 50.7497C57.7181 51.3274 56.8433 52.0869 55.7846 51.3708L38.4802 38.5166C38.6326 38.4298 44.4173 28.9716 44.4173 28.9716C44.7431 28.4372 45.0872 28.0439 45.0872 28.0439C45.3605 27.9761 45.836 28.2284 46.5926 28.1714C48.7415 28.0086 53.5175 27.7103 55.2776 28.7112C55.8687 29.0475 65.2499 38.362 65.2499 38.362L66.4689 39.2924C67.3148 39.9569 67.5276 41.2833 66.9365 42.2598Z" fill="white"/>
    <path d="M56.641 52.0001C56.289 52.0001 55.9422 51.8835 55.6007 51.6529L38.2858 38.7906C38.1938 38.7228 38.1439 38.6116 38.1492 38.4976C38.1544 38.4108 38.1912 38.3322 38.249 38.2752C38.5537 37.8819 41.9243 32.4082 44.1362 28.7926C44.4725 28.2392 44.8245 27.8351 44.8403 27.8188C44.885 27.7673 44.9428 27.732 45.0058 27.7184C45.1923 27.6723 45.392 27.7103 45.6205 27.7564C45.8701 27.8052 46.1775 27.8649 46.5637 27.8378C51.2214 27.4852 54.1217 27.675 55.43 28.4182C56.0263 28.7573 63.8497 36.5121 65.4548 38.1071L66.658 39.0266C67.6458 39.7915 67.8954 41.324 67.215 42.4442C66.8708 43.0111 66.348 43.3882 65.7464 43.5048C65.5783 43.5373 65.4128 43.5482 65.2473 43.5373C65.5652 44.3022 65.5258 45.2326 65.0713 45.9812C64.7271 46.5481 64.207 46.9252 63.6027 47.0418C63.1824 47.1232 62.7621 47.0662 62.3785 46.8872C62.3996 46.9875 62.4127 47.0906 62.4232 47.1937C62.4757 47.7714 62.3418 48.3546 62.0502 48.8374C61.706 49.4043 61.1859 49.7814 60.5816 49.898C60.0089 50.0092 59.4336 49.8654 58.9581 49.4965L58.656 49.2606C58.6691 49.3365 58.6796 49.4125 58.6875 49.4911C58.7374 50.0634 58.6455 50.454 58.3486 50.9368C58.2252 51.1349 57.7654 51.7967 56.9983 51.9649C56.8775 51.9866 56.7593 52.0001 56.641 52.0001ZM38.9268 38.438L55.9711 51.0969C56.2627 51.2949 56.5649 51.3654 56.8591 51.3003C57.2715 51.2081 57.6131 50.8609 57.7969 50.568C58.0176 50.2099 58.0754 49.9712 58.036 49.5481C57.9887 49.0192 57.7444 48.5472 57.3635 48.2542C57.219 48.143 57.1901 47.9315 57.2978 47.7823C57.4055 47.6331 57.6104 47.6033 57.7549 47.7145L59.3495 48.9513C59.6753 49.2036 60.0694 49.3013 60.4608 49.228C60.8811 49.1466 61.2489 48.8781 61.4932 48.474C61.7113 48.1159 61.8085 47.6792 61.7717 47.2479C61.7244 46.7217 61.4801 46.2498 61.0992 45.9541C60.9547 45.8429 60.9258 45.6313 61.0335 45.4821C61.1412 45.333 61.3461 45.3031 61.4906 45.4143C61.4906 45.4143 61.4906 45.4143 61.4932 45.4171L62.3707 46.0979C62.6964 46.3501 63.0905 46.4478 63.4819 46.3745C63.9022 46.2932 64.27 46.0246 64.5143 45.6205C65.0161 44.7905 64.8401 43.6594 64.1203 43.1006C64.0336 43.0355 63.9889 42.9325 63.9889 42.8321C63.9889 42.7616 64.0099 42.6911 64.0546 42.6287C64.1623 42.4795 64.3672 42.4497 64.5117 42.5609C64.8375 42.8131 65.2315 42.9108 65.623 42.8375C66.0433 42.7562 66.4111 42.4876 66.658 42.0835C67.1598 41.2535 66.9838 40.1224 66.264 39.5636L65.0476 38.6333C65.0371 38.6251 65.0266 38.6143 65.0161 38.6061C61.2936 34.9091 55.5823 29.2998 55.1095 29.0068C53.9352 28.3396 51.0743 28.1714 46.6083 28.5105C46.1381 28.5457 45.7677 28.4725 45.4944 28.421C45.4077 28.4047 45.3079 28.383 45.2344 28.3776C45.1161 28.5213 44.8955 28.8088 44.6853 29.156C40.7395 35.6116 39.4049 37.7273 38.9268 38.438Z" fill="#0059C8"/>
    <path d="M64.3199 43.1684C64.2542 43.1684 64.1885 43.1467 64.1308 43.106L60.7313 40.5997C60.5842 40.4912 60.5501 40.2797 60.6552 40.1305C60.7602 39.9813 60.9651 39.9433 61.1096 40.0518L64.509 42.5581C64.6562 42.6666 64.6903 42.8782 64.5852 43.0274C64.5222 43.1196 64.4197 43.1684 64.3199 43.1684Z" fill="#0059C8"/>
    <path d="M61.2962 46.0218C61.2279 46.0218 61.1596 46.0001 61.0991 45.954L58.4826 43.9305C58.3381 43.8193 58.3092 43.6078 58.4169 43.4586C58.5246 43.3094 58.7295 43.2796 58.874 43.3908L61.4906 45.4142C61.6351 45.5254 61.664 45.737 61.5562 45.8862C61.4958 45.9757 61.396 46.0218 61.2962 46.0218Z" fill="#0059C8"/>
    <path d="M57.5605 48.3221C57.4843 48.3221 57.4081 48.2949 57.3477 48.2407L56.7566 47.7145C56.62 47.5924 56.6042 47.3808 56.7225 47.2398C56.8407 47.0988 57.0456 47.0825 57.1822 47.2045L57.7733 47.7307C57.9099 47.8528 57.9257 48.0644 57.8074 48.2054C57.7418 48.2814 57.6524 48.3221 57.5605 48.3221Z" fill="#0059C8"/>
    <path d="M41.2727 24.2465L46.4349 27.4037C46.9839 27.7618 47.1495 28.5131 46.8027 29.08L40.8708 38.7959C40.524 39.3628 39.7963 39.5337 39.2473 39.1757L34.7366 36.2408L41.2727 24.2465Z" fill="#40A0FF"/>
    <path d="M39.8725 39.7019C39.5914 39.7019 39.3156 39.6205 39.0739 39.4632L34.5632 36.5284C34.4161 36.4334 34.3662 36.2354 34.4529 36.0781L40.989 24.0837C41.0311 24.0051 41.1046 23.9481 41.1887 23.9237C41.2727 23.8993 41.3647 23.9129 41.4409 23.959L46.603 27.1162C46.9498 27.3414 47.1862 27.6858 47.2756 28.0927C47.3649 28.4969 47.2966 28.9146 47.0812 29.2645L41.1493 38.9804C40.9338 39.3303 40.6002 39.5744 40.2088 39.6666C40.0958 39.6883 39.9855 39.7019 39.8725 39.7019ZM35.1753 36.1269L39.4233 38.8909C39.6151 39.0157 39.8436 39.0563 40.0643 39.0048C40.285 38.9533 40.4741 38.8149 40.595 38.6169L46.5269 28.901C46.6477 28.703 46.6871 28.467 46.6372 28.2392C46.5873 28.0113 46.4533 27.816 46.2615 27.6913L41.3936 24.713L35.1753 36.1269Z" fill="#0059C8"/>
    <path d="M61.6693 27.713C61.3409 27.6533 59.917 27.5014 59.0107 27.477C56.6279 27.4119 54.9335 27.93 53.0525 28.9363L47.47 32.1505C46.4428 32.872 46.1775 34.3151 46.8763 35.3756L46.8789 35.3783C47.5777 36.4389 48.9753 36.7128 50.0025 35.9913L56.6332 32.0393L67.6905 40.098L69.892 38.7662" fill="white"/>
    <path d="M67.6905 40.4342C67.6248 40.4342 67.5591 40.4125 67.5013 40.3719L56.6148 32.438L50.1654 36.2815C49.0121 37.0925 47.4069 36.7779 46.6083 35.5654C45.8071 34.3503 46.1118 32.6957 47.2861 31.8711C47.294 31.8657 47.3019 31.8603 47.3097 31.8548L52.8922 28.6406C55.0044 27.5095 56.775 27.0755 59.0185 27.1379C59.9091 27.1623 61.3593 27.3115 61.7244 27.3793C61.9031 27.4119 62.0213 27.5855 61.9897 27.7699C61.9582 27.9544 61.7901 28.0764 61.6114 28.0439C61.312 27.9896 59.896 27.8377 59.0002 27.8133C56.846 27.7536 55.2224 28.1524 53.1996 29.2346L47.6381 32.4353C46.7712 33.0537 46.5479 34.2825 47.1416 35.183C47.738 36.0889 48.9359 36.3249 49.8133 35.7092L56.4624 31.7463C56.5728 31.6812 56.7094 31.6867 56.8144 31.7626L67.701 39.6965L69.7212 38.4732C69.8762 38.3782 70.0758 38.4325 70.1678 38.5925C70.2597 38.7525 70.2072 38.9587 70.0522 39.0536L67.8507 40.3854C67.8061 40.418 67.7483 40.4342 67.6905 40.4342Z" fill="#0059C8"/>
    <path d="M52.5034 46.6729C53.2022 45.9568 54.3134 45.9839 54.9886 46.7325C55.6637 47.4839 55.6427 48.6719 54.9465 49.388L53.3099 50.9151C52.6216 51.3681 51.7047 51.2596 51.1215 50.6086C50.8273 50.2831 50.6644 49.8735 50.6329 49.4531C50.5909 48.9106 50.7695 48.3546 51.1636 47.9504L52.5034 46.6729Z" fill="white"/>
    <path d="M52.3957 51.5281C51.8387 51.5281 51.2844 51.2921 50.8772 50.8418C50.5462 50.4729 50.3413 49.9901 50.3019 49.4856C50.252 48.8211 50.4806 48.1782 50.9298 47.7171L52.2748 46.4287C52.6742 46.0218 53.2022 45.8048 53.7512 45.8157C54.3134 45.8265 54.8362 46.0707 55.225 46.5047C56.0158 47.3862 55.9921 48.7858 55.1725 49.6294L53.5227 51.1673C53.5096 51.1809 53.4938 51.1917 53.478 51.2026C53.1497 51.4223 52.7714 51.5281 52.3957 51.5281ZM53.7118 46.4911C53.3441 46.4911 52.9973 46.6403 52.7319 46.9142C52.7293 46.9169 52.7267 46.9197 52.7241 46.9224L51.3816 48.2053C51.0769 48.5173 50.9193 48.9675 50.9534 49.4341C50.9797 49.7894 51.1242 50.1285 51.3554 50.3861C51.8125 50.8961 52.5454 51.0046 53.1076 50.652L54.7233 49.1438C55.2854 48.5661 55.3012 47.5842 54.7469 46.9685C54.4789 46.6701 54.1217 46.5019 53.7381 46.4965C53.7302 46.4911 53.7223 46.4911 53.7118 46.4911Z" fill="#0059C8"/>
    <path d="M46.2536 42.6666C46.6477 42.2625 46.8263 41.7064 46.7843 41.164C46.7528 40.7462 46.5899 40.3367 46.2957 40.0085C45.7098 39.3575 44.793 39.2517 44.1047 39.7047L41.806 41.88C41.1072 42.5961 41.0888 43.7869 41.764 44.5355C42.4391 45.2868 43.5504 45.314 44.2492 44.5952L46.2536 42.6666Z" fill="white"/>
    <path d="M43.0407 45.4577C43.0276 45.4577 43.0118 45.4577 42.9987 45.4577C42.4365 45.4468 41.9137 45.2027 41.5249 44.7687C40.7342 43.8872 40.7578 42.4849 41.5775 41.644L43.884 39.4578C43.8972 39.4442 43.9129 39.4334 43.9287 39.4225C44.7588 38.8746 45.8543 39.0265 46.5347 39.7833C46.8657 40.1522 47.0706 40.635 47.11 41.1395C47.16 41.804 46.9314 42.4469 46.4822 42.908C46.4796 42.9107 46.4769 42.9134 46.4743 42.9161L44.4725 44.8474C44.0942 45.238 43.5819 45.4577 43.0407 45.4577ZM44.307 39.9759L42.0319 42.1295C41.4671 42.71 41.454 43.6919 42.0083 44.3076C42.2763 44.6033 42.6335 44.7714 43.0145 44.7796C43.3875 44.7877 43.75 44.6385 44.0233 44.3591L46.0277 42.4225C46.3377 42.1024 46.4953 41.6549 46.4612 41.191C46.4349 40.8357 46.2904 40.4966 46.0592 40.239C45.5995 39.7317 44.8665 39.6232 44.307 39.9759Z" fill="#0059C8"/>
    <path d="M49.9998 44.0444L50.7196 43.3067C51.4184 42.5906 52.5323 42.6177 53.2048 43.3663C53.88 44.1177 53.859 45.3057 53.1628 46.0218L51.161 47.953L49.8553 49.293C49.1565 50.0091 48.0453 49.9819 47.3701 49.2333C47.0759 48.9078 46.9156 48.4982 46.8815 48.0805C46.8395 47.538 47.0181 46.982 47.4122 46.5778L49.9998 44.0444Z" fill="white"/>
    <path d="M48.6443 50.1529C48.6311 50.1529 48.6154 50.1529 48.6022 50.1529C48.0401 50.142 47.5173 49.8979 47.1285 49.4639C46.7975 49.095 46.5925 48.6122 46.5558 48.1077C46.5059 47.4431 46.7344 46.8003 47.181 46.3392L49.7713 43.8031L50.4885 43.068C50.8878 42.6584 51.4184 42.4414 51.9701 42.4496C52.5323 42.4604 53.0551 42.7045 53.4439 43.1385C54.2347 44.0201 54.211 45.4224 53.3914 46.2632L51.3817 48.2026L50.0839 49.5344C49.6977 49.9332 49.1855 50.1529 48.6443 50.1529ZM51.9307 43.125C51.5629 43.125 51.2162 43.2741 50.9508 43.5481L50.231 44.2859C50.2284 44.2886 50.2284 44.2886 50.2258 44.2913L47.6381 46.8247C47.3307 47.1394 47.1731 47.5896 47.2073 48.0562C47.2335 48.4115 47.378 48.7505 47.6092 49.0055C47.8772 49.3012 48.2345 49.4693 48.6154 49.4775C49.0016 49.4883 49.351 49.3364 49.6242 49.0543L50.9298 47.7144L52.9395 45.775C53.5043 45.1918 53.5201 44.2126 52.9658 43.5942C52.6978 43.2986 52.3405 43.1304 51.9596 43.1222C51.9491 43.125 51.9412 43.125 51.9307 43.125Z" fill="#0059C8"/>
    <path d="M46.2537 42.6665L47.5593 41.3266C48.2581 40.6105 49.372 40.6376 50.0445 41.3862C50.3387 41.7117 50.5016 42.1213 50.5331 42.5417C50.5752 43.0842 50.3965 43.6403 50.0025 44.0444L47.4148 46.5778L46.695 47.3156C45.9962 48.0317 44.885 48.0046 44.2098 47.2559C43.5347 46.5046 43.5557 45.3165 44.2518 44.6005L46.2537 42.6665Z" fill="white"/>
    <path d="M45.4839 48.1728C45.4708 48.1728 45.4576 48.1728 45.4419 48.1728C44.8797 48.1619 44.3569 47.9178 43.9681 47.4838C43.1774 46.6023 43.201 45.1999 44.0206 44.3591L46.0251 42.4224L47.3255 41.0879C47.7248 40.6783 48.2502 40.4559 48.8098 40.4695C49.372 40.4803 49.8947 40.7244 50.2809 41.1584C50.6119 41.5273 50.8168 42.0101 50.8562 42.5146C50.9062 43.1792 50.6776 43.822 50.2284 44.2831L47.6355 46.822L46.9235 47.5543C46.5347 47.9558 46.0251 48.1728 45.4839 48.1728ZM48.7704 41.1449C48.4026 41.1449 48.0558 41.294 47.7905 41.568L46.4874 42.9079C46.4848 42.9106 46.4822 42.9134 46.4796 42.9161L44.4777 44.8473C43.9103 45.4278 43.8972 46.4097 44.4515 47.0281C44.7194 47.3238 45.0767 47.4919 45.4576 47.5001C45.8359 47.5136 46.1932 47.359 46.4664 47.0797L47.1862 46.3419L49.7792 43.803C50.0865 43.4884 50.2441 43.0381 50.21 42.5716C50.1837 42.2163 50.0392 41.8772 49.8081 41.6195C49.5401 41.3239 49.1828 41.1557 48.8019 41.1476C48.7888 41.1449 48.7782 41.1449 48.7704 41.1449Z" fill="#0059C8"/>
    <path d="M44.2518 44.9369C44.1651 44.9369 44.0784 44.9017 44.0127 44.8312C43.8893 44.6955 43.8972 44.4813 44.0285 44.3538L46.0303 42.4225C46.1617 42.295 46.3692 42.3032 46.4927 42.4388C46.6162 42.5744 46.6083 42.7887 46.4769 42.9162L44.4751 44.8474C44.4121 44.9071 44.3333 44.9369 44.2518 44.9369Z" fill="#0059C8"/>
    <path d="M74.6968 35.5112L70.0522 38.7119C69.4847 39.1024 68.7203 38.9451 68.342 38.3592L61.8741 28.3531C61.4958 27.7672 61.6482 26.9779 62.2157 26.5873L66.989 23.4327L74.6968 35.5112Z" fill="#CEECFF"/>
    <path d="M69.3718 39.2652C69.2693 39.2652 69.1668 39.2543 69.0644 39.2326C68.6546 39.1485 68.3025 38.9044 68.0714 38.5464L61.6035 28.5402C61.3724 28.1822 61.2909 27.7536 61.3724 27.3305C61.4538 26.9073 61.6902 26.5439 62.037 26.3052L66.8156 23.1479C66.9654 23.0475 67.165 23.0909 67.2649 23.2455L74.9726 35.3213C75.0725 35.4759 75.0304 35.6847 74.8807 35.7878L70.2361 38.9885C69.976 39.1729 69.6765 39.2652 69.3718 39.2652ZM66.8944 23.8992L62.3917 26.8748C62.1946 27.0104 62.058 27.222 62.0107 27.4661C61.9634 27.7102 62.0107 27.9597 62.1447 28.1686L68.6125 38.1748C68.7465 38.3836 68.9514 38.5247 69.1879 38.5735C69.4243 38.6223 69.666 38.5735 69.8683 38.4351L74.2423 35.4216L66.8944 23.8992Z" fill="#0059C8"/>
    <path d="M71.5 7.66956C76.4207 12.2352 79.5 18.758 79.5 26C79.5 33.242 76.4207 39.7648 71.5 44.3305M37.5 7.66956C32.5793 12.2352 29.5 18.758 29.5 26C29.5 33.242 32.5793 39.7648 37.5 44.3305" stroke="#0059C8" stroke-linecap="round" stroke-dasharray="3 3"/>
</svg>
