<svg width="16" height="21" viewBox="0 0 16 21" fill="none" xmlns="http://www.w3.org/2000/svg">
<path d="M7.84437 18.8952L8 18.9461L8.15563 18.8952C11.8328 17.6908 14.5 13.7824 14.5 9.59V4.81V4.45637L14.1666 4.33856L8.16657 2.21856L8 2.15971L7.83343 2.21856L1.83343 4.33856L1.5 4.45637V4.81V9.59C1.5 13.7927 4.16747 17.6908 7.84437 18.8952ZM6.59728 11.5644L6.95083 11.9163L7.30355 11.5636L11.19 7.67711L11.8929 8.38L6.94 13.3329L4.10836 10.5013L4.81958 9.79504L6.59728 11.5644ZM0.5 3.8465L8 1.034L15.5 3.8465V9.59C15.5 14.3927 12.2815 18.8431 8 19.9836C3.71846 18.8431 0.5 14.3927 0.5 9.59V3.8465Z" fill="black" stroke="#003567"/>
</svg>
