<svg width="20" height="20" viewBox="0 0 20 20" fill="none" xmlns="http://www.w3.org/2000/svg">
<path d="M14.437 5.10339L14.8355 4.70487L14.3923 4.35668C13.1389 3.37182 11.6138 2.83317 10.0001 2.83317C6.05727 2.83317 2.83341 6.05703 2.83341 9.99984C2.83341 11.6135 3.37206 13.1386 4.35692 14.3921L4.70512 14.8352L5.10363 14.4367L14.437 5.10339ZM5.56319 14.8963L5.16468 15.2948L5.60784 15.643C6.86129 16.6279 8.3864 17.1665 10.0001 17.1665C13.9429 17.1665 17.1667 13.9426 17.1667 9.99984C17.1667 8.38616 16.6281 6.86105 15.6432 5.60759L15.295 5.16443L14.8965 5.56295L5.56319 14.8963ZM2.16675 9.99984C2.16675 5.69265 5.69289 2.1665 10.0001 2.1665C14.3073 2.1665 17.8334 5.69265 17.8334 9.99984C17.8334 14.307 14.3073 17.8332 10.0001 17.8332C5.69289 17.8332 2.16675 14.307 2.16675 9.99984Z" stroke="#51ACB5"/>
</svg>
