<svg width="20" height="20" viewBox="0 0 20 20" fill="none" xmlns="http://www.w3.org/2000/svg">
<path d="M17.4167 3.33317V2.80914C17.5216 2.95812 17.5834 3.13906 17.5834 3.33317V13.3332C17.5834 13.5273 17.5216 13.7082 17.4167 13.8572V13.3332V3.33317ZM16.6667 2.4165C16.8609 2.4165 17.0418 2.47832 17.1908 2.58317H16.6667H6.66675H6.14272C6.2917 2.47832 6.47264 2.4165 6.66675 2.4165H16.6667ZM5.91675 2.80914V3.33317V13.3332V13.8572C5.8119 13.7082 5.75008 13.5273 5.75008 13.3332V3.33317C5.75008 3.13906 5.8119 2.95812 5.91675 2.80914ZM6.66675 14.2498C6.47264 14.2498 6.2917 14.188 6.14272 14.0832H6.66675H16.6667H17.1908C17.0418 14.188 16.8609 14.2498 16.6667 14.2498H6.66675ZM8.5566 8.75023L8.66736 8.63868L9.86014 9.83722L10.3925 10.3722L10.9241 9.83644L14.6669 6.06447L14.777 6.17537L10.3916 10.6011L8.5566 8.75023ZM2.58341 16.6665V17.1905C2.47857 17.0416 2.41675 16.8606 2.41675 16.6665V5.74984H2.58341V16.6665ZM3.33341 17.5832C3.1393 17.5832 2.95836 17.5214 2.80939 17.4165H3.33341H14.2501V17.5832H3.33341Z" stroke="#A0A1A7" stroke-width="1.5"/>
</svg>
