<svg width="27" height="28" viewBox="0 0 27 28" fill="none" xmlns="http://www.w3.org/2000/svg">
    <path d="M13.5001 0.666748C6.14808 0.666748 0.166748 6.64808 0.166748 14.0001C0.166748 21.3521 6.14808 27.3334 13.5001 27.3334C20.8521 27.3334 26.8334 21.3521 26.8334 14.0001C26.8334 6.64808 20.8521 0.666748 13.5001 0.666748ZM13.5001 6.13342C13.8429 6.13342 14.178 6.23507 14.4631 6.42553C14.7481 6.616 14.9703 6.88671 15.1015 7.20343C15.2327 7.52016 15.267 7.86867 15.2001 8.2049C15.1332 8.54114 14.9681 8.84999 14.7257 9.0924C14.4833 9.33481 14.1745 9.4999 13.8382 9.56678C13.502 9.63366 13.1535 9.59933 12.8368 9.46814C12.52 9.33695 12.2493 9.11478 12.0589 8.82974C11.8684 8.54469 11.7667 8.20957 11.7667 7.86675C11.7667 7.40704 11.9494 6.96616 12.2744 6.6411C12.5995 6.31603 13.0404 6.13342 13.5001 6.13342ZM16.7001 21.2001H10.8334C10.5505 21.2001 10.2792 21.0877 10.0792 20.8877C9.87913 20.6876 9.76675 20.4163 9.76675 20.1334C9.76675 19.8505 9.87913 19.5792 10.0792 19.3792C10.2792 19.1791 10.5505 19.0667 10.8334 19.0667H12.7001V13.2001H11.6334C11.3505 13.2001 11.0792 13.0877 10.8792 12.8877C10.6791 12.6876 10.5667 12.4163 10.5667 12.1334C10.5667 11.8505 10.6791 11.5792 10.8792 11.3792C11.0792 11.1791 11.3505 11.0667 11.6334 11.0667H13.7667C14.0496 11.0667 14.321 11.1791 14.521 11.3792C14.721 11.5792 14.8334 11.8505 14.8334 12.1334V19.0667H16.7001C16.983 19.0667 17.2543 19.1791 17.4543 19.3792C17.6544 19.5792 17.7667 19.8505 17.7667 20.1334C17.7667 20.4163 17.6544 20.6876 17.4543 20.8877C17.2543 21.0877 16.983 21.2001 16.7001 21.2001Z" fill="#51B747" />
</svg>