<svg width="20" height="20" viewBox="0 0 20 20" fill="none" xmlns="http://www.w3.org/2000/svg">
<path d="M16.6665 1.6665H3.33317C2.49984 1.6665 1.6665 2.4165 1.6665 3.33317V5.8415C1.6665 6.4415 2.02484 6.95817 2.49984 7.24984V16.6665C2.49984 17.5832 3.4165 18.3332 4.1665 18.3332H15.8332C16.5832 18.3332 17.4998 17.5832 17.4998 16.6665V7.24984C17.9748 6.95817 18.3332 6.4415 18.3332 5.8415V3.33317C18.3332 2.4165 17.4998 1.6665 16.6665 1.6665ZM15.8332 16.6665H4.1665V7.49984H15.8332V16.6665ZM16.6665 5.83317H3.33317V3.33317H16.6665V5.83317Z" fill="#A0A1A7"/>
<path d="M12.4998 9.99984H7.49984V11.6665H12.4998V9.99984Z" fill="#A0A1A7"/>
</svg>
