<svg width="24" height="25" viewBox="0 0 24 25" fill="none" xmlns="http://www.w3.org/2000/svg">
<path d="M3.5 9.2V8.92028L3.26163 8.77391C2.80981 8.49648 2.5 8.02374 2.5 7.51V4.5C2.5 3.69198 3.26003 3 4 3H20C20.74 3 21.5 3.69198 21.5 4.5V7.51C21.5 8.02374 21.1902 8.49648 20.7384 8.77391L20.5 8.92028V9.2V20.5C20.5 20.8797 20.3083 21.2551 19.9959 21.5474C19.6789 21.8439 19.2958 22 19 22H5C4.70424 22 4.32111 21.8439 4.00408 21.5474C3.6917 21.2551 3.5 20.8797 3.5 20.5V9.2ZM19 21H19.5V20.5V9.5V9H19H5H4.5V9.5V20.5V21H5H19ZM20 8H20.5V7.5V4.5V4H20H4H3.5V4.5V7.5V8H4H20ZM9.5 13H14.5V14H9.5V13Z" fill="black" stroke="#003567"/>
</svg>
