<svg width="16" height="17" viewBox="0 0 16 17" fill="none" xmlns="http://www.w3.org/2000/svg">
<path d="M14.6667 11.78V13.78C14.6674 13.9657 14.6294 14.1495 14.555 14.3196C14.4806 14.4897 14.3715 14.6424 14.2347 14.7679C14.0979 14.8934 13.9364 14.989 13.7605 15.0485C13.5846 15.108 13.3983 15.1301 13.2133 15.1133C11.1619 14.8904 9.19134 14.1894 7.46001 13.0667C5.84923 12.0431 4.48356 10.6775 3.46001 9.06668C2.33333 7.32748 1.63217 5.34734 1.41334 3.28668C1.39668 3.10233 1.41859 2.91652 1.47767 2.7411C1.53676 2.56567 1.63172 2.40447 1.75652 2.26776C1.88131 2.13105 2.03321 2.02182 2.20253 1.94703C2.37186 1.87224 2.5549 1.83352 2.74001 1.83335H4.74001C5.06354 1.83016 5.3772 1.94473 5.62251 2.1557C5.86783 2.36667 6.02806 2.65964 6.07334 2.98001C6.15775 3.62006 6.31431 4.2485 6.54001 4.85335C6.6297 5.09196 6.64911 5.35129 6.59594 5.6006C6.54277 5.84991 6.41925 6.07875 6.24001 6.26001L5.39334 7.10668C6.34238 8.77571 7.72431 10.1576 9.39334 11.1067L10.24 10.26C10.4213 10.0808 10.6501 9.95725 10.8994 9.90408C11.1487 9.85091 11.4081 9.87032 11.6467 9.96001C12.2515 10.1857 12.88 10.3423 13.52 10.4267C13.8439 10.4724 14.1396 10.6355 14.351 10.885C14.5624 11.1345 14.6748 11.4531 14.6667 11.78Z" stroke="#4E5055" stroke-width="1.5" stroke-linecap="round" stroke-linejoin="round"/>
</svg>
