<svg width="32" height="32" viewBox="0 0 32 32" fill="none" xmlns="http://www.w3.org/2000/svg">
<path d="M4 8H6.66667H28" fill="#DA294A"/>
<path d="M4 8H6.66667H28" stroke="#DA294A" stroke-width="2" stroke-linecap="round" stroke-linejoin="round"/>
<path d="M10.6667 7.99984V5.33317C10.6667 4.62593 10.9476 3.94765 11.4477 3.44755C11.9478 2.94746 12.6261 2.6665 13.3334 2.6665H18.6667C19.3739 2.6665 20.0522 2.94746 20.5523 3.44755C21.0524 3.94765 21.3334 4.62593 21.3334 5.33317V7.99984M25.3334 7.99984V26.6665C25.3334 27.3737 25.0524 28.052 24.5523 28.5521C24.0522 29.0522 23.3739 29.3332 22.6667 29.3332H9.33335C8.62611 29.3332 7.94783 29.0522 7.44774 28.5521C6.94764 28.052 6.66669 27.3737 6.66669 26.6665V7.99984H25.3334Z" stroke="#DA294A" stroke-width="2" stroke-linecap="round" stroke-linejoin="round"/>
<path d="M13.3333 14.6665V22.6665" stroke="#DA294A" stroke-width="2" stroke-linecap="round" stroke-linejoin="round"/>
<path d="M18.6667 14.6665V22.6665" stroke="#DA294A" stroke-width="2" stroke-linecap="round" stroke-linejoin="round"/>
</svg>
