<svg width="62" height="62" viewBox="0 0 62 62" fill="none" xmlns="http://www.w3.org/2000/svg">
<g filter="url(#filter0_d_1_17425)">
<rect x="15" y="18" width="32" height="32" rx="16" fill="#003567"/>
<path d="M20 26V32H26" stroke="white" stroke-width="2" stroke-linecap="round" stroke-linejoin="round"/>
<path d="M42 42V36H36" stroke="white" stroke-width="2" stroke-linecap="round" stroke-linejoin="round"/>
<path d="M39.49 31C38.9828 29.5668 38.1209 28.2854 36.9845 27.2754C35.8482 26.2654 34.4745 25.5598 32.9917 25.2243C31.5089 24.8888 29.9652 24.9344 28.5048 25.3568C27.0444 25.7792 25.7147 26.5647 24.64 27.64L20 32M42 36L37.36 40.36C36.2853 41.4353 34.9556 42.2208 33.4952 42.6432C32.0348 43.0657 30.4911 43.1113 29.0083 42.7758C27.5255 42.4402 26.1518 41.7346 25.0155 40.7246C23.8791 39.7146 23.0172 38.4332 22.51 37" stroke="white" stroke-width="2" stroke-linecap="round" stroke-linejoin="round"/>
</g>
<defs>
<filter id="filter0_d_1_17425" x="0" y="0" width="62" height="62" filterUnits="userSpaceOnUse" color-interpolation-filters="sRGB">
<feFlood flood-opacity="0" result="BackgroundImageFix"/>
<feColorMatrix in="SourceAlpha" type="matrix" values="0 0 0 0 0 0 0 0 0 0 0 0 0 0 0 0 0 0 127 0" result="hardAlpha"/>
<feOffset dy="-3"/>
<feGaussianBlur stdDeviation="7.5"/>
<feColorMatrix type="matrix" values="0 0 0 0 0 0 0 0 0 0 0 0 0 0 0 0 0 0 0.1 0"/>
<feBlend mode="normal" in2="BackgroundImageFix" result="effect1_dropShadow_1_17425"/>
<feBlend mode="normal" in="SourceGraphic" in2="effect1_dropShadow_1_17425" result="shape"/>
</filter>
</defs>
</svg>
