<svg width="13" height="12" viewBox="0 0 13 12" fill="none" xmlns="http://www.w3.org/2000/svg">
<path d="M10.9167 8.12V2.66667C10.9167 1.19333 9.72333 0 8.25 0C6.77667 0 5.58333 1.19333 5.58333 2.66667V9.33333C5.58333 10.0667 4.98333 10.6667 4.25 10.6667C3.51667 10.6667 2.91667 10.0667 2.91667 9.33333V3.88C3.69 3.6 4.25 2.86667 4.25 2C4.25 0.893333 3.35667 0 2.25 0C1.14333 0 0.25 0.893333 0.25 2C0.25 2.86667 0.81 3.6 1.58333 3.88V9.33333C1.58333 10.8067 2.77667 12 4.25 12C5.72333 12 6.91667 10.8067 6.91667 9.33333V2.66667C6.91667 1.93333 7.51667 1.33333 8.25 1.33333C8.98333 1.33333 9.58333 1.93333 9.58333 2.66667V8.12C8.81 8.39333 8.25 9.12667 8.25 10C8.25 11.1067 9.14333 12 10.25 12C11.3567 12 12.25 11.1067 12.25 10C12.25 9.13333 11.69 8.4 10.9167 8.12ZM2.25 2.66667C1.88333 2.66667 1.58333 2.36667 1.58333 2C1.58333 1.63333 1.88333 1.33333 2.25 1.33333C2.61667 1.33333 2.91667 1.63333 2.91667 2C2.91667 2.36667 2.61667 2.66667 2.25 2.66667ZM10.25 10.6667C9.88333 10.6667 9.58333 10.3667 9.58333 10C9.58333 9.63333 9.88333 9.33333 10.25 9.33333C10.6167 9.33333 10.9167 9.63333 10.9167 10C10.9167 10.3667 10.6167 10.6667 10.25 10.6667Z" fill="#5E81A0"/>
</svg>
