<svg width="58" height="61" viewBox="0 0 59 62" fill="none" xmlns="http://www.w3.org/2000/svg">
<g filter="url(#filter0_d_273_17211)">
<rect x="15" y="18" width="32" height="32" rx="16" fill="white"/>
<path d="M39.443 33.0548L39.4921 33.5H39.94H41.5V34.5H39.94H39.4921L39.443 34.9452C39.0087 38.8824 35.8824 42.0087 31.9452 42.443L31.5 42.4921V42.94V44.5H30.5V42.94V42.4921L30.0548 42.443C26.1176 42.0087 22.9913 38.8824 22.557 34.9452L22.5079 34.5H22.06H20.5V33.5H22.06H22.5079L22.557 33.0548C22.9913 29.1176 26.1176 25.9913 30.0548 25.557L30.5 25.5079V25.06V23.5H31.5V25.06V25.5079L31.9452 25.557C35.8824 25.9913 39.0087 29.1176 39.443 33.0548ZM27.5 34C27.5 32.0661 29.0661 30.5 31 30.5C32.9339 30.5 34.5 32.0661 34.5 34C34.5 35.9339 32.9339 37.5 31 37.5C29.0661 37.5 27.5 35.9339 27.5 34ZM23.5 34C23.5 38.1461 26.8539 41.5 31 41.5C35.1461 41.5 38.5 38.1461 38.5 34C38.5 29.8539 35.1461 26.5 31 26.5C26.8539 26.5 23.5 29.8539 23.5 34Z" fill="#A0A1A7" stroke="#A0A1A7"/>
</g>
<defs>
<filter id="filter0_d_273_17211" x="0" y="0" width="62" height="62" filterUnits="userSpaceOnUse" color-interpolation-filters="sRGB">
<feFlood flood-opacity="0" result="BackgroundImageFix"/>
<feColorMatrix in="SourceAlpha" type="matrix" values="0 0 0 0 0 0 0 0 0 0 0 0 0 0 0 0 0 0 127 0" result="hardAlpha"/>
<feOffset dy="-3"/>
<feGaussianBlur stdDeviation="7.5"/>
<feColorMatrix type="matrix" values="0 0 0 0 0 0 0 0 0 0 0 0 0 0 0 0 0 0 0.1 0"/>
<feBlend mode="normal" in2="BackgroundImageFix" result="effect1_dropShadow_273_17211"/>
<feBlend mode="normal" in="SourceGraphic" in2="effect1_dropShadow_273_17211" result="shape"/>
</filter>
</defs>
</svg>
