<svg width="18" height="18" viewBox="0 0 18 18" fill="none" xmlns="http://www.w3.org/2000/svg">
<path d="M17.3332 8.16669H13.8582L16.5582 5.46669L15.3832 4.28335L11.4998 8.16669H9.83317V6.50002L13.7165 2.61669L12.5332 1.44169L9.83317 4.14169V0.666687H8.1665V4.14169L5.4665 1.44169L4.28317 2.61669L8.1665 6.50002V8.16669H6.49984L2.6165 4.28335L1.4415 5.46669L4.1415 8.16669H0.666504V9.83335H4.1415L1.4415 12.5334L2.6165 13.7167L6.49984 9.83335H8.1665V11.5L4.28317 15.3834L5.4665 16.5584L8.1665 13.8584V17.3334H9.83317V13.8584L12.5332 16.5584L13.7165 15.3834L9.83317 11.5V9.83335H11.4998L15.3832 13.7167L16.5582 12.5334L13.8582 9.83335H17.3332V8.16669Z" fill="#A0A1A7"/>
</svg>
