<svg width="24" height="25" viewBox="0 0 24 25" fill="none" xmlns="http://www.w3.org/2000/svg">
<path d="M15.3536 11.8536L19.6587 7.54836L20.3641 8.25875L17.4764 11.1464L16.6229 12H17.83H21.5V13H17.83H16.6229L17.4764 13.8536L20.3641 16.7412L19.6587 17.4516L15.3536 13.1464L15.2071 13H15H13H12.5V13.5V15.5V15.7071L12.6464 15.8536L16.9516 20.1587L16.2412 20.8641L13.3536 17.9764L12.5 17.1229V18.33V22H11.5V18.33V17.1229L10.6464 17.9764L7.75875 20.8641L7.04836 20.1587L11.3536 15.8536L11.5 15.7071V15.5V13.5V13H11H9H8.79289L8.64645 13.1464L4.34125 17.4516L3.63586 16.7412L6.52355 13.8536L7.37711 13H6.17H2.5V12H6.17H7.37711L6.52355 11.1464L3.63586 8.25875L4.34125 7.54836L8.64645 11.8536L8.79289 12H9H11H11.5V11.5V9.5V9.29289L11.3536 9.14645L7.04836 4.84125L7.75875 4.13586L10.6464 7.02355L11.5 7.87711V6.67V3H12.5V6.67V7.87711L13.3536 7.02355L16.2412 4.13586L16.9516 4.84125L12.6464 9.14645L12.5 9.29289V9.5V11.5V12H13H15H15.2071L15.3536 11.8536Z" fill="black" stroke="#003567"/>
</svg>
