<svg width="72" height="72" viewBox="0 0 72 72" fill="none" xmlns="http://www.w3.org/2000/svg">
    <g filter="url(#filter0_d_1_15703)">
        <path fill-rule="evenodd" clip-rule="evenodd" d="M36 43C42.6274 43 48 37.6274 48 31C48 24.3726 42.6274 19 36 19C29.3726 19 24 24.3726 24 31C24 37.6274 29.3726 43 36 43Z" fill="#003768" />
        <path d="M36 45C43.732 45 50 38.732 50 31C50 23.268 43.732 17 36 17C28.268 17 22 23.268 22 31C22 38.732 28.268 45 36 45Z" stroke="#003567" stroke-opacity="0.28" stroke-width="4" />
    </g>
    <path d="M41.4025 25.5994L30.6025 30.1174L30.6025 30.7054L34.7065 32.2954L36.2905 36.3994L36.8785 36.3994L41.4025 25.5994Z" fill="white" />
    <rect x="29.3027" y="24.2993" width="13.4" height="13.4" stroke="#003567" stroke-opacity="0.28" />
    <defs>
        <filter id="filter0_d_1_15703" x="0" y="0" width="72" height="72" filterUnits="userSpaceOnUse" color-interpolation-filters="sRGB">
            <feFlood flood-opacity="0" result="BackgroundImageFix" />
            <feColorMatrix in="SourceAlpha" type="matrix" values="0 0 0 0 0 0 0 0 0 0 0 0 0 0 0 0 0 0 127 0" result="hardAlpha" />
            <feOffset dy="5" />
            <feGaussianBlur stdDeviation="10" />
            <feColorMatrix type="matrix" values="0 0 0 0 0.376471 0 0 0 0 0.392157 0 0 0 0 0.439216 0 0 0 0.1 0" />
            <feBlend mode="normal" in2="BackgroundImageFix" result="effect1_dropShadow_1_15703" />
            <feBlend mode="normal" in="SourceGraphic" in2="effect1_dropShadow_1_15703" result="shape" />
        </filter>
    </defs>
</svg>
    