<svg width="172" height="118" viewBox="0 0 172 118" fill="none" xmlns="http://www.w3.org/2000/svg">
<path d="M162.742 18.3446L27.1469 0.857556C21.6129 0.145625 16.549 4.05087 15.8347 9.58587L5.67647 88.3499C4.96253 93.8828 8.87061 98.9465 14.4043 99.6606L150 117.148C155.533 117.862 160.598 113.954 161.312 108.421L171.47 29.6574C172.184 24.1224 168.276 19.0587 162.742 18.3446Z" fill="#C2CFDB"/>
<path d="M146.793 9.00394L10.0752 9.3787C4.49561 9.39573 -0.0148703 13.929 3.68449e-05 19.5099L0.217256 98.926C0.232163 104.505 4.7682 109.015 10.3477 109L147.066 108.625C152.645 108.61 157.156 104.075 157.141 98.4959L156.924 19.0797C156.909 13.4989 152.373 8.98904 146.793 9.00394Z" fill="#003768"/>
<path d="M38.2837 16.4717L14.7113 16.5356C13.4463 16.5398 12.4219 17.5683 12.4262 18.8331L12.4496 27.5142C12.4539 28.779 13.4825 29.8032 14.7475 29.7989L38.32 29.735C39.5849 29.7308 40.6093 28.7023 40.605 27.4375L40.5816 18.7564C40.5773 17.4916 39.5487 16.4674 38.2837 16.4717Z" fill="white"/>
<path d="M146.793 9.00394L82.0128 9.1828C82.2599 15.4855 83.5398 20.632 85.0475 24.6904C93.9151 48.5853 121.706 64.7573 157.06 68.8051L156.923 19.0797C156.909 13.4989 152.373 8.98904 146.793 9.00394Z" fill="#51B747"/>
<path d="M0.0873489 51.1323L0.119293 62.6922L62.5526 9.23633L48.9765 9.27253L0.0873489 51.1323Z" fill="#2E5B83"/>
<path opacity="0.18" d="M148.531 9.00003C148.544 17.2063 147.472 27.6356 143.405 38.8335C132.433 69.0311 107.319 83.7764 94.2155 91.4674C77.4023 101.337 59.8034 106.551 43.0562 108.911L147.294 108.625C152.747 108.61 157.156 104.177 157.141 98.7262L156.917 17.3426C156.907 12.722 153.15 8.98726 148.531 9.00003Z" fill="#2E5B83"/>
<path d="M52.0303 75.9131L11.962 76.0238C10.6906 76.0281 9.66412 77.0608 9.66625 78.332L9.67264 80.7679C9.6769 82.0391 10.7097 83.0654 11.9811 83.0632L52.0495 82.9525C53.3208 82.9483 54.3473 81.9156 54.3452 80.6444L54.3388 78.2085C54.3345 76.9352 53.3017 75.9088 52.0303 75.9131Z" fill="white"/>
<path d="M86.6511 75.8174L63.1617 75.8813C62.1714 75.8834 61.3728 76.6883 61.375 77.6784L61.3835 81.1342C61.3856 82.1243 62.1906 82.9228 63.1808 82.9207L86.6703 82.8568C87.6606 82.8547 88.4591 82.0498 88.457 81.0597L88.4485 77.6039C88.4442 76.6137 87.6414 75.8153 86.6511 75.8174Z" fill="white"/>
<path d="M119.409 75.7275L95.9191 75.7914C94.9289 75.7935 94.1303 76.5984 94.1324 77.5885L94.1409 81.0444C94.143 82.0345 94.948 82.833 95.9383 82.8309L119.428 82.767C120.418 82.7649 121.217 81.96 121.214 80.9699L121.206 77.514C121.202 76.5239 120.399 75.7254 119.409 75.7275Z" fill="white"/>
<path d="M144.902 75.6572L129.186 75.6998C128.364 75.7019 127.699 76.3705 127.701 77.1925L127.712 81.253C127.714 82.0749 128.383 82.7392 129.205 82.7371L144.921 82.6945C145.743 82.6924 146.408 82.0238 146.405 81.2019L146.395 77.1413C146.393 76.3194 145.724 75.6551 144.902 75.6572Z" fill="white"/>
<path d="M53.0717 21.8014C52.8843 21.3244 52.32 21.1179 51.8664 21.3563L51.8621 21.3585C51.4724 21.5608 51.2935 22.0271 51.4532 22.4359C51.6981 23.0662 51.8493 23.7199 51.9026 24.3884C52.0218 25.9301 51.5853 27.2225 51.1508 28.0892C50.9528 28.4873 51.0848 28.9686 51.4596 29.207L51.4617 29.2092C51.8962 29.486 52.4733 29.3284 52.7033 28.8663C53.2399 27.7911 53.783 26.1834 53.6339 24.2543C53.57 23.4111 53.3805 22.5913 53.0717 21.8014Z" fill="white"/>
<path d="M56.3449 19.3805C56.051 18.961 55.459 18.8865 55.0693 19.2186V19.2208C54.7307 19.5103 54.6668 20.0086 54.9223 20.3748C55.5101 21.2116 56.1958 22.5105 56.3875 24.1948C56.6068 26.1133 56.1064 27.6932 55.6166 28.7174C55.4228 29.122 55.5655 29.6053 55.9488 29.8374L55.9509 29.8395C56.3875 30.1036 56.9582 29.9353 57.1797 29.4754C57.7739 28.2362 58.3808 26.3241 58.1146 23.9968C57.8803 21.9633 57.054 20.3919 56.3449 19.3805Z" fill="white"/>
<path d="M60.1718 17.2322C59.8821 16.8255 59.3072 16.7489 58.9196 17.0662L58.9174 17.0683C58.5618 17.3579 58.4979 17.8732 58.762 18.2479C59.6096 19.4382 60.521 21.1629 60.8745 23.3689C61.3899 26.582 60.4848 29.235 59.682 30.8384C59.4775 31.2451 59.6287 31.7391 60.0206 31.9691L60.0227 31.9712C60.4571 32.2246 61.013 32.0564 61.2366 31.6071C62.148 29.7801 63.1745 26.7566 62.5867 23.092C62.1821 20.5624 61.1386 18.5907 60.1718 17.2322Z" fill="white"/>
<path d="M64.8292 15.4432C64.5886 15.011 64.0349 14.8641 63.6132 15.1238L63.6111 15.126C63.2171 15.3687 63.0829 15.8776 63.3087 16.2822C64.5843 18.5733 65.3616 21.1242 65.5618 23.7113C65.8727 27.6952 64.8143 30.9572 63.7282 33.1717C63.5238 33.5869 63.6835 34.0894 64.0902 34.3109L64.0924 34.313C64.5247 34.5493 65.0677 34.3811 65.2849 33.9382C66.4754 31.5151 67.6317 27.9443 67.2931 23.5771C67.0738 20.743 66.2241 17.9494 64.8292 15.4432Z" fill="white"/>
<path d="M35.0808 40.8965L17.8886 40.9433C15.7036 40.9497 13.9382 42.7234 13.9446 44.9081L13.9744 55.9101C13.9808 58.0948 15.7548 59.86 17.9397 59.8536L35.1319 59.8067C37.3169 59.8003 39.0823 58.0266 39.076 55.842L39.0461 44.8399C39.0419 42.6553 37.2658 40.8901 35.0808 40.8965Z" fill="#FFC835"/>
<path d="M22.3991 47.4053L22.4183 54.0508L30.7854 54.0273L30.7663 47.3818L22.3991 47.4053ZM22.9869 53.478L22.972 47.978L30.1913 47.9589L30.2062 53.4588L22.9869 53.478Z" fill="white"/>
<path d="M37.6534 41.8377L29.167 41.7695L26.5752 45.5724L24.0836 42.0208L15.4822 41.7695C15.2692 41.9356 15.0733 42.1209 14.8987 42.3253L23.7812 42.5851L26.5838 46.5817L29.4715 42.3466L38.2113 42.4168C38.0431 42.206 37.8578 42.0123 37.6534 41.8377Z" fill="white"/>
<path d="M26.6008 53.8232L23.8217 57.8348L14.9413 58.1436C15.118 58.348 15.3139 58.5332 15.529 58.6972L24.1283 58.3991L26.6008 54.8325L29.2138 58.6205L37.7002 58.5056C37.9026 58.331 38.0878 58.1372 38.2518 57.9243L29.5119 58.0414L26.6008 53.8232Z" fill="white"/>
<path d="M21.1256 46.1988L21.0532 46.1498L13.9489 46.0625L13.951 46.6353L20.8722 46.7204C21.2512 46.9824 22.3373 47.6829 22.8144 48.2493L23.1551 47.8C22.5716 47.1122 21.215 46.2627 21.1256 46.1988Z" fill="white"/>
<path d="M20.8935 54.7457L13.9723 54.8692L13.9744 55.442L21.0787 55.3142L21.149 55.2653C21.2406 55.2035 22.5908 54.4476 23.17 53.7556L22.8314 53.2041C22.3586 53.7726 21.2704 54.4817 20.8935 54.7457Z" fill="white"/>
<path d="M22.6624 50.0981L13.9588 50.1221L13.9604 50.6948L22.664 50.6709L22.6624 50.0981Z" fill="white"/>
<path d="M32.1015 46.1198L32.0313 46.1687C31.9397 46.2305 30.6768 47.1205 29.9698 47.7125L30.5789 47.9552C30.7663 47.9254 31.9099 46.9523 32.2868 46.6883L39.0525 46.5669L39.0504 45.9941L32.1015 46.1198Z" fill="white"/>
<path d="M32.3081 54.7156C31.929 54.4537 31.0176 53.8895 30.5427 53.3252L29.8974 53.5317C30.4788 54.2216 31.9652 55.1734 32.0568 55.2352L32.1292 55.2841L39.0781 55.3693L39.076 54.7965L32.3081 54.7156Z" fill="white"/>
<path d="M39.0625 50.0537L30.4292 50.0771L30.4307 50.6499L39.0641 50.6265L39.0625 50.0537Z" fill="white"/>
<path d="M38.961 16.5723C35.922 19.9323 31.863 23.1688 26.5241 25.3087C21.2385 27.4274 16.2744 27.8362 12.4581 27.685C12.5476 28.871 13.5379 29.8037 14.7475 29.7994L38.32 29.7355C39.5849 29.7313 40.6093 28.7028 40.605 27.438L40.5816 18.7569C40.5773 17.7285 39.8959 16.8597 38.961 16.5723Z" fill="#D4EED3"/>
</svg>
