<svg width="21" height="20" viewBox="0 0 21 20" fill="none" xmlns="http://www.w3.org/2000/svg">
<path d="M19.6667 15.8333C19.6667 16.2754 19.4911 16.6993 19.1786 17.0118C18.866 17.3244 18.4421 17.5 18 17.5H3.00004C2.55801 17.5 2.13409 17.3244 1.82153 17.0118C1.50897 16.6993 1.33337 16.2754 1.33337 15.8333V6.66667C1.33337 6.22464 1.50897 5.80072 1.82153 5.48816C2.13409 5.17559 2.55801 5 3.00004 5H6.33337L8.00004 2.5H13L14.6667 5H18C18.4421 5 18.866 5.17559 19.1786 5.48816C19.4911 5.80072 19.6667 6.22464 19.6667 6.66667V15.8333Z" fill="#8A8D93"/>
<path d="M10.5 14.1667C12.3409 14.1667 13.8333 12.6743 13.8333 10.8333C13.8333 8.99238 12.3409 7.5 10.5 7.5C8.65901 7.5 7.16663 8.99238 7.16663 10.8333C7.16663 12.6743 8.65901 14.1667 10.5 14.1667Z" fill="white"/>
</svg>
