<svg width="20" height="18" viewBox="0 0 20 18" fill="none" xmlns="http://www.w3.org/2000/svg">
<path fill-rule="evenodd" clip-rule="evenodd" d="M10 9.5C9.173 9.5 8.5 10.173 8.5 11C8.5 11.827 9.173 12.5 10 12.5C10.827 12.5 11.5 11.827 11.5 11C11.5 10.173 10.827 9.5 10 9.5ZM10 14.5C8.07 14.5 6.5 12.93 6.5 11C6.5 9.07 8.07 7.5 10 7.5C11.93 7.5 13.5 9.07 13.5 11C13.5 12.93 11.93 14.5 10 14.5ZM8 2.5C8 2.224 8.225 2 8.5 2H11.5C11.775 2 12 2.224 12 2.5V4H8V2.5ZM17 4H14V2.5C14 1.122 12.879 0 11.5 0H8.5C7.121 0 6 1.122 6 2.5V4H3C1.346 4 0 5.346 0 7V15C0 16.654 1.346 18 3 18H17C18.654 18 20 16.654 20 15V7C20 5.346 18.654 4 17 4Z" fill="#A0A1A7"/>
</svg>
