<svg width="24" height="25" viewBox="0 0 24 25" fill="none" xmlns="http://www.w3.org/2000/svg">
<path fill-rule="evenodd" clip-rule="evenodd" d="M12 13C11.173 13 10.5 13.673 10.5 14.5C10.5 15.327 11.173 16 12 16C12.827 16 13.5 15.327 13.5 14.5C13.5 13.673 12.827 13 12 13ZM12 18C10.07 18 8.5 16.43 8.5 14.5C8.5 12.57 10.07 11 12 11C13.93 11 15.5 12.57 15.5 14.5C15.5 16.43 13.93 18 12 18ZM10 6C10 5.724 10.225 5.5 10.5 5.5H13.5C13.775 5.5 14 5.724 14 6V7.5H10V6ZM19 7.5H16V6C16 4.622 14.879 3.5 13.5 3.5H10.5C9.121 3.5 8 4.622 8 6V7.5H5C3.346 7.5 2 8.846 2 10.5V18.5C2 20.154 3.346 21.5 5 21.5H19C20.654 21.5 22 20.154 22 18.5V10.5C22 8.846 20.654 7.5 19 7.5Z" fill="#637381"/>
<mask id="mask0_3194_14796" style="mask-type:alpha" maskUnits="userSpaceOnUse" x="2" y="3" width="20" height="19">
<path fill-rule="evenodd" clip-rule="evenodd" d="M12 13C11.173 13 10.5 13.673 10.5 14.5C10.5 15.327 11.173 16 12 16C12.827 16 13.5 15.327 13.5 14.5C13.5 13.673 12.827 13 12 13ZM12 18C10.07 18 8.5 16.43 8.5 14.5C8.5 12.57 10.07 11 12 11C13.93 11 15.5 12.57 15.5 14.5C15.5 16.43 13.93 18 12 18ZM10 6C10 5.724 10.225 5.5 10.5 5.5H13.5C13.775 5.5 14 5.724 14 6V7.5H10V6ZM19 7.5H16V6C16 4.622 14.879 3.5 13.5 3.5H10.5C9.121 3.5 8 4.622 8 6V7.5H5C3.346 7.5 2 8.846 2 10.5V18.5C2 20.154 3.346 21.5 5 21.5H19C20.654 21.5 22 20.154 22 18.5V10.5C22 8.846 20.654 7.5 19 7.5Z" fill="white"/>
</mask>
<g mask="url(#mask0_3194_14796)">
<rect y="0.5" width="24" height="24" fill="#4E5055"/>
</g>
</svg>
