<svg width="32" height="32" viewBox="0 0 32 32" fill="none" xmlns="http://www.w3.org/2000/svg">
    <rect width="32" height="32" rx="16" fill="#E6EBF0"/>
    <path d="M24.3337 15.2335V16.0002C24.3326 17.7972 23.7507 19.5458 22.6748 20.9851C21.5988 22.4244 20.0864 23.4773 18.3631 23.9868C16.6399 24.4963 14.798 24.4351 13.1124 23.8124C11.4267 23.1896 9.98754 22.0386 9.00946 20.5311C8.03138 19.0236 7.56682 17.2403 7.68506 15.4471C7.80329 13.654 8.498 11.9472 9.66556 10.5811C10.8331 9.21506 12.411 8.26303 14.1638 7.867C15.9167 7.47097 17.7505 7.65216 19.392 8.38355" stroke="#2E5B83" stroke-width="2" stroke-linecap="round" stroke-linejoin="round"/>
    <path d="M24.3333 9.3335L16 17.6752L13.5 15.1752" stroke="#2E5B83" stroke-width="2" stroke-linecap="round" stroke-linejoin="round"/>
</svg>
