<svg width="100" height="82" viewBox="0 0 100 82" fill="none" xmlns="http://www.w3.org/2000/svg">
    <path d="M95.5612 81.9078H4.43882C1.98725 81.9078 0 79.9206 0 77.469V43.2157C0 40.7641 1.98725 38.7769 4.43882 38.7769H95.5612C98.0127 38.7769 100 40.7641 100 43.2157V77.469C100 79.9206 98.0127 81.9078 95.5612 81.9078Z" fill="url(#paint0_linear_6601_251487)"/>
    <path d="M91.1222 76.5604H8.87787C6.86631 76.5604 5.23572 74.9298 5.23572 72.9183V47.7665C5.23572 45.7549 6.86631 44.1243 8.87787 44.1243H91.122C93.1336 44.1243 94.7642 45.7549 94.7642 47.7665V72.9181C94.7643 74.9298 93.1338 76.5604 91.1222 76.5604V76.5604Z" fill="url(#paint1_linear_6601_251487)"/>
    <path d="M31.4704 50.7667L62.6116 81.9078H95.5614C98.013 81.9078 100 79.9206 100 77.469V68.4943L70.2828 38.7769H29.7173V47.2625C29.7173 48.6957 30.4061 49.968 31.4704 50.7667V50.7667Z" fill="url(#paint2_linear_6601_251487)"/>
    <path d="M47.55 76.5608H20.7137L11.9547 67.802C11.3369 67.4229 10.8408 66.8308 10.8408 66.061C10.8408 65.5041 11.0537 65.0337 11.3534 64.6896L12.741 62.7145L9.38767 59.2676C8.63179 58.9471 8.26904 58.1678 8.26904 57.1896C8.26904 56.0757 9.25434 54.8308 10.6255 54.8308C10.7541 54.8308 10.9694 54.8308 11.269 54.9594L15.769 56.4172L15.5537 52.0459C15.5983 50.6302 16.67 49.989 17.8681 49.989C18.769 49.989 19.5739 50.3494 19.9367 51.1286L24.0692 55.1114L24.5139 54.9592C24.7269 54.8749 24.9422 54.8306 25.1551 54.8306C25.9273 54.8306 26.5545 55.3104 26.943 55.9539L33.989 63L47.55 76.5608Z" fill="url(#paint3_linear_6601_251487)"/>
    <path d="M68.9992 76.5607H42.163L33.4039 67.8017C32.7861 67.4227 32.29 66.8305 32.29 66.0607C32.29 65.5039 32.503 65.0335 32.8026 64.6894L33.989 62.9998L34.1902 62.7143L30.8369 59.2674C30.081 58.9468 29.7183 58.1676 29.7183 57.1894C29.7183 56.0754 30.7034 54.8305 32.0747 54.8305C32.2034 54.8305 32.4187 54.8305 32.7183 54.9592L37.2183 56.417L37.003 52.0456C37.0475 50.63 38.1192 49.9888 39.3173 49.9888C40.2183 49.9888 41.0208 50.3492 41.3859 51.1284L45.5185 55.1111L45.9608 54.959C46.1761 54.8747 46.3914 54.8303 46.6043 54.8303C47.3765 54.8303 48.0038 55.3101 48.3922 55.9537L68.9992 76.5607Z" fill="url(#paint4_linear_6601_251487)"/>
    <path d="M90.4463 76.5607H63.6123L54.8533 67.8017C54.2355 67.4227 53.737 66.8305 53.737 66.0607C53.737 65.5039 53.9523 65.0335 54.252 64.6894L55.4384 62.9998L55.6396 62.7143L52.2839 59.2674C51.5304 58.9468 51.1653 58.1676 51.1653 57.1894C51.1653 56.0754 52.1527 54.8305 53.5241 54.8305C53.6527 54.8305 53.8657 54.8305 54.1676 54.9592L58.6676 56.417L58.4523 52.0456C58.4969 50.63 59.5663 49.9888 60.7667 49.9888C61.6676 49.9888 62.4702 50.3492 62.8353 51.1284L66.9678 55.1111L67.41 54.959C67.6253 54.8747 67.8382 54.8303 68.0535 54.8303C68.8257 54.8303 69.4506 55.3101 69.8414 55.9537L76.8874 62.9998L90.4463 76.5607Z" fill="url(#paint5_linear_6601_251487)"/>
    <path d="M94.7637 59.4266V72.9172C94.7637 74.9298 93.1328 76.5607 91.1226 76.5607H85.0594L76.3004 67.8017C75.6849 67.4227 75.1865 66.8305 75.1865 66.0607C75.1865 65.5039 75.4018 65.0335 75.7014 64.6894L76.8879 62.9998L77.0892 62.7143L73.7335 59.2674C72.98 58.9468 72.6151 58.1676 72.6151 57.1894C72.6151 56.0754 73.6026 54.8305 74.9739 54.8305C75.1026 54.8305 75.3155 54.8305 75.6151 54.9592L80.1175 56.417L79.9022 52.0456C79.9443 50.63 81.0161 49.9888 82.2165 49.9888C83.1175 49.9888 83.92 50.3492 84.2851 51.1284L88.4153 55.1111L88.86 54.959C89.0753 54.8747 89.2882 54.8303 89.5035 54.8303C90.2757 54.8303 90.9006 55.3101 91.2914 55.9537L94.7637 59.4266Z" fill="url(#paint6_linear_6601_251487)"/>
    <path d="M24.5559 64.7327C24.7702 64.9898 24.8986 65.5043 24.8986 65.9757C24.8986 67.3472 23.5271 68.2902 22.2841 68.2902C21.8127 68.2902 21.1271 68.2045 20.6555 67.4759L17.8694 63.1896L15.0406 67.5186C14.6549 68.1615 14.1406 68.2902 13.5404 68.2902C12.5116 68.2902 10.8402 67.4759 10.8402 66.0613C10.8402 65.5043 11.0545 65.0327 11.3545 64.6898L14.1833 60.6608L9.72588 59.3749C8.74 59.1606 8.26843 58.3033 8.26843 57.189C8.26843 56.0747 9.25432 54.8315 10.6259 54.8315C10.7545 54.8315 11.1353 54.8459 11.4351 54.9745L15.7692 56.4174L15.5547 52.0457C15.5976 50.6313 16.6692 49.9884 17.8692 49.9884C19.0694 49.9884 20.098 50.6313 20.141 52.0457L19.9694 56.5033L24.5127 54.9602C24.7271 54.8745 24.9414 54.8315 25.1557 54.8315C26.4845 54.8315 27.3845 56.246 27.3845 57.489C27.3845 58.3462 26.9559 59.1606 25.9273 59.3749L21.5553 60.4035L24.5559 64.7327Z" fill="url(#paint7_linear_6601_251487)"/>
    <path d="M46.0049 64.7327C46.2192 64.9898 46.3476 65.5043 46.3476 65.9757C46.3476 67.3472 44.976 68.2902 43.7331 68.2902C43.2617 68.2902 42.576 68.2045 42.1045 67.4759L39.3184 63.1896L36.4896 67.5186C36.1039 68.1615 35.5896 68.2902 34.9894 68.2902C33.9605 68.2902 32.2892 67.4759 32.2892 66.0613C32.2892 65.5043 32.5035 65.0327 32.8035 64.6898L35.6323 60.6608L31.1749 59.3749C30.189 59.1606 29.7174 58.3033 29.7174 57.189C29.7174 56.0747 30.7033 54.8315 32.0749 54.8315C32.2035 54.8315 32.4178 54.8315 32.7178 54.9602L37.2184 56.4174L37.0039 52.0457C37.0468 50.6313 38.1184 49.9884 39.3184 49.9884C40.5186 49.9884 41.5472 50.6313 41.5902 52.0457L41.4186 56.5033L45.9619 54.9602C46.1762 54.8745 46.3905 54.8315 46.6049 54.8315C47.9337 54.8315 48.8337 56.246 48.8337 57.489C48.8337 58.3462 48.4051 59.1606 47.3764 59.3749L43.0045 60.4035L46.0049 64.7327Z" fill="url(#paint8_linear_6601_251487)"/>
    <path d="M67.454 64.7327C67.6683 64.9898 67.7967 65.5043 67.7967 65.9757C67.7967 67.3472 66.4251 68.2902 65.1822 68.2902C64.7108 68.2902 64.0251 68.2045 63.5536 67.4759L60.7675 63.1896L57.9387 67.5186C57.553 68.1615 57.0387 68.2902 56.4385 68.2902C55.4096 68.2902 53.7383 67.4759 53.7383 66.0613C53.7383 65.5043 53.9526 65.0327 54.2526 64.6898L57.0814 60.6608L52.624 59.3749C51.6381 59.1606 51.1665 58.3033 51.1665 57.189C51.1665 56.0747 52.1524 54.8315 53.524 54.8315C53.6526 54.8315 53.8669 54.8315 54.1669 54.9602L58.6675 56.4174L58.453 52.0457C58.4959 50.6313 59.5675 49.9884 60.7675 49.9884C61.9677 49.9884 62.9963 50.6313 63.0392 52.0457L62.8677 56.5033L67.411 54.9602C67.6253 54.8745 67.8396 54.8315 68.054 54.8315C69.3828 54.8315 70.2828 56.246 70.2828 57.489C70.2828 58.3462 69.8542 59.1606 68.8255 59.3749L64.4536 60.4035L67.454 64.7327Z" fill="url(#paint9_linear_6601_251487)"/>
    <path d="M88.9029 64.7327C89.1172 64.9898 89.2457 65.5043 89.2457 65.9757C89.2457 67.3472 87.8741 68.2902 86.6312 68.2902C86.1598 68.2902 85.4741 68.2045 85.0025 67.4759L82.2165 63.1896L79.3876 67.5186C79.002 68.1615 78.4876 68.2902 77.8874 68.2902C76.8586 68.2902 75.1872 67.4759 75.1872 66.0613C75.1872 65.5043 75.4016 65.0327 75.7016 64.6898L78.5304 60.6608L74.0729 59.3749C73.087 59.1606 72.6155 58.3033 72.6155 57.189C72.6155 56.0747 73.6014 54.8315 74.9729 54.8315C75.1016 54.8315 75.3159 54.8315 75.6159 54.9602L80.1165 56.4174L79.902 52.0457C79.9449 50.6313 81.0165 49.9884 82.2165 49.9884C83.4167 49.9884 84.4453 50.6313 84.4882 52.0457L84.3167 56.5033L88.86 54.9602C89.0743 54.8745 89.2886 54.8315 89.5029 54.8315C90.8318 54.8315 91.7318 56.246 91.7318 57.489C91.7318 58.3462 91.3031 59.1606 90.2745 59.3749L85.9025 60.4035L88.9029 64.7327Z" fill="url(#paint10_linear_6601_251487)"/>
    <path d="M66.5989 19.9885H60.3352V17.3402C60.3352 11.2834 55.4075 6.35571 49.3507 6.35571C43.2938 6.35571 38.3661 11.2834 38.3661 17.3402V19.9885H32.1024V17.3402C32.1024 7.82963 39.8399 0.09198 49.3507 0.09198C58.8612 0.09198 66.5989 7.82943 66.5989 17.3402V19.9885Z" fill="url(#paint11_linear_6601_251487)"/>
    <path d="M49.3506 3.48352C41.461 3.48352 35.0424 9.90215 35.0424 17.7918V19.9884H38.3661V17.3402C38.3661 11.2833 43.2937 6.35568 49.3506 6.35568C55.4075 6.35568 60.3351 11.2833 60.3351 17.3402V19.9884H63.6588V17.7918C63.6588 9.90215 57.24 3.48352 49.3506 3.48352V3.48352Z" fill="url(#paint12_linear_6601_251487)"/>
    <path d="M65.9041 51.6412H34.0958C31.6776 51.6412 29.7174 49.6808 29.7174 47.2628V22.9235C29.7174 20.5053 31.6778 18.5451 34.0958 18.5451H65.9043C68.3225 18.5451 70.2827 20.5055 70.2827 22.9235V47.2628C70.2827 49.6808 68.3223 51.6412 65.9041 51.6412V51.6412Z" fill="url(#paint13_linear_6601_251487)"/>
    <path d="M57.7757 31.9736C57.7757 27.6792 54.2944 24.1979 50.0001 24.1979C45.7057 24.1979 42.2244 27.6792 42.2244 31.9736C42.2244 35.0138 43.9702 37.6445 46.513 38.9232V42.5014C46.513 44.4273 48.0742 45.9885 50.0001 45.9885C51.9259 45.9885 53.4871 44.4273 53.4871 42.5014V38.9232C56.0301 37.6445 57.7757 35.0138 57.7757 31.9736V31.9736Z" fill="url(#paint14_linear_6601_251487)"/>
    <path d="M50.0001 43.9669C49.192 43.9669 48.5344 43.3094 48.5344 42.5012V37.6767L47.4211 37.1169C45.4626 36.1322 44.246 34.1614 44.246 31.9734C44.246 28.8004 46.8273 26.2192 50.0001 26.2192C53.1728 26.2192 55.7542 28.8006 55.7542 31.9734C55.7542 34.1612 54.5375 36.1322 52.5791 37.1169L51.4658 37.6767V42.5012C51.4658 43.3094 50.8081 43.9669 50.0001 43.9669V43.9669Z" fill="url(#paint15_linear_6601_251487)"/>
    <path d="M29.7173 40.6359V47.2625C29.7173 49.6808 31.6777 51.641 34.0957 51.641H65.9042C68.3224 51.641 70.2826 49.6806 70.2826 47.2625V40.6359H29.7173Z" fill="url(#paint16_linear_6601_251487)"/>
    <path d="M0 68.2902V77.469C0 79.9206 1.98725 81.9079 4.43882 81.9079H95.5612C98.0127 81.9079 100 79.9206 100 77.469V68.2902H0Z" fill="url(#paint17_linear_6601_251487)"/>
    <defs>
        <linearGradient id="paint0_linear_6601_251487" x1="27.6459" y1="37.9884" x2="72.3892" y2="82.7316" gradientUnits="userSpaceOnUse">
            <stop stop-color="#76E2F8"/>
            <stop offset="1" stop-color="#48B2E3"/>
        </linearGradient>
        <linearGradient id="paint1_linear_6601_251487" x1="30.9251" y1="41.2675" x2="69.1051" y2="79.4475" gradientUnits="userSpaceOnUse">
            <stop stop-color="#EDF5FF"/>
            <stop offset="1" stop-color="#D5E8FE"/>
        </linearGradient>
        <linearGradient id="paint2_linear_6601_251487" x1="69.7773" y1="68.7163" x2="50.6924" y2="28.5855" gradientUnits="userSpaceOnUse">
            <stop stop-color="#B5DBFF" stop-opacity="0"/>
            <stop offset="0.1734" stop-color="#8FC5E9" stop-opacity="0.173"/>
            <stop offset="0.4541" stop-color="#56A4C8" stop-opacity="0.454"/>
            <stop offset="0.6955" stop-color="#2D8DB1" stop-opacity="0.696"/>
            <stop offset="0.8853" stop-color="#147EA2" stop-opacity="0.885"/>
            <stop offset="1" stop-color="#0B799D"/>
        </linearGradient>
        <linearGradient id="paint3_linear_6601_251487" x1="27.8343" y1="68.3586" x2="-22.4792" y2="36.9437" gradientUnits="userSpaceOnUse">
            <stop stop-color="#B5DBFF" stop-opacity="0"/>
            <stop offset="0.1734" stop-color="#8FC5E9" stop-opacity="0.173"/>
            <stop offset="0.4541" stop-color="#56A4C8" stop-opacity="0.454"/>
            <stop offset="0.6955" stop-color="#2D8DB1" stop-opacity="0.696"/>
            <stop offset="0.8853" stop-color="#147EA2" stop-opacity="0.885"/>
            <stop offset="1" stop-color="#0B799D"/>
        </linearGradient>
        <linearGradient id="paint4_linear_6601_251487" x1="47.9494" y1="67.5258" x2="-2.36409" y2="36.1109" gradientUnits="userSpaceOnUse">
            <stop stop-color="#B5DBFF" stop-opacity="0"/>
            <stop offset="0.1734" stop-color="#8FC5E9" stop-opacity="0.173"/>
            <stop offset="0.4541" stop-color="#56A4C8" stop-opacity="0.454"/>
            <stop offset="0.6955" stop-color="#2D8DB1" stop-opacity="0.696"/>
            <stop offset="0.8853" stop-color="#147EA2" stop-opacity="0.885"/>
            <stop offset="1" stop-color="#0B799D"/>
        </linearGradient>
        <linearGradient id="paint5_linear_6601_251487" x1="70.1649" y1="68.0043" x2="19.852" y2="36.5897" gradientUnits="userSpaceOnUse">
            <stop stop-color="#B5DBFF" stop-opacity="0"/>
            <stop offset="0.1734" stop-color="#8FC5E9" stop-opacity="0.173"/>
            <stop offset="0.4541" stop-color="#56A4C8" stop-opacity="0.454"/>
            <stop offset="0.6955" stop-color="#2D8DB1" stop-opacity="0.696"/>
            <stop offset="0.8853" stop-color="#147EA2" stop-opacity="0.885"/>
            <stop offset="1" stop-color="#0B799D"/>
        </linearGradient>
        <linearGradient id="paint6_linear_6601_251487" x1="86.6345" y1="64.8956" x2="54.5504" y2="44.8629" gradientUnits="userSpaceOnUse">
            <stop stop-color="#B5DBFF" stop-opacity="0"/>
            <stop offset="0.1734" stop-color="#8FC5E9" stop-opacity="0.173"/>
            <stop offset="0.4541" stop-color="#56A4C8" stop-opacity="0.454"/>
            <stop offset="0.6955" stop-color="#2D8DB1" stop-opacity="0.696"/>
            <stop offset="0.8853" stop-color="#147EA2" stop-opacity="0.885"/>
            <stop offset="1" stop-color="#0B799D"/>
        </linearGradient>
        <linearGradient id="paint7_linear_6601_251487" x1="17.8265" y1="54.0064" x2="17.8265" y2="73.8759" gradientUnits="userSpaceOnUse">
            <stop stop-color="#B9DD39"/>
            <stop offset="1" stop-color="#0B799D"/>
        </linearGradient>
        <linearGradient id="paint8_linear_6601_251487" x1="39.2754" y1="54.0064" x2="39.2754" y2="73.8759" gradientUnits="userSpaceOnUse">
            <stop stop-color="#B9DD39"/>
            <stop offset="1" stop-color="#0B799D"/>
        </linearGradient>
        <linearGradient id="paint9_linear_6601_251487" x1="60.7245" y1="54.0064" x2="60.7245" y2="73.8759" gradientUnits="userSpaceOnUse">
            <stop stop-color="#B9DD39"/>
            <stop offset="1" stop-color="#0B799D"/>
        </linearGradient>
        <linearGradient id="paint10_linear_6601_251487" x1="82.1735" y1="54.0064" x2="82.1735" y2="73.8759" gradientUnits="userSpaceOnUse">
            <stop stop-color="#B9DD39"/>
            <stop offset="1" stop-color="#0B799D"/>
        </linearGradient>
        <linearGradient id="paint11_linear_6601_251487" x1="39.454" y1="5.2012" x2="55.5926" y2="21.34" gradientUnits="userSpaceOnUse">
            <stop stop-color="#EDF5FF"/>
            <stop offset="1" stop-color="#B5DBFF"/>
        </linearGradient>
        <linearGradient id="paint12_linear_6601_251487" x1="49.3506" y1="16.8092" x2="49.3506" y2="-21.8875" gradientUnits="userSpaceOnUse">
            <stop stop-color="#B5DBFF" stop-opacity="0"/>
            <stop offset="0.2428" stop-color="#93CEF6" stop-opacity="0.243"/>
            <stop offset="0.5763" stop-color="#6ABFEC" stop-opacity="0.576"/>
            <stop offset="0.8403" stop-color="#51B5E5" stop-opacity="0.84"/>
            <stop offset="1" stop-color="#48B2E3"/>
        </linearGradient>
        <linearGradient id="paint13_linear_6601_251487" x1="39.2768" y1="24.37" x2="57.2549" y2="42.348" gradientUnits="userSpaceOnUse">
            <stop stop-color="#FFDA2D"/>
            <stop offset="1" stop-color="#FDBF00"/>
        </linearGradient>
        <linearGradient id="paint14_linear_6601_251487" x1="57.8591" y1="42.064" x2="39.9259" y2="24.1308" gradientUnits="userSpaceOnUse">
            <stop stop-color="#FFDA2D"/>
            <stop offset="1" stop-color="#FDBF00"/>
        </linearGradient>
        <linearGradient id="paint15_linear_6601_251487" x1="56.1591" y1="40.3653" x2="42.105" y2="26.3112" gradientUnits="userSpaceOnUse">
            <stop stop-color="#0B799D"/>
            <stop offset="1" stop-color="#07485E"/>
        </linearGradient>
        <linearGradient id="paint16_linear_6601_251487" x1="50" y1="46.4257" x2="50" y2="51.8404" gradientUnits="userSpaceOnUse">
            <stop stop-color="#FF9100" stop-opacity="0"/>
            <stop offset="1" stop-color="#FF9100"/>
        </linearGradient>
        <linearGradient id="paint17_linear_6601_251487" x1="50" y1="74.559" x2="50" y2="83.0473" gradientUnits="userSpaceOnUse">
            <stop stop-color="#B5DBFF" stop-opacity="0"/>
            <stop offset="0.1734" stop-color="#8FC5E9" stop-opacity="0.173"/>
            <stop offset="0.4541" stop-color="#56A4C8" stop-opacity="0.454"/>
            <stop offset="0.6955" stop-color="#2D8DB1" stop-opacity="0.696"/>
            <stop offset="0.8853" stop-color="#147EA2" stop-opacity="0.885"/>
            <stop offset="1" stop-color="#0B799D"/>
        </linearGradient>
    </defs>
</svg>
