<svg width="24" height="24" viewBox="0 0 24 24" fill="none" xmlns="http://www.w3.org/2000/svg">
<path fill-rule="evenodd" clip-rule="evenodd" d="M3.25025 4.77843C0.77525 5.40613 0.199187 5.57194 0.109625 5.68251C0.00693736 5.80938 0 6.17595 0 11.4917C0 16.8124 0.0068127 17.1739 0.109875 17.3012C0.200188 17.4127 0.776625 17.5762 3.34406 18.2184L6.46831 19L7.906 18.8712C11.3066 18.5667 23.5513 17.4918 23.6189 17.4918C23.6598 17.4918 23.7622 17.4227 23.8466 17.3383L24 17.185V11.4917V5.79838L23.8466 5.645C23.7622 5.56063 23.6409 5.49156 23.5771 5.49156C23.5132 5.49156 23.0127 5.45013 22.4648 5.3995C21.917 5.34881 20.8078 5.24956 20 5.17893C16.7886 4.89799 16.3824 4.86212 15.75 4.80349C15.3891 4.77005 14.4328 4.68592 13.625 4.61655C12.8172 4.54717 11.8609 4.4628 11.5 4.42904C11.1391 4.39529 10.1828 4.31104 9.375 4.24185C8.56719 4.17267 7.63094 4.08804 7.29444 4.05379C6.95794 4.01954 6.59231 3.99566 6.48194 4.00066C6.37156 4.00566 4.91731 4.35567 3.25025 4.77843ZM8.28519 5.14556C10.0152 5.30456 11.3077 5.41963 14.9688 5.74063C20.0276 6.1842 20.5989 6.2347 21.7148 6.33739C22.2627 6.38783 22.7759 6.42908 22.8554 6.42908H23V11.4805V16.5319L22.1406 16.6084C21.668 16.6505 20.8312 16.7251 20.2812 16.7741C19.7313 16.8232 18.6203 16.9206 17.8125 16.9907C17.0047 17.0606 16.0484 17.1455 15.6875 17.1793C15.3266 17.213 14.3703 17.298 13.5625 17.368C12.7547 17.4381 11.6156 17.5378 11.0312 17.5896C9.48106 17.727 8.03769 17.8542 7.48438 17.9021L7 17.944V11.499V5.05406H7.14456C7.22406 5.05406 7.73731 5.09524 8.28519 5.14556ZM6 11.4842V17.8519L5 17.6015L4 17.3512V11.4913V5.63138L4.98438 5.37987C5.52575 5.2415 5.97581 5.12568 5.98438 5.12243C5.99294 5.11918 6 7.98199 6 11.4842ZM3 11.4842V17.1018L2 16.8515L1 16.6012V11.4913V6.38139L1.98438 6.12989C2.52575 5.99151 2.97575 5.8757 2.98438 5.87245C2.993 5.8692 3 8.39449 3 11.4842ZM9.15344 6.14501L9 6.29839V11.4917V16.685L9.15344 16.8383C9.35637 17.0413 9.64363 17.0413 9.84656 16.8383L10 16.685V11.4917V6.29839L9.84656 6.14501C9.74988 6.04826 9.62175 5.99157 9.5 5.99157C9.37825 5.99157 9.25012 6.04826 9.15344 6.14501ZM13.1534 6.64502L13 6.7984V11.4917V16.1849L13.1534 16.3383C13.3564 16.5413 13.6436 16.5413 13.8466 16.3383L14 16.1849V11.4917V6.7984L13.8466 6.64502C13.7499 6.54827 13.6217 6.49158 13.5 6.49158C13.3783 6.49158 13.2501 6.54827 13.1534 6.64502ZM17.1534 7.14503L17 7.29841V11.4917V15.6849L17.1534 15.8383C17.3564 16.0413 17.6436 16.0413 17.8466 15.8383L18 15.6849V11.4917V7.29841L17.8466 7.14503C17.7499 7.04828 17.6217 6.99159 17.5 6.99159C17.3783 6.99159 17.2501 7.04828 17.1534 7.14503ZM21.1534 7.64504L21 7.79842V11.4917V15.1849L21.1534 15.3383C21.2501 15.4351 21.3783 15.4917 21.5 15.4917C21.6217 15.4917 21.7499 15.4351 21.8466 15.3383L22 15.1849V11.4917V7.79842L21.8466 7.64504C21.7499 7.54829 21.6217 7.4916 21.5 7.4916C21.3783 7.4916 21.2501 7.54829 21.1534 7.64504Z" fill="#A0A1A7"/>
</svg>
