<svg width="24" height="24" viewBox="0 0 24 24" fill="none" xmlns="http://www.w3.org/2000/svg">
<path d="M4 19.5C4 18.837 4.26339 18.2011 4.73223 17.7322C5.20107 17.2634 5.83696 17 6.5 17H20" stroke="#76787F" stroke-width="2" stroke-linecap="round" stroke-linejoin="round"/>
<path d="M6.5 2H20V22H6.5C5.83696 22 5.20107 21.7366 4.73223 21.2678C4.26339 20.7989 4 20.163 4 19.5V4.5C4 3.83696 4.26339 3.20107 4.73223 2.73223C5.20107 2.26339 5.83696 2 6.5 2V2Z" stroke="#76787F" stroke-width="2" stroke-linecap="round" stroke-linejoin="round"/>
<path d="M10.5858 8.41421C10.9609 8.78929 11.4696 9 12 9C12.5304 9 13.0391 8.78929 13.4142 8.41421C13.7893 8.03914 14 7.53043 14 7C14 6.46957 13.7893 5.96086 13.4142 5.58579C13.0391 5.21071 12.5304 5 12 5C11.4696 5 10.9609 5.21071 10.5858 5.58579C10.2107 5.96086 10 6.46957 10 7C10 7.53043 10.2107 8.03914 10.5858 8.41421Z" fill="#76787F"/>
<path d="M9.87868 10.8787C9.31607 11.4413 9 12.2044 9 13H15C15 12.2044 14.6839 11.4413 14.1213 10.8787C13.5587 10.3161 12.7956 10 12 10C11.2044 10 10.4413 10.3161 9.87868 10.8787Z" fill="#76787F"/>
</svg>
