<svg width="44" height="44" viewBox="0 0 44 44" fill="none" xmlns="http://www.w3.org/2000/svg">
    <rect x="7.7002" y="20.5333" width="18.3333" height="8.8" fill="#8FD28C"/>
    <path d="M35.9904 26.8436V26.2081C35.9904 26.096 35.9715 25.9847 35.9345 25.8789L35.0514 22.3781H35.9904C36.1074 22.3781 36.2196 22.3316 36.3023 22.2489C36.385 22.1662 36.4315 22.054 36.4315 21.937C36.4315 21.82 36.385 21.7078 36.3023 21.625C36.2196 21.5423 36.1074 21.4958 35.9904 21.4958H28.3406C28.2853 21.4936 28.2301 21.5028 28.1785 21.5229C28.1269 21.5431 28.08 21.5737 28.0408 21.6129C28.0016 21.652 27.971 21.6989 27.9509 21.7505C27.9307 21.8021 27.9214 21.8573 27.9237 21.9126V30.7599H17.7443C17.3442 30.5627 16.9041 30.4602 16.4581 30.4602C16.012 30.4602 15.5719 30.5627 15.1718 30.7599H12.4123C12.012 30.5627 11.5719 30.4602 11.1257 30.4602C10.6796 30.4602 10.2394 30.5627 9.83918 30.7599H7.12752C6.94171 30.7643 6.76503 30.8413 6.63532 30.9744C6.50561 31.1075 6.4332 31.2862 6.4336 31.472V33.204C6.43347 33.3892 6.50613 33.5672 6.63592 33.6994C6.76571 33.8316 6.94226 33.9076 7.12752 33.9109H8.24929C8.36075 34.5104 8.65215 35.0618 9.08469 35.4915C9.42198 35.8196 9.83345 36.0614 10.2842 36.1965C10.7349 36.3316 11.2115 36.3559 11.6737 36.2673C12.1358 36.1788 12.5697 35.9801 12.9386 35.688C13.3075 35.396 13.6005 35.0192 13.7927 34.5897C13.9853 35.0187 14.2785 35.395 14.6474 35.6867C15.0163 35.9783 15.45 36.1768 15.9119 36.2653C16.3737 36.3538 16.8501 36.3297 17.3007 36.195C17.7513 36.0603 18.1628 35.819 18.5003 35.4916C18.9328 35.0618 19.2242 34.5104 19.3356 33.9109H29.7344C29.8458 34.5103 30.1371 35.0616 30.5696 35.4914C31.1162 36.0229 31.8485 36.3204 32.6109 36.3207C33.3734 36.321 34.1059 36.0241 34.6529 35.493C35.0856 35.0627 35.3769 34.5109 35.4882 33.9109H37.124C37.2425 33.9079 37.355 33.8587 37.4376 33.7737C37.5202 33.6887 37.5662 33.5748 37.5659 33.4564V29.4596C37.5653 28.9217 37.4184 28.394 37.1408 27.9332C36.8633 27.4723 36.4656 27.0957 35.9904 26.8436V26.8436ZM8.23221 33.0286H7.31589V31.6422H8.78074C8.48505 32.0833 8.29681 32.5245 8.23221 33.0286ZM13.1628 33.4456C13.1501 33.9777 12.9297 34.4837 12.5487 34.8553C12.1677 35.227 11.6564 35.4348 11.1241 35.4343C10.5919 35.4338 10.081 35.225 9.70066 34.8526C9.32037 34.4802 9.10091 33.9738 9.08923 33.4417C9.08879 33.4273 9.08885 33.4125 9.08885 33.3981C9.08849 32.8843 9.28267 32.3894 9.63234 32.013L9.64073 32.0046C9.64369 32.0017 9.64652 31.9987 9.64942 31.9956C9.79608 31.8403 9.96646 31.7092 10.1542 31.6073C10.4525 31.4459 10.7863 31.3614 11.1254 31.3614C11.4646 31.3614 11.7984 31.4459 12.0966 31.6073L12.0985 31.6083C12.286 31.71 12.4562 31.8408 12.6027 31.9958C12.6056 31.9989 12.6085 32.0021 12.6115 32.0049L12.62 32.0134C12.9698 32.3897 13.164 32.8846 13.1634 33.3984C13.1633 33.4125 13.1634 33.4273 13.1628 33.4456V33.4456ZM13.793 32.1905C13.7023 31.9986 13.5948 31.8151 13.4716 31.6422H14.1138C13.9911 31.8153 13.8838 31.9987 13.793 32.1905L13.793 32.1905ZM18.4706 33.3981V33.4505C18.4706 34.5452 17.542 35.4351 16.446 35.4351C15.9148 35.4315 15.4058 35.2212 15.0268 34.8489C14.6478 34.4765 14.4286 33.9713 14.4156 33.4402C14.4151 33.4264 14.4183 33.4121 14.4183 33.3981C14.4185 33.0314 14.5176 32.6716 14.7052 32.3565C14.8928 32.0415 15.1619 31.7829 15.4842 31.608C15.4848 31.608 15.4862 31.6073 15.4867 31.607C15.7845 31.4445 16.1186 31.36 16.4579 31.3612C16.7968 31.3612 17.1304 31.4457 17.4285 31.607L17.4305 31.6081C17.7292 31.7707 17.9819 32.0062 18.1651 32.2928C18.3482 32.5794 18.4558 32.9077 18.4779 33.2471C18.4813 33.2939 18.4706 33.3434 18.4706 33.3981ZM27.9237 33.0286H19.3529C19.2876 32.5245 19.0978 32.0833 18.807 31.6422H27.9237V33.0286ZM31.894 22.3781H34.1414L35.0836 26.113C35.0873 26.1255 35.0916 26.1377 35.0967 26.1497C35.1042 26.1683 35.1081 26.1881 35.1081 26.2081V26.5416C34.942 26.5048 34.7731 26.4824 34.6032 26.4745H32.7295C32.2777 26.4745 31.894 26.1302 31.894 25.6784V22.3781ZM28.806 22.3781H31.0117V25.6784C31.0117 26.4724 31.5789 27.1414 32.3352 27.328V28.4911H28.806V22.3781ZM34.648 33.446C34.6355 33.978 34.4152 34.484 34.0344 34.8558C33.6536 35.2275 33.1424 35.4355 32.6102 35.4351C32.078 35.4348 31.567 35.2262 31.1867 34.854C30.8063 34.4818 30.5867 33.9755 30.5748 33.4434C30.5744 33.4284 30.5748 33.4129 30.5748 33.3981C30.5748 32.8708 30.7793 32.364 31.1453 31.9844C31.5112 31.6048 32.0101 31.3819 32.5371 31.3625C33.064 31.3432 33.5779 31.5289 33.9707 31.8807C34.3635 32.2325 34.6046 32.7229 34.6432 33.2488C34.6469 33.2968 34.6487 33.347 34.6487 33.3981C34.648 33.4134 34.648 33.4293 34.648 33.446ZM36.6836 33.0286H35.5051C35.4124 32.3268 35.0679 31.6826 34.5356 31.216C34.0033 30.7493 33.3195 30.4921 32.6116 30.4921C31.9037 30.4921 31.2199 30.7493 30.6876 31.216C30.1553 31.6826 29.8108 32.3268 29.7181 33.0286H28.806V31.2283C28.806 31.2254 28.8064 31.2226 28.8064 31.2197C28.8064 31.2168 28.806 31.2141 28.806 31.2112V29.3734H32.7532C32.9968 29.3734 33.2174 29.2067 33.2174 28.963V27.3568H34.6032C35.7502 27.3568 36.6836 28.3129 36.6836 29.4596V33.0286Z" fill="#0A2C08"/>
    <path d="M10.2146 21.9854C10.0976 21.9854 9.98538 22.0318 9.90265 22.1146C9.81992 22.1973 9.77344 22.3095 9.77344 22.4265V27.5018C9.77344 27.6188 9.81992 27.731 9.90265 27.8137C9.98538 27.8964 10.0976 27.9429 10.2146 27.9429C10.3316 27.9429 10.4438 27.8964 10.5265 27.8137C10.6093 27.731 10.6557 27.6188 10.6557 27.5018V22.4265C10.6557 22.3095 10.6093 22.1973 10.5265 22.1146C10.4438 22.0318 10.3316 21.9854 10.2146 21.9854V21.9854Z" fill="#0A2C08"/>
    <path d="M13.6179 21.9854C13.5009 21.9854 13.3887 22.0318 13.306 22.1146C13.2232 22.1973 13.1768 22.3095 13.1768 22.4265V27.5018C13.1768 27.6188 13.2232 27.731 13.306 27.8137C13.3887 27.8964 13.5009 27.9429 13.6179 27.9429C13.7349 27.9429 13.8471 27.8964 13.9298 27.8137C14.0126 27.731 14.059 27.6188 14.059 27.5018V22.4265C14.059 22.3095 14.0126 22.1973 13.9298 22.1146C13.8471 22.0318 13.7349 21.9854 13.6179 21.9854V21.9854Z" fill="#0A2C08"/>
    <path d="M16.9577 21.9854C16.8407 21.9854 16.7285 22.0318 16.6458 22.1146C16.5631 22.1973 16.5166 22.3095 16.5166 22.4265V27.5018C16.5166 27.6188 16.5631 27.731 16.6458 27.8137C16.7285 27.8964 16.8407 27.9429 16.9577 27.9429C17.0747 27.9429 17.187 27.8964 17.2697 27.8137C17.3524 27.731 17.3989 27.6188 17.3989 27.5018V22.4265C17.3989 22.3095 17.3524 22.1973 17.2697 22.1146C17.187 22.0318 17.0747 21.9854 16.9577 21.9854V21.9854Z" fill="#0A2C08"/>
    <path d="M20.2976 21.9854C20.1806 21.9854 20.0684 22.0318 19.9857 22.1146C19.9029 22.1973 19.8564 22.3095 19.8564 22.4265V27.5018C19.8564 27.6188 19.9029 27.731 19.9857 27.8137C20.0684 27.8964 20.1806 27.9429 20.2976 27.9429C20.4146 27.9429 20.5268 27.8964 20.6095 27.8137C20.6923 27.731 20.7387 27.6188 20.7387 27.5018V22.4265C20.7387 22.3095 20.6923 22.1973 20.6095 22.1146C20.5268 22.0318 20.4146 21.9854 20.2976 21.9854V21.9854Z" fill="#0A2C08"/>
    <path d="M23.7009 21.9854C23.5839 21.9854 23.4717 22.0318 23.389 22.1146C23.3062 22.1973 23.2598 22.3095 23.2598 22.4265V27.5018C23.2598 27.6188 23.3062 27.731 23.389 27.8137C23.4717 27.8964 23.5839 27.9429 23.7009 27.9429C23.8179 27.9429 23.9301 27.8964 24.0128 27.8137C24.0956 27.731 24.1421 27.6188 24.1421 27.5018V22.4265C24.1421 22.3095 24.0956 22.1973 24.0128 22.1146C23.9301 22.0318 23.8179 21.9854 23.7009 21.9854V21.9854Z" fill="#0A2C08"/>
    <path d="M7.50481 29.9406H26.411C26.6547 29.9406 26.8522 29.7124 26.8522 29.4687V20.4592C26.8522 20.4447 26.8522 20.4303 26.8522 20.416V20.4145C26.8511 20.4016 26.8487 20.3888 26.8452 20.3764C26.8395 20.3472 26.8308 20.3187 26.8194 20.2913C26.8191 20.291 26.8189 20.2906 26.8187 20.2901C26.8144 20.28 26.8093 20.2702 26.8044 20.2604C26.8028 20.2574 26.8015 20.2541 26.7999 20.2513C26.796 20.2441 26.7916 20.2372 26.7873 20.2302C26.7841 20.2249 26.781 20.2194 26.7775 20.2143C26.774 20.2091 26.7712 20.2056 26.7681 20.2017C26.7628 20.1943 26.7575 20.1869 26.7517 20.1799C26.7502 20.178 26.7485 20.1763 26.7469 20.1744C26.7191 20.1416 26.6865 20.1131 26.6503 20.0898C26.6406 20.0835 26.6306 20.0772 26.6202 20.0716C26.6194 20.0711 26.6185 20.0708 26.6176 20.0704C26.6053 20.0638 26.5927 20.0579 26.5798 20.0525L26.5881 20.0522L17.5251 16.3128V15.8081C18.1553 15.5786 18.6767 14.9399 18.6767 14.1892C18.6744 13.8118 18.5481 13.4456 18.3172 13.1471C18.0863 12.8485 17.7637 12.6341 17.3991 12.5369V11.0974H17.5924C17.6905 11.098 17.786 11.0656 17.8636 11.0055C17.9411 10.9454 17.9963 10.861 18.0203 10.7659L18.6548 8.22947C18.671 8.1655 18.6722 8.09865 18.6582 8.03414C18.6443 7.96964 18.6156 7.90923 18.5745 7.85765C18.5329 7.80563 18.4799 7.76385 18.4196 7.73553C18.3594 7.70721 18.2934 7.6931 18.2268 7.6943H15.6891C15.6224 7.69298 15.5564 7.70706 15.4961 7.73546C15.4358 7.76385 15.3829 7.80579 15.3415 7.85799C15.3001 7.9102 15.2713 7.97127 15.2573 8.03643C15.2434 8.1016 15.2447 8.16911 15.2611 8.23369L15.8955 10.7671C15.9195 10.8622 15.9748 10.9464 16.0524 11.0063C16.13 11.0662 16.2255 11.0983 16.3235 11.0974H16.5168V12.9204C16.5168 12.9783 16.5282 13.0357 16.5504 13.0892C16.5725 13.1427 16.605 13.1913 16.646 13.2323C16.687 13.2733 16.7356 13.3058 16.7891 13.3279C16.8426 13.3501 16.9 13.3615 16.9579 13.3615C17.1216 13.3615 17.2817 13.4101 17.4178 13.501C17.5539 13.592 17.66 13.7212 17.7226 13.8725C17.7853 14.0237 17.8017 14.1901 17.7697 14.3507C17.7378 14.5113 17.659 14.6587 17.5432 14.7745C17.4275 14.8903 17.28 14.9691 17.1194 15.001C16.9588 15.033 16.7924 15.0166 16.6412 14.9539C16.4899 14.8913 16.3607 14.7852 16.2697 14.6491C16.1788 14.513 16.1302 14.3529 16.1302 14.1892C16.1302 14.0722 16.0837 13.96 16.001 13.8773C15.9183 13.7946 15.8061 13.7481 15.6891 13.7481C15.6316 13.7483 15.5747 13.7598 15.5218 13.7822C15.4688 13.8045 15.4209 13.8372 15.3806 13.8782C15.3404 13.9193 15.3087 13.9679 15.2875 14.0213C15.2662 14.0747 15.2558 14.1318 15.2567 14.1892C15.2526 14.5874 15.3895 14.9743 15.6432 15.2813C15.8968 15.5882 16.251 15.7956 16.6428 15.8665V16.3103L7.34877 20.0505C7.34814 20.0505 7.3431 20.0512 7.34247 20.0515C7.33226 20.0556 7.32022 20.0604 7.31046 20.0653C7.30693 20.067 7.30214 20.0686 7.29873 20.0705C7.29067 20.0747 7.28241 20.0796 7.27466 20.0843C7.26981 20.0873 7.26445 20.0901 7.25972 20.0932C7.255 20.0964 7.25027 20.1001 7.24561 20.1035C7.23842 20.1087 7.23117 20.1137 7.22449 20.1193C7.22386 20.1197 7.22336 20.1203 7.22273 20.1208C7.14975 20.181 7.09834 20.2632 7.07627 20.3552C7.0752 20.3597 7.07381 20.3641 7.0728 20.3686C7.07161 20.3749 7.07079 20.3812 7.06984 20.3872C7.06839 20.3956 7.06688 20.404 7.06593 20.4124C7.06549 20.4165 7.06543 20.4207 7.06505 20.425C7.06423 20.4357 7.06354 20.4465 7.06348 20.4573C7.06348 20.4581 7.06348 20.4588 7.06348 20.4595V29.4687C7.06367 29.7124 7.26117 29.9406 7.50481 29.9406ZM16.668 10.2151L16.2542 8.57659H17.6619L17.2478 10.2151H16.668ZM17.0646 17.1123L24.1831 20.0464H9.78056L17.0646 17.1123ZM7.94596 20.9287H25.9699V29.0584H7.94596V20.9287Z" fill="#0A2C08"/>
    <rect x="0.5" y="0.5" width="43" height="43" rx="21.5" stroke="#51B747" stroke-linecap="round" stroke-dasharray="4 5"/>
</svg>
