<svg width="49" height="64" viewBox="0 0 49 64" fill="none" xmlns="http://www.w3.org/2000/svg">
<g clip-path="url(#clip0_11419_352625)">
<path d="M48.725 45.1384L35.2767 37.3449C35.1393 37.2691 34.8951 37.2691 34.7424 37.3449L27.9648 41.1658C27.8122 41.2417 27.8122 41.3781 27.9496 41.4691L41.3979 49.2625C41.5352 49.3383 41.7795 49.3383 41.9321 49.2625L48.7097 45.4264C48.8624 45.3506 48.8624 45.2142 48.725 45.1384Z" fill="#BFC1C5"/>
<path d="M27.1417 35.2976L39.3994 28.4442C39.5673 28.3532 39.842 28.3532 40.0099 28.4442L47.8408 32.8564C48.0087 32.9474 48.024 33.099 47.856 33.2052L35.5984 40.0585C35.4305 40.1495 35.1557 40.1495 34.9878 40.0585L27.157 35.6463C26.9891 35.5402 26.9738 35.3885 27.1417 35.2976Z" fill="#BFC1C5"/>
<path d="M19.9508 45.0013C19.7371 45.0013 19.5234 44.9558 19.3555 44.8496L11.143 40.1797C10.8682 40.028 10.7003 39.7551 10.6851 39.467C10.6851 39.179 10.8377 38.9212 11.1125 38.7696L22.8206 32.2346C22.9885 32.1285 23.2022 32.083 23.4159 32.083C23.6296 32.083 23.8433 32.1285 24.0112 32.2346L32.2237 36.9046C32.4985 37.0562 32.6664 37.3292 32.6816 37.6172C32.6816 37.9053 32.529 38.1631 32.2542 38.3147L20.5461 44.8496C20.3782 44.9558 20.1645 45.0013 19.9508 45.0013Z" fill="white"/>
<path d="M24.0109 32.2497L32.2081 36.9045C32.4828 37.0561 32.666 37.329 32.666 37.6171C32.666 37.7384 32.6355 37.8597 32.5897 37.981C32.5134 38.1175 32.4065 38.2388 32.2539 38.3297L20.5458 44.8647C20.3779 44.9708 20.1641 45.0163 19.9352 45.0163C19.7215 45.0163 19.5078 44.9557 19.3398 44.8647L11.1427 40.2099C10.8679 40.0582 10.6847 39.7853 10.6847 39.5124C10.6847 39.3911 10.7 39.285 10.761 39.1788C10.8221 39.0272 10.9442 38.9059 11.1121 38.8149L22.8202 32.28C22.9881 32.1738 23.2018 32.1284 23.4155 32.1284C23.6293 32.098 23.843 32.1435 24.0109 32.2497Z" fill="#FEFEFE"/>
<path d="M24.0109 32.2501L32.2081 36.9049C32.4828 37.0566 32.666 37.3295 32.666 37.6024C32.666 37.7237 32.6508 37.845 32.5897 37.9511C32.5286 38.0876 32.4065 38.2089 32.2691 38.2999L20.561 44.8348C20.3931 44.9409 20.1794 44.9864 19.9657 44.9864C19.752 44.9864 19.5383 44.9258 19.3704 44.8348L11.1884 40.1951C10.9137 40.0435 10.7305 39.7706 10.7305 39.4977C10.7305 39.3764 10.7458 39.2702 10.7916 39.1641C10.8526 39.0125 10.9747 38.8912 11.1274 38.8002L22.8202 32.2653C22.9881 32.1743 23.2018 32.1137 23.4155 32.1137C23.6293 32.0985 23.843 32.1591 24.0109 32.2501Z" fill="#FDFDFD"/>
<path d="M24.0105 32.2653L32.1924 36.9049C32.4519 37.0566 32.6504 37.3295 32.6504 37.6024C32.6504 37.7237 32.6351 37.845 32.5741 37.9511C32.513 38.0876 32.4062 38.2089 32.2535 38.2999L20.5454 44.8348C20.3775 44.941 20.1638 44.9864 19.9501 44.9864C19.7364 44.9864 19.5227 44.9258 19.3548 44.8348L11.2033 40.2103C10.9438 40.0587 10.7454 39.8009 10.7454 39.5129C10.7454 39.4067 10.7607 39.2854 10.8065 39.1793C10.8675 39.0277 10.9744 38.9064 11.1423 38.8154L22.8351 32.2804C23.003 32.1895 23.2167 32.1288 23.4305 32.1288C23.6289 32.1137 23.8273 32.1591 24.0105 32.2653Z" fill="#FCFCFC"/>
<path d="M23.9965 32.2654L32.1631 36.8899C32.4227 37.0415 32.6211 37.3144 32.6211 37.5873C32.6211 37.7086 32.6058 37.8299 32.56 37.9361C32.499 38.0725 32.3921 38.1938 32.2395 38.2848L20.5314 44.8197C20.3635 44.9259 20.1498 44.9714 19.936 44.9562C19.7376 44.9562 19.5086 44.8955 19.3407 44.8046L11.2046 40.1801C10.9451 40.0285 10.7466 39.7707 10.7466 39.4978C10.7466 39.3916 10.7619 39.2703 10.8077 39.1794C10.8688 39.0277 10.9756 38.9064 11.1283 38.8155L22.8058 32.2957C22.9737 32.2047 23.1874 32.1289 23.4012 32.1289C23.6149 32.1289 23.8286 32.1744 23.9965 32.2654Z" fill="#FBFBFC"/>
<path d="M23.9965 32.2799L32.1479 36.9044C32.4074 37.056 32.6058 37.329 32.6211 37.5867C32.6211 37.708 32.6211 37.8293 32.56 37.9355C32.499 38.0719 32.3921 38.1932 32.2547 38.2842L20.5466 44.8191C20.3787 44.9101 20.165 44.9708 19.9513 44.9556C19.7529 44.9556 19.5239 44.8949 19.356 44.804L11.2351 40.1946C10.9756 40.0582 10.7772 39.7853 10.7772 39.5123C10.7772 39.4062 10.7772 39.2849 10.823 39.1939C10.884 39.0575 10.9909 38.921 11.1435 38.83L22.8211 32.3103C22.9737 32.2193 23.218 32.1435 23.4164 32.1435C23.6149 32.1283 23.8286 32.1738 23.9965 32.2799Z" fill="#FBFAFB"/>
<path d="M23.9961 32.28L32.1323 36.8893C32.3918 37.0258 32.6055 37.3139 32.6055 37.5717C32.6055 37.693 32.6055 37.8142 32.5444 37.9204C32.4986 38.0568 32.3918 38.1781 32.2391 38.2691L20.531 44.8041C20.3631 44.895 20.1494 44.9557 19.9357 44.9405C19.7372 44.9405 19.5083 44.8647 19.3404 44.7889L11.25 40.1947C10.9905 40.0583 10.7768 39.7853 10.7768 39.5124C10.7768 39.4063 10.7768 39.285 10.8226 39.194C10.8684 39.0576 10.9753 38.9211 11.1432 38.8301L22.8055 32.3103C22.9581 32.2194 23.2024 32.1436 23.4008 32.1436C23.6145 32.1436 23.8129 32.189 23.9961 32.28Z" fill="#FAFAFA"/>
<path d="M23.9958 32.2956L32.1166 36.9049C32.3609 37.0414 32.5898 37.3143 32.5898 37.5872C32.5898 37.6933 32.5898 37.8298 32.544 37.9208C32.4983 38.0572 32.3914 38.1785 32.2388 38.2695L20.5307 44.8045C20.3627 44.8954 20.149 44.9561 19.9353 44.9409C19.7369 44.9409 19.5079 44.8651 19.3553 44.7893L11.2802 40.2103C11.0359 40.0738 10.807 39.8009 10.807 39.5431C10.807 39.437 10.807 39.3157 10.8528 39.2247C10.8986 39.0883 11.0054 38.9518 11.1581 38.8608L22.8204 32.3562C22.973 32.2652 23.2173 32.1894 23.4157 32.1894C23.5989 32.144 23.8126 32.1894 23.9958 32.2956Z" fill="#F9F9F9"/>
<path d="M23.98 32.2952L32.0856 36.8893C32.3299 37.0258 32.5589 37.2987 32.5589 37.5565C32.5589 37.6626 32.5741 37.7991 32.5131 37.8901C32.4673 38.0265 32.3757 38.1478 32.223 38.2388L20.5149 44.7737C20.347 44.8647 20.1333 44.9254 19.9196 44.9102C19.7212 44.9102 19.4922 44.8344 19.3395 44.7434L11.2797 40.1644C11.0355 40.0279 10.8065 39.755 10.8065 39.4973C10.8065 39.3911 10.7912 39.2698 10.837 39.1789C10.8828 39.0424 10.9897 38.9059 11.1423 38.815L22.7894 32.3103C22.942 32.2194 23.1863 32.1436 23.3847 32.1436C23.5984 32.1587 23.8121 32.2042 23.98 32.2952Z" fill="#F8F8F8"/>
<path d="M23.9812 32.3103L32.0716 36.9045C32.3158 37.0409 32.5448 37.3138 32.5601 37.5716C32.5601 37.6777 32.5753 37.8142 32.5295 37.9052C32.4837 38.0416 32.3921 38.1629 32.2395 38.2539L20.5314 44.7888C20.3635 44.8798 20.1498 44.9253 19.9361 44.9253C19.7529 44.9253 19.5087 44.8495 19.356 44.7585L11.3115 40.1947C11.0672 40.0582 10.8383 39.7853 10.8383 39.5275C10.8383 39.4214 10.823 39.3001 10.8688 39.2091C10.9146 39.0727 11.0062 38.9362 11.1741 38.8452L22.8211 32.3406C22.9738 32.2496 23.218 32.1738 23.4164 32.1738C23.5844 32.1738 23.8133 32.2042 23.9812 32.3103Z" fill="#F7F7F7"/>
<path d="M23.9809 32.31L32.056 36.9042C32.3002 37.0406 32.5444 37.3135 32.5444 37.5713C32.5444 37.6774 32.5597 37.8139 32.5139 37.9049C32.4834 38.0413 32.3765 38.1626 32.2239 38.2536L20.5158 44.7885C20.3479 44.8795 20.1342 44.925 19.9204 44.925C19.7373 44.925 19.493 44.8492 19.3404 44.7582L11.3264 40.2095C11.0821 40.0731 10.8532 39.8002 10.8532 39.5576C10.8532 39.4514 10.8379 39.3453 10.8837 39.2543C10.9142 39.1179 11.0211 38.9814 11.1737 38.8904L22.8055 32.3858C22.9581 32.2948 23.2024 32.219 23.4008 32.219C23.584 32.1735 23.7977 32.219 23.9809 32.31Z" fill="#F6F6F6"/>
<path d="M23.9649 32.3253L32.0247 36.9044C32.2537 37.0408 32.5132 37.3137 32.5132 37.5563C32.5132 37.6625 32.5284 37.7989 32.4827 37.8899C32.4521 38.0264 32.3605 38.1477 32.2079 38.2386L20.4998 44.7736C20.3319 44.8646 20.1182 44.91 19.9045 44.8949C19.7213 44.8949 19.477 44.8039 19.3244 44.7281L11.3256 40.1946C11.0967 40.0581 10.8524 39.7852 10.8372 39.5426C10.8372 39.4365 10.8219 39.3303 10.8524 39.2393C10.883 39.1029 10.9898 38.9664 11.1425 38.8755L22.7742 32.386C22.9116 32.295 23.1711 32.204 23.3696 32.204C23.5833 32.1889 23.797 32.2344 23.9649 32.3253Z" fill="#F5F5F5"/>
<path d="M23.9648 32.3255L32.0094 36.8893C32.2383 37.0106 32.4978 37.2987 32.4978 37.5413C32.4978 37.6474 32.5284 37.7687 32.4826 37.8597C32.452 37.9961 32.3605 38.1174 32.2078 38.2084L20.4997 44.7434C20.3318 44.8343 20.1181 44.8798 19.9044 44.8647C19.7212 44.8647 19.477 44.7737 19.3243 44.6979L11.3408 40.1644C11.1119 40.0431 10.8524 39.755 10.8524 39.5124C10.8524 39.4214 10.8218 39.3001 10.8676 39.2091C10.8982 39.0727 10.9897 38.9362 11.1577 38.8452L22.7742 32.3558C22.9115 32.28 23.1863 32.1738 23.3542 32.1738C23.5679 32.189 23.7969 32.2345 23.9648 32.3255Z" fill="#F4F4F4"/>
<path d="M23.9664 32.341L31.9957 36.9048C32.2247 37.0261 32.4842 37.3142 32.4842 37.5568C32.4842 37.6629 32.5147 37.7842 32.4689 37.8752C32.4384 38.0117 32.3468 38.133 32.1941 38.2239L20.486 44.7589C20.3181 44.8499 20.1044 44.8953 19.8907 44.8802C19.7075 44.8802 19.4633 44.7892 19.3259 44.7134L11.373 40.195C11.144 40.0737 10.8845 39.7856 10.8845 39.5582C10.8845 39.4672 10.854 39.3459 10.8997 39.255C10.9303 39.1185 11.0219 38.982 11.1745 38.8911L22.791 32.4016C22.9284 32.3258 23.2032 32.2197 23.3711 32.2197C23.5695 32.2045 23.7832 32.25 23.9664 32.341Z" fill="#F3F3F4"/>
<path d="M23.9508 32.3562L31.9648 36.9049C32.1785 37.0262 32.4533 37.3143 32.4685 37.5417C32.4685 37.6478 32.4991 37.7691 32.4533 37.8601C32.4228 37.9814 32.3464 38.1179 32.1938 38.1937L20.4857 44.7286C20.3178 44.8196 20.1041 44.8651 19.8904 44.8499C19.7224 44.8499 19.4629 44.7589 19.3256 44.6831L11.3879 40.1799C11.1742 40.0586 10.8994 39.7705 10.8994 39.5431C10.8994 39.4521 10.8689 39.3308 10.8994 39.2399C10.9147 39.1034 11.0215 38.9669 11.1742 38.876L22.7754 32.4017C22.9128 32.3259 23.1876 32.2197 23.3555 32.2197C23.5692 32.2197 23.7829 32.2501 23.9508 32.3562Z" fill="#F2F2F3"/>
<path d="M23.9498 32.3556L31.9486 36.8891C32.1623 37.0104 32.4523 37.2985 32.4523 37.526C32.4523 37.6169 32.4981 37.7534 32.4523 37.8444C32.437 37.9657 32.3455 38.1021 32.1928 38.1779L20.4847 44.7129C20.3168 44.8038 20.1031 44.8493 19.8894 44.8342C19.7215 44.8342 19.462 44.7432 19.3246 44.6674L11.4021 40.1794C11.1884 40.0581 10.9137 39.77 10.9137 39.5425C10.9137 39.4516 10.8831 39.3303 10.9137 39.2545C10.9289 39.118 11.0205 38.9815 11.1884 38.8906L22.7897 32.4163C22.9271 32.3405 23.2018 32.2343 23.3697 32.2343C23.5529 32.2192 23.7819 32.2646 23.9498 32.3556Z" fill="#F1F1F2"/>
<path d="M23.9494 32.3712L31.9329 36.9047C32.1466 37.026 32.4367 37.3141 32.4367 37.5415C32.4367 37.6325 32.4825 37.769 32.4367 37.8599C32.4214 37.9812 32.3298 38.1177 32.1772 38.1935L20.4691 44.7284C20.3012 44.8194 20.0722 44.8649 19.8737 44.8497C19.7058 44.8497 19.4463 44.7436 19.309 44.683L11.4171 40.1949C11.2033 40.0736 10.9286 39.7855 10.9133 39.5733C10.9133 39.4823 10.8675 39.361 10.9133 39.2852C10.9286 39.1487 11.0202 39.0123 11.1728 38.9213L22.7588 32.447C22.8962 32.3712 23.1709 32.2651 23.3389 32.2651C23.5526 32.2347 23.7815 32.2651 23.9494 32.3712Z" fill="#F0F0F1"/>
<path d="M23.951 32.3714L31.9193 36.8897C32.133 37.011 32.423 37.2991 32.423 37.5114C32.423 37.6023 32.4688 37.7388 32.423 37.8146C32.4077 37.9359 32.3314 38.0724 32.1788 38.1482L20.4707 44.6831C20.3028 44.7741 20.0738 44.8196 19.8753 44.7893C19.7074 44.7893 19.4479 44.6831 19.3105 44.6225L11.4339 40.1496C11.2202 40.0283 10.9302 39.7402 10.9302 39.528C10.9302 39.437 10.8844 39.3157 10.9302 39.2399C10.9454 39.1034 11.037 38.9669 11.1897 38.876L22.7604 32.4472C22.8825 32.3714 23.1725 32.2652 23.3405 32.2652C23.5542 32.2349 23.7679 32.2804 23.951 32.3714Z" fill="#EFEFF0"/>
<path d="M23.9356 32.3867L31.9038 36.905C32.1022 37.0263 32.4075 37.3144 32.4228 37.5267C32.4228 37.6177 32.4838 37.7541 32.438 37.8299C32.4228 37.9512 32.3465 38.0877 32.1938 38.1635L20.4857 44.6984C20.3178 44.7894 20.0888 44.8349 19.8904 44.8046C19.7377 44.8046 19.463 44.6984 19.3256 44.6226L11.449 40.1801C11.2505 40.074 10.9452 39.7707 10.9452 39.5584C10.9452 39.4675 10.8994 39.3462 10.9299 39.2704C10.9452 39.1339 11.0215 38.9974 11.1742 38.9065L22.7449 32.4473C22.867 32.3715 23.1571 32.2654 23.325 32.2654C23.5387 32.2502 23.7676 32.2805 23.9356 32.3867Z" fill="#EEEEEF"/>
<path d="M23.9348 32.3865L31.8725 36.8897C32.071 36.9958 32.3915 37.299 32.3915 37.5113C32.3915 37.6023 32.4526 37.7387 32.4068 37.8146C32.4068 37.9359 32.3152 38.0723 32.1626 38.1481L20.4545 44.6831C20.2865 44.774 20.0576 44.8195 19.8591 44.7892C19.7065 44.7892 19.4317 44.6831 19.2943 44.6073L11.4635 40.1647C11.2651 40.0586 10.9598 39.7553 10.9598 39.5582C10.9598 39.4672 10.8987 39.3459 10.9445 39.2701C10.9445 39.1337 11.0361 38.9972 11.1887 38.9062L22.7594 32.4471C22.8816 32.3713 23.1716 32.25 23.3395 32.25C23.5379 32.25 23.7669 32.2955 23.9348 32.3865Z" fill="#EDEDEE"/>
<path d="M23.9359 32.4013L31.8736 36.9045C32.072 37.0107 32.3926 37.3139 32.3926 37.511C32.3926 37.602 32.4536 37.7384 32.4231 37.8143C32.4231 37.9356 32.3468 38.072 32.1941 38.1478L20.486 44.6828C20.3181 44.7738 20.0891 44.8192 19.8907 44.7889C19.738 44.7889 19.4633 44.6828 19.3412 44.607L11.5256 40.1644C11.3271 40.0583 11.0218 39.755 11.0218 39.5579C11.0218 39.4821 10.9608 39.3457 11.0066 39.285C11.0066 39.1485 11.0829 39.0272 11.2508 38.9363L22.8063 32.4771C22.9284 32.4013 23.2337 32.28 23.3863 32.28C23.539 32.2649 23.7527 32.2952 23.9359 32.4013Z" fill="#ECECED"/>
<path d="M23.9197 32.4019L31.8421 36.8899C32.0405 36.996 32.3611 37.2993 32.3611 37.4964C32.3611 37.5874 32.4374 37.7238 32.3916 37.7996C32.3916 37.9209 32.3153 38.0574 32.1626 38.1332L20.4545 44.6681C20.2866 44.7591 20.0577 44.8046 19.8592 44.7743C19.7066 44.7743 19.4318 44.653 19.3097 44.5923L11.5094 40.1649C11.3109 40.0588 11.0056 39.7556 11.0056 39.5584C11.0056 39.4826 10.9446 39.3462 10.9751 39.2855C10.9751 39.1491 11.0514 39.0278 11.2041 38.9368L22.7595 32.4928C22.8816 32.417 23.1869 32.2957 23.3396 32.2957C23.5228 32.2806 23.7517 32.3109 23.9197 32.4019Z" fill="#EBEBEC"/>
<path d="M23.9193 32.4163L31.8265 36.9043C32.0096 37.0104 32.3455 37.3137 32.3455 37.5108C32.3455 37.6018 32.4218 37.7382 32.376 37.814C32.376 37.9353 32.2997 38.0718 32.147 38.1476L20.4389 44.6826C20.271 44.7735 20.042 44.819 19.8436 44.7887C19.6909 44.7887 19.4162 44.6674 19.2941 44.6067L11.5243 40.1945C11.3411 40.0884 11.0053 39.8003 11.0053 39.6032C11.0053 39.5274 10.9442 39.4061 10.9747 39.3303C10.9747 39.1938 11.0511 39.0725 11.2037 38.9815L22.7439 32.5072C22.866 32.4466 23.1713 32.3101 23.324 32.3101C23.5224 32.2798 23.7514 32.3253 23.9193 32.4163Z" fill="#EAEAEB"/>
<path d="M23.9193 32.4168L31.8112 36.8897C31.9943 36.9958 32.3302 37.2991 32.3454 37.481C32.3454 37.5568 32.4218 37.7084 32.3912 37.7691C32.4065 37.8904 32.3302 38.0268 32.1775 38.1027L20.4694 44.6376C20.3015 44.7286 20.0725 44.7741 19.8741 44.7437C19.7367 44.7437 19.4467 44.6224 19.3246 44.5618L11.57 40.1647C11.3869 40.0586 11.051 39.7705 11.051 39.5734C11.051 39.4976 10.9747 39.3763 11.0205 39.3005C11.0052 39.1792 11.0816 39.0427 11.2495 38.9517L22.7439 32.5229C22.8507 32.4623 23.1713 32.3258 23.3239 32.3258C23.5224 32.2955 23.7514 32.3258 23.9193 32.4168Z" fill="#E9E9EB"/>
<path d="M23.9035 32.4321L31.7802 36.9049C31.9633 37.0111 32.3144 37.3143 32.3144 37.4963C32.3144 37.5721 32.406 37.7085 32.3602 37.7843C32.3755 37.9056 32.2992 38.0421 32.1465 38.1179L20.4384 44.6529C20.2705 44.7438 20.0415 44.7893 19.8431 44.7438C19.7057 44.7438 19.4157 44.6225 19.2936 44.5619L11.5543 40.1648C11.3711 40.0587 11.0353 39.7706 11.0353 39.5735C11.0353 39.4977 10.959 39.3764 10.9895 39.3006C10.9742 39.1793 11.0506 39.0428 11.2032 38.9518L22.7434 32.5382C22.8503 32.4775 23.1708 32.3411 23.3082 32.3411C23.5066 32.2956 23.7356 32.3411 23.9035 32.4321Z" fill="#E8E8EA"/>
<path d="M23.9051 32.4317L31.7665 36.8894C31.9344 36.9804 32.3008 37.2988 32.3008 37.4807C32.3008 37.5565 32.3923 37.693 32.3466 37.7688C32.3618 37.8901 32.2855 38.0266 32.1481 38.1024L20.44 44.6373C20.2721 44.7283 20.0431 44.7738 19.8447 44.7283C19.7073 44.7283 19.402 44.607 19.2951 44.5463L11.5864 40.1644C11.4185 40.0735 11.0674 39.7702 11.0674 39.5883C11.0674 39.5125 10.9911 39.3912 11.0216 39.3305C11.0064 39.2092 11.0827 39.0728 11.2353 38.9818L22.745 32.553C22.8518 32.4923 23.1724 32.3559 23.3098 32.3559C23.5082 32.3104 23.7372 32.3407 23.9051 32.4317Z" fill="#E7E7E9"/>
<path d="M23.9039 32.4471L31.75 36.9048C31.9179 36.9958 32.2843 37.3142 32.2843 37.4961C32.2843 37.5719 32.3759 37.7084 32.3453 37.7842C32.3606 37.9055 32.2995 38.042 32.1469 38.1178L20.4388 44.6527C20.2709 44.7437 20.0419 44.774 19.8435 44.7437C19.7061 44.7437 19.4008 44.6072 19.2939 44.5617L11.6005 40.1798C11.4326 40.0889 11.0815 39.7856 11.0815 39.6037C11.0815 39.5279 11.0051 39.4066 11.0357 39.3459C11.0204 39.2246 11.0815 39.0882 11.2494 38.9972L22.7438 32.5684C22.8506 32.5077 23.1712 32.3561 23.3086 32.3561C23.507 32.3258 23.736 32.3561 23.9039 32.4471Z" fill="#E6E6E8"/>
<path d="M23.9035 32.462L31.7343 36.9046C31.9022 36.9955 32.2686 37.3139 32.2839 37.4807C32.2839 37.5565 32.3755 37.693 32.3449 37.7688C32.3755 37.8901 32.2991 38.0114 32.1465 38.1024L20.4384 44.6373C20.2705 44.7283 20.0415 44.7586 19.8431 44.7283C19.7057 44.7283 19.4004 44.5918 19.3088 44.5312L11.6306 40.1796C11.4627 40.0886 11.1116 39.7854 11.0963 39.6034C11.0963 39.5276 11.0047 39.4063 11.0353 39.3457C11.0047 39.2244 11.0811 39.0879 11.2337 38.997L22.7434 32.5681C22.8502 32.5075 23.186 32.3559 23.3082 32.3559C23.4913 32.3255 23.7203 32.3559 23.9035 32.462Z" fill="#E5E5E7"/>
<path d="M23.8888 32.4617L31.7044 36.9043C31.8723 36.9952 32.2539 37.3137 32.2539 37.4804C32.2539 37.5562 32.3608 37.6927 32.3303 37.7534C32.3608 37.8747 32.2997 37.996 32.1471 38.0869L20.439 44.6219C20.2711 44.7128 20.0421 44.7432 19.8437 44.7128C19.7215 44.7128 19.401 44.5764 19.3094 44.5157L11.6465 40.1642C11.4785 40.0732 11.1122 39.7699 11.1122 39.6032C11.1122 39.5273 11.0206 39.406 11.0511 39.3454C11.0206 39.2241 11.0969 39.0876 11.2496 38.9967L22.744 32.583C22.8508 32.5224 23.1866 32.3707 23.3088 32.3707C23.4919 32.3404 23.7209 32.3707 23.8888 32.4617Z" fill="#E4E4E6"/>
<path d="M23.8885 32.4777L31.6888 36.905C31.8414 36.996 32.2383 37.3144 32.2383 37.4812C32.2383 37.557 32.3452 37.6935 32.3146 37.7541C32.3452 37.8754 32.2841 37.9967 32.1315 38.0877L20.4234 44.6226C20.2554 44.7136 20.0265 44.7439 19.828 44.7136C19.7059 44.7136 19.3853 44.5772 19.2938 44.5165L11.6614 40.1801C11.5087 40.0891 11.1271 39.7859 11.1271 39.6191C11.1271 39.5584 11.0355 39.422 11.066 39.3613C11.0355 39.24 11.0966 39.1036 11.2645 39.0126L22.7283 32.599C22.8199 32.5383 23.171 32.3867 23.2931 32.3867C23.4916 32.3412 23.7206 32.3715 23.8885 32.4777Z" fill="#E3E3E5"/>
<path d="M23.8901 32.477L31.6751 36.8893C31.8278 36.9802 32.2246 37.2987 32.2246 37.4503C32.2246 37.5261 32.3315 37.6625 32.301 37.7232C32.3315 37.8445 32.2704 37.9658 32.1178 38.0568L20.4097 44.5917C20.2418 44.6827 20.0128 44.713 19.8144 44.6827C19.6922 44.6827 19.3717 44.5462 19.2801 44.4856L11.663 40.1643C11.5103 40.0734 11.1287 39.7701 11.1287 39.6033C11.1287 39.5427 11.0218 39.4062 11.0524 39.3456C11.0218 39.2243 11.0829 39.0878 11.2355 38.9968L22.7147 32.5832C22.8063 32.5225 23.1573 32.3709 23.2795 32.3709C23.4779 32.3557 23.7221 32.3861 23.8901 32.477Z" fill="#E2E2E4"/>
<path d="M23.8731 32.4926L31.6429 36.9048C31.7956 36.9958 32.1925 37.3142 32.1925 37.4658C32.1925 37.5264 32.3146 37.6781 32.284 37.7387C32.3146 37.86 32.2688 37.9813 32.1161 38.0723L20.408 44.6072C20.2401 44.6982 20.0111 44.7285 19.8127 44.683C19.6906 44.683 19.37 44.5314 19.2784 44.4859L11.6766 40.1798C11.5239 40.104 11.1423 39.7856 11.1423 39.634C11.1423 39.5734 11.0354 39.4369 11.066 39.3914C11.0354 39.2701 11.0965 39.1336 11.2491 39.0427L22.7283 32.629C22.8199 32.5684 23.171 32.4168 23.2931 32.4168C23.4763 32.3713 23.7052 32.3864 23.8731 32.4926Z" fill="#E1E1E3"/>
<path d="M23.8731 32.4922L31.6276 36.8893C31.7802 36.9651 32.1924 37.2987 32.1924 37.4503C32.1924 37.5109 32.3145 37.6626 32.284 37.7232C32.3297 37.8445 32.2687 37.9658 32.116 38.0568L20.4079 44.5917C20.24 44.6827 20.0111 44.713 19.8126 44.6675C19.7058 44.6675 19.3699 44.5159 19.2783 44.4704L11.707 40.1643C11.5544 40.0885 11.1727 39.7701 11.1575 39.6185C11.1575 39.5578 11.0506 39.4214 11.0812 39.3759C11.0354 39.2546 11.0964 39.1181 11.2491 39.0272L22.7129 32.6287C22.8045 32.5832 23.1556 32.4164 23.2777 32.4164C23.4762 32.3709 23.7051 32.4012 23.8731 32.4922Z" fill="#E0E1E2"/>
<path d="M23.8746 32.5076L31.6139 36.9047C31.7513 36.9805 32.1787 37.3141 32.1787 37.4505C32.1787 37.5112 32.3008 37.6628 32.2703 37.7083C32.3161 37.8296 32.255 37.9509 32.1024 38.0419L20.3943 44.5768C20.2264 44.6678 19.9974 44.6981 19.7989 44.6526C19.6921 44.6526 19.3563 44.501 19.2647 44.4555L11.7086 40.1646C11.5712 40.0888 11.1591 39.7704 11.1591 39.6187C11.1591 39.5581 11.0522 39.4368 11.0675 39.3761C11.0217 39.2548 11.0827 39.1184 11.2354 39.0274L22.6993 32.6289C22.7908 32.5834 23.1419 32.4166 23.2641 32.4166C23.4625 32.3863 23.7067 32.4166 23.8746 32.5076Z" fill="#E0E0E1"/>
<path d="M23.8593 32.5078L31.5985 36.9049C31.7359 36.9807 32.1633 37.3143 32.1633 37.4507C32.1633 37.5114 32.3007 37.663 32.2702 37.7085C32.316 37.8298 32.2702 37.9511 32.1175 38.0421L20.4094 44.577C20.2415 44.668 20.0125 44.6983 19.8141 44.6528C19.7072 44.6528 19.3714 44.5012 19.2951 44.4557L11.7543 40.18C11.6169 40.1041 11.2047 39.7857 11.2047 39.6493C11.2047 39.5886 11.0826 39.4673 11.1132 39.4067C11.0674 39.2854 11.1132 39.1489 11.2811 39.058L22.7297 32.6595C22.8213 32.614 23.1723 32.432 23.2945 32.432C23.4624 32.3865 23.6914 32.4169 23.8593 32.5078Z" fill="#DFDFE1"/>
<path d="M23.8585 32.5223L31.5673 36.9042C31.7047 36.98 32.1321 37.3135 32.1321 37.45C32.1321 37.5107 32.2694 37.6471 32.2389 37.7078C32.2847 37.8291 32.2389 37.9504 32.0863 38.0413L20.3782 44.5763C20.2103 44.6673 19.9813 44.6976 19.7828 44.6521C19.676 44.6521 19.3402 44.5005 19.2638 44.455L11.7536 40.1792C11.6162 40.1034 11.204 39.785 11.204 39.6485C11.204 39.5879 11.0819 39.4666 11.1124 39.4059C11.0666 39.2846 11.1124 39.1482 11.2651 39.0572L22.7137 32.6587C22.79 32.6132 23.1716 32.4313 23.2632 32.4313C23.4617 32.401 23.6906 32.4313 23.8585 32.5223Z" fill="#DEDEE0"/>
<path d="M23.8579 32.5229L31.5514 36.8896C31.6735 36.9654 32.1162 37.2838 32.1315 37.4203C32.1315 37.4809 32.2689 37.6174 32.2383 37.678C32.2994 37.7842 32.2383 37.9206 32.0857 38.0116L20.3776 44.5465C20.2097 44.6375 19.9807 44.6678 19.7822 44.6224C19.6754 44.6224 19.3396 44.4556 19.2632 44.4101L11.7682 40.1495C11.6461 40.0737 11.2187 39.7553 11.2187 39.6188C11.2187 39.5582 11.0966 39.4369 11.1118 39.3914C11.0508 39.2701 11.1118 39.1336 11.2645 39.0426L22.6978 32.6593C22.7741 32.6138 23.1558 32.4319 23.2474 32.4319C23.4458 32.4167 23.69 32.4319 23.8579 32.5229Z" fill="#DDDDDF"/>
<path d="M23.8591 32.5381L31.5373 36.9049C31.6594 36.9807 32.1173 37.2991 32.1173 37.4355C32.1173 37.4962 32.27 37.6326 32.2395 37.6933C32.3005 37.7994 32.2547 37.9359 32.1021 38.0269L20.394 44.5618C20.2261 44.6528 19.9971 44.6831 19.7986 44.6225C19.7071 44.6225 19.356 44.4557 19.2796 44.4102L11.7999 40.1647C11.6778 40.0889 11.2504 39.7705 11.2504 39.6492C11.2504 39.6037 11.1282 39.4673 11.1435 39.4218C11.0824 39.3005 11.1282 39.164 11.2962 39.0731L22.7295 32.6897C22.8058 32.6443 23.1874 32.4623 23.279 32.4623C23.4469 32.4168 23.6759 32.4471 23.8591 32.5381Z" fill="#DCDCDE"/>
<path d="M23.8435 32.5375L31.5217 36.8891C31.6438 36.9497 32.1017 37.2833 32.1017 37.4198C32.1017 37.4804 32.2544 37.6169 32.2238 37.6624C32.2849 37.7685 32.2391 37.905 32.0864 37.9959L20.3783 44.5309C20.2104 44.6218 19.9815 44.6522 19.783 44.5915C19.6914 44.5915 19.3403 44.4247 19.264 44.3792L11.8148 40.149C11.6927 40.0883 11.25 39.7547 11.25 39.6334C11.25 39.588 11.1126 39.4515 11.1431 39.406C11.0821 39.2847 11.1279 39.1483 11.2805 39.0573L22.6986 32.674C22.7749 32.6285 23.1565 32.4465 23.2481 32.4465C23.4466 32.4314 23.6755 32.4465 23.8435 32.5375Z" fill="#DBDBDD"/>
<path d="M23.8435 32.5528L31.5064 36.9043C31.6285 36.965 32.0864 37.2986 32.0864 37.4199C32.0864 37.4653 32.2391 37.617 32.2238 37.6625C32.2849 37.7686 32.2391 37.9051 32.0864 37.996L20.3783 44.531C20.2104 44.6219 19.9815 44.6523 19.783 44.5916C19.6914 44.5916 19.3403 44.4248 19.264 44.3793L11.8301 40.1642C11.7079 40.1036 11.2653 39.77 11.2653 39.6487C11.2653 39.6032 11.1279 39.4668 11.1431 39.4213C11.0821 39.3 11.1279 39.1635 11.2805 39.0725L22.6986 32.7044C22.7749 32.6589 23.1565 32.477 23.2481 32.477C23.4313 32.4315 23.6755 32.4618 23.8435 32.5528Z" fill="#DADADC"/>
<path d="M23.8428 32.5529L31.4904 36.8893C31.5973 36.95 32.0705 37.2835 32.0705 37.4048C32.0705 37.4503 32.2231 37.6019 32.2079 37.6474C32.2842 37.7536 32.2384 37.89 32.0858 37.981L20.3777 44.5159C20.2098 44.6069 19.9808 44.6372 19.7823 44.5766C19.6908 44.5766 19.3397 44.4098 19.2786 44.3643L11.8599 40.1492C11.7531 40.0885 11.2951 39.7701 11.2951 39.6488C11.2951 39.6034 11.1577 39.4669 11.173 39.4214C11.0967 39.3001 11.1425 39.1637 11.3104 39.0727L22.7132 32.7045C22.7895 32.659 23.1711 32.4771 23.2627 32.4771C23.4306 32.4468 23.6749 32.4619 23.8428 32.5529Z" fill="#D9D9DB"/>
<path d="M23.8272 32.5678L31.4595 36.9042C31.5664 36.9649 32.0549 37.2984 32.0549 37.4197C32.0549 37.4652 32.2228 37.6168 32.1923 37.6623C32.2686 37.7685 32.2228 37.9049 32.0701 37.9959L20.362 44.5308C20.1941 44.6218 19.9652 44.6521 19.7667 44.5915C19.6751 44.5915 19.324 44.4095 19.263 44.3792L11.8748 40.1793C11.768 40.1186 11.31 39.8002 11.31 39.6789C11.31 39.6334 11.1574 39.497 11.1879 39.4666C11.1116 39.3605 11.1574 39.2089 11.31 39.1179L22.7128 32.7497C22.7739 32.7042 23.1708 32.5071 23.2624 32.5071C23.4303 32.4465 23.6592 32.4768 23.8272 32.5678Z" fill="#D8D8DA"/>
<path d="M23.8272 32.5834L31.4443 36.9046C31.5511 36.9653 32.0396 37.2989 32.0396 37.405C32.0396 37.4505 32.2075 37.6021 32.1923 37.6476C32.2686 37.7537 32.2228 37.8902 32.0701 37.9812L20.362 44.5161C20.1941 44.6071 19.9652 44.6222 19.7667 44.5768C19.6904 44.5768 19.324 44.3948 19.263 44.3645L11.8901 40.1797C11.7832 40.119 11.3253 39.8006 11.3253 39.6793C11.3253 39.6339 11.1726 39.4974 11.1879 39.4671C11.1116 39.3609 11.1574 39.2093 11.31 39.1183L22.6976 32.7502C22.7586 32.7198 23.1555 32.5076 23.2471 32.5076C23.415 32.4621 23.6592 32.4773 23.8272 32.5834Z" fill="#D7D7DA"/>
<path d="M23.8287 32.5835L31.4306 36.8896C31.5374 36.9503 32.0259 37.2838 32.0259 37.39C32.0259 37.4355 32.1938 37.5871 32.1785 37.6174C32.2549 37.7235 32.2243 37.86 32.0717 37.951L20.3636 44.4859C20.1957 44.5769 19.9667 44.5921 19.7683 44.5466C19.6919 44.5466 19.3256 44.3646 19.2645 44.3343L11.9069 40.1647C11.8 40.104 11.3268 39.7856 11.3268 39.6795C11.3268 39.634 11.1742 39.4975 11.1894 39.4672C11.1131 39.3611 11.1436 39.2095 11.3116 39.1185L22.6991 32.7655C22.7602 32.7352 23.1723 32.5229 23.2486 32.5229C23.4165 32.4774 23.6608 32.4926 23.8287 32.5835Z" fill="#D6D6D9"/>
<path d="M23.8127 32.599L31.3993 36.9051C31.4909 36.9657 31.9946 37.2993 31.9946 37.4055C31.9946 37.4509 32.1778 37.6026 32.1473 37.6329C32.2236 37.739 32.1931 37.8755 32.0404 37.9665L20.3323 44.5014C20.1644 44.5924 19.9202 44.6075 19.737 44.5469C19.6607 44.5469 19.2943 44.3649 19.2333 44.3346L11.9062 40.165C11.8146 40.1195 11.3261 39.7859 11.3261 39.6798C11.3261 39.6343 11.1735 39.4979 11.1887 39.4675C11.0971 39.3614 11.1429 39.2098 11.2956 39.1188L22.6678 32.7658C22.7289 32.7355 23.1411 32.5232 23.2174 32.5232C23.4158 32.4777 23.6448 32.4929 23.8127 32.599Z" fill="#D5D5D8"/>
<path d="M23.8123 32.5981L31.3836 36.889C31.4752 36.9345 31.979 37.2832 31.9942 37.3742C31.9942 37.4197 32.1774 37.5713 32.1621 37.6016C32.2537 37.7077 32.2232 37.8442 32.0553 37.9352L20.3472 44.4701C20.1793 44.5611 19.935 44.5763 19.7519 44.5156C19.6755 44.5156 19.3092 44.3337 19.2481 44.3033L11.9363 40.1489C11.8447 40.1034 11.3562 39.7698 11.3562 39.6637C11.3562 39.6182 11.1883 39.4969 11.2036 39.4514C11.112 39.3453 11.1578 39.1936 11.3104 39.1027L22.6827 32.7497C22.7438 32.7193 23.1559 32.5071 23.2322 32.5071C23.4002 32.4919 23.6444 32.5071 23.8123 32.5981Z" fill="#D4D4D7"/>
<path d="M23.8131 32.6136L31.3692 36.9045C31.4608 36.95 31.9798 37.2987 31.9798 37.3897C31.9798 37.4352 32.163 37.5868 32.1477 37.6171C32.2393 37.7233 32.2088 37.8597 32.0561 37.9507L20.348 44.4856C20.1801 44.5766 19.9359 44.5918 19.7527 44.5311C19.6916 44.5311 19.31 44.334 19.2489 44.3037L11.9524 40.1644C11.8608 40.1189 11.3723 39.7853 11.3723 39.6944C11.3723 39.664 11.2044 39.5276 11.2197 39.4973C11.1281 39.3911 11.1586 39.2395 11.3113 39.1637L22.6683 32.8258C22.7293 32.7955 23.1415 32.5832 23.2178 32.5832C23.401 32.4923 23.6452 32.5226 23.8131 32.6136Z" fill="#D3D4D6"/>
<path d="M23.8131 32.614L31.3539 36.8898C31.4303 36.9353 31.9645 37.284 31.9645 37.375C31.9645 37.4053 32.163 37.5569 32.1477 37.6024C32.2393 37.7085 32.2088 37.845 32.0561 37.936L20.348 44.4709C20.1801 44.5619 19.9359 44.5771 19.7527 44.5164C19.6916 44.5164 19.31 44.3193 19.2642 44.289L11.9829 40.1648C11.9066 40.1194 11.4028 39.7858 11.4028 39.6948C11.4028 39.6645 11.2349 39.528 11.2502 39.4977C11.1586 39.3916 11.1891 39.2551 11.3418 39.1641L22.6988 32.8263C22.7446 32.796 23.172 32.5837 23.2331 32.5837C23.401 32.5079 23.6452 32.523 23.8131 32.614Z" fill="#D2D3D5"/>
<path d="M23.7969 32.6288L31.3224 36.9045C31.3987 36.95 31.933 37.2987 31.933 37.3745C31.933 37.4049 32.1314 37.5565 32.1162 37.5868C32.2078 37.693 32.1925 37.8294 32.0246 37.9204L20.3165 44.4553C20.1486 44.5463 19.9043 44.5615 19.7212 44.5008C19.6601 44.5008 19.2785 44.3037 19.2327 44.2734L11.9819 40.1492C11.9056 40.1038 11.4019 39.7702 11.3866 39.6944C11.3866 39.664 11.2187 39.5276 11.2339 39.4973C11.1423 39.3911 11.1576 39.2547 11.3255 39.1637L22.6673 32.8259C22.7131 32.7955 23.1405 32.5833 23.2015 32.5833C23.3847 32.5226 23.629 32.5378 23.7969 32.6288Z" fill="#D1D2D4"/>
<path d="M23.7968 32.6285L31.307 36.8891C31.3834 36.9345 31.9176 37.2833 31.9176 37.3591C31.9176 37.3894 32.1161 37.541 32.1008 37.5714C32.2077 37.6775 32.1771 37.814 32.0245 37.9049L20.3164 44.4399C20.1485 44.5308 19.9042 44.546 19.7211 44.4854C19.66 44.4854 19.2784 44.2883 19.2326 44.2579L11.9971 40.1489C11.9207 40.1035 11.4017 39.7699 11.4017 39.6941C11.4017 39.6638 11.2186 39.5273 11.2338 39.497C11.127 39.3908 11.1575 39.2544 11.3101 39.1634L22.6519 32.8256C22.6977 32.7952 23.1251 32.5678 23.1862 32.5678C23.3846 32.5223 23.6288 32.5375 23.7968 32.6285Z" fill="#D0D1D4"/>
<path d="M23.7971 32.6443L31.2921 36.9049C31.3685 36.9504 31.918 37.2991 31.918 37.3749C31.918 37.4053 32.1317 37.5569 32.1164 37.5872C32.2233 37.6933 32.1928 37.8298 32.0401 37.9208L20.332 44.4557C20.1641 44.5467 19.9199 44.5618 19.7367 44.5012C19.6756 44.5012 19.294 44.3041 19.2482 44.2738L12.028 40.1799C11.9516 40.1345 11.4326 39.8009 11.4326 39.7251C11.4326 39.6948 11.2494 39.5583 11.2647 39.528C11.1579 39.4218 11.1884 39.2854 11.341 39.1944L22.6675 32.8717C22.7133 32.8414 23.156 32.614 23.2018 32.614C23.3697 32.5382 23.6292 32.5533 23.7971 32.6443Z" fill="#CFD0D3"/>
<path d="M23.7825 32.6443L31.2622 36.8897C31.3233 36.9201 31.8881 37.284 31.8881 37.3598C31.8881 37.3901 32.1018 37.5417 32.0865 37.572C32.1934 37.6782 32.1781 37.8146 32.0102 37.9056L20.3021 44.4406C20.1342 44.5315 19.89 44.5467 19.7221 44.4709C19.6763 44.4709 19.2794 44.2586 19.2336 44.2434L12.0439 40.1648C11.9828 40.1345 11.4485 39.7857 11.4485 39.7251C11.4485 39.6948 11.2654 39.5583 11.2806 39.528C11.1738 39.4218 11.189 39.2854 11.3569 39.1944L22.6834 32.8717C22.7292 32.8414 23.1719 32.614 23.2177 32.614C23.3703 32.5382 23.6146 32.5533 23.7825 32.6443Z" fill="#CECFD2"/>
<path d="M23.7829 32.6589L31.2474 36.9044C31.3085 36.9347 31.8733 37.2986 31.8733 37.3593C31.8733 37.3896 32.087 37.5412 32.0717 37.5715C32.1786 37.6777 32.1633 37.8141 32.0107 37.9051L20.3026 44.44C20.1499 44.531 19.8904 44.5462 19.7225 44.4704C19.6767 44.4704 19.2798 44.2581 19.234 44.2429L12.0596 40.1643C11.9985 40.1339 11.4643 39.7852 11.4643 39.7246C11.4643 39.6942 11.2658 39.5578 11.2811 39.5426C11.1742 39.4365 11.1895 39.3 11.3421 39.2091L22.6534 32.8864C22.6991 32.8712 23.1418 32.6286 23.1876 32.6286C23.3708 32.5528 23.615 32.568 23.7829 32.6589Z" fill="#CDCED1"/>
<path d="M23.7823 32.6591L31.2316 36.8894C31.2926 36.9197 31.8574 37.2836 31.8574 37.3443C31.8574 37.3746 32.0864 37.5262 32.0711 37.5414C32.1933 37.6475 32.1627 37.784 32.0101 37.8749L20.302 44.4251C20.1493 44.516 19.8898 44.5312 19.7219 44.4554C19.6761 44.4554 19.2792 44.2431 19.2334 44.2279L12.0742 40.1645C12.0132 40.1341 11.4789 39.7854 11.4789 39.7247C11.4789 39.6944 11.2805 39.558 11.2957 39.5428C11.1736 39.4367 11.2042 39.3002 11.3568 39.2092L22.6528 32.9017C22.6833 32.8866 23.1412 32.644 23.187 32.644C23.3549 32.5681 23.6144 32.5681 23.7823 32.6591Z" fill="#CCCDD0"/>
<path d="M23.7665 32.6746L31.2005 36.9049C31.2615 36.9352 31.8263 37.2991 31.8416 37.3598C31.8416 37.3901 32.0706 37.5417 32.0553 37.5569C32.1774 37.663 32.1622 37.7995 32.0095 37.8904L20.3014 44.4254C20.1488 44.5164 19.8893 44.5315 19.7213 44.4557C19.6756 44.4557 19.2787 44.2434 19.2481 44.2283L12.1195 40.1799C12.0584 40.1496 11.5089 39.8009 11.5089 39.7554C11.5089 39.7251 11.3104 39.5886 11.3257 39.5735C11.2036 39.4673 11.2189 39.3309 11.3868 39.2399L22.6827 32.9324C22.7133 32.9172 23.1712 32.6746 23.217 32.6746C23.3544 32.5685 23.6139 32.5836 23.7665 32.6746Z" fill="#CBCCCF"/>
<path d="M23.7662 32.6893L31.1849 36.9045C31.2306 36.9348 31.826 37.2987 31.826 37.3442C31.826 37.3593 32.0549 37.5261 32.0397 37.5413C32.1618 37.6474 32.1465 37.7839 31.9939 37.8748L20.2858 44.4098C20.1331 44.5008 19.8736 44.5159 19.7057 44.4401C19.6599 44.4401 19.263 44.2278 19.2325 44.1975L12.1191 40.1643C12.0733 40.134 11.5085 39.7853 11.5085 39.7398C11.5085 39.7246 11.3101 39.573 11.3101 39.5579C11.188 39.4517 11.2032 39.3153 11.3559 39.2243L22.6518 32.9168C22.6824 32.9016 23.1403 32.659 23.1861 32.659C23.354 32.5832 23.5982 32.5832 23.7662 32.6893Z" fill="#CACBCF"/>
<path d="M23.7665 32.69L31.1852 36.8899C31.231 36.9203 31.8263 37.2842 31.8263 37.3296C31.8263 37.3448 32.0553 37.5116 32.0553 37.5267C32.1774 37.6329 32.1622 37.7693 32.0095 37.8603L20.3014 44.3953C20.1488 44.4862 19.8893 44.5014 19.7213 44.4256C19.6908 44.4256 19.2787 44.1982 19.2481 44.183L12.15 40.1498C12.1042 40.1195 11.5394 39.7708 11.5394 39.7253C11.5394 39.7101 11.3257 39.5737 11.341 39.5433C11.2189 39.4372 11.2341 39.3007 11.3868 39.2098L22.6675 32.9023C22.698 32.8871 23.1559 32.6293 23.2017 32.6293C23.3391 32.5838 23.5986 32.599 23.7665 32.69Z" fill="#CACBCE"/>
<path d="M23.7673 32.7042L31.1707 36.9042C31.2165 36.9345 31.8118 37.2984 31.8118 37.3439C31.8118 37.359 32.0561 37.5258 32.0408 37.541C32.1629 37.6471 32.1629 37.7836 32.0103 37.8746L20.3022 44.4095C20.1495 44.5005 19.89 44.5156 19.7221 44.4247C19.6916 44.4247 19.2794 44.1972 19.2489 44.1821L12.1813 40.1641C12.1355 40.1337 11.5707 39.785 11.5707 39.7547C11.5707 39.7395 11.357 39.6031 11.3723 39.5879C11.2349 39.4818 11.2502 39.3453 11.4181 39.2543L22.6988 32.962C22.7293 32.9468 23.1872 32.6891 23.233 32.6891C23.3399 32.5981 23.5994 32.6132 23.7673 32.7042Z" fill="#C9CACD"/>
<path d="M23.7514 32.7044L31.1396 36.8892C31.1701 36.9044 31.7807 37.2834 31.7807 37.3138C31.7807 37.3289 32.025 37.4957 32.025 37.5109C32.1624 37.6018 32.1471 37.7535 31.9944 37.8444L20.2863 44.3794C20.1337 44.4704 19.8742 44.4855 19.7063 44.3945C19.6757 44.3945 19.2636 44.1671 19.2331 44.152L12.1807 40.1491C12.1502 40.1339 11.5701 39.7701 11.5701 39.7397C11.5701 39.7246 11.3564 39.5881 11.3564 39.5729C11.219 39.4668 11.2343 39.3303 11.387 39.2394L22.6524 32.947C22.6829 32.9319 23.1561 32.6741 23.1866 32.6741C23.3393 32.6135 23.5835 32.6135 23.7514 32.7044Z" fill="#C8C9CC"/>
<path d="M23.7514 32.7195L31.1243 36.9043C31.1549 36.9194 31.7807 37.2985 31.7807 37.3288C31.7807 37.344 32.025 37.4956 32.025 37.5108C32.1624 37.6017 32.1471 37.7534 31.9944 37.8443L20.2863 44.3793C20.1337 44.4703 19.8742 44.4703 19.7063 44.3944C19.6757 44.3944 19.2636 44.167 19.2331 44.1519L12.196 40.1642C12.1655 40.149 11.5701 39.8003 11.5701 39.7548C11.5701 39.7396 11.3564 39.6032 11.3564 39.588C11.219 39.497 11.2343 39.3454 11.387 39.2544L22.6524 32.9621C22.6676 32.9469 23.1561 32.6892 23.1714 32.6892C23.324 32.6134 23.5835 32.6285 23.7514 32.7195Z" fill="#C7C8CB"/>
<path d="M23.7519 32.7197L31.1095 36.8893C31.14 36.9045 31.7659 37.2835 31.7659 37.3138C31.7659 37.329 32.0254 37.4806 32.0101 37.4958C32.1475 37.5868 32.1475 37.7384 31.9949 37.8294L20.2868 44.3643C20.1341 44.4553 19.8746 44.4553 19.7067 44.3795C19.6914 44.3795 19.264 44.152 19.2488 44.1369L12.2422 40.1492C12.2117 40.134 11.6164 39.7853 11.6164 39.755C11.6164 39.7398 11.3874 39.6033 11.4026 39.5882C11.2653 39.4972 11.2653 39.3456 11.4179 39.2546L22.6681 32.9774C22.6833 32.9623 23.1718 32.7045 23.1871 32.7045C23.3245 32.6287 23.584 32.6287 23.7519 32.7197Z" fill="#C6C7CA"/>
<path d="M23.7362 32.7355L31.0786 36.9051C31.1091 36.9203 31.735 37.2993 31.735 37.3145C31.735 37.3296 31.9945 37.4813 31.9945 37.4964C32.1319 37.5874 32.1319 37.739 31.9792 37.83L20.2711 44.3649C20.1185 44.4559 19.859 44.4559 19.6911 44.3801C19.6758 44.3801 19.2484 44.1375 19.2331 44.1375L12.2419 40.165C12.2113 40.1498 11.616 39.8011 11.616 39.7708C11.616 39.7556 11.387 39.6191 11.387 39.604C11.2496 39.513 11.2496 39.3614 11.4023 39.2704L22.6524 32.9932C22.6677 32.9781 23.1562 32.7203 23.1714 32.7203C23.3241 32.6293 23.5836 32.6445 23.7362 32.7355Z" fill="#C5C6CA"/>
<path d="M23.7358 32.7352L31.0629 36.8897C31.0782 36.9049 31.7193 37.2839 31.7193 37.2991C31.7193 37.3142 31.9788 37.4659 31.9788 37.481C32.1314 37.572 32.1162 37.7236 31.9635 37.8146L20.2554 44.3495C20.1028 44.4405 19.8433 44.4405 19.6754 44.3647C19.6601 44.3647 19.2327 44.1221 19.2174 44.1221L12.2414 40.1647C12.2261 40.1496 11.6156 39.8008 11.6156 39.7705C11.6156 39.7554 11.3866 39.6189 11.3866 39.6189C11.2339 39.5279 11.2492 39.3763 11.4019 39.2853L22.6367 33.0081C22.652 33.0081 23.1405 32.7352 23.1557 32.7352C23.3084 32.6442 23.5679 32.6442 23.7358 32.7352Z" fill="#C4C5C9"/>
<path d="M23.7363 32.7504L31.0481 36.9049C31.0634 36.92 31.7198 37.2991 31.7198 37.3142C31.7198 37.3142 31.9945 37.481 31.9793 37.4962C32.1319 37.5872 32.1319 37.7388 31.9793 37.8298L20.2712 44.3647C20.1185 44.4557 19.859 44.4557 19.6911 44.3799C19.6758 44.3799 19.2484 44.1373 19.2332 44.1373L12.2877 40.1951C12.2724 40.1799 11.6618 39.8312 11.6618 39.816C11.6618 39.816 11.4176 39.6644 11.4328 39.6644C11.2802 39.5734 11.2802 39.4218 11.4328 39.3308L22.6677 33.0536C22.683 33.0536 23.1715 32.7807 23.1867 32.7807C23.3089 32.6594 23.5684 32.6594 23.7363 32.7504Z" fill="#C3C4C8"/>
<path d="M23.7206 32.7502L31.0172 36.8895C31.0325 36.8895 31.6889 37.2685 31.6889 37.2837L31.9636 37.4505C32.1163 37.5415 32.1163 37.6931 31.9636 37.784L20.2555 44.319C20.1029 44.41 19.8434 44.41 19.6755 44.319C19.6602 44.319 19.2328 44.0764 19.2175 44.0612L12.2873 40.119C12.2721 40.119 11.6615 39.7551 11.6615 39.74L11.4172 39.5884C11.2646 39.4974 11.2646 39.3458 11.4172 39.2548L22.6368 32.9928C22.6521 32.9928 23.1406 32.7047 23.1559 32.7047C23.3085 32.6592 23.568 32.6592 23.7206 32.7502Z" fill="#C2C4C7"/>
<path d="M23.7204 32.765L31.0017 36.9043C31.0169 36.9043 31.6733 37.2833 31.6733 37.2985L31.9481 37.4653C32.1007 37.5563 32.116 37.7079 31.9481 37.7989L20.24 44.3338C20.0873 44.4248 19.8278 44.4248 19.6599 44.3338C19.6599 44.3338 19.2172 44.0912 19.202 44.076L12.287 40.149C12.2718 40.149 11.6459 39.7851 11.6459 39.7699L11.4017 39.6183C11.249 39.5274 11.2337 39.3757 11.4017 39.2848L22.6213 33.0227L23.1403 32.7347C23.2929 32.674 23.5524 32.674 23.7204 32.765Z" fill="#C1C3C6"/>
<path d="M23.7205 32.7655L30.9866 36.8896C30.9866 36.8896 31.6582 37.2687 31.6582 37.2839L31.9483 37.4506C32.1162 37.5416 32.1162 37.6932 31.9635 37.7842L20.2554 44.3192C20.1028 44.4101 19.8433 44.4101 19.6754 44.3192C19.6754 44.3192 19.2327 44.0614 19.2174 44.0614L12.3177 40.1495L11.6766 39.7856L11.4324 39.634C11.2645 39.543 11.2645 39.3914 11.4171 39.3004L22.6215 33.0536L23.1405 32.7655C23.2931 32.6745 23.5526 32.6745 23.7205 32.7655Z" fill="#C0C2C6"/>
<path d="M11.4187 39.3151L23.1268 32.7801C23.2794 32.6892 23.539 32.6892 23.7069 32.7801L31.9346 37.4501C32.1025 37.5411 32.1025 37.6927 31.9499 37.7837L20.2418 44.3186C20.0891 44.4096 19.8296 44.4096 19.6617 44.3186L11.4492 39.6487C11.2661 39.5577 11.2661 39.4061 11.4187 39.3151Z" fill="#BFC1C5"/>
<path d="M39.1398 38.0723L27.8133 31.5373L27.8438 11.7051L39.1855 18.24L39.1398 38.0723Z" fill="#EC7A23"/>
<path d="M39.1856 18.2402L47.9629 13.2215L36.6364 6.68652L27.8439 11.7052L39.1856 18.2402Z" fill="#FBBC3C"/>
<path d="M42.682 16.2385L39.1864 14.2219L40.9877 13.2363L44.4375 15.2377L42.682 16.2385Z" fill="#FFD807"/>
<path d="M37.2158 10.0373L34.8498 8.67269L36.7121 7.61133L39.0781 8.97593L37.2158 10.0373ZM37.2158 9.84018L38.7423 8.97593L36.7121 7.80844L35.1856 8.67269L37.2158 9.84018Z" fill="#214974"/>
<path d="M36.6501 8.2334L36.0089 8.59729L36.6653 8.96119L36.3448 9.14314L37.7949 9.24927L37.5965 8.43051L37.2912 8.59729L36.6501 8.2334Z" fill="#214974"/>
<path d="M32.8052 20.3174L32.8204 29.4148L36.8809 31.7497L36.8656 22.6524L32.8052 20.3174Z" fill="#B8CADF"/>
<path d="M36.3164 30.6577L36.3011 30.0361L33.3398 28.3379V28.9444L36.3164 30.6577Z" fill="#214974"/>
<path d="M36.3008 29.6269L36.2855 29.3237L33.3089 27.6104L33.3394 27.9136L36.3008 29.6269Z" fill="#214974"/>
<path d="M36.3008 28.7471L36.2855 28.1406L33.3089 26.4424L33.3241 27.0489L36.3008 28.7471Z" fill="#214974"/>
<path d="M36.2852 27.7318V27.4892L33.3085 25.791V26.0184L36.2852 27.7318Z" fill="#214974"/>
<path d="M36.2715 26.3365V26.2456L33.3101 24.5322L33.2948 24.6232L36.2715 26.3365Z" fill="#214974"/>
<path d="M36.2699 29.0807L36.2852 28.9897L33.3085 27.2764V27.3673L36.2699 29.0807Z" fill="#214974"/>
<path d="M36.2562 25.5485L36.2715 25.4575L33.2948 23.7441V23.8351L36.2562 25.5485Z" fill="#214974"/>
<path d="M36.2562 25.3961L36.2715 25.3051L33.2948 23.5918V23.6828L36.2562 25.3961Z" fill="#214974"/>
<path d="M36.2855 28.0499L36.3008 27.9741L33.3241 26.2607V26.3517L36.2855 28.0499Z" fill="#214974"/>
<path d="M36.2855 27.8985L36.3008 27.8227L33.3241 26.1094V26.2003L36.2855 27.8985Z" fill="#214974"/>
<path d="M36.3011 29.9752L36.3164 29.8842L33.3398 28.1709V28.2619L36.3011 29.9752Z" fill="#214974"/>
<path d="M36.3011 29.8238L36.3164 29.7329L33.3398 28.0195V28.1105L36.3011 29.8238Z" fill="#214974"/>
<path d="M36.2852 23.9864V23.9106L33.3238 22.1973L33.3085 22.2882L36.2852 23.9864Z" fill="#214974"/>
<path d="M36.2852 23.835V23.7441L33.3238 22.0459L33.3085 22.1369L36.2852 23.835Z" fill="#214974"/>
<path d="M36.2715 24.7897V24.6987L33.3101 22.9854L33.2948 23.0763L36.2715 24.7897Z" fill="#214974"/>
<path d="M36.2715 27.307V26.5034L33.2948 24.79V25.5936L36.2715 27.307Z" fill="#214974"/>
<path d="M36.2715 26.0793V25.6245L33.2948 23.9111V24.3812L36.2715 26.0793Z" fill="#214974"/>
<path d="M36.2402 25.2148V24.9116L33.2789 23.1982L33.2636 23.5015L36.2402 25.2148Z" fill="#214974"/>
<path d="M36.2402 24.4866V24.0317L33.2789 22.3184V22.7732L36.2402 24.4866Z" fill="#214974"/>
<path d="M36.2402 23.6226L36.225 23.0161L33.2636 21.3027V21.9092L36.2402 23.6226Z" fill="#214974"/>
<path d="M47.9629 13.2217L47.8713 33.1752L39.1398 38.0727L39.1856 18.2404L47.9629 13.2217Z" fill="#F5A511"/>
<path d="M42.711 36.0409L42.6805 16.2542L44.4512 15.2383L44.3748 35.1615L42.711 36.0409Z" fill="#D26C28"/>
<path d="M32.1016 24.7451V37.6634L19.8897 44.6229V31.6894L32.1016 24.7451Z" fill="#F5A511"/>
<path d="M19.8906 31.69L11.1897 26.7168V39.6199L19.8906 44.6235V31.69Z" fill="#EC7A23"/>
<path d="M11.1888 26.7163L23.5227 19.7568L32.1016 24.7452L19.8897 31.6896L11.1888 26.7163Z" fill="#FBBC3C"/>
<path d="M28.5762 22.7287L16.4254 29.7034L14.6852 28.7027L26.9886 21.7432L28.5762 22.7287Z" fill="#FFD807"/>
<path d="M16.4238 29.7029V33.6905L14.6836 32.6595V28.7021L16.4238 29.7029Z" fill="#D26C28"/>
<path d="M13.7832 37.451V40.1499L11.9362 39.0885V36.3896L13.7832 37.451ZM13.6153 37.5571L12.1041 36.6929V38.9976L13.6153 39.8618V37.5571Z" fill="#214974"/>
<path d="M12.5161 38.8306L13.142 39.1945V38.4667L13.4473 38.6335L12.8214 37.3447L12.1956 37.9209L12.5161 38.1028V38.8306Z" fill="#214974"/>
<path d="M22.0582 38.8617L29.9043 34.313V29.6885L22.0582 34.2523V38.8617Z" fill="#B8CADF"/>
<path d="M29.2324 30.7344L28.7134 31.0376V34.4188L29.2324 34.1156V30.7344Z" fill="#214974"/>
<path d="M28.3477 31.25L28.0882 31.4168V34.798L28.3477 34.6312V31.25Z" fill="#214974"/>
<path d="M27.5996 31.6895L27.0806 32.0079V35.389L27.5996 35.0706V31.6895Z" fill="#214974"/>
<path d="M26.7285 32.2051L26.5301 32.3264V35.7076L26.7285 35.5863V32.2051Z" fill="#214974"/>
<path d="M25.5234 32.918L25.4471 32.9483V36.3295L25.5234 36.2992V32.918Z" fill="#214974"/>
<path d="M27.8887 31.5381L27.8123 31.5836V34.9648L27.8887 34.9193V31.5381Z" fill="#214974"/>
<path d="M24.8516 33.3115L24.7752 33.357V36.7382L24.8516 36.6927V33.3115Z" fill="#214974"/>
<path d="M24.7148 33.3877L24.6385 33.4332V36.8144L24.7148 36.7689V33.3877Z" fill="#214974"/>
<path d="M27.0039 32.0381L26.9276 32.0836V35.4648L27.0039 35.4193V32.0381Z" fill="#214974"/>
<path d="M26.8672 32.1143L26.7909 32.1597V35.5409L26.8672 35.4954V32.1143Z" fill="#214974"/>
<path d="M28.6523 31.0684L28.576 31.1138V34.495L28.6523 34.4647V31.0684Z" fill="#214974"/>
<path d="M28.5156 31.1592L28.4393 31.1895V34.5707L28.5156 34.5404V31.1592Z" fill="#214974"/>
<path d="M23.4922 34.0703L23.4159 34.1158V37.497L23.4922 37.4515V34.0703Z" fill="#214974"/>
<path d="M23.3711 34.1455L23.2948 34.191V37.5722L23.3711 37.5267V34.1455Z" fill="#214974"/>
<path d="M24.1953 33.6914L24.119 33.7217V37.1029L24.1953 37.0726V33.6914Z" fill="#214974"/>
<path d="M26.3633 32.4326L25.6764 32.842V36.2232L26.3633 35.8138V32.4326Z" fill="#214974"/>
<path d="M25.3086 33.0391L24.9117 33.2665V36.6477L25.3086 36.4203V33.0391Z" fill="#214974"/>
<path d="M24.5762 33.5088L24.3014 33.6452V37.0264L24.5762 36.89V33.5088Z" fill="#214974"/>
<path d="M23.9512 33.8574L23.5543 34.0849V37.466L23.9512 37.2386V33.8574Z" fill="#214974"/>
<path d="M23.2031 34.2979L22.6841 34.6011V37.9823L23.2031 37.679V34.2979Z" fill="#214974"/>
<path d="M27.7813 30.7637V41.3621L41.8555 49.4588V38.83L27.7813 30.7637Z" fill="#EC7A23"/>
<path d="M41.8561 38.8296L49 34.751V45.3494L41.8561 49.4584V38.8296Z" fill="#F5A511"/>
<path d="M49 34.7514L34.819 26.6699L27.7819 30.7637L41.8561 38.8301L49 34.7514Z" fill="#FBBC3C"/>
<path d="M30.6829 29.1112L44.696 37.223L46.1309 36.3891L31.9804 28.3076L30.6829 29.1112Z" fill="#FFD807"/>
<path d="M44.696 37.2226V40.4825L46.1309 39.6334V36.3887L44.696 37.2226Z" fill="#D26C28"/>
<path d="M48.3887 42.6963V44.91L46.8622 45.7894V43.5757L48.3887 42.6963ZM46.9996 45.5468L48.236 44.8342V42.9389L46.9996 43.6515V45.5468Z" fill="#214974"/>
<path d="M47.9159 44.7125L47.3969 45.0006V44.3941L47.1527 44.5457L47.6564 43.4844L48.1602 43.9544L47.9159 44.106V44.7125Z" fill="#214974"/>
<path d="M37.7812 42.4541L31.3395 38.7242V34.9336L37.7812 38.6787V42.4541Z" fill="#B8CADF"/>
<path d="M31.889 35.7822L32.3164 36.04V38.8147L31.889 38.5569V35.7822Z" fill="#214974"/>
<path d="M32.6066 36.207L32.8203 36.3435V39.1182L32.6066 38.9817V36.207Z" fill="#214974"/>
<path d="M33.2171 36.5703L33.6445 36.8281V39.6028L33.2171 39.345V36.5703Z" fill="#214974"/>
<path d="M33.9493 36.9951L34.1172 37.0861V39.8608L33.9493 39.7698V36.9951Z" fill="#214974"/>
<path d="M34.9253 37.5713L34.9863 37.6168V40.3763L34.9253 40.346V37.5713Z" fill="#214974"/>
<path d="M32.9878 36.4492L33.0488 36.4795V39.2542L32.9878 39.2239V36.4492Z" fill="#214974"/>
<path d="M35.4764 37.9053L35.5527 37.9356V40.7103L35.4764 40.68V37.9053Z" fill="#214974"/>
<path d="M35.5971 37.9658L35.6582 37.9961V40.7708L35.5971 40.7405V37.9658Z" fill="#214974"/>
<path d="M33.7202 36.8584L33.7812 36.8887V39.6634L33.7202 39.6331V36.8584Z" fill="#214974"/>
<path d="M33.8276 36.9189L33.8887 36.9493V39.724L33.8276 39.6936V36.9189Z" fill="#214974"/>
<path d="M32.3608 36.0703L32.4219 36.1006V38.8753L32.3608 38.845V36.0703Z" fill="#214974"/>
<path d="M32.4682 36.1309L32.5293 36.1612V38.9359L32.4682 38.9056V36.1309Z" fill="#214974"/>
<path d="M36.5893 38.5264L36.6504 38.5567V41.3314L36.5893 41.3011V38.5264Z" fill="#214974"/>
<path d="M36.6971 38.5869L36.7734 38.6172V41.3919L36.6971 41.3616V38.5869Z" fill="#214974"/>
<path d="M36.0249 38.208L36.0859 38.2383V41.013L36.0249 40.9827V38.208Z" fill="#214974"/>
<path d="M34.2399 37.1924L34.8047 37.5108V40.2855L34.2399 39.9519V37.1924Z" fill="#214974"/>
<path d="M35.1091 37.6777L35.4297 37.8748V40.6495L35.1091 40.4524V37.6777Z" fill="#214974"/>
<path d="M35.7199 38.0566L35.9336 38.1779V40.9526L35.7199 40.8313V38.0566Z" fill="#214974"/>
<path d="M36.2244 38.3447L36.5449 38.5418V41.3165L36.2244 41.1194V38.3447Z" fill="#214974"/>
<path d="M36.8343 38.709L37.2617 38.9667V41.7414L36.8343 41.4837V38.709Z" fill="#214974"/>
<path d="M35.7188 24.1985C36.2225 23.6679 36.8637 23.5466 37.459 24.0924L37.1384 24.2743C37.001 24.0924 36.7415 24.0014 36.4668 24.0772C36.1462 24.1379 35.963 24.4108 36.0394 24.6837C36.0546 24.7444 36.0852 24.805 36.1309 24.8505L35.7188 25.0931C35.5509 24.7747 35.4746 24.4563 35.7188 24.1985Z" fill="#E8DFCC"/>
<path d="M0.000629658 48.2324C0.000629658 48.3386 0.0158954 48.4295 0.0158954 48.5357C0.0158954 48.6266 0.0311611 48.7024 0.0311611 48.7934C0.0464259 48.8692 0.0464231 48.945 0.0616879 49.0209C0.0769527 49.1118 0.0922203 49.1876 0.107485 49.2786C0.12275 49.3544 0.138014 49.4302 0.168543 49.5061C0.183808 49.5819 0.214338 49.6728 0.244867 49.7487C0.275397 49.8245 0.290662 49.9003 0.321191 49.9761C0.351721 50.0519 0.382249 50.1429 0.412779 50.2187C0.443308 50.2945 0.473834 50.3703 0.504364 50.431C0.550158 50.5219 0.580691 50.5977 0.626485 50.6887C0.657015 50.7645 0.702807 50.8252 0.748601 50.901C0.794396 50.992 0.855455 51.0678 0.901249 51.1587C0.947044 51.2346 0.992837 51.2952 1.03863 51.3559C1.09969 51.462 1.17602 51.553 1.25234 51.6591C1.29814 51.7197 1.34393 51.7804 1.38972 51.841C1.48131 51.9472 1.5729 52.0533 1.66449 52.1595C1.71028 52.2049 1.74082 52.2504 1.78661 52.2959C1.93926 52.4627 2.12243 52.6446 2.29035 52.8114C2.33614 52.8569 2.38193 52.9024 2.42773 52.9327C2.56511 53.054 2.71776 53.1905 2.87041 53.3118C2.94673 53.3724 3.00779 53.4331 3.08412 53.4786C3.17571 53.5544 3.26729 53.615 3.37415 53.6908C3.46574 53.7515 3.55732 53.8273 3.64891 53.888C3.75577 53.9638 3.84736 54.0244 3.95421 54.1002C4.0458 54.1609 4.15265 54.2215 4.24424 54.2822C4.35109 54.3428 4.45795 54.4186 4.58007 54.4793C4.68692 54.5399 4.79377 54.6006 4.90063 54.6612C5.02275 54.7219 5.14486 54.7977 5.26698 54.8583C5.41963 54.9341 5.57228 55.0251 5.72493 55.1009C6.01496 55.2526 6.32025 55.389 6.62555 55.5255C6.71714 55.571 6.80873 55.6013 6.90032 55.6468C7.14455 55.7529 7.38879 55.8439 7.63303 55.9349C7.70935 55.9652 7.80094 55.9955 7.87726 56.0258C8.19782 56.1471 8.53365 56.2533 8.85421 56.3746C8.91527 56.3897 8.97633 56.4049 9.03739 56.4352C9.31216 56.5262 9.60218 56.6172 9.89221 56.693C10.0143 56.7233 10.1365 56.7536 10.2433 56.7991C10.396 56.8446 10.5639 56.8901 10.7165 56.9204C10.8539 56.9507 10.9913 56.9811 11.1287 57.0265C11.2966 57.072 11.4492 57.1024 11.6171 57.1327C11.7545 57.163 11.8919 57.1933 12.0293 57.2237C12.1972 57.254 12.3651 57.2843 12.533 57.3298C12.6704 57.3601 12.8078 57.3904 12.9452 57.4056C13.1131 57.4359 13.281 57.4663 13.4642 57.4966C13.6016 57.5117 13.7237 57.5421 13.8611 57.5572C14.2274 57.6179 14.5938 57.6634 14.9754 57.7088C15.0365 57.7088 15.0822 57.724 15.1433 57.724C15.4639 57.7543 15.7997 57.7998 16.1203 57.8301C16.2424 57.8453 16.3645 57.8453 16.5019 57.8605C16.7156 57.8756 16.9293 57.8908 17.1277 57.906C17.2651 57.9211 17.3872 57.9211 17.5246 57.9363C17.7383 57.9514 17.9673 57.9514 18.181 57.9666C18.3031 57.9666 18.4252 57.9818 18.5626 57.9818C18.7458 57.9818 18.9442 57.9818 19.1427 57.9969C19.2801 57.9969 19.4175 57.9969 19.5548 57.9969C19.7533 57.9969 19.967 57.9969 20.1654 57.9969C20.2875 57.9969 20.4097 57.9969 20.5318 57.9969C20.715 57.9969 20.8981 57.9818 21.0966 57.9818C21.234 57.9818 21.3561 57.9666 21.4935 57.9666C21.6919 57.9514 21.8903 57.9514 22.1041 57.9363C22.2262 57.9363 22.333 57.9211 22.4551 57.9211C22.6994 57.906 22.9589 57.8756 23.2031 57.8605C23.2642 57.8605 23.3405 57.8453 23.4016 57.8453C23.7221 57.815 24.0274 57.7847 24.348 57.7392C24.3938 57.7392 24.4548 57.724 24.5006 57.724C24.7601 57.6937 25.0349 57.6482 25.2944 57.6179C25.4012 57.6027 25.5234 57.5876 25.6302 57.5572C25.8287 57.5269 26.0424 57.4966 26.2408 57.4663C26.3477 57.4511 26.4545 57.4208 26.5614 57.4056C26.7903 57.3601 27.0041 57.3298 27.2178 57.2843C27.3399 57.254 27.462 57.2388 27.5841 57.2085C27.7826 57.163 27.981 57.1175 28.1794 57.072C28.2863 57.0417 28.4084 57.0114 28.5153 56.9962C28.8358 56.9204 29.1411 56.8294 29.4464 56.7536C29.5075 56.7385 29.5533 56.7233 29.6143 56.7081C29.9654 56.602 30.3165 56.4959 30.6523 56.3897C30.7897 56.3442 30.9271 56.2988 31.0645 56.2533C31.1713 56.2078 31.2782 56.1775 31.3851 56.132C31.5377 56.0713 31.6903 56.0107 31.843 55.95C31.9498 55.9045 32.0414 55.8742 32.1483 55.8287C32.3162 55.7681 32.4841 55.6923 32.6368 55.6165C32.7131 55.5861 32.8047 55.5558 32.881 55.5103C33.1252 55.4042 33.3542 55.298 33.5984 55.1767C37.4757 53.2663 39.4296 50.7494 39.4143 48.2324L39.4296 52.3111C39.4296 52.3566 39.4296 52.402 39.4296 52.4475V54.2973C39.4449 56.8143 37.491 59.316 33.6137 61.2417C33.3847 61.363 33.1405 61.4691 32.8963 61.5752C32.8199 61.6056 32.7284 61.651 32.652 61.6814C32.4841 61.7572 32.3315 61.8178 32.1636 61.8936C32.072 61.9391 31.9651 61.9694 31.8583 62.0149C31.7056 62.0756 31.553 62.1362 31.4003 62.1969C31.2935 62.2424 31.1866 62.2727 31.0798 62.3182C30.9729 62.3485 30.866 62.394 30.7592 62.4243C30.7287 62.4395 30.6981 62.4395 30.6523 62.4546C30.3165 62.5759 29.9654 62.6821 29.6143 62.7731C29.5533 62.7882 29.5075 62.8034 29.4464 62.8185C29.1411 62.9095 28.8358 62.9853 28.5153 63.0611C28.4695 63.0763 28.4084 63.0915 28.3626 63.1066C28.3016 63.1218 28.2405 63.1369 28.1794 63.1521C27.981 63.1976 27.7826 63.2431 27.5841 63.2886C27.462 63.3189 27.3399 63.3492 27.2178 63.3644C27.0041 63.4099 26.7751 63.4554 26.5614 63.4857C26.4851 63.5008 26.3935 63.516 26.3171 63.5312C26.3019 63.5312 26.2713 63.5312 26.2561 63.5463C26.0576 63.5767 25.8592 63.607 25.6455 63.6525C25.5386 63.6676 25.4318 63.6828 25.3097 63.7131C25.0502 63.7586 24.7754 63.7889 24.5159 63.8192C24.4701 63.8192 24.4243 63.8344 24.3632 63.8344C24.3632 63.8344 24.3632 63.8344 24.348 63.8344C24.0427 63.8647 23.7221 63.9102 23.4016 63.9405C23.3405 63.9405 23.2642 63.9557 23.2031 63.9557C22.9589 63.9709 22.6994 64.0012 22.4551 64.0164H22.4399C22.333 64.0315 22.2109 64.0315 22.1041 64.0315C21.9056 64.0467 21.7072 64.0618 21.4935 64.0618C21.3561 64.0618 21.234 64.077 21.0966 64.077C20.9134 64.077 20.7302 64.0922 20.5318 64.0922C20.5165 64.0922 20.5012 64.0922 20.486 64.0922C20.3791 64.0922 20.2723 64.0922 20.1654 64.0922C19.967 64.0922 19.7533 64.0922 19.5548 64.0922C19.4175 64.0922 19.2801 64.0922 19.1579 64.0922C18.9595 64.0922 18.7763 64.0922 18.5779 64.077C18.5474 64.077 18.5016 64.077 18.471 64.077C18.3794 64.077 18.2879 64.0618 18.1963 64.0618C17.9826 64.0467 17.7536 64.0467 17.5399 64.0315C17.4025 64.0315 17.2804 64.0164 17.143 64.0012C16.9293 63.986 16.7156 63.9709 16.5171 63.9557C16.4408 63.9557 16.3645 63.9405 16.2882 63.9405C16.2424 63.9405 16.1813 63.9254 16.1355 63.9254C15.815 63.8951 15.4791 63.8647 15.1586 63.8192C15.0975 63.8192 15.0517 63.8041 14.9907 63.8041C14.6243 63.7586 14.2427 63.7131 13.8763 63.6525C13.8458 63.6525 13.8 63.6373 13.7695 63.6373C13.6779 63.6221 13.571 63.607 13.4794 63.5918C13.3115 63.5615 13.1284 63.5312 12.9604 63.5008C12.8231 63.4705 12.6857 63.4554 12.5483 63.425C12.3804 63.3947 12.2125 63.3644 12.0446 63.3189C11.9072 63.2886 11.7698 63.2582 11.6324 63.2279C11.4645 63.1976 11.3118 63.1521 11.1439 63.1218C11.0065 63.0915 10.8692 63.0611 10.7318 63.0156C10.5639 62.9702 10.4112 62.9398 10.2586 62.8943C10.1822 62.8792 10.1212 62.864 10.0449 62.8337C9.99907 62.8185 9.95327 62.8034 9.89221 62.7882C9.60218 62.7124 9.31216 62.6214 9.03739 62.5305C8.97633 62.5153 8.91527 62.5001 8.85421 62.4698C8.51838 62.3637 8.19782 62.2424 7.87726 62.1211C7.78567 62.0907 7.70935 62.0604 7.63303 62.0301C7.38879 61.9391 7.14455 61.833 6.90032 61.742C6.80873 61.7117 6.71714 61.6662 6.64081 61.6207C6.33552 61.4843 6.03022 61.3478 5.74019 61.1962C5.66387 61.1507 5.57228 61.1204 5.49595 61.0749C5.41963 61.0294 5.35857 60.9991 5.28225 60.9536C5.16013 60.8929 5.03801 60.8323 4.91589 60.7565C4.80904 60.6958 4.70219 60.6352 4.59533 60.5745C4.48848 60.5139 4.36636 60.4381 4.2595 60.3774C4.15265 60.3168 4.06106 60.2561 3.96947 60.1955C3.86262 60.1197 3.75577 60.059 3.66418 59.9832C3.57259 59.9225 3.481 59.8619 3.38941 59.7861C3.29783 59.7103 3.19097 59.6496 3.09938 59.5738C3.06885 59.5435 3.02306 59.5132 2.97726 59.4828C2.94673 59.4525 2.9162 59.4222 2.88567 59.3919C2.73303 59.2706 2.58038 59.1341 2.44299 59.0128C2.3972 58.9673 2.35141 58.9218 2.30561 58.8915C2.12244 58.7247 1.95452 58.5579 1.80187 58.376L1.78661 58.3608C1.75608 58.3153 1.72555 58.285 1.67976 58.2395C1.58817 58.1334 1.49658 58.0273 1.40499 57.9211C1.3592 57.8605 1.3134 57.7998 1.2676 57.7392C1.19128 57.633 1.11496 57.5421 1.0539 57.4359C1.03863 57.4056 1.0081 57.3753 0.992839 57.3601C0.96231 57.3146 0.947045 57.2843 0.916515 57.2388C0.870721 57.1478 0.809662 57.072 0.763867 56.9811C0.718073 56.9052 0.687545 56.8446 0.641751 56.7688C0.595956 56.6778 0.550159 56.602 0.51963 56.511C0.504365 56.4655 0.473836 56.4352 0.458571 56.3897C0.443306 56.3594 0.428044 56.3139 0.412779 56.2836C0.382249 56.2078 0.351721 56.1168 0.321191 56.041C0.290662 55.9652 0.275397 55.8894 0.244867 55.8136C0.214338 55.7378 0.199073 55.6468 0.168543 55.571C0.153279 55.5255 0.138012 55.48 0.138012 55.4345C0.138012 55.4042 0.122746 55.3739 0.122746 55.3435C0.107481 55.2526 0.0922184 55.1767 0.0769536 55.0858C0.0616888 55.01 0.0464222 54.9341 0.0464222 54.8583C0.0311574 54.7674 0.0311611 54.6916 0.0311611 54.6006C0.0311611 54.5551 0.0158954 54.4944 0.0158954 54.449C0.0158954 54.4035 0.0158954 54.358 0.0158954 54.2973L0.000629658 50.2187C0.000629658 50.2642 0.000629658 50.3097 0.000629658 50.3551V48.2324Z" fill="#B8CADF"/>
<path d="M5.81579 40.1809C-1.9082 44.6083 -1.93873 51.78 5.7242 56.2074C13.3871 60.6348 25.8585 60.6348 33.5825 56.2074C41.3064 51.78 41.337 44.6083 33.674 40.1809C26.0111 35.7535 13.5398 35.7535 5.81579 40.1809Z" fill="#E9F6FD"/>
<path d="M5.63237 56.1925C13.2648 60.5896 25.675 60.6047 33.3532 56.1925C39.9782 52.4019 40.9093 46.5645 36.162 42.2129C41.2146 46.5948 40.3598 52.5687 33.6127 56.4351C25.9346 60.8473 13.5243 60.8322 5.89187 56.4351C4.8386 55.8286 3.93798 55.1615 3.17474 54.464C3.87692 55.0705 4.70122 55.6467 5.63237 56.1925Z" fill="white"/>
<path d="M30.0719 46.0031C36.1931 50.2788 23.9202 56.8441 18.5012 53.2052C13.0822 49.5662 25.752 42.9858 30.0719 46.0031Z" fill="#C5D9EC"/>
<path d="M29.7519 48.3075C29.7519 48.3075 27.2332 47.4584 26.9126 48.3227C26.5921 49.1869 29.2481 50.2483 29.8282 50.1724C30.4083 50.0966 30.7288 49.9147 30.5914 49.384C30.454 48.8533 29.8893 48.1255 29.8893 48.1255L29.7519 48.3075Z" fill="#020202"/>
<path d="M26.8505 42.0906C26.8505 42.0906 26.6979 40.8624 25.3851 40.9231C24.0723 40.9837 24.2097 42.788 24.6371 46.0631C25.0646 49.3381 25.034 50.824 25.4004 51.5367C25.6599 52.037 26.591 51.9006 26.6521 51.3396C26.6826 50.7937 26.9269 42.7425 26.8505 42.0906Z" fill="#253F67"/>
<path d="M26.6362 50.8999C26.6362 50.8999 25.8272 51.4306 25.1708 50.5967C25.1708 50.5967 24.4839 50.8393 23.6901 51.0364C23.0184 51.188 22.2094 51.2487 22.1026 51.6732C21.8583 52.5829 25.9035 52.7649 26.392 52.6133C26.8804 52.4616 26.6362 50.8999 26.6362 50.8999Z" fill="#020202"/>
<path d="M27.6289 34.5548C27.6289 34.5548 26.8504 40.7865 26.8962 41.8782C26.942 42.9699 26.4535 44.0919 24.9881 43.637C24.0875 43.349 24.2706 41.9844 24.1791 40.6046C24.0875 39.2097 23.7059 33.9029 23.7059 33.9029C23.7059 33.9029 27.0946 31.3101 27.6289 34.5548Z" fill="#253F67"/>
<path d="M30.6662 39.7107C30.6662 39.7107 30.5135 38.4825 29.2008 38.5432C27.888 38.6038 28.0254 40.4082 28.4528 43.6832C28.8802 46.9583 28.8497 48.4442 29.216 49.1568C29.4755 49.6571 30.4067 49.5207 30.4678 48.9597C30.5135 48.4138 30.7425 40.3778 30.6662 39.7107Z" fill="#253F67"/>
<path d="M31.4453 32.1904C31.4453 32.1904 30.6668 38.4221 30.7126 39.5138C30.7584 40.6054 30.2699 41.7274 28.8045 41.2726C27.9039 40.9845 28.0871 39.6199 27.9955 38.2401C27.9039 36.8452 27.5223 31.5384 27.5223 31.5384C27.5223 31.5384 30.911 28.9305 31.4453 32.1904Z" fill="#253F67"/>
<path d="M29.1855 21.4854V22.9713C28.5139 23.7294 27.6285 23.4868 27.2469 23.32V21.4854H29.1855V21.4854Z" fill="#F9C7B6"/>
<path d="M30.0571 18.3775C30.8814 19.2114 30.8051 20.6063 29.8892 21.4857C28.9885 22.3651 27.5842 22.3955 26.7599 21.5464C25.9356 20.7124 26.0119 19.3175 26.9278 18.4381C27.8284 17.5739 29.2328 17.5435 30.0571 18.3775Z" fill="#F8D1BF"/>
<path d="M28.2562 18.9837C28.2562 18.9837 26.9739 18.8624 26.6992 18.1346C26.4855 17.5432 26.806 16.6032 27.5235 16.1483C28.302 15.6631 27.2945 16.7245 28.6225 16.6032C32.2861 16.2544 32.5303 19.954 30.8817 21.5461C29.9048 22.4861 28.4852 22.1374 27.7982 20.9548C27.5693 20.5757 27.4929 19.6205 28.2562 18.9837Z" fill="#2A231E"/>
<path d="M31.537 23.9421C31.537 23.9421 31.7354 24.8215 30.1479 25.6251C28.5603 26.4135 24.7594 27.3384 23.7977 26.8229C22.836 26.3074 22.8971 24.7002 24.8205 24.2453C26.7286 23.7905 29.7052 22.8201 30.5906 23.1082C31.4759 23.4114 31.537 23.9421 31.537 23.9421Z" fill="#645E9F"/>
<path d="M25.4464 25.5037C25.4464 25.5037 24.3474 22.6077 23.6604 21.228C22.9735 19.8482 22.7904 19.7117 22.2103 19.924C21.6302 20.1363 22.1034 21.7283 22.3171 22.8352C22.5309 23.942 22.7751 26.5044 23.8284 26.838C24.8969 27.1716 25.6601 26.2012 25.4464 25.5037Z" fill="#335A9E"/>
<path d="M23.0506 20.1058C23.0658 20.4394 22.2568 20.8488 21.8599 20.4849C21.463 20.121 20.5166 18.2409 20.6845 17.877C20.8677 17.5131 21.8904 17.6647 22.5774 19.0141C22.5774 19.0141 22.44 18.1196 22.8521 18.2712C23.0353 18.3622 23.0048 19.0596 23.0506 20.1058Z" fill="#F8D1BF"/>
<path d="M31.873 27.2019C31.7204 30.9015 31.7662 33.0091 31.5219 33.3881C31.2777 33.7672 28.9269 36.9209 23.63 34.5404C23.63 34.5404 23.7063 32.7665 23.8743 30.9318C24.0727 28.7636 24.5154 26.3376 24.5459 25.6857C24.5917 24.4727 25.5839 23.7449 25.5839 23.7449C25.9655 23.563 26.5151 23.4113 27.1409 23.2597C27.492 23.1687 27.8736 23.0929 28.2705 22.9868C28.53 22.9261 28.8811 22.8655 29.2475 22.8655C29.9344 22.8503 30.6976 22.9716 31.2014 23.4568C31.8883 24.1088 31.9341 25.4734 31.873 27.2019Z" fill="#335A9E"/>
<path d="M26.4693 23.8657C26.4693 23.8657 27.1867 24.4419 26.4388 26.0339C25.6908 27.6411 23.2942 30.7039 22.2104 30.901C21.1266 31.0981 20.1802 29.7942 21.3861 28.2628C22.592 26.7162 24.3017 24.1235 25.187 23.8051C26.0877 23.4867 26.4693 23.8657 26.4693 23.8657Z" fill="#6B95C9"/>
<path d="M22.6831 28.8547C22.6831 28.8547 20.0118 27.2778 18.6074 26.6107C17.2031 25.9587 16.9741 25.9739 16.6535 26.4894C16.3177 27.0049 17.7068 27.9601 18.5616 28.7031C19.4165 29.446 21.2177 31.2958 22.2557 30.8865C23.2937 30.5074 23.2785 29.2641 22.6831 28.8547Z" fill="#6B95C9"/>
<path d="M17.4167 26.1247C17.6304 26.3673 17.2641 27.2013 16.7145 27.1558C16.1803 27.1255 14.2569 26.2309 14.1653 25.8367C14.0737 25.4424 14.9743 24.9269 16.3634 25.5637C16.3634 25.5637 15.6918 24.9572 16.1192 24.8208C16.3176 24.7601 16.7298 25.3363 17.4167 26.1247Z" fill="#F8D1BF"/>
<path d="M28.2703 19.8028C27.9803 19.727 27.6597 20.0605 27.5376 20.5154C27.4307 20.9854 27.5681 21.41 27.8582 21.4858C28.1482 21.5616 28.4688 21.228 28.5909 20.7731C28.6977 20.3031 28.5603 19.8634 28.2703 19.8028Z" fill="#F8D1BF"/>
<path d="M29.2637 22.8799C29.2331 22.9102 29.2179 22.9405 29.1873 22.9709C28.5157 23.729 27.6303 23.4864 27.2487 23.3196C27.2029 23.3044 27.1724 23.2893 27.1419 23.2741C27.493 23.1831 27.8746 23.1073 28.2715 23.0012C28.531 22.9405 28.8821 22.8799 29.2637 22.8799Z" fill="#F9C7B6"/>
<g opacity="0.9">
<path d="M6.01475 9.85582L4.67145 9.06738L4.71724 27.1408L6.06055 27.9141L6.01475 9.85582Z" fill="#253F67"/>
<g opacity="0.5">
<path d="M21.8301 0.773277L20.4868 0L4.67245 9.06705L6.01575 9.85549L21.8301 0.773277Z" fill="#3265A7"/>
</g>
<path d="M6.01524 9.85565L6.06103 27.9139L21.8906 18.8317L21.8296 0.773438L6.01524 9.85565Z" fill="#3265A7"/>
</g>
<path d="M9.00554 16.299L12.7454 13.9944V10.2948L14.4551 9.2334V12.933L18.1797 10.6132V12.3113L14.4551 14.6312V18.3308L12.7454 19.3921V15.6925L9.00554 17.9972V16.299Z" fill="url(#paint0_linear_11419_352625)"/>
<path d="M45.9316 35.7679L45.55 35.9044C44.2067 36.3744 42.955 37.4054 42.6497 38.4668C42.0239 40.6653 41.3217 44.8198 38.6656 46.6696C38.3908 46.8667 37.8108 46.9728 37.8108 46.9728L30.3463 42.7122L30.3768 42.6971L30.4073 42.7122C30.4073 42.7122 30.9874 42.6061 31.2622 42.409C33.9182 40.5592 34.6357 36.4047 35.2463 34.2062C35.5516 33.1448 36.8033 32.1138 38.1466 31.6438L38.4977 31.5225L45.9316 35.7679Z" fill="#B5CEE8"/>
<path d="M45.9316 35.7679L45.55 35.9044C44.2067 36.3744 42.955 37.4054 42.6497 38.4668C42.0239 40.6653 41.3217 44.8198 38.6656 46.6696C38.3908 46.8667 37.8108 46.9728 37.8108 46.9728L30.3463 42.7122L30.3768 42.6971L30.4073 42.7122C30.4073 42.7122 30.9874 42.6061 31.2622 42.409C33.9182 40.5592 34.6357 36.4047 35.2463 34.2062C35.5516 33.1448 36.8033 32.1138 38.1466 31.6438L38.4977 31.5225L45.9316 35.7679Z" fill="#C5D9EC"/>
<path d="M37.4964 32.6712L42.9824 35.8174L42.6924 36.3163L37.2064 33.1702L37.4964 32.6712Z" fill="white"/>
<path d="M36.6898 34.0687L42.1758 37.2148L41.8857 37.7138L36.3997 34.5676L36.6898 34.0687Z" fill="white"/>
<path d="M35.8441 35.6429L41.3301 38.7891L41.04 39.288L35.554 36.1418L35.8441 35.6429Z" fill="white"/>
<path d="M35.1605 37.3372L40.6465 40.4834L40.3565 40.9824L34.8704 37.8362L35.1605 37.3372Z" fill="white"/>
<path d="M34.4769 38.973L39.9629 42.1191L39.6729 42.6181L34.1868 39.4719L34.4769 38.973Z" fill="white"/>
<path d="M33.9105 40.7523L39.3965 43.8984L39.1065 44.3974L33.6204 41.2512L33.9105 40.7523Z" fill="white"/>
<path d="M32.6878 42.0706L38.1738 45.2168L37.8838 45.7158L32.3978 42.5696L32.6878 42.0706Z" fill="white"/>
<path d="M23.0039 44.2587C23.0039 44.5165 22.9123 44.6984 22.7749 44.7742L17.0812 48.0644C17.127 48.019 17.1575 47.9735 17.188 47.928C17.0506 48.1554 16.7759 48.2161 16.4553 48.0493L16.1195 47.8522L9.41824 51.6882C9.14347 51.8399 8.70079 51.8399 8.42603 51.6882L0.610447 47.5338V46.715L0.0456476 46.3814L0.0151208 37.3902C0.0151208 37.087 0.228825 36.7079 0.503592 36.5411L12.8681 29.4603C13.0055 29.3845 13.1276 29.3694 13.2192 29.43L13.7992 29.7636C13.784 29.7636 13.784 29.7484 13.7687 29.7484C13.8756 29.7939 13.9366 29.9152 13.9366 30.0668L13.9519 38.118L14.1198 38.209L14.364 38.3454L17.5391 40.1649L17.7833 40.3165L20.9584 42.136L21.2027 42.2725L22.1796 42.8335C22.6376 43.1215 23.0039 43.7432 23.0039 44.2587Z" fill="#B8CADF"/>
<path d="M13.7695 29.7792C13.6779 29.7337 13.5558 29.7337 13.4184 29.8095L1.06922 36.8903C0.794454 37.0419 0.580745 37.421 0.580745 37.7394L0.611277 46.7306L0.0464772 46.3971L0.0159504 37.4058C0.0159504 37.0874 0.229655 36.7084 0.504421 36.5567L12.8536 29.476C12.991 29.4001 13.1131 29.385 13.2047 29.4456L13.7695 29.7792Z" fill="#BAC1CD"/>
<path d="M13.4185 29.8247C13.6933 29.673 13.907 29.7943 13.907 30.1128L13.9375 39.104L0.596066 46.7609L0.565539 37.7697C0.565539 37.4513 0.779243 37.0722 1.05401 36.9206L13.4185 29.8247Z" fill="#253F67"/>
<path d="M1.17539 37.7538C1.17539 37.6628 1.28225 37.4809 1.35857 37.4354L13.2956 30.582L13.3262 38.7393L1.19066 45.6988L1.17539 37.7538Z" fill="url(#paint1_radial_11419_352625)"/>
<path d="M0.596079 46.7304V47.5492L8.42692 51.7036C8.70169 51.8552 9.14437 51.8552 9.40387 51.7036L21.7531 44.6228C21.8905 44.547 21.9668 44.4409 21.9668 44.3348V43.8799C21.9668 43.986 21.8905 44.0922 21.7531 44.168L9.40387 51.2488C9.1291 51.4004 8.68642 51.4004 8.42692 51.2488L0.596079 46.7304Z" fill="#B8CADF"/>
<path d="M0.596258 46.7297L8.4271 51.248C8.70187 51.3997 9.14455 51.3997 9.41931 51.248L21.7685 44.1673C22.0433 44.0156 22.0433 43.7579 21.7685 43.6063L13.953 39.0879L0.596258 46.7297Z" fill="#E5F3FB"/>
<path d="M2.88539 48.2764V48.6099L3.16016 48.7616V48.4432L2.88539 48.2764Z" fill="#253F67"/>
<path d="M2.16814 47.8672V48.1856L2.67188 48.4737V48.1553L2.16814 47.8672Z" fill="#253F67"/>
<path d="M1.69399 47.5947V47.9131L1.96875 48.0799V47.7615L1.69399 47.5947Z" fill="#253F67"/>
<path d="M1.19043 47.3066V47.6402L1.4652 47.7918L1.48047 47.4734L1.19043 47.3066Z" fill="#253F67"/>
<path d="M18.4707 41.6966L5.12927 49.3536L1.26727 47.1247L14.5934 39.4678L18.4707 41.6966Z" fill="#BAC1CD"/>
<path d="M13.9986 40.5291L13.388 40.1652L14.0292 39.7861H14.0597L14.6855 40.15L14.0444 40.5291H13.9986Z" fill="#253F67"/>
<path d="M13.1897 40.9836L12.5638 40.6198L13.2202 40.2559H13.2507L13.8613 40.6198L13.2202 40.9836H13.1897Z" fill="#253F67"/>
<path d="M3.31202 47.5794L2.68616 47.2155L3.87681 46.5332H3.90735L4.5332 46.8971L3.35781 47.5794H3.31202Z" fill="#253F67"/>
<path d="M5.73964 48.9746L5.11379 48.6107L5.96862 48.1104L5.99914 48.1255L6.625 48.4894L5.77017 48.9746H5.73964Z" fill="#253F67"/>
<path d="M4.93056 48.5046L4.30471 48.1407L6.38072 46.958H6.41125L7.03711 47.3219L4.9611 48.5046H4.93056Z" fill="#253F67"/>
<path d="M11.2506 44.8801L10.6247 44.5162L11.2811 44.1523H11.3116L11.9375 44.5162L11.2811 44.8801H11.2506Z" fill="#253F67"/>
<path d="M6.76308 48.3833L6.13722 48.0194L6.99205 47.5342H7.02258L7.64844 47.8981L6.79361 48.3833H6.76308Z" fill="#253F67"/>
<path d="M14.3645 41.2409L13.7387 40.8771L14.8378 40.2402L14.8683 40.2554L15.4941 40.6193L14.4103 41.2409H14.3645Z" fill="#253F67"/>
<path d="M12.3639 41.4539L11.7533 41.09L12.3944 40.7109L12.4249 40.7261L13.0508 41.09L12.4097 41.4539H12.3639Z" fill="#253F67"/>
<path d="M13.5553 41.7117L12.9294 41.3326L13.5858 40.9688H13.6163L14.2422 41.3326L13.6011 41.7117H13.5553Z" fill="#253F67"/>
<path d="M11.5553 41.9236L10.9294 41.5597L11.5858 41.1807L11.6163 41.1958L12.2422 41.5597L11.6011 41.9236H11.5553Z" fill="#253F67"/>
<path d="M12.7772 42.1668L12.1361 41.8029L12.7772 41.4238L12.8077 41.439L13.4336 41.8029L12.7925 42.1668H12.7772Z" fill="#253F67"/>
<path d="M10.7616 42.3933L10.1205 42.0294L10.7616 41.6504L10.7921 41.6655L11.418 42.0294L10.7768 42.3933H10.7616Z" fill="#253F67"/>
<path d="M15.3097 42.5756L14.6686 42.1965L16.4546 41.1807H16.4851L17.0957 41.5446L15.325 42.5756H15.3097Z" fill="#253F67"/>
<path d="M11.9514 42.6365L11.3255 42.2575L11.9667 41.8936H12.0125L12.623 42.2575L11.9819 42.6365H11.9514Z" fill="#253F67"/>
<path d="M13.3268 42.7581L12.7009 42.3942L13.3573 42.0303H13.3878L14.0137 42.3942L13.3726 42.7732L13.3268 42.7581Z" fill="#253F67"/>
<path d="M9.92246 42.864L9.2966 42.5002L9.95299 42.1211H9.98352L10.6094 42.485L9.96825 42.864H9.92246Z" fill="#253F67"/>
<path d="M14.5018 43.031L13.8607 42.6671L14.5018 42.2881L14.5323 42.3032L15.1582 42.6671L14.5171 43.0462L14.5018 43.031Z" fill="#253F67"/>
<path d="M11.1432 43.0916L10.5173 42.7277L11.1737 42.3486L11.2042 42.3638L11.8301 42.7277L11.1737 43.0916H11.1432Z" fill="#253F67"/>
<path d="M12.5162 43.2273L11.8904 42.8634L12.5467 42.4844L12.5773 42.4995L13.2031 42.8634L12.562 43.2273H12.5162Z" fill="#253F67"/>
<path d="M9.11351 43.3338L8.48765 42.9699L9.12877 42.5908H9.17456L9.78516 42.9547L9.14403 43.3338H9.11351Z" fill="#253F67"/>
<path d="M13.6932 43.5008L13.0521 43.1369L13.7085 42.7578H13.7238L14.3496 43.1217L13.7085 43.5008H13.6932Z" fill="#253F67"/>
<path d="M10.3495 43.5613L9.70835 43.1974L10.3647 42.8184H10.3953L11.0059 43.1823L10.3647 43.5613H10.3495Z" fill="#253F67"/>
<path d="M11.7076 43.698L11.0818 43.3341L11.7381 42.9551H11.7687L12.3945 43.3341L11.7534 43.698H11.7076Z" fill="#253F67"/>
<path d="M8.28965 43.8035L7.67905 43.4244L8.32018 43.0605H8.35071L8.97656 43.4244L8.33544 43.8035H8.28965Z" fill="#253F67"/>
<path d="M14.8225 43.7885L14.1814 43.4095L15.0057 42.9395H15.0363L15.6621 43.3033L14.8378 43.7885H14.8225Z" fill="#253F67"/>
<path d="M12.8827 43.971L12.2416 43.5919L12.8979 43.2129L12.9132 43.2281L13.5391 43.5919L12.8979 43.971H12.8827Z" fill="#253F67"/>
<path d="M9.52561 44.0164L8.89976 43.6525L9.55614 43.2734L9.58667 43.2886L10.1973 43.6525L9.57141 44.0164H9.52561Z" fill="#253F67"/>
<path d="M10.899 44.1521L10.2732 43.7882L10.9296 43.4092L10.9601 43.4243L11.5859 43.7882L10.9448 44.1521H10.899Z" fill="#253F67"/>
<path d="M7.48069 44.259L6.85484 43.8951L7.51123 43.5312H7.54175L8.15234 43.8951L7.52649 44.259H7.48069Z" fill="#253F67"/>
<path d="M12.0741 44.4256L11.433 44.0617L12.0893 43.6826H12.1199L12.7305 44.0617L12.0893 44.4256H12.0741Z" fill="#253F67"/>
<path d="M8.71543 44.4861L8.08957 44.1071L8.74595 43.7432H8.77649L9.40234 44.1071L8.76122 44.4861H8.71543Z" fill="#253F67"/>
<path d="M10.0904 44.6228L9.46457 44.2589L10.121 43.8799L10.1515 43.895L10.7773 44.2589L10.1362 44.6228H10.0904Z" fill="#253F67"/>
<path d="M6.68541 44.7283L6.04429 44.3644L6.68541 43.9854L6.71594 44.0005L7.3418 44.3644L6.68541 44.7435V44.7283Z" fill="#253F67"/>
<path d="M7.9221 44.9412L7.28098 44.5773L7.93737 44.1982L7.9679 44.2134L8.59375 44.5773L7.93737 44.9564L7.9221 44.9412Z" fill="#253F67"/>
<path d="M9.28183 45.0926L8.65598 44.7287L9.31236 44.3496H9.34289L9.96875 44.7287L9.32763 45.0926H9.28183Z" fill="#253F67"/>
<path d="M5.84592 45.199L5.22007 44.8351L5.87645 44.4561L5.90699 44.4712L6.51758 44.8351L5.89172 45.199H5.84592Z" fill="#253F67"/>
<path d="M10.442 45.3504L9.81613 44.9865L10.4725 44.6074L10.5031 44.6226L11.1289 44.9865L10.4878 45.3504H10.442Z" fill="#253F67"/>
<path d="M7.11351 45.4109L6.47238 45.0319L7.12877 44.668H7.1593L7.78516 45.047L7.14403 45.4109H7.11351Z" fill="#253F67"/>
<path d="M8.47129 45.5476L7.84543 45.1837L8.50182 44.8047L8.51708 44.8199L9.1582 45.1837L8.51708 45.5476H8.47129Z" fill="#253F67"/>
<path d="M5.03733 45.6687L4.41148 45.3048L5.0526 44.9258H5.08313L5.70898 45.3048L5.06787 45.6687H5.03733Z" fill="#253F67"/>
<path d="M9.63304 45.8201L9.00718 45.441L9.66356 45.0771H9.6941L10.3047 45.441L9.67883 45.8201H9.63304Z" fill="#253F67"/>
<path d="M6.30491 45.866L5.67905 45.5021L6.32017 45.123L6.3507 45.1382L6.97656 45.5021L6.33544 45.866H6.30491Z" fill="#253F67"/>
<path d="M7.66233 46.0174L7.03648 45.6535L7.6776 45.2744H7.70813L8.33398 45.6535L7.70813 46.0174H7.66233Z" fill="#253F67"/>
<path d="M4.21312 46.1385L3.58726 45.7746L4.24364 45.3955H4.27417L4.88477 45.7594L4.25891 46.1385H4.21312Z" fill="#253F67"/>
<path d="M8.82285 46.2752L8.197 45.9113L8.85338 45.5322L8.88391 45.5474L9.50977 45.9113L8.86865 46.2752H8.82285Z" fill="#253F67"/>
<path d="M5.49437 46.3357L4.86851 45.9718L5.50963 45.5928H5.54016L6.16602 45.9567L5.5249 46.3357H5.49437Z" fill="#253F67"/>
<path d="M6.85374 46.4871L6.22788 46.1232L6.86901 45.7441H6.89954L7.52539 46.108L6.88427 46.4871H6.85374Z" fill="#253F67"/>
<path d="M9.89168 46.6087L9.26582 46.2297L13.9979 43.5156H14.0437L14.6543 43.8795L9.90694 46.6087H9.89168Z" fill="#253F67"/>
<path d="M8.01426 46.7449L7.3884 46.381L8.04479 46.002H8.07531L8.70117 46.3658L8.06005 46.7449H8.01426Z" fill="#253F67"/>
<path d="M4.70103 46.806L4.05991 46.4269L4.70103 46.0479L4.73156 46.063L5.35742 46.4269L4.7163 46.806H4.70103Z" fill="#253F67"/>
<path d="M6.02988 46.9422L5.41929 46.5783L6.06041 46.1992L6.09094 46.2144L6.7168 46.5783L6.07567 46.9422H6.02988Z" fill="#253F67"/>
<path d="M2.50389 47.1095L1.8933 46.7456L3.41978 45.8662H3.45031L4.07617 46.2301L2.54969 47.1095H2.50389Z" fill="#253F67"/>
<path d="M7.20566 47.2L6.5798 46.8361L7.23619 46.457L7.26672 46.4722L7.89258 46.8361L7.25145 47.2H7.20566Z" fill="#253F67"/>
<path d="M8.80872 47.2153L8.18286 46.8515L9.06822 46.3359H9.09875L9.72461 46.715L8.85451 47.2153H8.80872Z" fill="#253F67"/>
<path d="M7.78457 47.8066L7.15871 47.4276L8.01354 46.9424H8.04407L8.66992 47.3214L7.83036 47.8066H7.78457Z" fill="#253F67"/>
<path d="M4.12222 48.0497L3.49636 47.6858L5.25181 46.6699L5.28235 46.6851L5.9082 47.049L4.16801 48.0497H4.12222Z" fill="#253F67"/>
<path d="M15.815 43.2121L15.1891 42.833L17.2651 41.6504H17.2804L17.9062 42.0143L15.8302 43.2121H15.815Z" fill="#253F67"/>
<path d="M14.1353 42.3025L13.5248 41.9386L14.1659 41.5596H14.1964L14.8223 41.9235L14.1811 42.3025H14.1353Z" fill="#253F67"/>
<path d="M14.9289 41.8481L14.303 41.4842L15.6463 40.7109L15.6769 40.7261L16.3027 41.09L14.9747 41.8481H14.9289Z" fill="#253F67"/>
<path d="M15.311 46.8818L12.8229 48.3222C12.6855 48.398 12.5176 48.398 12.3802 48.3222L10.7926 47.4125C10.6553 47.3367 10.6553 47.1244 10.7926 47.0334L13.2808 45.593C13.4182 45.5172 13.5861 45.5172 13.7235 45.593L15.311 46.5027C15.4484 46.5785 15.4484 46.7908 15.311 46.8818Z" fill="#B8CADF"/>
<path d="M23.0039 44.2586C23.0039 44.5164 22.9123 44.6983 22.7749 44.7741L17.0812 48.0643C17.127 48.0189 17.1575 47.9734 17.188 47.9279C17.188 47.9127 17.2033 47.9127 17.2185 47.8976C17.2643 47.8066 17.2796 47.7004 17.2796 47.5791C17.2796 47.4882 17.2491 47.3972 17.2338 47.3062C17.1422 46.8665 16.8369 46.3965 16.4706 46.1842L15.4631 45.6081L15.2189 45.4716L12.0438 43.6521L11.7843 43.5005L8.6092 41.681L8.36496 41.5446L5.18989 39.7251L4.94565 39.5886L3.89238 38.9821L9.66247 35.6768L10.7157 36.2832L10.96 36.4197L14.1351 38.2392L14.3793 38.3756L17.5544 40.1951L17.7986 40.3467L20.9737 42.1662L21.2179 42.3027L22.1949 42.8637C22.6376 43.1214 23.0039 43.7431 23.0039 44.2586Z" fill="#253F67"/>
<path d="M17.2637 47.5794C17.2637 47.4885 17.2331 47.3975 17.2179 47.3065C17.1263 46.8668 16.821 46.3968 16.4394 46.1845L3.84592 38.9824V40.8474L16.4394 48.0495C16.7599 48.2314 17.0347 48.1708 17.1721 47.9433C17.1721 47.9282 17.1873 47.9282 17.2026 47.913C17.2331 47.822 17.2637 47.7159 17.2637 47.5794Z" fill="#484C5A"/>
<path d="M16.7757 47.67C16.7605 47.67 16.73 47.6548 16.6842 47.6245L3.86173 40.286V39.5127L16.211 46.5783C16.4552 46.7148 16.6842 47.0635 16.7605 47.3819C16.7758 47.4729 16.791 47.5335 16.791 47.5639C16.791 47.6245 16.7757 47.6548 16.7757 47.67Z" fill="#B8CADF"/>
<path d="M4.5036 40.1497C4.59519 40.1952 4.65625 40.3165 4.65625 40.4074C4.65625 40.4984 4.59519 40.5439 4.5036 40.4833C4.42728 40.4378 4.35095 40.3165 4.35095 40.2255C4.35095 40.1345 4.41201 40.089 4.5036 40.1497Z" fill="#253F67"/>
<path d="M6.65595 41.3779C6.74753 41.4234 6.80859 41.5447 6.80859 41.6508C6.80859 41.7418 6.73227 41.7873 6.65595 41.7266C6.57962 41.6811 6.5033 41.5598 6.5033 41.4689C6.5033 41.3627 6.57962 41.3324 6.65595 41.3779Z" fill="#253F67"/>
<path d="M8.80829 42.6215C8.88461 42.667 8.96094 42.7883 8.96094 42.8792C8.96094 42.9702 8.88461 43.0157 8.80829 42.9551C8.7167 42.9096 8.65564 42.7883 8.65564 42.6973C8.65564 42.6063 8.73197 42.576 8.80829 42.6215Z" fill="#253F67"/>
<path d="M10.9763 43.849C11.0526 43.8945 11.1289 44.0158 11.1289 44.1068C11.1289 44.1978 11.0526 44.2432 10.9763 44.1826C10.8847 44.1371 10.8236 44.0158 10.8236 43.9248C10.8083 43.8339 10.8847 43.8035 10.9763 43.849Z" fill="#253F67"/>
<path d="M13.1286 45.0922C13.2049 45.1377 13.2812 45.259 13.2812 45.3499C13.2812 45.4409 13.2049 45.4864 13.1286 45.4258C13.037 45.3803 12.976 45.259 12.976 45.168C12.976 45.077 13.037 45.0467 13.1286 45.0922Z" fill="#253F67"/>
<path d="M15.2809 46.3209C15.3573 46.3664 15.4336 46.4877 15.4336 46.5786C15.4336 46.6696 15.3573 46.7151 15.2809 46.6545C15.1894 46.609 15.1283 46.4877 15.1283 46.3967C15.1283 46.3209 15.1894 46.2754 15.2809 46.3209Z" fill="#253F67"/>
<path d="M14.3652 38.3909L8.59514 41.6963L8.33564 41.5446L14.1057 38.2393L14.3652 38.3909Z" fill="#525567"/>
<path d="M21.2031 42.3025L15.4483 45.6079L15.1888 45.4714L20.9589 42.166L21.2031 42.3025Z" fill="#525567"/>
<path d="M17.7832 40.3469L12.0131 43.6523L11.7689 43.5007L17.539 40.1953L17.7832 40.3469Z" fill="#525567"/>
<path d="M10.9297 36.4197L5.15959 39.725L4.91536 39.5886L10.6854 36.2832L10.9297 36.4197Z" fill="#525567"/>
<path d="M19.0957 41.6504V43.4244L16.1649 45.1074L16.1801 43.3486L19.0957 41.6504Z" fill="#F5A511"/>
<path d="M16.959 43.167V43.7432L16.4247 44.0464V43.4702L16.959 43.167Z" fill="#E4E8F4"/>
<path d="M16.1797 43.3483L16.1644 45.1071L14.5464 44.1822V42.4082L16.1797 43.3483Z" fill="#EC7A23"/>
<path d="M19.0957 41.6505L16.1801 43.3487L15.4627 42.9393L15.2642 42.818H15.249L14.5468 42.4086L17.4776 40.7256L18.1798 41.135L18.3935 41.2411L19.0957 41.6505Z" fill="#FBBC3C"/>
<path d="M18.3926 41.2409L15.4617 42.9391L15.2633 42.8178H15.248L18.1789 41.1348L18.3926 41.2409Z" fill="#F5A511"/>
<path d="M15.4629 42.9397V43.6068L15.2492 43.4855V42.8184L15.4629 42.9397Z" fill="#F5A511"/>
<path d="M16.5327 44.335L16.5938 44.4411L16.548 44.4563L16.4716 44.5017L16.5327 44.335Z" fill="#404350"/>
<path d="M16.5472 44.4561L16.5625 44.6683L16.5167 44.6835V44.4864L16.5472 44.4561Z" fill="#404350"/>
<path d="M16.7617 44.5615V44.607L16.4717 44.7738V44.7283L16.7617 44.5615Z" fill="#404350"/>
<path d="M17.0664 44.0312V44.1829C17.0664 44.2284 17.0359 44.289 17.0053 44.3193V44.4558C17.0359 44.4406 17.0511 44.4406 17.0511 44.4558L16.9443 44.5164C16.9443 44.5013 16.9596 44.4861 16.9901 44.4558V44.3193C16.9748 44.3193 16.9596 44.3193 16.9443 44.3193C16.929 44.3042 16.929 44.289 16.929 44.2587V44.1071L17.0664 44.0312Z" fill="#404350"/>
<path d="M16.7148 44.3652V44.5775L16.6843 44.5927V44.3804L16.7148 44.3652Z" fill="#404350"/>
<path d="M16.7007 44.2432L16.7617 44.3341L16.7159 44.3645L16.6396 44.41L16.7007 44.2432Z" fill="#404350"/>
<path d="M13.8145 38.3154V40.0743L10.8989 41.7724V39.9984L13.8145 38.3154Z" fill="#F5A511"/>
<path d="M11.6777 39.8164V40.3926L11.1435 40.6958V40.1197L11.6777 39.8164Z" fill="#E4E8F4"/>
<path d="M10.8984 39.9977V41.7717L9.26511 40.8316L9.28037 39.0576L10.8984 39.9977Z" fill="#EC7A23"/>
<path d="M13.8145 38.3151L10.8989 39.9981L10.1814 39.5887L9.98299 39.4674L9.28081 39.058L12.1964 37.375L12.8986 37.7844H12.9138L13.1123 37.9057L13.8145 38.3151Z" fill="#FBBC3C"/>
<path d="M13.1113 37.9055L10.1805 39.5885L9.98204 39.4672L12.8976 37.7842H12.9129L13.1113 37.9055Z" fill="#F5A511"/>
<path d="M10.1816 39.5891V40.2562L9.9832 40.1349V39.4678L10.1816 39.5891Z" fill="#F5A511"/>
<path d="M11.2648 40.9844L11.3105 41.0905L11.28 41.1057L11.2037 41.1512L11.2648 40.9844Z" fill="#404350"/>
<path d="M11.2793 41.1055V41.3177L11.2335 41.3481V41.1358L11.2793 41.1055Z" fill="#404350"/>
<path d="M11.4941 41.2109V41.2564L11.2041 41.4232V41.3777L11.4941 41.2109Z" fill="#404350"/>
<path d="M11.7988 40.6807V40.8323C11.7988 40.8778 11.7683 40.9384 11.7378 40.9688V41.1052C11.7683 41.09 11.7836 41.09 11.7836 41.1052L11.6767 41.1659C11.6767 41.1507 11.692 41.1355 11.7225 41.1052V40.9688C11.7072 40.9688 11.692 40.9688 11.6767 40.9688C11.6614 40.9536 11.6614 40.9384 11.6614 40.9081V40.7565L11.7988 40.6807Z" fill="#404350"/>
<path d="M11.4473 41.0146V41.2269L11.4015 41.2421V41.045L11.4473 41.0146Z" fill="#404350"/>
<path d="M11.4175 40.8926L11.4785 40.9987L11.448 41.0139L11.3717 41.0594L11.4175 40.8926Z" fill="#404350"/>
</g>
<defs>
<linearGradient id="paint0_linear_11419_352625" x1="18.1789" y1="11.4657" x2="9.01295" y2="11.4657" gradientUnits="userSpaceOnUse">
<stop stop-color="#C9D6E2"/>
<stop offset="0.1312" stop-color="#D5DFE8"/>
<stop offset="0.4513" stop-color="#EDF1F5"/>
<stop offset="0.7476" stop-color="#FAFBFC"/>
<stop offset="0.9949" stop-color="white"/>
</linearGradient>
<radialGradient id="paint1_radial_11419_352625" cx="0" cy="0" r="1" gradientUnits="userSpaceOnUse" gradientTransform="translate(7.25724 38.1363) rotate(180) scale(6.88454 6.83831)">
<stop offset="4.1e-07" stop-color="#B5CEE8"/>
<stop offset="0.3401" stop-color="#D3E1F1"/>
<stop offset="0.7663" stop-color="#F3F7FC"/>
<stop offset="1" stop-color="white"/>
</radialGradient>
<clipPath id="clip0_11419_352625">
<rect width="49" height="64" fill="white" transform="matrix(-1 0 0 1 49 0)"/>
</clipPath>
</defs>
</svg>
