<svg width="24" height="24" viewBox="0 0 24 24" fill="none" xmlns="http://www.w3.org/2000/svg">
<rect width="24" height="24" rx="12" fill="#E8F5FF"/>
<path d="M18.0003 6.66669H6.00033C5.26395 6.66669 4.66699 7.26364 4.66699 8.00002V16C4.66699 16.7364 5.26395 17.3334 6.00033 17.3334H18.0003C18.7367 17.3334 19.3337 16.7364 19.3337 16V8.00002C19.3337 7.26364 18.7367 6.66669 18.0003 6.66669Z" stroke="#003567" stroke-linecap="round" stroke-linejoin="round"/>
<path d="M14 10.6667L16.6667 10.6667" stroke="#003567" stroke-linecap="round" stroke-linejoin="round"/>
<path d="M14 13.3333L16 13.3333" stroke="#003567" stroke-linecap="round" stroke-linejoin="round"/>
<path d="M10.2323 12C10.0811 12.1962 9.8925 12.3539 9.67969 12.4621C9.46689 12.5703 9.23502 12.6263 9.00033 12.6263C8.76563 12.6263 8.53376 12.5703 8.32096 12.4621C8.10815 12.3539 7.91954 12.1962 7.76833 12C7.43231 12.2277 7.15487 12.5451 6.96219 12.9224C6.7695 13.2997 6.66791 13.7245 6.66699 14.1566C6.66699 14.2919 6.71616 14.4216 6.80368 14.5173C6.89119 14.6129 7.00989 14.6667 7.13366 14.6667H10.867C10.9908 14.6667 11.1095 14.6129 11.197 14.5173C11.2845 14.4216 11.3337 14.2919 11.3337 14.1566C11.3327 13.7245 11.2312 13.2997 11.0385 12.9224C10.8458 12.5451 10.5683 12.2277 10.2323 12Z" fill="#003567"/>
<path d="M8.0747 11.7191C8.34878 11.9023 8.67102 12 9.00065 12C9.44252 11.9995 9.86615 11.8238 10.1786 11.5113C10.4911 11.1989 10.6668 10.7752 10.6673 10.3334C10.6673 10.0037 10.5696 9.68149 10.3864 9.4074C10.2033 9.13332 9.943 8.9197 9.63846 8.79356C9.33391 8.66741 8.9988 8.6344 8.6755 8.69871C8.3522 8.76302 8.05523 8.92176 7.82214 9.15484C7.58905 9.38793 7.43032 9.6849 7.36601 10.0082C7.3017 10.3315 7.33471 10.6666 7.46085 10.9712C7.587 11.2757 7.80062 11.536 8.0747 11.7191Z" fill="#003567"/>
</svg>
