<svg width="18" height="18" viewBox="0 0 18 18" fill="none" xmlns="http://www.w3.org/2000/svg">
<path d="M9.28366 13.443V14.0846H8.83366V13.418V13.0541C8.91016 13.0578 8.98795 13.0596 9.06699 13.0596C9.14073 13.0596 9.21295 13.058 9.28366 13.0547V13.443ZM8.83366 4.5763V3.91797H9.27533V4.59297V4.95701C9.20403 4.95317 9.13177 4.9513 9.05866 4.9513C8.98299 4.9513 8.90794 4.95327 8.83366 4.95727V4.5763ZM1.41699 9.0013C1.41699 4.81552 4.81454 1.41797 9.00033 1.41797C13.1861 1.41797 16.5837 4.81552 16.5837 9.0013C16.5837 13.1871 13.1861 16.5846 9.00033 16.5846C4.81454 16.5846 1.41699 13.1871 1.41699 9.0013ZM1.58366 9.0013C1.58366 13.0905 4.91111 16.418 9.00033 16.418C13.0895 16.418 16.417 13.0905 16.417 9.0013C16.417 4.91209 13.0895 1.58464 9.00033 1.58464C4.91111 1.58464 1.58366 4.91209 1.58366 9.0013Z" stroke="#A0A1A7" stroke-width="1.5"/>
</svg>
