<svg width="32" height="32" viewBox="0 0 32 32" fill="none" xmlns="http://www.w3.org/2000/svg">
<path d="M15.9997 13.3333C14.533 13.3333 13.333 14.5333 13.333 16C13.333 17.4667 14.533 18.6667 15.9997 18.6667C17.4663 18.6667 18.6663 17.4667 18.6663 16C18.6663 14.5333 17.4663 13.3333 15.9997 13.3333ZM15.9997 5.33334C14.533 5.33334 13.333 6.53334 13.333 8.00001C13.333 9.46668 14.533 10.6667 15.9997 10.6667C17.4663 10.6667 18.6663 9.46668 18.6663 8.00001C18.6663 6.53334 17.4663 5.33334 15.9997 5.33334ZM15.9997 21.3333C14.533 21.3333 13.333 22.5333 13.333 24C13.333 25.4667 14.533 26.6667 15.9997 26.6667C17.4663 26.6667 18.6663 25.4667 18.6663 24C18.6663 22.5333 17.4663 21.3333 15.9997 21.3333Z" fill="white"/>
</svg>
