<svg width="43" height="28" viewBox="0 0 43 28" fill="none" xmlns="http://www.w3.org/2000/svg">
<path d="M42.5 5.75V27.75H0V5.75L21.25 5.74995L42.5 5.75Z" fill="#CACBCE"/>
<path d="M6.64062 19.5H2.65625V8.5H6.64062C8.83776 8.5 10.625 10.3503 10.625 12.625V15.375C10.625 17.6497 8.83776 19.5 6.64062 19.5ZM5.3125 16.75H6.64062C7.37342 16.75 7.96875 16.1337 7.96875 15.375V12.625C7.96875 11.8663 7.37342 11.25 6.64062 11.25H5.3125V16.75Z" fill="#CACBCE"/>
<path d="M1.77078 22.25H26.5625V25H1.77078V22.25Z" fill="#8A8D93"/>
<path d="M21.25 16.75H26.5625V19.5H21.25V16.75Z" fill="#8A8D93"/>
<path d="M21.25 11.25H26.5625V14H21.25V11.25Z" fill="#8A8D93"/>
<path d="M36.351 9.09782C32.601 8.3933 29.3933 11.601 30.0978 15.3511C30.4889 17.4332 32.1919 19.1361 34.274 19.5273C38.024 20.2318 41.2318 17.0241 40.5272 13.274C40.1361 11.1919 38.4331 9.48895 36.351 9.09782ZM35.3125 10.7709C36.9531 10.7709 38.33 11.9066 38.7275 13.4271H31.8975C32.295 11.9066 33.6719 10.7709 35.3125 10.7709ZM31.8975 15.198C33.2946 15.198 34.4271 16.3305 34.4271 17.7276C33.1914 17.4045 32.2206 16.4337 31.8975 15.198ZM36.1979 17.7276C36.1979 16.3305 37.3304 15.198 38.7275 15.198C38.4044 16.4337 37.4336 17.4045 36.1979 17.7276Z" fill="#8A8D93"/>
<path d="M42.5 0.25V3L21.25 4.375L0 3V0.25H42.5Z" fill="#CACBCE"/>
<path d="M3.655 19.9062V10.1262H7C7.68 10.1262 8.29 10.2012 8.83 10.3512C9.37 10.4912 9.8 10.7362 10.12 11.0863C10.44 11.4362 10.6 11.9262 10.6 12.5562C10.6 12.9862 10.485 13.4112 10.255 13.8312C10.035 14.2412 9.725 14.5212 9.325 14.6712V14.7312C9.825 14.8612 10.24 15.1162 10.57 15.4963C10.91 15.8663 11.08 16.3762 11.08 17.0262C11.08 17.6962 10.91 18.2412 10.57 18.6612C10.23 19.0812 9.775 19.3962 9.205 19.6062C8.635 19.8062 7.995 19.9062 7.285 19.9062H3.655ZM5.86 14.0412H6.895C7.435 14.0412 7.825 13.9362 8.065 13.7262C8.315 13.5162 8.44 13.2362 8.44 12.8862C8.44 12.5062 8.315 12.2362 8.065 12.0762C7.815 11.9162 7.43 11.8362 6.91 11.8362H5.86V14.0412ZM5.86 18.1962H7.105C8.315 18.1962 8.92 17.7562 8.92 16.8762C8.92 16.4462 8.77 16.1412 8.47 15.9612C8.17 15.7712 7.715 15.6762 7.105 15.6762H5.86V18.1962ZM12.632 19.9062V18.1212H14.702V12.6162H12.917V11.2512C13.437 11.1512 13.877 11.0312 14.237 10.8912C14.597 10.7512 14.947 10.5812 15.287 10.3812H16.907V18.1212H18.692V19.9062H12.632Z" fill="#2E5B83"/>
<path d="M0 3H42.5V5.75H0V3Z" fill="white"/>
</svg>
