<svg width="36" height="36" viewBox="0 0 36 36" fill="none" xmlns="http://www.w3.org/2000/svg">
<rect width="36" height="36" rx="18" fill="#E6EBF0"/>
<path d="M17.1666 11.3333H11.3333C10.8913 11.3333 10.4673 11.5089 10.1548 11.8215C9.84222 12.134 9.66663 12.558 9.66663 13V24.6666C9.66663 25.1087 9.84222 25.5326 10.1548 25.8452C10.4673 26.1577 10.8913 26.3333 11.3333 26.3333H23C23.442 26.3333 23.8659 26.1577 24.1785 25.8452C24.491 25.5326 24.6666 25.1087 24.6666 24.6666V18.8333" stroke="#2E5B83" stroke-width="1.6" stroke-linecap="round" stroke-linejoin="round"/>
<path d="M23.4166 10.0833C23.7481 9.7518 24.1978 9.56555 24.6666 9.56555C25.1355 9.56555 25.5851 9.7518 25.9166 10.0833C26.2481 10.4148 26.4344 10.8645 26.4344 11.3333C26.4344 11.8022 26.2481 12.2518 25.9166 12.5833L18 20.5L14.6666 21.3333L15.5 18L23.4166 10.0833Z" stroke="#2E5B83" stroke-width="1.6" stroke-linecap="round" stroke-linejoin="round"/>
</svg>
