<svg width="45" height="45" viewBox="0 0 45 45" fill="none" xmlns="http://www.w3.org/2000/svg">
    <path
        d="M22.5229 7.73424V6.25017C22.5229 5.87445 22.2096 5.56918 21.8221 5.56918H11.6983C11.3109 5.56918 10.9976 5.87445 10.9976 6.25017V7.73424"
        fill="white" />
    <path
        d="M22.5229 8.0677C22.3363 8.0677 22.1857 7.91976 22.1857 7.7366V6.25018C22.1857 6.05763 22.023 5.9003 21.8245 5.9003H11.6983C11.4998 5.9003 11.3372 6.05763 11.3372 6.25018V7.73426C11.3372 7.91742 11.1865 8.06535 11 8.06535C10.8134 8.06535 10.6628 7.91742 10.6628 7.73426V6.25018C10.658 5.69365 11.1243 5.2381 11.6983 5.2381H21.8245C22.3961 5.2381 22.8625 5.69365 22.8625 6.25018V7.73426C22.8625 7.91742 22.7094 8.0677 22.5229 8.0677Z"
        fill="#366088" />
    <path
        d="M9.70129 12.7923V8.41524C9.70129 8.03952 10.0146 7.73425 10.402 7.73425H23.1184C23.5058 7.73425 23.8191 8.03952 23.8191 8.41524V22.8192L23.1638 44.1317H10.402C10.0146 44.1317 9.70129 43.8264 9.70129 43.4507V40.9428V12.7923Z"
        fill="#64BDFA" />
    <path
        d="M23.1639 44.4252H10.4021C9.85202 44.4252 9.40479 43.9884 9.40479 43.453V8.41525C9.40479 7.87985 9.85202 7.44308 10.4021 7.44308H23.1184C23.6685 7.44308 24.1158 7.87985 24.1158 8.41525V22.8192L23.4604 44.1411C23.4581 44.3007 23.3241 44.4252 23.1639 44.4252ZM10.4021 8.02779C10.1797 8.02779 10.0003 8.20156 10.0003 8.4176V43.4554C10.0003 43.6691 10.1821 43.8452 10.4021 43.8452H22.8745L23.5202 22.8145V8.4176C23.5202 8.20391 23.3385 8.02779 23.1184 8.02779H10.4021Z"
        fill="#0C6BC2" />
    <path
        d="M38.5397 19.9966V18.4773C38.5397 18.0969 38.2264 17.7893 37.839 17.7893H27.7152C27.3277 17.7893 27.0144 18.0969 27.0144 18.4773V19.9966"
        fill="white" />
    <path
        d="M38.5421 20.3277C38.3555 20.3277 38.2049 20.1798 38.2049 19.9966V18.4773C38.2049 18.2824 38.0422 18.1228 37.8437 18.1228H27.7151C27.5166 18.1228 27.354 18.2824 27.354 18.4773V19.9966C27.354 20.1798 27.2033 20.3277 27.0168 20.3277C26.8302 20.3277 26.6796 20.1798 26.6796 19.9966V18.4773C26.6796 17.9161 27.1459 17.4582 27.7175 17.4582H37.8437C38.4153 17.4582 38.8817 17.9161 38.8817 18.4773V19.9966C38.8793 20.1798 38.7286 20.3277 38.5421 20.3277Z"
        fill="#366088" />
    <path
        d="M30.9965 44.1293H39.2715C39.659 44.1293 39.9723 43.8217 39.9723 43.4413V20.6847C39.9723 20.3043 39.659 19.9966 39.2715 19.9966H26.2825C25.8951 19.9966 25.5818 20.3043 25.5818 20.6847V25.6183"
        fill="white" />
    <path
        d="M39.2715 44.4628H30.9964C30.8099 44.4628 30.6592 44.3148 30.6592 44.1317C30.6592 43.9485 30.8099 43.8006 30.9964 43.8006H39.2715C39.47 43.8006 39.6327 43.6409 39.6327 43.446V20.6847C39.6327 20.4898 39.47 20.3301 39.2715 20.3301H26.2825C26.084 20.3301 25.9214 20.4898 25.9214 20.6847V25.6183C25.9214 25.8015 25.7707 25.9494 25.5842 25.9494C25.3976 25.9494 25.2469 25.8015 25.2469 25.6183V20.6847C25.2469 20.1235 25.7133 19.6656 26.2849 19.6656H39.2739C39.8455 19.6656 40.3119 20.1235 40.3119 20.6847V43.4436C40.3095 44.0049 39.8455 44.4628 39.2715 44.4628Z"
        fill="#366088" />
    <path
        d="M33.6081 24.5193H37.2458C37.3845 24.5193 37.4969 24.4089 37.4969 24.2727V22.9131C37.4969 22.7769 37.3845 22.6666 37.2458 22.6666H33.6081C33.4694 22.6666 33.357 22.7769 33.357 22.9131V24.2727C33.3546 24.4089 33.467 24.5193 33.6081 24.5193Z"
        fill="#64BDFA" />
    <path
        d="M37.2457 24.8105H33.6081C33.3043 24.8105 33.058 24.5686 33.058 24.2704V22.9108C33.058 22.6126 33.3043 22.3707 33.6081 22.3707H37.2457C37.5495 22.3707 37.7958 22.6126 37.7958 22.9108V24.2704C37.7958 24.5686 37.5495 24.8105 37.2457 24.8105ZM33.6511 24.2281H37.2003V22.9578H33.6511V24.2281Z"
        fill="#0C6BC2" />
    <path
        d="M33.6081 27.8491H37.2458C37.3845 27.8491 37.4969 27.7387 37.4969 27.6025V26.2429C37.4969 26.1067 37.3845 25.9963 37.2458 25.9963H33.6081C33.4694 25.9963 33.357 26.1067 33.357 26.2429V27.6025C33.3546 27.7387 33.467 27.8491 33.6081 27.8491Z"
        fill="#64BDFA" />
    <path
        d="M37.2457 28.1426H33.6081C33.3043 28.1426 33.058 27.9008 33.058 27.6025V26.2429C33.058 25.9447 33.3043 25.7028 33.6081 25.7028H37.2457C37.5495 25.7028 37.7958 25.9447 37.7958 26.2429V27.6025C37.7958 27.9008 37.5495 28.1426 37.2457 28.1426ZM33.6511 27.5579H37.2003V26.2875H33.6511V27.5579Z"
        fill="#0C6BC2" />
    <path
        d="M33.6081 31.2047H37.2458C37.3845 31.2047 37.4969 31.0943 37.4969 30.9581V29.5985C37.4969 29.4623 37.3845 29.3519 37.2458 29.3519H33.6081C33.4694 29.3519 33.357 29.4623 33.357 29.5985V30.9581C33.3546 31.0943 33.467 31.2047 33.6081 31.2047Z"
        fill="#64BDFA" />
    <path
        d="M37.2457 31.4982H33.6081C33.3043 31.4982 33.058 31.2563 33.058 30.9581V29.5985C33.058 29.3003 33.3043 29.0584 33.6081 29.0584H37.2457C37.5495 29.0584 37.7958 29.3003 37.7958 29.5985V30.9581C37.7958 31.254 37.5495 31.4982 37.2457 31.4982ZM33.6511 30.9135H37.2003V29.6431H33.6511V30.9135Z"
        fill="#0C6BC2" />
    <path
        d="M33.6081 34.5603H37.2458C37.3845 34.5603 37.4969 34.4499 37.4969 34.3137V32.9541C37.4969 32.8179 37.3845 32.7076 37.2458 32.7076H33.6081C33.4694 32.7076 33.357 32.8179 33.357 32.9541V34.3137C33.3546 34.4499 33.467 34.5603 33.6081 34.5603Z"
        fill="#64BDFA" />
    <path
        d="M37.2457 34.8515H33.6081C33.3043 34.8515 33.058 34.6096 33.058 34.3114V32.9518C33.058 32.6535 33.3043 32.4117 33.6081 32.4117H37.2457C37.5495 32.4117 37.7958 32.6535 37.7958 32.9518V34.3114C37.7958 34.6096 37.5495 34.8515 37.2457 34.8515ZM33.6511 34.2691H37.2003V32.9987H33.6511V34.2691Z"
        fill="#0C6BC2" />
    <path
        d="M33.6081 37.8149H37.2458C37.3845 37.8149 37.4969 37.7046 37.4969 37.5684V36.2088C37.4969 36.0726 37.3845 35.9622 37.2458 35.9622H33.6081C33.4694 35.9622 33.357 36.0726 33.357 36.2088V37.5684C33.3546 37.7046 33.467 37.8149 33.6081 37.8149Z"
        fill="#64BDFA" />
    <path
        d="M37.2457 38.1085H33.6081C33.3043 38.1085 33.058 37.8666 33.058 37.5684V36.2088C33.058 35.9105 33.3043 35.6687 33.6081 35.6687H37.2457C37.5495 35.6687 37.7958 35.9105 37.7958 36.2088V37.5684C37.7958 37.8666 37.5495 38.1085 37.2457 38.1085ZM33.6511 37.5238H37.2003V36.2534H33.6511V37.5238Z"
        fill="#0C6BC2" />
    <path
        d="M37.9944 44.1293V40.5036C37.9944 40.304 37.8294 40.1396 37.6237 40.1396H33.2279C33.0246 40.1396 32.8572 40.3017 32.8572 40.5036V44.1293H37.9944Z"
        fill="#64BDFA" />
    <path
        d="M37.9944 44.4228H32.8596C32.6945 44.4228 32.563 44.2913 32.563 44.1316V40.506C32.563 40.1444 32.8619 39.8508 33.2303 39.8508H37.6261C37.9944 39.8508 38.2934 40.1444 38.2934 40.506V44.1316C38.291 44.2913 38.1594 44.4228 37.9944 44.4228ZM33.1561 43.8381H37.6954V40.5036C37.6954 40.4637 37.662 40.4332 37.6237 40.4332H33.2279C33.1872 40.4332 33.1561 40.4661 33.1561 40.5036V43.8381Z"
        fill="#0C6BC2" />
    <path
        d="M12.2294 13.1586H21.2937C21.54 13.1586 21.7409 12.9614 21.7409 12.7195V10.3055C21.7409 10.0637 21.54 9.86642 21.2937 9.86642H12.2294C11.983 9.86642 11.7821 10.0637 11.7821 10.3055V12.7172C11.7797 12.9614 11.9806 13.1586 12.2294 13.1586Z"
        fill="white" />
    <path
        d="M21.2937 13.4897H12.2294C11.7965 13.4897 11.4425 13.1422 11.4425 12.7172V10.3056C11.4425 9.88053 11.7965 9.53299 12.2294 9.53299H21.2937C21.7266 9.53299 22.0805 9.88053 22.0805 10.3056V12.7172C22.0805 13.1422 21.7266 13.4897 21.2937 13.4897ZM12.2294 10.1975C12.1696 10.1975 12.1193 10.2468 12.1193 10.3056V12.7172C12.1193 12.7759 12.1696 12.8252 12.2294 12.8252H21.2937C21.3535 12.8252 21.4037 12.7759 21.4037 12.7172V10.3056C21.4037 10.2468 21.3535 10.1975 21.2937 10.1975H12.2294Z"
        fill="#366088" />
    <path
        d="M12.2294 18.6863H21.2937C21.54 18.6863 21.7409 18.4891 21.7409 18.2472V15.8333C21.7409 15.5914 21.54 15.3941 21.2937 15.3941H12.2294C11.983 15.3941 11.7821 15.5914 11.7821 15.8333V18.2449C11.7797 18.4891 11.9806 18.6863 12.2294 18.6863Z"
        fill="white" />
    <path
        d="M21.2937 19.0174H12.2294C11.7965 19.0174 11.4425 18.6699 11.4425 18.2449V15.8333C11.4425 15.4082 11.7965 15.0607 12.2294 15.0607H21.2937C21.7266 15.0607 22.0805 15.4059 22.0805 15.8333V18.2449C22.0805 18.6723 21.7266 19.0174 21.2937 19.0174ZM12.2294 15.7252C12.1696 15.7252 12.1193 15.7746 12.1193 15.8333V18.2449C12.1193 18.3036 12.1696 18.3529 12.2294 18.3529H21.2937C21.3535 18.3529 21.4037 18.3036 21.4037 18.2449V15.8333C21.4037 15.7746 21.3535 15.7252 21.2937 15.7252H12.2294Z"
        fill="#366088" />
    <path
        d="M12.2294 23.9135H21.2937C21.54 23.9135 21.7409 23.7162 21.7409 23.4744V21.0604C21.7409 20.8185 21.54 20.6213 21.2937 20.6213H12.2294C11.983 20.6213 11.7821 20.8185 11.7821 21.0604V23.472C11.7797 23.7162 11.9806 23.9135 12.2294 23.9135Z"
        fill="white" />
    <path
        d="M21.2937 24.2469H12.2294C11.7965 24.2469 11.4425 23.8994 11.4425 23.4744V21.0604C11.4425 20.6354 11.7965 20.2878 12.2294 20.2878H21.2937C21.7266 20.2878 22.0805 20.633 22.0805 21.0604V23.472C22.0805 23.8994 21.7266 24.2469 21.2937 24.2469ZM12.2294 20.9547C12.1696 20.9547 12.1193 21.004 12.1193 21.0628V23.4744C12.1193 23.5331 12.1696 23.5824 12.2294 23.5824H21.2937C21.3535 23.5824 21.4037 23.5331 21.4037 23.4744V21.0604C21.4037 21.0017 21.3535 20.9524 21.2937 20.9524H12.2294V20.9547Z"
        fill="#366088" />
    <path
        d="M31.1161 44.1857V26.4613C31.1161 26.1372 30.6402 25.8766 30.0518 25.8766H15.592C15.0036 25.8766 14.5277 26.1396 14.5277 26.4613V43.6009C14.5277 43.925 15.0036 44.1857 15.592 44.1857H31.0205H31.1161Z"
        fill="white" />
    <path
        d="M31.1161 44.5168H15.592C14.7932 44.5168 14.1881 44.1223 14.1881 43.5986V26.4613C14.1881 25.9377 14.7908 25.5432 15.592 25.5432H30.0519C30.8507 25.5432 31.4557 25.9377 31.4557 26.4613V44.1857C31.4534 44.3688 31.3027 44.5168 31.1161 44.5168ZM15.592 26.21C15.1065 26.21 14.8649 26.4143 14.8649 26.4637V43.6033C14.8649 43.6526 15.1065 43.8569 15.592 43.8569H30.7765V26.4613C30.7765 26.412 30.535 26.2077 30.0495 26.2077H15.592V26.21Z"
        fill="#366088" />
    <path
        d="M20.038 44.5238C19.8515 44.5238 19.7008 44.3759 19.7008 44.1927V26.1889C19.7008 26.0058 19.8515 25.8578 20.038 25.8578C20.2246 25.8578 20.3752 26.0058 20.3752 26.1889V44.1904C20.3776 44.3735 20.2246 44.5238 20.038 44.5238Z"
        fill="#366088" />
    <path
        d="M25.6058 44.5238C25.4192 44.5238 25.2686 44.3759 25.2686 44.1927V26.1889C25.2686 26.0058 25.4192 25.8578 25.6058 25.8578C25.7923 25.8578 25.943 26.0058 25.943 26.1889V44.1904C25.943 44.3735 25.7923 44.5238 25.6058 44.5238Z"
        fill="#366088" />
    <path
        d="M31.1161 30.0893H14.5277C14.3411 30.0893 14.1904 29.9414 14.1904 29.7582C14.1904 29.5751 14.3411 29.4271 14.5277 29.4271H31.1161C31.3026 29.4271 31.4533 29.5751 31.4533 29.7582C31.4533 29.9414 31.3026 30.0893 31.1161 30.0893Z"
        fill="#366088" />
    <path
        d="M31.1161 40.9052H14.5277C14.3411 40.9052 14.1904 40.7573 14.1904 40.5741C14.1904 40.3909 14.3411 40.243 14.5277 40.243H31.1161C31.3026 40.243 31.4533 40.3909 31.4533 40.5741C31.4533 40.7573 31.3026 40.9052 31.1161 40.9052Z"
        fill="#366088" />
    <path
        d="M31.1161 37.3007H14.5277C14.3411 37.3007 14.1904 37.1527 14.1904 36.9696C14.1904 36.7864 14.3411 36.6385 14.5277 36.6385H31.1161C31.3026 36.6385 31.4533 36.7864 31.4533 36.9696C31.4533 37.1527 31.3026 37.3007 31.1161 37.3007Z"
        fill="#366088" />
    <path
        d="M31.1161 33.6938H14.5277C14.3411 33.6938 14.1904 33.5459 14.1904 33.3627C14.1904 33.1796 14.3411 33.0316 14.5277 33.0316H31.1161C31.3026 33.0316 31.4533 33.1796 31.4533 33.3627C31.4533 33.5459 31.3026 33.6938 31.1161 33.6938Z"
        fill="#366088" />
    <rect x="1" y="0.5" width="43" height="43" rx="21.5" stroke="#0059C8" stroke-linecap="round"
        stroke-dasharray="4 5" />
</svg>