<svg width="29" height="24" viewBox="0 0 29 24" fill="none" xmlns="http://www.w3.org/2000/svg">
<path opacity="0.4" d="M12.1902 0.282925C12.1902 0.131524 12.313 0.00843392 12.4644 0.0121897C14.5535 0.0640308 16.5873 0.707542 18.328 1.87065C20.1447 3.08459 21.5608 4.80999 22.3969 6.82869C23.2331 8.84738 23.4519 11.0687 23.0256 13.2117C22.5993 15.3548 21.5471 17.3233 20.0021 18.8683C18.4571 20.4133 16.4886 21.4655 14.3455 21.8918C12.2025 22.3181 9.98117 22.0993 7.96247 21.2631C5.94378 20.427 4.21837 19.011 3.00444 17.1942C1.84133 15.4535 1.19782 13.4197 1.14598 11.3306C1.14222 11.1792 1.26531 11.0564 1.41671 11.0564V11.0564C1.56812 11.0564 1.69048 11.1792 1.69443 11.3306C1.74615 13.3113 2.35745 15.239 3.46031 16.8896C4.614 18.6162 6.25378 19.9619 8.17229 20.7566C10.0908 21.5513 12.2019 21.7592 14.2386 21.3541C16.2752 20.949 18.146 19.949 19.6144 18.4806C21.0828 17.0123 22.0827 15.1414 22.4879 13.1048C22.893 11.0681 22.6851 8.95701 21.8904 7.0385C21.0957 5.11999 19.75 3.48021 18.0234 2.32653C16.3728 1.22366 14.4451 0.612357 12.4644 0.560639C12.313 0.556688 12.1902 0.434326 12.1902 0.282925V0.282925Z" fill="white"/>
<path d="M12.1902 0.282925C12.1902 0.131524 12.313 0.00843373 12.4643 0.01219C14.0648 0.0519098 15.6387 0.439058 17.0765 1.1481C18.5963 1.89759 19.9233 2.98666 20.9549 4.33106C21.9865 5.67545 22.695 7.23914 23.0256 8.90115C23.3562 10.5632 23.3 12.2789 22.8614 13.9158C22.4228 15.5526 21.6136 17.0666 20.4963 18.3407C19.379 19.6147 17.9836 20.6147 16.418 21.2631C14.8524 21.9116 13.1586 22.1913 11.4677 22.0804C9.86798 21.9756 8.31139 21.5239 6.9055 20.7581C6.77254 20.6857 6.72777 20.5177 6.80347 20.3866V20.3866C6.87917 20.2555 7.04667 20.2109 7.17972 20.2831C8.5127 21.007 9.98776 21.434 11.5035 21.5333C13.1106 21.6387 14.7203 21.3729 16.2082 20.7566C17.696 20.1403 19.0222 19.19 20.0841 17.9792C21.1459 16.7683 21.915 15.3295 22.3318 13.7739C22.7487 12.2183 22.8021 10.5876 22.4879 9.00811C22.1737 7.42858 21.5003 5.9425 20.5199 4.66482C19.5395 3.38715 18.2784 2.35213 16.834 1.63983C15.4716 0.967985 13.9807 0.600238 12.4643 0.56064C12.313 0.556687 12.1902 0.434326 12.1902 0.282925V0.282925Z" fill="white"/>
<g clip-path="url(#clip0_9263_239056)">
<path d="M12.0129 4.52734C8.3802 4.52734 5.39844 7.50875 5.39844 11.1418V14.2423C5.39844 14.8834 5.92 15.405 6.56113 15.405H7.3621C7.57632 15.405 7.74966 15.2316 7.74966 15.0174V10.3666C7.74966 10.1524 7.57632 9.97908 7.3621 9.97908H6.56113C6.46556 9.97908 6.37401 9.99394 6.28513 10.0158C6.81116 7.34747 9.19248 5.30247 12.0129 5.30247C14.8332 5.30247 17.2146 7.34747 17.7406 10.0158C17.6517 9.99394 17.5602 9.97908 17.4646 9.97908H16.6636C16.4494 9.97908 16.2761 10.1524 16.2761 10.3666V15.0174C16.2761 15.2316 16.4494 15.405 16.6636 15.405H17.0379C16.8578 16.2884 16.0495 16.9811 15.1134 16.9811H12.0129C11.7986 16.9811 11.6253 17.1544 11.6253 17.3686C11.6253 17.5829 11.7986 17.7562 12.0129 17.7562H15.1134C16.4973 17.7562 17.6556 16.6844 17.8191 15.3438C18.2862 15.1929 18.6273 14.759 18.6273 14.2423V11.1418C18.6273 7.50875 15.6455 4.52734 12.0129 4.52734Z" fill="white"/>
<path d="M12.0125 15.4049C13.9359 15.4049 15.5006 13.8402 15.5006 11.9168C15.5006 9.99336 13.9359 8.42871 12.0125 8.42871C10.0891 8.42871 8.52441 9.99336 8.52441 11.9168C8.52441 13.8402 10.0891 15.4049 12.0125 15.4049ZM12.0125 9.97897C12.2265 9.97897 12.4001 10.1524 12.4001 10.3665C12.4001 10.5806 12.2265 10.7541 12.0125 10.7541C11.7985 10.7541 11.6249 10.5806 11.6249 10.3665C11.6249 10.1524 11.7985 9.97897 12.0125 9.97897ZM11.6249 11.9168C11.6249 11.7026 11.7983 11.5292 12.0125 11.5292C12.2267 11.5292 12.4001 11.7026 12.4001 11.9168V13.467C12.4001 13.6813 12.2267 13.8546 12.0125 13.8546C11.7983 13.8546 11.6249 13.6813 11.6249 13.467V11.9168Z" fill="white"/>
</g>
<circle cx="27.4289" cy="0.761907" r="0.761907" fill="white"/>
<circle cx="1.33334" cy="4.00033" r="1.33334" fill="white"/>
<circle cx="21.9044" cy="23.4289" r="0.57143" fill="white"/>
<circle cx="2.09487" cy="21.9044" r="0.57143" fill="white"/>
<defs>
<clipPath id="clip0_9263_239056">
<rect width="13.2289" height="13.2289" fill="white" transform="translate(5.39844 4.52734)"/>
</clipPath>
</defs>
</svg>
