<svg width="68" height="43" viewBox="0 0 68 43" fill="none" xmlns="http://www.w3.org/2000/svg">
<circle opacity="0.05" cx="45.6147" cy="21.6147" r="45.6147" fill="white"/>
<circle opacity="0.05" cx="45.6143" cy="21.792" r="31.792" fill="white"/>
<circle opacity="0.05" cx="45.6147" cy="21.6606" r="18.6606" fill="white"/>
<path d="M64.9464 22.4475C63.9386 21.7756 62.7241 21.388 61.4321 21.388C60.0109 21.388 58.7189 21.8531 57.6594 22.6283C52.5431 12.2147 43.2664 4.25588 32 1C35.4884 2.8605 38.5634 5.41869 41.07 8.46785C48.176 14.6954 53.1891 23.2743 54.8945 33.0161C56.2641 31.0264 57.6853 28.8559 59.4683 26.892C60.967 25.1865 62.7241 23.6361 64.9464 22.4475Z" fill="white" fill-opacity="0.1"/>
<path d="M41.0693 8.46777C45.333 13.6617 47.8653 20.3285 47.8653 27.5896C47.8653 32.06 46.8834 36.3236 45.1521 40.1222C46.9868 40.0963 48.4855 39.5795 49.8034 38.7009C50.0359 36.9696 50.1651 35.1867 50.1651 33.352C50.1651 23.8686 46.7542 15.1863 41.121 8.49361C41.121 8.49361 41.0952 8.46777 41.0693 8.46777Z" fill="white" fill-opacity="0.1"/>
<path d="M41.0693 8.46777C41.0693 8.46777 41.0952 8.46777 41.0693 8.46777C47.0643 15.3671 50.6819 24.3854 50.6819 34.2306C50.6819 35.5743 50.6044 36.918 50.4752 38.2358C51.9481 37.073 53.1884 35.4451 54.4288 33.6621C53.0592 23.6877 48.1496 14.8503 41.0693 8.46777Z" fill="white" fill-opacity="0.1"/>
</svg>
