<svg width="32" height="33" viewBox="0 0 32 33" fill="none" xmlns="http://www.w3.org/2000/svg">
<g clip-path="url(#clip0_3435_184568)">
<path d="M30.2426 16.563C29.7821 23.7753 23.8606 29.5688 16.6406 29.8846C15.2406 29.9458 13.8894 29.8051 12.6037 29.4919C12.3812 29.4376 12.1469 29.4769 11.9585 29.6071L8.34605 32.1038C7.81793 32.4688 7.09712 32.0908 7.09712 31.4488V27.1556C7.09712 26.9188 6.98918 26.6972 6.80805 26.5447C3.42124 23.6923 1.38124 19.2906 1.77618 14.4316C2.35199 7.34833 8.20449 1.71108 15.3031 1.37364C23.8158 0.969018 30.7879 8.02164 30.2426 16.563Z" fill="url(#paint0_linear_3435_184568)"/>
<path d="M19.269 22.566C19.269 23.1469 18.7953 23.6175 18.2175 23.6175H13.7825C13.2017 23.6175 12.7311 23.1469 12.7311 22.566C12.7311 22.2742 12.8473 22.0121 13.0379 21.8214C13.2285 21.6308 13.4906 21.5146 13.7825 21.5146H13.8153V13.7467H13.7825C13.2017 13.7467 12.7311 13.276 12.7311 12.6952C12.7311 12.4034 12.8473 12.1412 13.0379 11.9506C13.2285 11.7599 13.4906 11.6438 13.7825 11.6438H18.2176C18.7954 11.6438 19.269 12.1144 19.269 12.6952C19.269 13.276 18.7954 13.7467 18.2176 13.7467H18.1848V21.5146H18.2176C18.7953 21.5146 19.269 21.9852 19.269 22.566Z" fill="url(#paint1_linear_3435_184568)"/>
<path d="M18.1059 8.10227C18.1059 9.2639 17.1617 10.2051 16.0001 10.2051C14.8355 10.2051 13.8943 9.2639 13.8943 8.10227C13.8943 6.93765 14.8355 5.99646 16.0001 5.99646C17.1617 5.99646 18.1059 6.93765 18.1059 8.10227Z" fill="url(#paint2_linear_3435_184568)"/>
</g>
<defs>
<linearGradient id="paint0_linear_3435_184568" x1="16.0001" y1="32.2463" x2="16.0001" y2="1.35708" gradientUnits="userSpaceOnUse">
<stop stop-color="#20C59D"/>
<stop offset="0.3103" stop-color="#38CE8C"/>
<stop offset="0.9631" stop-color="#75E461"/>
<stop offset="1" stop-color="#79E55E"/>
</linearGradient>
<linearGradient id="paint1_linear_3435_184568" x1="16" y1="23.6175" x2="16" y2="11.6438" gradientUnits="userSpaceOnUse">
<stop offset="0.0168" stop-color="#ECECEC"/>
<stop offset="1" stop-color="#F2F2F2"/>
</linearGradient>
<linearGradient id="paint2_linear_3435_184568" x1="16.0001" y1="10.2051" x2="16.0001" y2="5.99646" gradientUnits="userSpaceOnUse">
<stop offset="0.0168" stop-color="#FCFCFC"/>
<stop offset="1" stop-color="#F2F2F2"/>
</linearGradient>
<clipPath id="clip0_3435_184568">
<rect width="32" height="32" fill="white" transform="translate(0 0.801697)"/>
</clipPath>
</defs>
</svg>
