<svg width="34" height="41" viewBox="0 0 34 41" fill="none" xmlns="http://www.w3.org/2000/svg">
<path d="M33.5001 22.3859C32.4923 21.7141 31.2778 21.3265 29.9858 21.3265C28.5646 21.3265 27.2726 21.7916 26.2131 22.5668C21.0968 12.1532 11.8201 4.19436 0.553711 0.938477C4.04215 2.79898 7.11715 5.35717 9.62366 8.40633C16.7297 14.6338 21.7428 23.2128 23.4482 32.9546C24.8178 30.9649 26.239 28.7943 28.022 26.8305C29.5207 25.125 31.2778 23.5746 33.5001 22.3859Z" fill="#68C297"/>
<path d="M9.62305 8.40625C13.8867 13.6002 16.419 20.267 16.419 27.5281C16.419 31.9985 15.4371 36.2621 13.7058 40.0606C15.5405 40.0348 17.0392 39.518 18.3571 38.6394C18.5896 36.9081 18.7188 35.1251 18.7188 33.2905C18.7188 23.8071 15.3079 15.1247 9.67473 8.43209C9.67473 8.43209 9.64889 8.40625 9.62305 8.40625Z" fill="#68C297"/>
<path d="M9.62305 8.40625C9.62305 8.40625 9.64889 8.40625 9.62305 8.40625C15.618 15.3056 19.2356 24.3239 19.2356 34.169C19.2356 35.5127 19.1581 36.8564 19.0289 38.1743C20.5018 37.0115 21.7422 35.3835 22.9825 33.6006C21.613 23.6262 16.7033 14.7888 9.62305 8.40625Z" fill="#68C297"/>
</svg>
