<svg width="64" height="56" viewBox="0 0 64 56" fill="none" xmlns="http://www.w3.org/2000/svg">
<path d="M31.4439 24.5303C32.6189 22.1647 34.5436 20.1967 36.8937 18.9443H1.11523V25.2658H6.82845V41.0695H14.0206V25.2658H10.07C14.0409 25.0074 17.5255 22.9599 19.6933 19.9383V25.2658V41.0695H26.8855V25.2658H31.0995C31.2008 25.0273 31.3021 24.7887 31.4439 24.5303Z" fill="white"/>
<path d="M43.0524 34.7884C40.3782 34.7884 38.2104 32.6614 38.2104 30.0374C38.2104 27.4134 40.3782 25.2863 43.0524 25.2863C44.3896 25.2863 45.5849 25.823 46.4763 26.6778C46.6181 26.3001 46.7397 25.9423 46.8613 25.5646C47.307 23.9346 47.5298 22.225 47.5298 20.4558C47.5298 20.257 47.5298 20.0582 47.5298 19.8594C46.1724 19.2829 44.653 18.9648 43.0727 18.9648C36.8327 18.9648 31.7881 23.9346 31.7881 30.0374C31.7881 36.16 36.8327 41.1099 43.0727 41.1099C46.1927 41.1099 49.0088 39.8774 51.055 37.8696L46.4966 33.3969C45.5849 34.2517 44.3896 34.7884 43.0524 34.7884Z" fill="white"/>
<path d="M0 55.8393V48.0003H2.03946V54.0812H4.40566V55.8393H0Z" fill="white"/>
<path d="M13.2855 51.9198C13.2855 53.0712 12.8744 54.0398 12.0523 54.8258C11.2337 55.6014 10.236 55.9893 9.059 55.9893C7.91367 55.9893 6.93171 55.6083 6.11311 54.8465C5.27695 54.0743 4.85887 53.1315 4.85887 52.018C4.85887 51.4251 4.96251 50.8666 5.1698 50.3427C5.27871 50.0634 5.45262 49.7704 5.69152 49.4636C6.52065 48.3915 7.64666 47.8555 9.06954 47.8555C10.243 47.8555 11.2372 48.245 12.0523 49.0241C12.8744 49.8066 13.2855 50.7718 13.2855 51.9198ZM11.246 51.9301C11.246 51.2993 11.0493 50.7615 10.6558 50.3168C10.2377 49.848 9.71247 49.6136 9.08008 49.6136C8.44066 49.6136 7.91367 49.8411 7.4991 50.2961C7.09859 50.7339 6.89833 51.2682 6.89833 51.8991C6.89833 52.5437 7.10035 53.0884 7.50437 53.5331C7.92246 53.9985 8.45472 54.2312 9.10116 54.2312C9.72301 54.2312 10.2412 53.9967 10.6558 53.5279C11.0493 53.0832 11.246 52.5506 11.246 51.9301Z" fill="white"/>
<path d="M22.5447 51.7957C22.5447 52.9988 22.1407 54.0002 21.3327 54.8C20.5211 55.5997 19.504 55.9996 18.2814 55.9996C17.1009 55.9996 16.0996 55.6049 15.2775 54.8155C14.4519 54.0192 14.0391 53.0436 14.0391 51.8888C14.0391 50.7305 14.4589 49.7635 15.2986 48.9879C16.1207 48.2329 17.1255 47.8555 18.313 47.8555C19.1983 47.8555 20.0187 48.1088 20.774 48.6156C21.5575 49.1396 22.0687 49.8101 22.3076 50.6271H20.0204C19.634 49.9514 19.0473 49.6136 18.2603 49.6136C17.6209 49.6136 17.0939 49.8376 16.6793 50.2858C16.2788 50.7201 16.0785 51.2545 16.0785 51.8888C16.0785 52.5506 16.2735 53.1022 16.6635 53.5434C17.0746 54.0088 17.6103 54.2415 18.2708 54.2415C18.7311 54.2415 19.1281 54.1398 19.4618 53.9364C19.8202 53.7158 20.0591 53.3969 20.1785 52.9798H17.7965V51.382H22.5342C22.5377 51.4441 22.5412 51.513 22.5447 51.5888V51.7957Z" fill="white"/>
<path d="M23.5987 55.8393V48.0003H25.6382V55.8393H23.5987Z" fill="white"/>
<path d="M32.2994 53.5848C32.2994 54.3708 32.0324 54.9758 31.4983 55.3998C31.0065 55.7928 30.346 55.9893 29.5169 55.9893C28.6702 55.9893 27.9886 55.7824 27.4721 55.3688C26.9135 54.9275 26.6342 54.3036 26.6342 53.4969V53.2435H28.6631C28.6631 53.5331 28.7281 53.7761 28.8581 53.9726C29.0057 54.2001 29.2182 54.3139 29.4958 54.3139C30.0122 54.3139 30.2705 54.064 30.2705 53.5641C30.2705 53.3366 30.1809 53.1522 30.0017 53.0108C29.9314 52.9557 29.8401 52.9005 29.7277 52.8454L29.5748 52.773L28.7053 52.4058C28.4172 52.2886 28.1695 52.1697 27.9622 52.0491C27.7163 51.9077 27.509 51.7543 27.3404 51.5888C26.9504 51.1993 26.7554 50.7236 26.7554 50.1617C26.7554 49.4688 27.0505 48.9017 27.6408 48.4605C28.1818 48.0571 28.8177 47.8555 29.5485 47.8555C29.9595 47.8555 30.353 47.9279 30.7289 48.0726C31.1365 48.2312 31.4632 48.4553 31.7091 48.7449C32.0394 49.1447 32.2151 49.6601 32.2361 50.291H30.2178C30.1405 49.7808 29.8963 49.5257 29.4852 49.5257C29.018 49.5257 28.7843 49.7308 28.7843 50.141C28.7843 50.2858 28.8089 50.3961 28.8581 50.4719C28.9389 50.6064 29.1831 50.7718 29.5906 50.9683L30.4338 51.3406C30.7289 51.4716 30.9749 51.5975 31.1716 51.7181C31.4105 51.8629 31.6073 52.0163 31.7618 52.1783C32.1202 52.5506 32.2994 53.0195 32.2994 53.5848Z" fill="white"/>
<path d="M36.2729 49.7584V55.8393H34.2334V49.7584H32.6577V48.0003H37.8381V49.7584H36.2729Z" fill="white"/>
<path d="M38.6602 55.8393V48.0003H40.6996V55.8393H38.6602Z" fill="white"/>
<path d="M50.0696 52.9074C49.8377 53.8278 49.3476 54.5724 48.5993 55.1412C47.858 55.7066 47.0025 55.9893 46.0328 55.9893C44.8664 55.9893 43.8739 55.5963 43.0553 54.8103C42.2332 54.0209 41.8221 53.0539 41.8221 51.9094C41.8221 50.7684 42.2297 49.8049 43.0448 49.0189C43.8563 48.2433 44.8453 47.8555 46.0117 47.8555C47.5295 47.8555 48.7011 48.4691 49.5268 49.6963C49.8149 50.1203 49.9958 50.5478 50.0696 50.9787H47.93C47.5751 50.0686 46.9322 49.6136 46.0012 49.6136C45.3723 49.6136 44.8541 49.8428 44.4466 50.3013C44.0566 50.7425 43.8616 51.2751 43.8616 51.8991C43.8616 52.5299 44.0566 53.0694 44.4466 53.5176C44.8576 53.9933 45.3793 54.2312 46.0117 54.2312C46.883 54.2312 47.5224 53.7899 47.93 52.9074H50.0696Z" fill="white"/>
<path d="M56.1511 53.5848C56.1511 54.3708 55.8841 54.9758 55.35 55.3998C54.8582 55.7928 54.1977 55.9893 53.3685 55.9893C52.5218 55.9893 51.8403 55.7824 51.3238 55.3688C50.7652 54.9275 50.4859 54.3036 50.4859 53.4969V53.2435H52.5148C52.5148 53.5331 52.5798 53.7761 52.7098 53.9726C52.8574 54.2001 53.0699 54.3139 53.3475 54.3139C53.8639 54.3139 54.1221 54.064 54.1221 53.5641C54.1221 53.3366 54.0325 53.1522 53.8534 53.0108C53.7831 52.9557 53.6918 52.9005 53.5793 52.8454L53.4265 52.773L52.557 52.4058C52.2689 52.2886 52.0212 52.1697 51.8139 52.0491C51.568 51.9077 51.3607 51.7543 51.1921 51.5888C50.8021 51.1993 50.6071 50.7236 50.6071 50.1617C50.6071 49.4688 50.9022 48.9017 51.4924 48.4605C52.0335 48.0571 52.6694 47.8555 53.4002 47.8555C53.8112 47.8555 54.2047 47.9279 54.5806 48.0726C54.9882 48.2312 55.3149 48.4553 55.5608 48.7449C55.8911 49.1447 56.0667 49.6601 56.0878 50.291H54.0694C53.9921 49.7808 53.748 49.5257 53.3369 49.5257C52.8697 49.5257 52.636 49.7308 52.636 50.141C52.636 50.2858 52.6606 50.3961 52.7098 50.4719C52.7906 50.6064 53.0348 50.7718 53.4423 50.9683L54.2855 51.3406C54.5806 51.4716 54.8265 51.5975 55.0233 51.7181C55.2622 51.8629 55.4589 52.0163 55.6135 52.1783C55.9719 52.5506 56.1511 53.0195 56.1511 53.5848Z" fill="white"/>
<path d="M64 16.4994C63.2098 15.9826 62.2576 15.6844 61.2447 15.6844C60.1304 15.6844 59.1174 16.0422 58.2868 16.6386C54.2754 8.62742 47.0021 2.50473 38.1689 0C40.904 1.43128 43.3149 3.39928 45.2801 5.74499C50.8515 10.5358 54.7818 17.1356 56.119 24.6299C57.1927 23.0992 58.307 21.4294 59.7049 19.9186C60.88 18.6066 62.2576 17.4139 64 16.4994Z" fill="white"/>
<path d="M45.2803 5.74512C48.6231 9.74077 50.6086 14.8695 50.6086 20.4555C50.6086 23.8945 49.8387 27.1745 48.4813 30.0967C49.9197 30.0768 51.0948 29.6793 52.128 29.0034C52.3104 27.6715 52.4117 26.2998 52.4117 24.8884C52.4117 17.5929 49.7374 10.9136 45.3208 5.765C45.3208 5.765 45.3005 5.74512 45.2803 5.74512Z" fill="white"/>
<path d="M45.2803 5.74512C45.2803 5.74512 45.3005 5.74512 45.2803 5.74512C49.9805 11.0528 52.8169 17.9905 52.8169 25.5643C52.8169 26.598 52.7561 27.6317 52.6548 28.6455C53.8096 27.751 54.782 26.4986 55.7545 25.127C54.6807 17.4538 50.8314 10.6552 45.2803 5.74512Z" fill="white"/>
</svg>
