<svg width="20" height="20" viewBox="0 0 20 20" fill="none" xmlns="http://www.w3.org/2000/svg">
    <path fill-rule="evenodd" clip-rule="evenodd" d="M0.00012207 10C0.00012207 4.481 4.48012 0 10.0001 0C15.5301 0 20.0001 4.481 20.0001 10C20.0001 15.521 15.5301 20 10.0001 20C4.48012 20 0.00012207 15.521 0.00012207 10ZM9.12024 6.21008C9.12024 5.73108 9.52024 5.33008 10.0002 5.33008C10.4802 5.33008 10.8702 5.73108 10.8702 6.21008V10.6301C10.8702 11.1111 10.4802 11.5001 10.0002 11.5001C9.52024 11.5001 9.12024 11.1111 9.12024 10.6301V6.21008ZM10.01 14.6809C9.52001 14.6809 9.13 14.2809 9.13 13.8009C9.13 13.3209 9.52001 12.9309 10 12.9309C10.49 12.9309 10.88 13.3209 10.88 13.8009C10.88 14.2809 10.49 14.6809 10.01 14.6809Z" fill="#F07F23"/>
</svg>
