<svg width="44" height="30" viewBox="0 0 44 30" fill="none" xmlns="http://www.w3.org/2000/svg">
<path d="M0 3.29028H44V26.7096H0V3.29028Z" fill="#CACBCE"/>
<path d="M3.54842 6.12903H15.6129V19.6129H3.54842V6.12903Z" fill="white"/>
<path d="M44 2.15119V3.29031H4.34652e-08V2.15119C-5.32613e-05 1.92798 0.0489227 1.70695 0.14413 1.50073C0.239337 1.2945 0.378911 1.10712 0.554877 0.94929C0.730842 0.79146 0.939753 0.66627 1.16967 0.580875C1.39959 0.49548 1.64602 0.451551 1.89487 0.451599H42.1051C42.354 0.451551 42.6004 0.49548 42.8303 0.580875C43.0602 0.66627 43.2692 0.79146 43.4451 0.94929C43.6211 1.10712 43.7607 1.2945 43.8559 1.50073C43.9511 1.70695 44.0001 1.92798 44 2.15119Z" fill="#8A8D93"/>
<path d="M4.34652e-08 26.7097H44V27.7545C44.0001 27.9901 43.9511 28.2234 43.8559 28.441C43.7607 28.6587 43.6211 28.8565 43.4451 29.0231C43.2692 29.1897 43.0602 29.3218 42.8303 29.4119C42.6004 29.502 42.354 29.5484 42.1051 29.5484H1.89487C1.64602 29.5484 1.39959 29.502 1.16967 29.4119C0.939753 29.3218 0.730842 29.1897 0.554877 29.0231C0.378911 28.8565 0.239337 28.6587 0.14413 28.441C0.0489227 28.2234 -5.32613e-05 27.9901 4.34652e-08 27.7545V26.7097Z" fill="#8A8D93"/>
<path d="M22.7097 19.6129H40.4516V21.7419H22.7097V19.6129Z" fill="#CACBCE"/>
<path d="M23.4193 17.4839H40.4516V19.6129H23.4193V17.4839Z" fill="#DFE0E2"/>
<path d="M38.3361 17.4839H40.4516V19.6129H36.1935V19.4818C36.1935 18.9519 36.4193 18.4438 36.8211 18.0691C37.2229 17.6944 37.7678 17.4839 38.3361 17.4839Z" fill="white"/>
<path d="M27.6774 19.6129H23.4193V17.4839H25.5417C26.1081 17.4839 26.6513 17.6944 27.0519 18.0691C27.4524 18.4438 27.6774 18.9519 27.6774 19.4818V19.6129Z" fill="white"/>
<path d="M29.0968 17.4839H34.7742V19.6129H29.0968V17.4839Z" fill="white"/>
<path d="M40.4516 17.4839H23.4193C23.6408 16.7178 24.1258 16.0403 24.8002 15.5546C24.8988 15.4821 25.0023 15.4153 25.11 15.3549H38.7634C38.871 15.4153 38.9745 15.4821 39.0732 15.5546C39.7459 16.0413 40.2298 16.7186 40.4516 17.4839Z" fill="#8A8D93"/>
<path d="M38.3226 15.3549H25.5484L25.9987 14.3301H26.0014L27.2348 11.5285C27.2918 11.4002 27.3859 11.2909 27.5057 11.2142C27.6256 11.1375 27.7658 11.0967 27.9091 11.0968H35.9588C36.1021 11.0968 36.2422 11.1376 36.3619 11.2143C36.4817 11.291 36.5758 11.4002 36.6327 11.5285L37.8688 14.3301L38.3226 15.3549Z" fill="white"/>
<path d="M34.7742 11.0967H29.0968L29.7581 8.96771H34.1134L34.7742 11.0967Z" fill="#8A8D93"/>
<path d="M26.5583 23.6809C25.9108 23.9343 25.1859 23.9343 24.5383 23.6809C24.4173 23.6334 24.3137 23.5524 24.2408 23.4481C24.1679 23.3437 24.129 23.2209 24.129 23.0952V21.7419H26.9677V23.0952C26.9677 23.2209 26.9288 23.3437 26.8558 23.4481C26.7829 23.5524 26.6793 23.6334 26.5583 23.6809Z" fill="white"/>
<path d="M39.3302 23.6811C38.6834 23.9343 37.9594 23.9343 37.3125 23.6811C37.1915 23.6337 37.0879 23.5526 37.015 23.4483C36.9421 23.3439 36.9032 23.221 36.9032 23.0953V21.7419H39.7419V23.0953C39.7414 23.2212 39.702 23.3442 39.6287 23.4485C39.5554 23.5528 39.4515 23.6338 39.3302 23.6811Z" fill="white"/>
<path d="M40.2069 7.03433H18.6484C18.4597 7.03433 18.2788 6.95938 18.1454 6.82597C18.012 6.69256 17.937 6.51162 17.937 6.32295C17.937 6.13428 18.012 5.95334 18.1454 5.81993C18.2788 5.68652 18.4597 5.61157 18.6484 5.61157H40.2069C40.3956 5.61157 40.5765 5.68652 40.7099 5.81993C40.8433 5.95334 40.9183 6.13428 40.9183 6.32295C40.9183 6.51162 40.8433 6.69256 40.7099 6.82597C40.5765 6.95938 40.3956 7.03433 40.2069 7.03433Z" fill="#8A8D93"/>
<path d="M23.4756 11.5799H18.6484C18.4597 11.5799 18.2788 11.505 18.1454 11.3716C18.012 11.2382 17.937 11.0572 17.937 10.8685C17.937 10.6799 18.012 10.4989 18.1454 10.3655C18.2788 10.2321 18.4597 10.1572 18.6484 10.1572H23.4756C23.6643 10.1572 23.8452 10.2321 23.9787 10.3655C24.1121 10.4989 24.187 10.6799 24.187 10.8685C24.187 11.0572 24.1121 11.2382 23.9787 11.3716C23.8452 11.505 23.6643 11.5799 23.4756 11.5799Z" fill="#8A8D93"/>
<path d="M21.4496 15.6112H18.6484C18.4597 15.6112 18.2788 15.5362 18.1454 15.4028C18.012 15.2694 17.937 15.0885 17.937 14.8998C17.937 14.7111 18.012 14.5302 18.1454 14.3968C18.2788 14.2634 18.4597 14.1884 18.6484 14.1884H21.4496C21.6383 14.1884 21.8192 14.2634 21.9526 14.3968C22.086 14.5302 22.161 14.7111 22.161 14.8998C22.161 15.0885 22.086 15.2694 21.9526 15.4028C21.8192 15.5362 21.6383 15.6112 21.4496 15.6112Z" fill="#8A8D93"/>
<path d="M12.1451 11.6535C12.1451 12.1463 11.999 12.6281 11.7252 13.0379C11.4514 13.4477 11.0622 13.7671 10.6069 13.9557C10.1515 14.1443 9.6505 14.1936 9.16712 14.0975C8.68375 14.0013 8.23974 13.764 7.89124 13.4155C7.54275 13.067 7.30542 12.623 7.20927 12.1396C7.11312 11.6563 7.16247 11.1552 7.35107 10.6999C7.53968 10.2446 7.85907 9.85539 8.26885 9.58158C8.67864 9.30777 9.16042 9.16162 9.65326 9.16162C9.98051 9.16157 10.3046 9.22599 10.6069 9.35119C10.9093 9.4764 11.184 9.65995 11.4154 9.89135C11.6468 10.1228 11.8303 10.3975 11.9556 10.6998C12.0808 11.0022 12.1452 11.3262 12.1451 11.6535Z" fill="#8A8D93"/>
<path d="M9.65324 14.1445C10.6805 14.1445 11.6656 14.5526 12.392 15.279C13.1183 16.0053 13.5264 16.9905 13.5264 18.0177V19.8779H5.78049V18.0177C5.78049 16.9905 6.1885 16.0054 6.91477 15.2791C7.64104 14.5528 8.62609 14.1446 9.65324 14.1445Z" fill="#8A8D93"/>
</svg>
