<svg width="24" height="24" viewBox="0 0 24 24" fill="none" xmlns="http://www.w3.org/2000/svg">
    <rect width="24" height="24" rx="12" fill="#E8F5FF"/>
    <path d="M11.9998 12.0002C11.2665 12.0002 10.6665 11.4002 10.6665 10.6668C10.6665 9.9335 11.2665 9.3335 11.9998 9.3335C12.7332 9.3335 13.3332 9.9335 13.3332 10.6668C13.3332 11.4002 12.7332 12.0002 11.9998 12.0002ZM15.9998 10.8002C15.9998 8.38016 14.2332 6.66683 11.9998 6.66683C9.7665 6.66683 7.99984 8.38016 7.99984 10.8002C7.99984 12.3602 9.29984 14.4268 11.9998 16.8935C14.6998 14.4268 15.9998 12.3602 15.9998 10.8002ZM11.9998 5.3335C14.7998 5.3335 17.3332 7.48016 17.3332 10.8002C17.3332 13.0135 15.5532 15.6335 11.9998 18.6668C8.4465 15.6335 6.6665 13.0135 6.6665 10.8002C6.6665 7.48016 9.19984 5.3335 11.9998 5.3335Z" fill="#003567"/>
</svg>
