<svg width="112" height="100" viewBox="0 0 112 100" fill="none" xmlns="http://www.w3.org/2000/svg">
    <path d="M55.0266 43.7511C57.0829 39.532 60.4511 36.022 64.5639 33.7883H1.95105V45.0629H11.9492V73.2493H24.5356V45.0629H17.622C24.5711 44.602 30.6693 40.9502 34.4629 35.5611V45.0629V73.2493H47.0493V45.0629H54.4239C54.6011 44.6374 54.7784 44.212 55.0266 43.7511Z" fill="white"/>
    <path d="M75.3415 62.0456C70.6615 62.0456 66.8679 58.2519 66.8679 53.5719C66.8679 48.8919 70.6615 45.0983 75.3415 45.0983C77.6815 45.0983 79.7734 46.0556 81.3334 47.5801C81.5815 46.9065 81.7943 46.2683 82.007 45.5947C82.787 42.6874 83.177 39.6383 83.177 36.4828C83.177 36.1283 83.177 35.7737 83.177 35.4192C80.8016 34.391 78.1425 33.8237 75.377 33.8237C64.457 33.8237 55.6288 42.6874 55.6288 53.5719C55.6288 64.492 64.457 73.3201 75.377 73.3201C80.837 73.3201 85.7652 71.122 89.3461 67.541L81.3688 59.5638C79.7734 61.0883 77.6815 62.0456 75.3415 62.0456Z" fill="white"/>
    <path d="M0 99.592V85.6108H3.56908V96.4564H7.70996V99.592H0Z" fill="white"/>
    <path d="M23.2498 92.6014C23.2498 94.655 22.5304 96.3826 21.0917 97.7844C19.6592 99.1678 17.913 99.8595 15.8534 99.8595C13.849 99.8595 12.1306 99.1801 10.698 97.8213C9.23473 96.4441 8.50309 94.7626 8.50309 92.7767C8.50309 91.7192 8.68446 90.7231 9.04721 89.7886C9.23781 89.2906 9.54215 88.768 9.96023 88.2208C11.4112 86.3087 13.3818 85.3526 15.8718 85.3526C17.9253 85.3526 19.6653 86.0474 21.0917 87.4369C22.5304 88.8325 23.2498 90.5541 23.2498 92.6014ZM19.6807 92.6199C19.6807 91.4947 19.3364 90.5356 18.6478 89.7425C17.9161 88.9063 16.997 88.4882 15.8903 88.4882C14.7713 88.4882 13.849 88.894 13.1235 89.7056C12.4226 90.4864 12.0722 91.4394 12.0722 92.5645C12.0722 93.7143 12.4257 94.6857 13.1327 95.4788C13.8644 96.3089 14.7959 96.7239 15.9271 96.7239C17.0154 96.7239 17.9223 96.3058 18.6478 95.4696C19.3364 94.6765 19.6807 93.7266 19.6807 92.6199Z" fill="white"/>
    <path d="M39.4536 92.3801C39.4536 94.5259 38.7465 96.3119 37.3324 97.7383C35.9122 99.1647 34.1322 99.8779 31.9926 99.8779C29.9268 99.8779 28.1745 99.174 26.7358 97.766C25.291 96.3457 24.5686 94.6058 24.5686 92.5461C24.5686 90.4803 25.3033 88.7557 26.7727 87.3723C28.2114 86.0258 29.9698 85.3526 32.048 85.3526C33.5973 85.3526 35.033 85.8045 36.3548 86.7083C37.7259 87.6428 38.6205 88.8387 39.0386 90.2958H35.036C34.3597 89.0908 33.333 88.4882 31.9557 88.4882C30.8368 88.4882 29.9145 88.8879 29.189 89.6871C28.4881 90.4618 28.1377 91.4148 28.1377 92.5461C28.1377 93.7266 28.4789 94.7103 29.1613 95.4973C29.8807 96.3273 30.8183 96.7423 31.9742 96.7423C32.7796 96.7423 33.4744 96.5609 34.0585 96.1982C34.6856 95.8047 35.1037 95.236 35.3127 94.492H31.1442V91.6423H39.4351C39.4413 91.753 39.4474 91.8759 39.4536 92.0112V92.3801Z" fill="white"/>
    <path d="M41.2981 99.592V85.6108H44.8671V99.592H41.2981Z" fill="white"/>
    <path d="M56.5243 95.5711C56.5243 96.9729 56.057 98.0519 55.1225 98.8081C54.2617 99.509 53.1059 99.8595 51.6549 99.8595C50.1731 99.8595 48.9804 99.4906 48.0766 98.7528C47.099 97.9658 46.6102 96.853 46.6102 95.4143V94.9624H50.1608C50.1608 95.4788 50.2746 95.9123 50.5021 96.2627C50.7603 96.6685 51.1323 96.8714 51.618 96.8714C52.5218 96.8714 52.9737 96.4257 52.9737 95.5342C52.9737 95.1284 52.8169 94.7994 52.5033 94.5474C52.3804 94.449 52.2205 94.3506 52.0238 94.2523L51.7563 94.1231L50.2346 93.4683C49.7305 93.2593 49.297 93.0472 48.9342 92.832C48.5039 92.5799 48.1411 92.3063 47.846 92.0112C47.1635 91.3164 46.8223 90.468 46.8223 89.4658C46.8223 88.23 47.3388 87.2186 48.3717 86.4316C49.3185 85.7123 50.4314 85.3526 51.7102 85.3526C52.4296 85.3526 53.1182 85.4817 53.776 85.7399C54.4892 86.0228 55.061 86.4224 55.4914 86.9389C56.0693 87.6521 56.3768 88.5712 56.4136 89.6964H52.8815C52.7462 88.7864 52.3189 88.3314 51.5995 88.3314C50.7818 88.3314 50.3729 88.6973 50.3729 89.4289C50.3729 89.6871 50.416 89.8839 50.5021 90.0192C50.6435 90.2589 51.0708 90.5541 51.784 90.9045L53.2596 91.5685C53.776 91.8022 54.2064 92.0266 54.5507 92.2418C54.9688 92.5 55.3131 92.7736 55.5836 93.0626C56.2108 93.7266 56.5243 94.5627 56.5243 95.5711Z" fill="white"/>
    <path d="M63.478 88.7465V99.592H59.909V88.7465H57.1514V85.6108H66.2171V88.7465H63.478Z" fill="white"/>
    <path d="M67.6558 99.592V85.6108H71.2249V99.592H67.6558Z" fill="white"/>
    <path d="M87.6224 94.3629C87.2166 96.0045 86.3589 97.3325 85.0493 98.347C83.752 99.3553 82.2549 99.8595 80.558 99.8595C78.5168 99.8595 76.7799 99.1586 75.3473 97.7568C73.9086 96.3488 73.1893 94.6242 73.1893 92.583C73.1893 90.5479 73.9025 88.8295 75.3289 87.4276C76.7491 86.0443 78.4799 85.3526 80.5211 85.3526C83.1772 85.3526 85.2276 86.447 86.6725 88.6358C87.1766 89.392 87.4933 90.1544 87.6224 90.923H83.8781C83.2571 89.2998 82.132 88.4882 80.5027 88.4882C79.4021 88.4882 78.4952 88.8971 77.782 89.7148C77.0996 90.5018 76.7583 91.4517 76.7583 92.5645C76.7583 93.6897 77.0996 94.6519 77.782 95.4512C78.5014 96.2996 79.4144 96.7239 80.5211 96.7239C82.0459 96.7239 83.1649 95.9369 83.8781 94.3629H87.6224Z" fill="white"/>
    <path d="M98.2651 95.5711C98.2651 96.9729 97.7978 98.0519 96.8633 98.8081C96.0025 99.509 94.8466 99.8595 93.3956 99.8595C91.9139 99.8595 90.7211 99.4906 89.8173 98.7528C88.8397 97.9658 88.3509 96.853 88.3509 95.4143V94.9624H91.9016C91.9016 95.4788 92.0153 95.9123 92.2428 96.2627C92.501 96.6685 92.873 96.8714 93.3587 96.8714C94.2625 96.8714 94.7144 96.4257 94.7144 95.5342C94.7144 95.1284 94.5576 94.7994 94.2441 94.5474C94.1211 94.449 93.9613 94.3506 93.7645 94.2523L93.4971 94.1231L91.9754 93.4683C91.4712 93.2593 91.0377 93.0472 90.675 92.832C90.2446 92.5799 89.8819 92.3063 89.5868 92.0112C88.9043 91.3164 88.5631 90.468 88.5631 89.4658C88.5631 88.23 89.0795 87.2186 90.1124 86.4316C91.0593 85.7123 92.1721 85.3526 93.4509 85.3526C94.1703 85.3526 94.8589 85.4817 95.5168 85.7399C96.23 86.0228 96.8018 86.4224 97.2321 86.9389C97.8101 87.6521 98.1175 88.5712 98.1544 89.6964H94.6222C94.4869 88.7864 94.0596 88.3314 93.3403 88.3314C92.5226 88.3314 92.1137 88.6973 92.1137 89.4289C92.1137 89.6871 92.1567 89.8839 92.2428 90.0192C92.3842 90.2589 92.8115 90.5541 93.5247 90.9045L95.0003 91.5685C95.5168 91.8022 95.9472 92.0266 96.2915 92.2418C96.7095 92.5 97.0538 92.7736 97.3244 93.0626C97.9515 93.7266 98.2651 94.5627 98.2651 95.5711Z" fill="white"/>
    <path d="M112.001 29.4273C110.618 28.5055 108.951 27.9737 107.179 27.9737C105.229 27.9737 103.456 28.6119 102.002 29.6755C94.9823 15.3873 82.2541 4.46728 66.7959 0C71.5823 2.55273 75.8014 6.06274 79.2405 10.2464C88.9905 18.7909 95.8687 30.5619 98.2087 43.9282C100.088 41.1982 102.038 38.2201 104.484 35.5255C106.541 33.1855 108.951 31.0582 112.001 29.4273Z" fill="white"/>
    <path d="M79.2416 10.2464C85.0916 17.3728 88.5661 26.5201 88.5661 36.4828C88.5661 42.6164 87.2189 48.4664 84.8434 53.6783C87.3607 53.6428 89.417 52.9337 91.2252 51.7283C91.5443 49.3528 91.7216 46.9064 91.7216 44.3892C91.7216 31.3773 87.0416 19.4646 79.3125 10.2819C79.3125 10.2819 79.277 10.2464 79.2416 10.2464Z" fill="white"/>
    <path d="M79.2416 10.2464C79.2416 10.2464 79.277 10.2464 79.2416 10.2464C87.467 19.7128 92.4307 32.0864 92.4307 45.5946C92.4307 47.4383 92.3243 49.2819 92.147 51.0901C94.168 49.4946 95.8698 47.261 97.5716 44.8146C95.6925 31.1292 88.9561 19.0037 79.2416 10.2464Z" fill="white"/>
</svg>
