<svg width="127" height="112" viewBox="0 0 127 112" fill="none" xmlns="http://www.w3.org/2000/svg">
<path d="M62.4017 49.0427C64.7173 44.3133 68.51 40.3787 73.1412 37.8749H2.63569V50.5132H13.8942V82.1087H28.0672V50.5132H20.282C28.1071 49.9965 34.974 45.903 39.2458 39.8621V50.5132V82.1087H53.4188V50.5132H61.723C61.9226 50.0362 62.1222 49.5593 62.4017 49.0427Z" fill="#214166"/>
<path d="M85.2799 69.5499C80.01 69.5499 75.7382 65.2975 75.7382 60.0514C75.7382 54.8053 80.01 50.5529 85.2799 50.5529C87.9149 50.5529 90.2704 51.6259 92.0271 53.3349C92.3065 52.5797 92.5461 51.8644 92.7856 51.1093C93.6639 47.8504 94.1031 44.4325 94.1031 40.8954C94.1031 40.4979 94.1031 40.1005 94.1031 39.7031C91.4282 38.5505 88.4339 37.9146 85.3199 37.9146C73.0233 37.9146 63.0823 47.8504 63.0823 60.0514C63.0823 72.2922 73.0233 82.1882 85.3199 82.1882C91.4681 82.1882 97.0176 79.7241 101.05 75.7101L92.067 66.7679C90.2704 68.4769 87.9149 69.5499 85.2799 69.5499Z" fill="#214166"/>
<path d="M0.440323 111.638V95.9657H4.45931V108.123H9.12216V111.638H0.440323Z" fill="#5BAA4C"/>
<path d="M26.6208 103.802C26.6208 106.104 25.8108 108.04 24.1908 109.612C22.5776 111.162 20.6114 111.938 18.2921 111.938C16.0351 111.938 14.1 111.176 12.4869 109.653C10.8391 108.109 10.0153 106.224 10.0153 103.998C10.0153 102.813 10.2195 101.696 10.628 100.649C10.8426 100.09 11.1853 99.5047 11.6561 98.8913C13.29 96.7479 15.5089 95.6762 18.3129 95.6762C20.6252 95.6762 22.5845 96.455 24.1908 98.0126C25.8108 99.577 26.6208 101.507 26.6208 103.802ZM22.6019 103.822C22.6019 102.561 22.2141 101.486 21.4387 100.597C20.6149 99.6597 19.5798 99.1911 18.3336 99.1911C17.0736 99.1911 16.0351 99.646 15.2181 100.556C14.4289 101.431 14.0343 102.499 14.0343 103.76C14.0343 105.049 14.4323 106.138 15.2285 107.027C16.0524 107.958 17.1013 108.423 18.3752 108.423C19.6006 108.423 20.6218 107.954 21.4387 107.017C22.2141 106.128 22.6019 105.063 22.6019 103.822Z" fill="#5BAA4C"/>
<path d="M44.8672 103.554C44.8672 105.959 44.0711 107.961 42.4787 109.56C40.8794 111.159 38.8751 111.958 36.4658 111.958C34.1396 111.958 32.1664 111.169 30.5464 109.591C28.9194 107.999 28.1059 106.049 28.1059 103.74C28.1059 101.424 28.9332 99.4909 30.5879 97.9402C32.208 96.4309 34.188 95.6762 36.5281 95.6762C38.2728 95.6762 39.8894 96.1828 41.3779 97.1959C42.9218 98.2435 43.9291 99.5839 44.3999 101.217H39.8928C39.1313 99.8665 37.9751 99.1911 36.4243 99.1911C35.1642 99.1911 34.1257 99.6391 33.3088 100.535C32.5195 101.403 32.1249 102.472 32.1249 103.74C32.1249 105.063 32.5091 106.166 33.2776 107.048C34.0876 107.978 35.1434 108.444 36.445 108.444C37.352 108.444 38.1343 108.24 38.792 107.834C39.4982 107.392 39.969 106.755 40.2044 105.921H35.5104V102.727H44.8465C44.8534 102.851 44.8603 102.989 44.8672 103.14V103.554Z" fill="#5BAA4C"/>
<path d="M46.9442 111.638V95.9657H50.9632V111.638H46.9442Z" fill="#5BAA4C"/>
<path d="M64.0898 107.131C64.0898 108.702 63.5636 109.911 62.5113 110.759C61.542 111.545 60.2405 111.938 58.6066 111.938C56.938 111.938 55.5949 111.524 54.5772 110.697C53.4764 109.815 52.926 108.568 52.926 106.955V106.448H56.9242C56.9242 107.027 57.0523 107.513 57.3084 107.906C57.5992 108.361 58.0181 108.588 58.565 108.588C59.5827 108.588 60.0916 108.089 60.0916 107.089C60.0916 106.634 59.9151 106.266 59.562 105.983C59.4235 105.873 59.2435 105.763 59.0219 105.652L58.7208 105.508L57.0073 104.774C56.4396 104.539 55.9515 104.301 55.543 104.06C55.0584 103.778 54.6499 103.471 54.3176 103.14C53.5491 102.361 53.1648 101.41 53.1648 100.287C53.1648 98.9016 53.7464 97.7679 54.9095 96.8857C55.9757 96.0794 57.2288 95.6762 58.6689 95.6762C59.4789 95.6762 60.2543 95.8209 60.9951 96.1104C61.7982 96.4274 62.4421 96.8754 62.9267 97.4543C63.5775 98.2538 63.9237 99.2841 63.9652 100.545H59.9878C59.8354 99.5254 59.3543 99.0153 58.5442 99.0153C57.6234 99.0153 57.163 99.4254 57.163 100.246C57.163 100.535 57.2115 100.756 57.3084 100.907C57.4677 101.176 57.9488 101.507 58.7519 101.9L60.4135 102.644C60.9951 102.906 61.4797 103.157 61.8674 103.399C62.3382 103.688 62.7259 103.995 63.0305 104.319C63.7367 105.063 64.0898 106 64.0898 107.131Z" fill="#5BAA4C"/>
<path d="M71.9201 99.4806V111.638H67.9011V99.4806H64.796V95.9657H75.0044V99.4806H71.9201Z" fill="#5BAA4C"/>
<path d="M76.6245 111.638V95.9657H80.6435V111.638H76.6245Z" fill="#5BAA4C"/>
<path d="M99.1079 105.776C98.651 107.616 97.6852 109.105 96.2105 110.242C94.7497 111.373 93.0639 111.938 91.1531 111.938C88.8545 111.938 86.8987 111.152 85.2855 109.581C83.6655 108.002 82.8555 106.069 82.8555 103.781C82.8555 101.5 83.6586 99.5736 85.2648 98.0022C86.8641 96.4516 88.813 95.6762 91.1115 95.6762C94.1024 95.6762 96.4113 96.903 98.0383 99.3565C98.606 100.204 98.9626 101.059 99.1079 101.92H94.8916C94.1924 100.101 92.9254 99.1911 91.0907 99.1911C89.8515 99.1911 88.8303 99.6494 88.0272 100.566C87.2587 101.448 86.8745 102.513 86.8745 103.76C86.8745 105.022 87.2587 106.1 88.0272 106.996C88.8372 107.947 89.8653 108.423 91.1115 108.423C92.8285 108.423 94.0885 107.541 94.8916 105.776H99.1079Z" fill="#5BAA4C"/>
<path d="M111.092 107.131C111.092 108.702 110.566 109.911 109.514 110.759C108.544 111.545 107.243 111.938 105.609 111.938C103.94 111.938 102.597 111.524 101.58 110.697C100.479 109.815 99.9284 108.568 99.9284 106.955V106.448H103.927C103.927 107.027 104.055 107.513 104.311 107.906C104.602 108.361 105.02 108.588 105.567 108.588C106.585 108.588 107.094 108.089 107.094 107.089C107.094 106.634 106.917 106.266 106.564 105.983C106.426 105.873 106.246 105.763 106.024 105.652L105.723 105.508L104.01 104.774C103.442 104.539 102.954 104.301 102.545 104.06C102.061 103.778 101.652 103.471 101.32 103.14C100.551 102.361 100.167 101.41 100.167 100.287C100.167 98.9016 100.749 97.7679 101.912 96.8857C102.978 96.0794 104.231 95.6762 105.671 95.6762C106.481 95.6762 107.257 95.8209 107.997 96.1104C108.801 96.4274 109.444 96.8754 109.929 97.4543C110.58 98.2538 110.926 99.2841 110.968 100.545H106.99C106.838 99.5254 106.357 99.0153 105.547 99.0153C104.626 99.0153 104.165 99.4254 104.165 100.246C104.165 100.535 104.214 100.756 104.311 100.907C104.47 101.176 104.951 101.507 105.754 101.9L107.416 102.644C107.997 102.906 108.482 103.157 108.87 103.399C109.341 103.688 109.728 103.995 110.033 104.319C110.739 105.063 111.092 106 111.092 107.131Z" fill="#5BAA4C"/>
<path d="M126.56 32.9866C125.003 31.9532 123.126 31.3571 121.13 31.3571C118.934 31.3571 116.938 32.0725 115.301 33.2648C107.396 17.2484 93.0637 5.0076 75.6569 0C81.0466 2.86148 85.7976 6.79603 89.6702 11.4857C100.649 21.0637 108.394 34.2583 111.029 49.2414C113.145 46.1812 115.341 42.8428 118.096 39.8223C120.412 37.1993 123.126 34.8147 126.56 32.9866Z" fill="#5BAA4C"/>
<path d="M89.6707 11.4856C96.2581 19.4739 100.171 29.7276 100.171 40.8953C100.171 47.7708 98.6535 54.3284 95.9786 60.1706C98.8132 60.1309 101.129 59.336 103.165 57.9847C103.524 55.322 103.724 52.5797 103.724 49.758C103.724 35.1724 98.4539 21.8188 89.7505 11.5254C89.7505 11.5254 89.7106 11.4856 89.6707 11.4856Z" fill="#5BAA4C"/>
<path d="M89.6707 11.4856C89.6707 11.4856 89.7106 11.4856 89.6707 11.4856C98.933 22.097 104.522 35.9672 104.522 51.1092C104.522 53.1759 104.403 55.2425 104.203 57.2694C106.479 55.4809 108.395 52.9771 110.311 50.2349C108.195 34.8942 100.61 21.3021 89.6707 11.4856Z" fill="#5BAA4C"/>
</svg>
