<svg width="32" height="32" viewBox="0 0 32 32" fill="none" xmlns="http://www.w3.org/2000/svg">
    <path fill-rule="evenodd" clip-rule="evenodd" d="M15.9991 2.66602C8.4876 2.66602 2.66504 8.1682 2.66504 15.6001C2.66504 19.4874 4.2582 22.8466 6.85267 25.1667C7.07049 25.3617 7.20196 25.6348 7.21087 25.9271L7.28347 28.2989C7.30665 29.0555 8.08815 29.5478 8.78049 29.2421L11.4271 28.0738C11.6514 27.9748 11.9028 27.9564 12.1393 28.0215C13.3555 28.3559 14.6499 28.5341 15.9991 28.5341C23.5105 28.5341 29.3331 23.0319 29.3331 15.6C29.3331 8.16815 23.5106 2.66602 15.9991 2.66602V2.66602Z" fill="#2597A2"/>
    <path fill-rule="evenodd" clip-rule="evenodd" d="M7.9926 19.3831L11.9095 13.1689C12.5325 12.1803 13.8667 11.9341 14.8016 12.6353L17.9169 14.9718C18.2027 15.1862 18.596 15.185 18.8806 14.969L23.088 11.7759C23.6496 11.3497 24.3826 12.0218 24.0068 12.6182L20.0899 18.8325C19.4668 19.821 18.1326 20.0672 17.1978 19.366L14.0824 17.0295C13.7966 16.8151 13.4033 16.8163 13.1187 17.0323L8.91135 20.2254C8.34975 20.6515 7.61669 19.9795 7.9926 19.3831Z" fill="white"/>
</svg>
