<svg width="20" height="20" viewBox="0 0 20 20" fill="none" xmlns="http://www.w3.org/2000/svg">
<path d="M10.2834 14.4415V15.0832H9.83342V14.4165V14.0527C9.90991 14.0564 9.98771 14.0582 10.0667 14.0582C10.1405 14.0582 10.2127 14.0565 10.2834 14.0532V14.4415ZM10.0584 5.94984C9.98275 5.94984 9.9077 5.95181 9.83342 5.95581V5.57484V4.9165H10.2751V5.5915V5.95554C10.2038 5.9517 10.1315 5.94984 10.0584 5.94984ZM2.41675 9.99984C2.41675 5.81405 5.8143 2.4165 10.0001 2.4165C14.1859 2.4165 17.5834 5.81405 17.5834 9.99984C17.5834 14.1856 14.1859 17.5832 10.0001 17.5832C5.8143 17.5832 2.41675 14.1856 2.41675 9.99984ZM2.58341 9.99984C2.58341 14.0891 5.91087 17.4165 10.0001 17.4165C14.0893 17.4165 17.4167 14.0891 17.4167 9.99984C17.4167 5.91062 14.0893 2.58317 10.0001 2.58317C5.91087 2.58317 2.58341 5.91062 2.58341 9.99984Z" stroke="#A0A1A7" stroke-width="1.5"/>
</svg>
