<svg width="326" height="187" viewBox="0 0 326 187" fill="none" xmlns="http://www.w3.org/2000/svg">
    <g clip-path="url(#clip0_6648_270177)">
        <path d="M65.6283 61.9175C61.491 60.0563 58.607 63.6008 58.607 63.6008C58.607 63.6008 58.8683 59.46 55.0939 58.6857C51.3195 57.9114 49.8872 62.3071 49.8872 62.3071C49.8872 62.3071 47.0225 55.9684 42.2078 57.9066C37.393 59.8495 39.2125 66.7028 39.2125 66.7028C39.2125 66.7028 37.0011 64.6348 34.7848 64.7598C32.5686 64.8945 32.1766 70.1895 32.1766 70.1895H72.969C72.969 70.1895 71.1011 64.3751 65.6283 61.9175Z" fill="#E8F5FF"/>
        <path d="M67.7404 41.4613C67.7404 41.4613 73.6245 24.5278 87.4441 20.2719C101.264 16.0161 108.821 32.4468 108.821 32.4468C108.821 32.4468 105.456 8.61782 123.541 5.38555C141.625 2.15328 148.715 25.3538 148.715 25.3538C148.715 25.3538 153.879 15.3876 165.018 22.6243C176.156 29.861 187.133 40.1684 187.133 40.1684L67.7404 41.4613Z" fill="#E8F5FF"/>
        <path d="M167.897 187C245.971 187 309.262 184.97 309.262 182.465C309.262 179.96 245.971 177.93 167.897 177.93C89.8233 177.93 26.532 179.96 26.532 182.465C26.532 184.97 89.8233 187 167.897 187Z" fill="#E8F5FF"/>
        <path d="M114.422 299.041C114.903 301.614 116.101 302.342 115.323 303.551C115.21 303.736 115.098 303.951 114.985 304.176C114.381 305.427 113.736 307.19 111.36 307.856C108.565 308.645 95.182 309.373 92.2945 309.014C89.407 308.655 87.7687 305.919 87.6048 303.643C87.4308 301.378 88.6902 299.913 88.4957 297.34C88.3011 294.778 86.2942 294.019 86.1611 292.308C86.028 290.606 87.6867 288.105 87.6663 286.394C87.6253 282.786 87.7277 286.722 88.4445 266.213C88.8438 254.518 91.6699 251.976 88.4445 238.714C87.2772 233.927 74.7441 147.269 74.7441 147.269L113.398 149.585C113.398 149.585 114.012 164.344 114.709 181.779C115.589 203.958 116.603 230.463 116.634 236.428C116.695 248.543 115.589 265.516 114.698 280.582C114.319 287.009 113.674 291.436 114.719 293.886C114.842 294.152 114.913 294.419 114.934 294.706C115.067 296.387 113.93 296.469 114.422 299.041Z" fill="#51B747"/>
        <path opacity="0.3" d="M114.985 304.187C114.381 305.437 113.736 307.2 111.36 307.866C108.565 308.655 95.182 309.383 92.2945 309.024C89.407 308.666 87.7687 305.929 87.6048 303.654C87.4308 301.389 88.6902 299.923 88.4957 297.35C88.3011 294.788 86.2942 294.029 86.1611 292.318C86.028 290.616 87.6867 288.116 87.6663 286.404C87.6253 282.796 87.7277 286.732 88.4445 266.223C88.8438 254.528 91.6699 251.987 88.4445 238.724C87.2772 233.938 74.7441 147.279 74.7441 147.279L113.398 149.596C113.398 149.596 114.012 164.355 114.709 181.789C110.05 201.181 104.643 222.52 102.616 226.107L105.81 231.693C105.81 231.693 98.1719 249.435 98.1719 251.577C98.1719 253.709 100.783 273.756 101.643 277.928C102.493 282.099 98.1719 279.127 98.1719 282.632C98.1719 285.84 97.8238 301.563 114.985 304.187Z" fill="black"/>
        <path d="M114.422 299.041C114.903 301.614 116.101 302.342 115.323 303.551C115.21 303.736 115.098 303.951 114.985 304.176C114.381 305.427 113.736 307.19 111.36 307.856C108.565 308.645 95.182 309.373 92.2945 309.014C89.407 308.655 87.7687 305.919 87.6048 303.643C87.4308 301.378 88.6902 299.913 88.4957 297.34C88.3011 294.778 86.2942 294.019 86.1611 292.308C86.028 290.606 87.6867 288.105 87.6663 286.394C87.6253 282.786 87.7277 286.722 88.4445 266.213C88.8438 254.518 91.6699 251.976 88.4445 238.714C87.2772 233.927 74.7441 147.269 74.7441 147.269L113.398 149.585C113.398 149.585 114.012 164.344 114.709 181.779C115.589 203.958 116.603 230.463 116.634 236.428C116.695 248.543 115.589 265.516 114.698 280.582C114.319 287.009 113.674 291.436 114.719 293.886C114.842 294.152 114.913 294.419 114.934 294.706C115.067 296.387 113.93 296.469 114.422 299.041Z" stroke="#263238" stroke-linecap="round" stroke-linejoin="round"/>
        <path d="M111.463 177.607C111.463 177.607 106.722 181.738 102.677 180.969" stroke="#263238" stroke-linecap="round" stroke-linejoin="round"/>
        <path d="M110.991 185.356C110.991 185.356 103.005 183.429 102.093 181.81" stroke="#263238" stroke-linecap="round" stroke-linejoin="round"/>
        <path d="M109.937 149.585L71.6824 147.269C71.6824 147.269 69.3273 233.784 69.6755 238.56C70.6277 251.802 67.3716 254.334 64.9551 266.018C60.7262 286.496 61.2996 282.56 60.716 286.168C60.4395 287.88 58.3609 290.37 58.1971 292.072C58.0333 293.773 59.9173 294.532 59.6716 297.094C59.4258 299.656 57.9104 301.122 57.6954 303.387C57.4803 305.652 58.6476 308.389 61.4635 308.748C64.2896 309.106 77.7953 308.379 80.734 307.589C83.6727 306.8 84.4612 304.504 85.4339 303.295C86.4169 302.085 85.352 301.358 85.3008 298.795C85.2496 296.233 86.4067 296.141 86.5603 294.46C86.591 294.183 86.5603 293.906 86.4886 293.64C85.8537 291.19 87.2668 286.773 88.7515 280.357C92.2226 265.321 96.2467 248.369 98.2639 236.274C99.2674 230.248 102.882 203.251 105.821 180.959C105.821 180.959 108.647 176.387 110.09 167.552" fill="#51B747"/>
        <path opacity="0.3" d="M71.6006 150.272L71.2627 163.197C71.2627 163.197 80.6932 164.088 90.6766 163.197C103.322 162.069 111.002 156.463 111.002 156.463L109.947 149.585C109.947 149.585 95.6222 153.449 88.557 152.906C81.4714 152.363 74.8055 151.512 71.6006 150.272Z" fill="black"/>
        <path d="M109.937 149.585L71.6824 147.269C71.6824 147.269 69.3273 233.784 69.6755 238.56C70.6277 251.802 67.3716 254.334 64.9551 266.018C60.7262 286.496 61.2996 282.56 60.716 286.168C60.4395 287.88 58.3609 290.37 58.1971 292.072C58.0333 293.773 59.9173 294.532 59.6716 297.094C59.4258 299.656 57.9104 301.122 57.6954 303.387C57.4803 305.652 58.6476 308.389 61.4635 308.748C64.2896 309.106 77.7953 308.379 80.734 307.589C83.6727 306.8 84.4612 304.504 85.4339 303.295C86.4169 302.085 85.352 301.358 85.3008 298.795C85.2496 296.233 86.4067 296.141 86.5603 294.46C86.591 294.183 86.5603 293.906 86.4886 293.64C85.8537 291.19 87.2668 286.773 88.7515 280.357C92.2226 265.321 96.2467 248.369 98.2639 236.274C99.2674 230.248 102.882 203.251 105.821 180.959C105.821 180.959 108.647 176.387 110.09 167.552" stroke="#263238" stroke-linecap="round" stroke-linejoin="round"/>
        <path d="M79.2696 157.959C79.2696 157.959 78.2149 194.796 77.877 210.118C77.5391 225.441 76.8531 243.306 76.8531 243.306C76.8531 243.306 75.6346 245.151 76.208 247.026C76.7814 248.912 76.7814 248.912 76.7814 248.912L76.464 254.242C76.464 254.242 75.0305 255.841 75.522 257.788C76.0135 259.725 72.0406 273.224 72.0406 273.224L71.3545 274.126C69.9108 276.011 69.491 278.359 70.2692 280.255L68.8459 291.816L68.8254 291.836C67.2281 293.364 66.839 295.639 67.9243 297.156L66.583 303.172C65.1699 304.546 64.8218 306.585 65.7741 307.948L66.0096 308.287" stroke="#263238" stroke-linecap="round" stroke-linejoin="round"/>
        <path d="M145.518 90.0671C144.474 92.3117 135.771 98.2871 135.771 98.2871C135.76 97.3032 135.975 96.3295 136.385 95.4378C137.01 94.4846 137.45 93.5519 137.808 92.9882C137.911 91.4303 137.399 89.8929 136.385 88.704C135.197 87.3921 134.265 90.6821 133.743 92.8857C133.231 95.0791 129.791 98.4203 129.955 100.019C130.241 101.895 130.63 103.76 131.112 105.595C131.112 105.595 116.52 110.73 114.913 107.604C111.493 101.003 107.725 94.5871 103.609 88.3862C100.178 93.1829 102.882 99.804 104.817 107.942C106.752 116.08 112.701 127.467 112.701 127.467C123.371 122.353 135.494 108.977 135.494 108.977C135.494 108.977 138.341 107.706 141.863 106.497C145.385 105.287 144.873 104.252 145.437 100.788C146.01 97.3237 148.959 92.5987 148.785 90.8051C148.621 89.0114 146.553 87.8225 145.518 90.0671Z" fill="#FFB1B2" stroke="#263238" stroke-linecap="round" stroke-linejoin="round"/>
        <path d="M111.002 107.379C110.869 114.799 112.333 139.961 113.92 149.944L70.4946 148.847V148.12C73.6791 136.313 71.6107 123.573 66.5832 112.421C63.9209 106.528 62.7332 98.9947 61.3611 91.8611C57.8695 73.6993 66.6344 68.0826 73.9556 67.3857C76.7816 67.2524 77.0274 65.3563 79.1265 65.4895C81.0105 65.6023 82.1983 65.4485 83.3041 64.9771C84.2154 68.6976 89.2635 79.6234 90.9939 80.8738C92.7244 82.1242 95.233 82.5239 96.984 81.3043C98.7247 80.0846 99.2059 77.758 99.6053 75.6671C99.8101 74.5602 100.087 73.3918 100.568 72.3771C103.128 73.6583 107.592 75.1752 110.91 81.1505C114.964 94.3414 112.753 85.8857 115.906 105.236C116.388 108.178 111.002 107.379 111.002 107.379Z" fill="#FFB1B2" stroke="#263238" stroke-linecap="round" stroke-linejoin="round"/>
        <path d="M104.161 73.0329L99.9633 71.5672C102.81 81.3451 100.352 92.4656 93.1439 88.0789C85.9456 83.6922 83.0888 71.0445 80.9385 65.5098C79.8122 65.1614 75.2351 64.9871 72.8596 66.8217C75.3375 71.3622 82.0751 80.3816 81.2764 87.7099C80.3856 95.8992 73.945 103.197 61.9034 94.9562C63.5417 107.378 68.7536 116.336 69.7468 120.528C73.4125 135.861 70.9653 138.003 69.2553 153.173C86.6418 162.069 107.725 157.641 116.961 154.946C114.155 139.561 115.384 100.614 104.161 73.0329Z" fill="#51B747"/>
        <path opacity="0.3" d="M77.6309 138.28C77.6309 138.28 106.025 150.682 110.08 138.649C102.615 140.269 94.9457 140.586 87.3788 139.582L77.6309 138.28Z" fill="black"/>
        <path opacity="0.3" d="M67.576 111.458L88.1982 95.0488C88.1982 95.0488 92.2735 106.344 81.3173 112.79C73.8938 117.177 67.576 111.458 67.576 111.458Z" fill="black"/>
        <path d="M104.161 73.0329L99.9633 71.5672C102.81 81.3451 100.352 92.4656 93.1439 88.0789C85.9456 83.6922 83.0888 71.0445 80.9385 65.5098C79.8122 65.1614 75.2351 64.9871 72.8596 66.8217C75.3375 71.3622 82.0751 80.3816 81.2764 87.7099C80.3856 95.8992 73.945 103.197 61.9034 94.9562C63.5417 107.378 68.7536 116.336 69.7468 120.528C73.4125 135.861 70.9653 138.003 69.2553 153.173C86.6418 162.069 107.725 157.641 116.961 154.946C114.155 139.561 115.384 100.614 104.161 73.0329Z" stroke="#263238" stroke-linecap="round" stroke-linejoin="round"/>
        <path d="M110.08 138.239C109.803 139.797 108.605 141.068 107.203 141.786" stroke="#263238" stroke-linecap="round" stroke-linejoin="round"/>
        <path d="M102.616 142.892C94.035 143.692 85.2393 141.929 77.6315 137.891" stroke="#263238" stroke-linecap="round" stroke-linejoin="round"/>
        <path d="M142.406 73.4328L133.549 97.16C133.221 98.0107 133.324 98.9844 133.805 99.7531L135.453 102.397C136.262 103.699 139.119 104.089 140.348 103.248C140.778 102.951 141.116 102.531 141.331 102.028L150.096 78.3217C150.567 77.2148 150.311 75.9131 149.461 75.0829L146.696 72.4078C145.621 71.3522 143.932 71.4136 142.928 72.5513C142.703 72.8076 142.529 73.1048 142.406 73.4328Z" fill="#263238"/>
        <path d="M61.8937 79.8286C61.8937 79.8286 61.8937 84.1231 64.4126 90.0985C68.6926 100.266 84.9835 125.571 88.5571 127.283C92.1306 128.995 128.655 109.316 131.296 106.62C133.938 103.925 132.464 100.348 132.464 100.348C132.464 100.348 132.423 102.869 134.563 102.408C135.914 102.111 134.798 97.929 134.798 97.929C134.798 97.929 137.276 96.1763 134.921 92.9375C134.921 92.9375 138.259 92.9375 138.034 90.4162C137.942 89.4118 128.112 89.258 126.607 92.0868C124.774 95.5306 122.951 104.519 122.951 104.519C122.951 104.519 99.1446 110.669 94.2195 111.581L81.2462 83.2826" fill="#FFB1B2"/>
        <path d="M61.8937 79.8286C61.8937 79.8286 61.8937 84.1231 64.4126 90.0985C68.6926 100.266 84.9835 125.571 88.5571 127.283C92.1306 128.995 128.655 109.316 131.296 106.62C133.938 103.925 132.464 100.348 132.464 100.348C132.464 100.348 132.423 102.869 134.563 102.408C135.914 102.111 134.798 97.929 134.798 97.929C134.798 97.929 137.276 96.1763 134.921 92.9375C134.921 92.9375 138.259 92.9375 138.034 90.4162C137.942 89.4118 128.112 89.258 126.607 92.0868C124.774 95.5306 122.951 104.519 122.951 104.519C122.951 104.519 99.1446 110.669 94.2195 111.581L81.2462 83.2826" stroke="#263238" stroke-linecap="round" stroke-linejoin="round"/>
        <path d="M131.675 108.127C132.412 106.251 133.692 104.642 135.351 103.504C137.276 102.582 139.928 102.305 142.027 101.895C142.027 101.895 143.665 94.9563 144.556 95.1408C147.269 95.7148 145.15 102.09 145.15 102.09" fill="#FFB1B2"/>
        <path d="M131.675 108.127C132.412 106.251 133.692 104.642 135.351 103.504C137.276 102.582 139.928 102.305 142.027 101.895C142.027 101.895 143.665 94.9563 144.556 95.1408C147.269 95.7148 145.15 102.09 145.15 102.09" stroke="#263238" stroke-linecap="round" stroke-linejoin="round"/>
        <path d="M148.427 92.6502C147.7 91.9225 146.532 91.8713 145.744 92.5375C144.433 93.7367 142.426 97.1292 140.286 98.9433" stroke="#263238" stroke-linecap="round" stroke-linejoin="round"/>
        <path d="M129.443 99.9477C130.027 98.6562 134.174 96.4629 135.003 99.2712" stroke="#263238" stroke-linecap="round" stroke-linejoin="round"/>
        <path d="M129.381 96.5243C129.381 96.5243 134.184 93.9005 135.146 97.1495" stroke="#263238" stroke-linecap="round" stroke-linejoin="round"/>
        <path d="M130.026 93.3986C130.026 93.3986 132.033 93.0091 132.463 92.9681C134.061 92.8041 135.781 92.6094 136.641 92.6094" stroke="#263238" stroke-linecap="round" stroke-linejoin="round"/>
        <path d="M105.81 180.969C105.81 180.969 99.4206 175.322 95.6935 174.235L105.81 180.969Z" fill="#51B747"/>
        <path d="M105.81 180.969C105.81 180.969 99.4206 175.322 95.6935 174.235" stroke="#263238" stroke-linecap="round" stroke-linejoin="round"/>
        <path d="M99.5743 71.1472C99.5743 71.1472 103.895 88.0177 96.9633 89.2886C87.5123 91.031 80.9489 65.4999 80.9489 65.4999C82.3926 65.3974 82.5667 64.8029 83.8261 64.0752C83.8159 64.0854 94.383 85.1888 99.5743 71.1472Z" fill="#263238"/>
        <path d="M70.8325 67.9495C70.8325 67.9495 60.9514 69.9173 60.9105 84.6149C60.8695 99.21 67.392 111.571 67.392 111.571C67.392 111.571 75.1125 110.945 79.9865 107.368C90.2054 99.8762 88.5671 95.6739 88.5671 95.6739L83.2017 85.0351C83.2017 85.0351 81.4405 78.2295 73.7814 67.3652L70.8325 67.9495Z" fill="#263238"/>
        <path d="M104.776 73.6172C110.162 88.9195 110.397 94.6488 111.37 101.711C111.37 101.711 116.643 100.645 117.452 99.5173C117.452 99.5173 114.892 86.9926 112.128 80.515C110.377 76.4153 108.052 74.9599 104.776 73.6172Z" fill="#263238"/>
        <path d="M99.5542 56.245C99.5542 56.245 98.7863 70.2661 98.8375 71.3936C98.9296 73.5254 100.466 76.3337 99.0525 77.9224C97.6292 79.511 95.0899 79.6955 93.1239 78.8756C91.1579 78.0556 89.6425 76.4362 88.2909 74.7861C85.8642 71.8138 83.7344 68.5852 82.0039 65.1722C82.4954 64.8032 83.847 63.2043 84.5023 61.0725C84.5023 61.0725 84.7685 59.8835 84.789 59.8323C85.1986 57.0137 85.045 53.9594 84.6662 51.1408C83.9084 45.432 82.1985 40.666 82.1985 40.666L99.5542 56.245Z" fill="#FFB1B2" stroke="#263238" stroke-linecap="round" stroke-linejoin="round"/>
        <path d="M85.0037 69.6304C88.014 70.6553 90.2053 71.629 92.0177 72.6232L85.0037 69.6304Z" fill="#263238"/>
        <path d="M85.0037 69.6304C88.014 70.6553 90.2053 71.629 92.0177 72.6232" stroke="#263238" stroke-linecap="round" stroke-linejoin="round"/>
        <path d="M82.8531 22.3297C82.8531 22.3297 74.1291 27.3211 78.6549 40.3481C83.1807 53.375 93.2256 67.9291 102.349 65.9817C111.472 64.0343 113.848 45.8827 109.015 33.7885C104.182 21.7045 91.9047 14.9912 82.8531 22.3297Z" fill="#FFB1B2" stroke="#263238" stroke-linecap="round" stroke-linejoin="round"/>
        <path d="M108.871 46.375C108.933 47.4512 108.513 48.3531 107.94 48.3839C107.366 48.4146 106.844 47.5742 106.783 46.498C106.721 45.4218 107.12 44.5404 107.714 44.4994C108.298 44.4686 108.81 45.2988 108.871 46.375Z" fill="#263238"/>
        <path d="M99.9735 45.9648C100.035 47.0205 99.6356 47.9224 99.0622 47.9634C98.4888 47.9942 97.9666 47.1537 97.9052 46.098C97.8437 45.0423 98.2431 44.1199 98.8369 44.0892C99.4206 44.0379 99.9121 44.8681 99.9735 45.9648Z" fill="#263238"/>
        <path d="M103.322 24.5741C97.4749 18.8858 89.5189 17.1126 83.1602 22.2783C83.1602 22.2783 74.4362 27.2697 78.962 40.2966C80.0576 43.4022 81.3785 46.4258 82.9247 49.3366L83.0885 49.4801C83.0885 49.4801 80.2215 46.6205 91.5975 40.3274C95.3246 38.216 100.844 25.0559 103.322 24.5741Z" fill="#263238" stroke="#263238" stroke-linecap="round" stroke-linejoin="round"/>
        <path d="M94.1881 28.8279C94.1881 28.8279 94.9868 19.747 101.294 19.4395C104.581 19.2755 108.923 23.693 109.465 26.0298C110.213 29.2481 112.732 31.7592 115.978 32.3844C115.978 32.3844 114.145 38.5443 110.592 38.985C104.724 39.7025 101.683 38.329 97.905 33.1531C96.8196 31.667 95.6626 30.2423 94.3315 28.9714L94.1881 28.8279Z" fill="#263238" stroke="#263238" stroke-linecap="round" stroke-linejoin="round"/>
        <path d="M84.7986 46.272C84.7986 46.272 81.3479 39.159 78.2761 46.9895C76.3613 51.8682 84.0204 55.7629 86.6417 54.4818" fill="#FFB1B2"/>
        <path d="M84.7986 46.272C84.7986 46.272 81.3479 39.159 78.2761 46.9895C76.3613 51.8682 84.0204 55.7629 86.6417 54.4818" stroke="#263238" stroke-linecap="round" stroke-linejoin="round"/>
        <path d="M105.339 41.9673C104.161 43.269 103.68 45.0626 104.059 46.7742C104.325 48.6396 104.95 50.423 105.902 52.0526L101.53 53.4773" stroke="#263238" stroke-linecap="round" stroke-linejoin="round"/>
        <path d="M97.6284 56.665C99.0415 58.059 101.13 58.5202 102.994 57.854" stroke="#263238" stroke-linecap="round" stroke-linejoin="round"/>
        <path d="M92.7754 41.8449C92.7754 41.8449 95.8267 38.4421 99.5539 40.082" stroke="#263238" stroke-linecap="round" stroke-linejoin="round"/>
        <path d="M107.039 40.9321C107.039 40.9321 111.063 39.6817 110.551 43.228" stroke="#263238" stroke-linecap="round" stroke-linejoin="round"/>
        <path d="M84.7371 50.1774C84.0305 50.3004 83.3957 49.706 83.0988 49.0603C82.8018 48.4146 82.7199 47.6766 82.423 47.0309C82.126 46.3852 81.4809 45.7907 80.7744 45.9137" fill="#263238"/>
        <path d="M84.7371 50.1774C84.0305 50.3004 83.3957 49.706 83.0988 49.0603C82.8018 48.4146 82.7199 47.6766 82.423 47.0309C82.126 46.3852 81.4809 45.7907 80.7744 45.9137" stroke="#263238" stroke-linecap="round" stroke-linejoin="round"/>
        <path d="M97.5056 22.0531C97.055 20.2184 96.3485 18.4555 95.4065 16.8259C95.4167 16.8669 97.0755 16.3954 97.9971 16.2007C97.8435 17.9943 97.6489 20.2594 97.5056 22.0531Z" fill="#263238" stroke="#263238" stroke-linecap="round" stroke-linejoin="round"/>
        <path d="M99.2566 65.5816L99.3283 68.6872C98.7651 68.9537 98.0586 69.0767 97.178 68.9742C93.2461 68.5232 89.2835 59.7908 89.0377 59.2476C89.0377 59.2373 89.0275 59.2373 89.0275 59.2271C89.0582 59.2475 89.0889 59.2885 89.1094 59.309C93.7683 64.444 97.2087 65.5509 99.2566 65.5816Z" fill="#263238"/>
        <path d="M175.25 47.298V60.5377L211.435 32.6152L175.25 47.298Z" fill="#51B747" stroke="#263238" stroke-miterlimit="10" stroke-linecap="round" stroke-linejoin="round"/>
        <path d="M175.25 47.298L212.274 32.1538L161.73 37.3977L175.25 47.298Z" fill="#51B747" stroke="#263238" stroke-miterlimit="10" stroke-linecap="round" stroke-linejoin="round"/>
        <path d="M179.609 50.0416L197.035 62.9457L212.274 32.1538L179.609 50.0416Z" fill="#51B747" stroke="#263238" stroke-miterlimit="10" stroke-linecap="round" stroke-linejoin="round"/>
        <path d="M179.609 50.0415L175.25 60.5376L184.521 53.6828L179.609 50.0415Z" fill="#51B747" stroke="#263238" stroke-miterlimit="10" stroke-linecap="round" stroke-linejoin="round"/>
        <g clip-path="url(#clip1_6648_270177)">
            <path d="M165.745 106.131H195.866" stroke="#263238" stroke-linecap="round" stroke-linejoin="round"/>
            <path d="M131.19 106.131H161.788" stroke="#263238" stroke-linecap="round" stroke-linejoin="round"/>
            <path d="M114.908 106.131H124.312" stroke="#263238" stroke-linecap="round" stroke-linejoin="round"/>
            <path d="M139.641 122.543H195.747" stroke="#263238" stroke-linecap="round" stroke-linejoin="round"/>
            <path d="M124.312 122.543H131.19" stroke="#263238" stroke-linecap="round" stroke-linejoin="round"/>
            <path d="M164.756 138.943H195.628" stroke="#263238" stroke-linecap="round" stroke-linejoin="round"/>
            <path d="M133.717 138.943H160.179" stroke="#263238" stroke-linecap="round" stroke-linejoin="round"/>
            <path d="M160.524 155.344H195.508" stroke="#263238" stroke-linecap="round" stroke-linejoin="round"/>
            <path d="M143.11 155.344H155.554" stroke="#263238" stroke-linecap="round" stroke-linejoin="round"/>
            <path d="M263.426 155.941H175.734L180.132 105.521H267.825L263.426 155.941Z" fill="white" stroke="#263238" stroke-miterlimit="10" stroke-linecap="round" stroke-linejoin="round"/>
            <path d="M267.825 105.521H180.132" stroke="#263238" stroke-miterlimit="10" stroke-linecap="round" stroke-linejoin="round"/>
            <path d="M263.426 155.941H175.734L205.712 127.396L220.945 140.425L238.765 127.145L263.426 155.941Z" fill="white" stroke="#263238" stroke-miterlimit="10" stroke-linecap="round" stroke-linejoin="round"/>
            <path d="M267.825 105.521L238.765 127.145L220.945 140.425L205.712 127.396L180.132 105.521H267.825Z" fill="white" stroke="#263238" stroke-miterlimit="10" stroke-linecap="round" stroke-linejoin="round"/>
        </g>
        <path d="M268.736 83.5745C259.375 79.3422 252.85 87.4022 252.85 87.4022C252.85 87.4022 253.441 77.9861 244.901 76.2253C236.361 74.4646 233.121 84.4604 233.121 84.4604C233.121 84.4604 226.639 70.0463 215.745 74.4537C204.851 78.8719 208.968 94.4561 208.968 94.4561C208.968 94.4561 203.965 89.7535 198.95 90.0379C193.947 90.3332 193.06 102.385 193.06 102.385H285.356C285.334 102.396 281.119 89.1739 268.736 83.5745Z" fill="#E8F5FF"/>
    </g>
    <defs>
        <clipPath id="clip0_6648_270177">
            <rect width="326" height="187" fill="white"/>
        </clipPath>
        <clipPath id="clip1_6648_270177">
            <rect width="154.109" height="51.6154" fill="white" transform="translate(114.312 104.923)"/>
        </clipPath>
    </defs>
</svg>
