<svg width="45" height="44" viewBox="0 0 45 44" fill="none" xmlns="http://www.w3.org/2000/svg">
    <path
        d="M27.1879 6.8707H36.2457V16.4957C36.2457 17.252 36.8645 17.8707 37.6207 17.8707C38.377 17.8707 38.9957 17.252 38.9957 16.4957V5.4957C38.9957 4.73945 38.377 4.1207 37.6207 4.1207H27.1879L27.5918 3.7168C28.1246 3.18398 28.1246 2.30742 27.5918 1.77461C27.059 1.2418 26.1824 1.2418 25.6496 1.77461L22.8996 4.52461C22.3668 5.05742 22.3668 5.93398 22.8996 6.4668L25.6496 9.2168C25.916 9.4832 26.2684 9.6207 26.6207 9.6207C26.973 9.6207 27.3254 9.4832 27.5918 9.2168C28.1246 8.68398 28.1246 7.80742 27.5918 7.27461L27.1879 6.8707Z"
        fill="#003567" />
    <path
        d="M17.9711 33.4039C17.4383 32.8711 16.5617 32.8711 16.0289 33.4039C15.4961 33.9367 15.4961 34.8133 16.0289 35.3461L16.4328 35.75H7.375V26.125C7.375 25.3687 6.75625 24.75 6 24.75C5.24375 24.75 4.625 25.3687 4.625 26.125V37.125C4.625 37.8812 5.24375 38.5 6 38.5H16.4328L16.0289 38.9039C15.4961 39.4367 15.4961 40.3133 16.0289 40.8461C16.2953 41.1125 16.6477 41.25 17 41.25C17.3523 41.25 17.7047 41.1125 17.9711 40.8461L20.7211 38.0961C21.2539 37.5633 21.2539 36.6867 20.7211 36.1539L17.9711 33.4039Z"
        fill="#003567" />
    <path
        d="M25.25 28.875V42.625C25.25 43.3812 25.8687 44 26.625 44H28V27.5H26.625C25.8687 27.5 25.25 28.1187 25.25 28.875Z"
        fill="#003567" />
    <path
        d="M9.91016 10.2954C12.7547 10.2954 15.0664 7.98369 15.0664 5.13916C15.0664 2.29463 12.7547 -0.0170898 9.91016 -0.0170898C7.06563 -0.0170898 4.75391 2.29463 4.75391 5.13916C4.75391 7.98369 7.06563 10.2868 9.91016 10.2954Z"
        fill="#003567" />
    <path
        d="M16.6562 14.5491C13.0297 10.828 7.06562 10.7507 3.34453 14.3773C1.52266 16.1562 0.5 18.5796 0.5 21.1234C0.5 21.6218 0.903906 22.0257 1.40234 22.0257H18.418C18.9164 22.0257 19.3203 21.6218 19.3203 21.1234C19.3203 20.1694 19.1742 19.2155 18.882 18.3046C18.4523 16.8952 17.6875 15.6062 16.6562 14.5491Z"
        fill="#003567" />
    <path
        d="M42.3393 22H31.5357C30.9627 22 30.4131 22.2318 30.0079 22.6444C29.6026 23.0569 29.375 23.6165 29.375 24.2V42.9C29.375 43.1917 29.4888 43.4715 29.6914 43.6778C29.894 43.8841 30.1688 44 30.4554 44H43.4196C43.7062 44 43.981 43.8841 44.1836 43.6778C44.3862 43.4715 44.5 43.1917 44.5 42.9V24.2C44.5 23.6165 44.2724 23.0569 43.8671 22.6444C43.4619 22.2318 42.9123 22 42.3393 22ZM35.8571 37.4H32.6161V35.2H35.8571V37.4ZM35.8571 33H32.6161V30.8H35.8571V33ZM35.8571 28.6H32.6161V26.4H35.8571V28.6ZM41.2589 37.4H38.0179V35.2H41.2589V37.4ZM41.2589 33H38.0179V30.8H41.2589V33ZM41.2589 28.6H38.0179V26.4H41.2589V28.6Z"
        fill="#003567" />
</svg>