<svg width="46" height="46" viewBox="0 0 46 46" fill="none" xmlns="http://www.w3.org/2000/svg">
    <path d="M9.76306 31.3416V34.1041H7.15527V31.3416H9.76306Z" fill="white" stroke="#0059AB" stroke-width="1.07152"
        stroke-miterlimit="10" />
    <path
        d="M16.3931 39.7396C15.2881 36.4025 12.1499 34.0157 8.45925 34.0157C4.76857 34.0157 1.63038 36.4246 0.525391 39.7396"
        fill="white" />
    <path
        d="M16.3931 39.7396C15.2881 36.4025 12.1499 34.0157 8.45925 34.0157C4.76857 34.0157 1.63038 36.4246 0.525391 39.7396"
        stroke="#0C6BC2" stroke-width="1.04949" stroke-miterlimit="10" stroke-linecap="round" stroke-linejoin="round" />
    <path
        d="M11.4647 23.3194C12.194 23.5404 12.7465 24.2476 12.7465 25.22V27.6731L4.12756 27.6952V25.22C4.12756 23.7172 5.34306 22.5238 6.82375 22.5238H11.6636C11.6636 23.4078 10.9343 24.1371 10.0503 24.1371H8.26024"
        fill="#92E0FF" />
    <path
        d="M11.4647 23.3194C12.194 23.5404 12.7465 24.2476 12.7465 25.22V27.6731L4.12756 27.6952V25.22C4.12756 23.7172 5.34306 22.5238 6.82375 22.5238H11.6636C11.6636 23.4078 10.9343 24.1371 10.0503 24.1371H8.26024"
        stroke="#0059AB" stroke-width="1.07152" stroke-miterlimit="10" />
    <path
        d="M11.73 27.2311V26.8775C11.73 25.3747 10.5145 24.1592 9.01171 24.1592H7.88461C6.38182 24.1592 5.16633 25.3747 5.16633 26.8775V27.2311C4.41493 27.2311 3.81824 27.8499 3.81824 28.6013C3.81824 29.3526 4.41493 29.9493 5.16633 29.9714V30.0819C5.16633 31.7173 6.49232 33.0433 8.12771 33.0433H8.74651C10.3819 33.0433 11.7079 31.7173 11.7079 30.0819V29.9714C12.4593 29.9714 13.0781 29.3526 13.0781 28.6013C13.0781 27.8278 12.4814 27.2311 11.73 27.2311Z"
        fill="white" stroke="#0059AB" stroke-width="1.07152" stroke-miterlimit="10" />
    <path d="M38.6698 30.8178V33.5803H36.062V30.8178H38.6698Z" fill="white" stroke="#0059AB" stroke-width="1.07152"
        stroke-miterlimit="10" />
    <path
        d="M45.2776 39.2158C44.1726 35.8787 41.0344 33.4919 37.3438 33.4919C33.6531 33.4919 30.5149 35.9008 29.4099 39.2158"
        fill="white" />
    <path
        d="M45.2776 39.2158C44.1726 35.8787 41.0344 33.4919 37.3438 33.4919C33.6531 33.4919 30.5149 35.9008 29.4099 39.2158"
        stroke="#0C6BC2" stroke-width="1.04949" stroke-miterlimit="10" stroke-linecap="round" stroke-linejoin="round" />
    <path
        d="M40.3715 22.7956C41.1008 23.0166 41.6533 23.7238 41.6533 24.6962V27.1493L33.0343 27.1714V24.6962C33.0343 23.1934 34.2498 22 35.7305 22H40.5704C40.5704 22.884 39.8411 23.6133 38.9571 23.6133H37.167"
        fill="#92E0FF" />
    <path
        d="M40.3715 22.7956C41.1008 23.0166 41.6533 23.7238 41.6533 24.6962V27.1493L33.0343 27.1714V24.6962C33.0343 23.1934 34.2498 22 35.7305 22H40.5704C40.5704 22.884 39.8411 23.6133 38.9571 23.6133H37.167"
        stroke="#0059AB" stroke-width="1.07152" stroke-miterlimit="10" />
    <path
        d="M40.6145 26.7073V26.3537C40.6145 24.8509 39.399 23.6354 37.8962 23.6354H36.7691C35.2663 23.6354 34.0509 24.8509 34.0509 26.3537V26.7073C33.2995 26.7073 32.7028 27.3261 32.7028 28.0775C32.7028 28.8288 33.2995 29.4255 34.0509 29.4476V29.5581C34.0509 31.1935 35.3768 32.5195 37.0122 32.5195H37.631C39.2664 32.5195 40.5924 31.1935 40.5924 29.5581V29.4476C41.3438 29.4476 41.9626 28.8288 41.9626 28.0775C41.9847 27.304 41.3659 26.7073 40.6145 26.7073Z"
        fill="white" stroke="#0059AB" stroke-width="1.07152" stroke-miterlimit="10" />
    <path d="M25.4125 29.2668V34.5223H20.4747V29.2668H25.4125Z" fill="white" stroke="#0059AB" stroke-width="1.07152"
        stroke-miterlimit="10" />
    <path
        d="M37.9523 45.2044C35.8746 38.8978 29.9102 34.3512 22.9192 34.3512C15.9037 34.3512 9.96374 38.8978 7.88599 45.2044"
        fill="#64BDFA" />
    <path
        d="M37.9523 45.2044C35.8746 38.8978 29.9102 34.3512 22.9192 34.3512C15.9037 34.3512 9.96374 38.8978 7.88599 45.2044"
        stroke="#0059AB" stroke-width="1.07152" stroke-miterlimit="10" />
    <path
        d="M28.6147 14.0625C29.9835 14.5025 31.0346 15.7981 31.0346 17.6803V22.3491L14.7059 22.398V17.7047C14.7059 14.8692 17.0037 12.5714 19.8392 12.5714H29.0058C29.0058 14.2581 27.6369 15.627 25.9503 15.627H22.5525"
        fill="#92E0FF" />
    <path
        d="M28.6147 14.0625C29.9835 14.5025 31.0346 15.7981 31.0346 17.6803V22.3491L14.7059 22.398V17.7047C14.7059 14.8692 17.0037 12.5714 19.8392 12.5714H29.0058C29.0058 14.2581 27.6369 15.627 25.9503 15.627H22.5525"
        stroke="#0059AB" stroke-width="1.07152" stroke-miterlimit="10" />
    <path
        d="M29.1035 21.4691V20.7847C29.1035 17.9491 26.8058 15.627 23.9458 15.627H21.8192C18.9837 15.627 16.6615 17.9247 16.6615 20.7847V21.4691C15.2681 21.4936 14.1193 22.6424 14.1193 24.0602C14.1193 25.478 15.2681 26.6268 16.6859 26.6513V26.8713C16.6859 29.9757 19.2036 32.4934 22.3325 32.4934H23.5058C26.6102 32.4934 29.1524 29.9757 29.1524 26.8713V26.6513C30.5946 26.6513 31.7435 25.5024 31.7435 24.0602C31.6946 22.6424 30.5457 21.4691 29.1035 21.4691Z"
        fill="white" stroke="#0059AB" stroke-width="1.07152" stroke-miterlimit="10" />
    <rect x="1" y="0.5" width="43" height="43" rx="21.5" stroke="#0059C8" stroke-linecap="round"
        stroke-dasharray="4 5" />
</svg>