<svg width="24" height="24" viewBox="0 0 24 24" fill="none" xmlns="http://www.w3.org/2000/svg">
<rect width="24" height="24" rx="12" fill="#E8F5FF"/>
<path d="M18.6665 15.28V17.28C18.6672 17.4657 18.6292 17.6494 18.5548 17.8195C18.4804 17.9897 18.3713 18.1424 18.2345 18.2679C18.0977 18.3934 17.9362 18.489 17.7603 18.5485C17.5844 18.6079 17.398 18.63 17.2131 18.6133C15.1617 18.3904 13.1911 17.6894 11.4598 16.5667C9.84901 15.5431 8.48335 14.1774 7.45979 12.5667C6.33311 10.8275 5.63195 8.84731 5.41313 6.78665C5.39647 6.60229 5.41838 6.41649 5.47746 6.24107C5.53654 6.06564 5.63151 5.90444 5.7563 5.76773C5.8811 5.63102 6.033 5.52179 6.20232 5.447C6.37164 5.37221 6.55469 5.33349 6.73979 5.33332H8.73979C9.06333 5.33013 9.37699 5.4447 9.6223 5.65567C9.86761 5.86664 10.0278 6.15961 10.0731 6.47998C10.1575 7.12003 10.3141 7.74847 10.5398 8.35332C10.6295 8.59193 10.6489 8.85126 10.5957 9.10057C10.5426 9.34988 10.419 9.57872 10.2398 9.75998L9.39313 10.6066C10.3422 12.2757 11.7241 13.6576 13.3931 14.6067L14.2398 13.76C14.4211 13.5807 14.6499 13.4572 14.8992 13.404C15.1485 13.3509 15.4078 13.3703 15.6465 13.46C16.2513 13.6857 16.8797 13.8422 17.5198 13.9267C17.8436 13.9723 18.1394 14.1355 18.3508 14.385C18.5622 14.6345 18.6746 14.953 18.6665 15.28Z" stroke="#003567" stroke-linecap="round" stroke-linejoin="round"/>
</svg>
