<svg width="10" height="11" viewBox="0 0 10 11" fill="none" xmlns="http://www.w3.org/2000/svg">
<path d="M9.1666 7.54971V8.79971C9.16707 8.91576 9.1433 9.03062 9.09681 9.13694C9.05032 9.24327 8.98214 9.33871 8.89663 9.41716C8.81112 9.49561 8.71017 9.55533 8.60024 9.59251C8.49032 9.62969 8.37384 9.64349 8.25826 9.63305C6.97611 9.49373 5.74451 9.05561 4.66243 8.35388C3.65569 7.71416 2.80215 6.86062 2.16243 5.85388C1.45826 4.76688 1.02003 3.5293 0.883265 2.24138C0.872852 2.12616 0.886546 2.01003 0.923473 1.90039C0.960401 1.79075 1.01975 1.69 1.09775 1.60456C1.17575 1.51911 1.27068 1.45084 1.37651 1.4041C1.48234 1.35735 1.59674 1.33316 1.71243 1.33305H2.96243C3.16464 1.33106 3.36068 1.40266 3.514 1.53452C3.66732 1.66638 3.76746 1.84948 3.79576 2.04971C3.84852 2.44974 3.94637 2.84252 4.08743 3.22055C4.14349 3.36968 4.15562 3.53176 4.12239 3.68758C4.08916 3.8434 4.01196 3.98643 3.89993 4.09971L3.37076 4.62888C3.96391 5.67203 4.82762 6.53573 5.87076 7.12888L6.39993 6.59972C6.51322 6.48769 6.65625 6.41049 6.81206 6.37725C6.96788 6.34402 7.12996 6.35616 7.2791 6.41221C7.65713 6.55328 8.0499 6.65112 8.44993 6.70388C8.65233 6.73244 8.83718 6.83438 8.96932 6.99034C9.10146 7.14629 9.17167 7.34537 9.1666 7.54971Z" fill="#003567"/>
</svg>
