<svg width="32" height="32" viewBox="0 0 32 32" fill="none" xmlns="http://www.w3.org/2000/svg">
<path d="M15.9993 2.6665C8.64735 2.6665 2.66602 8.64784 2.66602 15.9998C2.66602 23.3518 8.64735 29.3332 15.9993 29.3332C23.3513 29.3332 29.3327 23.3518 29.3327 15.9998C29.3327 8.64784 23.3513 2.6665 15.9993 2.6665ZM15.9993 8.13317C16.3422 8.13317 16.6773 8.23483 16.9623 8.42529C17.2474 8.61575 17.4695 8.88646 17.6007 9.20319C17.7319 9.51991 17.7663 9.86843 17.6994 10.2047C17.6325 10.5409 17.4674 10.8497 17.225 11.0922C16.9826 11.3346 16.6737 11.4997 16.3375 11.5665C16.0013 11.6334 15.6528 11.5991 15.336 11.4679C15.0193 11.3367 14.7486 11.1145 14.5581 10.8295C14.3677 10.5444 14.266 10.2093 14.266 9.8665C14.266 9.4068 14.4486 8.96592 14.7737 8.64085C15.0988 8.31579 15.5396 8.13317 15.9993 8.13317V8.13317ZM19.1993 23.1998H13.3327C13.0498 23.1998 12.7785 23.0875 12.5784 22.8874C12.3784 22.6874 12.266 22.4161 12.266 22.1332C12.266 21.8503 12.3784 21.579 12.5784 21.3789C12.7785 21.1789 13.0498 21.0665 13.3327 21.0665H15.1993V15.1998H14.1327C13.8498 15.1998 13.5785 15.0875 13.3784 14.8874C13.1784 14.6874 13.066 14.4161 13.066 14.1332C13.066 13.8503 13.1784 13.579 13.3784 13.3789C13.5785 13.1789 13.8498 13.0665 14.1327 13.0665H16.266C16.5489 13.0665 16.8202 13.1789 17.0203 13.3789C17.2203 13.579 17.3327 13.8503 17.3327 14.1332V21.0665H19.1993C19.4822 21.0665 19.7536 21.1789 19.9536 21.3789C20.1536 21.579 20.266 21.8503 20.266 22.1332C20.266 22.4161 20.1536 22.6874 19.9536 22.8874C19.7536 23.0875 19.4822 23.1998 19.1993 23.1998Z" fill="#51B747"/>
</svg>
