<svg width="24" height="24" viewBox="0 0 24 24" fill="none" xmlns="http://www.w3.org/2000/svg">
<mask id="path-1-inside-1_9710_62675" fill="white">
<path d="M7 11V7.44444C7 6.2657 7.52678 5.13524 8.46447 4.30175C9.40215 3.46825 10.6739 3 12 3C13.3261 3 14.5979 3.46825 15.5355 4.30175C16.4732 5.13524 17 6.2657 17 7.44444V11"/>
</mask>
<path d="M7 7.44444H5H7ZM9 11V7.44444H5V11H9ZM9 7.44444C9 6.87725 9.25144 6.27813 9.79319 5.79657L7.13574 2.80693C5.80213 3.99236 5 5.65416 5 7.44444H9ZM9.79319 5.79657C10.3426 5.30818 11.1333 5 12 5V1C10.2146 1 8.46167 1.62832 7.13574 2.80693L9.79319 5.79657ZM12 5C12.8667 5 13.6574 5.30818 14.2068 5.79657L16.8643 2.80693C15.5383 1.62832 13.7854 1 12 1V5ZM14.2068 5.79657C14.7486 6.27813 15 6.87725 15 7.44444H19C19 5.65416 18.1979 3.99236 16.8643 2.80693L14.2068 5.79657ZM15 7.44444V11H19V7.44444H15Z" fill="url(#paint0_linear_9710_62675)" mask="url(#path-1-inside-1_9710_62675)"/>
<path d="M19 10H5C3.89543 10 3 10.9768 3 12.1818V19.8182C3 21.0232 3.89543 22 5 22H19C20.1046 22 21 21.0232 21 19.8182V12.1818C21 10.9768 20.1046 10 19 10Z" fill="url(#paint1_linear_9710_62675)"/>
<path fill-rule="evenodd" clip-rule="evenodd" d="M13 16.7306C13.597 16.3844 14 15.7391 14 14.9999C14 13.8951 13.0995 13 11.9965 13C10.8935 13 10 13.8951 10 14.9999C10 15.7412 10.4022 16.3881 11 16.7336V18C11 18.5523 11.4477 19 12 19C12.5523 19 13 18.5523 13 18V16.7306Z" fill="#290000"/>
<defs>
<linearGradient id="paint0_linear_9710_62675" x1="12" y1="8" x2="12" y2="1" gradientUnits="userSpaceOnUse">
<stop offset="0.0168" stop-color="#CCCCCC"/>
<stop offset="1" stop-color="#F2F2F2"/>
</linearGradient>
<linearGradient id="paint1_linear_9710_62675" x1="12" y1="22" x2="12" y2="10" gradientUnits="userSpaceOnUse">
<stop stop-color="#F79808"/>
<stop offset="1" stop-color="#ECBD0B"/>
</linearGradient>
</defs>
</svg>
