<svg width="20" height="20" viewBox="0 0 20 20" fill="none" xmlns="http://www.w3.org/2000/svg">
<path fill-rule="evenodd" clip-rule="evenodd" d="M0.190054 4.32776L0.0198354 4.48848L0.00576361 8.26771C-0.00950706 12.3612 -0.0150317 12.2733 0.267919 12.4431C0.332129 12.4816 0.560563 12.5258 0.775551 12.5412L1.16644 12.5692L1.1925 13.3257C1.21741 14.0495 1.22445 14.0885 1.35391 14.2252C1.62675 14.5131 2.15804 14.4153 2.28829 14.0532C2.31622 13.9755 2.3391 13.6036 2.3391 13.2268V12.5416H5.20561C6.78219 12.5416 8.07212 12.5542 8.07212 12.5696C8.07212 12.5849 7.91467 12.8886 7.7222 13.2445C7.31953 13.989 7.27289 14.2434 7.49345 14.4915C7.67936 14.7007 7.91895 14.7688 8.13279 14.6732C8.36289 14.5703 8.40693 14.5091 8.85416 13.6711C9.06446 13.2772 9.29138 12.8619 9.35856 12.7483L9.48062 12.5416H13.5419H17.6033L18.1145 13.4921C18.3956 14.0148 18.6791 14.4955 18.7445 14.5603C18.9908 14.8046 19.4214 14.75 19.5928 14.4529C19.7669 14.151 19.7254 13.9549 19.3337 13.2304L18.9763 12.5692L19.2963 12.5406C19.6755 12.5068 19.8217 12.4304 19.9296 12.21C19.9993 12.0674 20.0076 11.5726 19.9952 8.26771L19.9812 4.48848L19.8109 4.32776L19.6407 4.16699H10.0005H0.360272L0.190054 4.32776ZM18.8085 8.32677V11.2744H10.0005H1.1925V8.32677V5.37911H10.0005H18.8085V8.32677ZM10.8162 13.2055C10.1915 13.3163 9.59721 13.809 9.30696 14.4567C9.15514 14.7955 9.14081 14.8741 9.1432 15.3516C9.1455 15.7966 9.16645 15.9222 9.2832 16.1906C9.64813 17.0296 10.3311 17.5003 11.1837 17.5003C11.8489 17.5003 12.4225 17.2031 12.8109 16.6571C13.7418 15.3488 13.0297 13.467 11.5047 13.2054C11.3224 13.1742 11.1497 13.1513 11.121 13.1546C11.0924 13.158 10.9552 13.1808 10.8162 13.2055ZM15.5347 13.2093C14.6902 13.3578 14.0015 14.1005 13.8626 15.0127C13.722 15.9353 14.1886 16.8733 14.9973 17.2942C15.3184 17.4613 15.3756 17.4728 15.8899 17.4728C16.4041 17.4728 16.4613 17.4613 16.7825 17.2942C17.1957 17.0791 17.5617 16.6851 17.7568 16.2451C17.8818 15.9631 17.8964 15.8666 17.8962 15.324C17.8959 14.7522 17.8867 14.6993 17.7326 14.3874C17.5372 13.9918 17.0798 13.5176 16.7493 13.3679C16.5509 13.278 15.9312 13.1329 15.8378 13.1545C15.8234 13.1579 15.6871 13.1825 15.5347 13.2093ZM11.6899 14.6004C12.0144 14.8621 12.1197 15.209 12.0018 15.6283C11.9146 15.939 11.7079 16.1477 11.401 16.235C11.0106 16.3462 10.5611 16.1351 10.3937 15.7621C10.275 15.4976 10.3045 15.0236 10.4529 14.8121C10.7434 14.3978 11.3169 14.2997 11.6899 14.6004ZM16.1862 14.4735C16.3858 14.5533 16.6173 14.791 16.7041 15.0054C16.9651 15.6502 16.3979 16.3793 15.7282 16.2597C15.4786 16.2151 15.1757 15.9553 15.0743 15.6986C14.7885 14.9756 15.4948 14.1974 16.1862 14.4735Z" fill="#2E5B83"/>
</svg>
