<svg width="98" height="98" viewBox="0 0 98 98" fill="none" xmlns="http://www.w3.org/2000/svg">
    <g clip-path="url(#clip0_6601_251082)">
        <path d="M85.7339 13.0553C74.9385 13.0553 64.4728 9.33571 56.0987 2.52298C51.964 -0.840914 46.036 -0.840914 41.9013 2.52298C33.5273 9.33591 23.0615 13.0553 12.2663 13.0553C8.89532 13.0553 6.16266 15.788 6.16266 19.159V35.5177C6.16266 56.5033 15.6124 76.3735 31.8913 89.6175L36.9156 93.7051C43.9545 99.4317 54.0462 99.4317 61.0851 93.7051L66.1095 89.6175C82.3882 76.3737 91.8381 56.5025 91.8381 35.5169C91.8381 29.2364 91.8381 23.3343 91.8381 19.1576C91.8375 15.7866 89.1049 13.0553 85.7339 13.0553V13.0553Z" fill="url(#paint0_linear_6601_251082)"/>
        <path d="M49 92.6144C47.8232 92.6144 46.6722 92.2053 45.7593 91.4626L36.1497 83.6445C29.1308 77.934 23.3665 70.5963 19.4803 62.4248C15.5941 54.2534 13.5399 45.1513 13.5399 36.1028V23.1211C13.5399 21.5506 14.8239 20.2151 16.3923 20.1323C27.0872 19.5667 37.4266 15.6008 45.7593 8.82153C46.6724 8.07865 47.8232 7.66974 49 7.66974C50.177 7.66974 51.3278 8.07865 52.2407 8.82133C60.5738 15.6008 70.9134 19.5667 81.6083 20.1323C83.1763 20.2151 84.46 21.5504 84.46 23.1207V36.102C84.46 45.1507 82.4059 54.2528 78.5197 62.4245C74.6335 70.5963 68.8694 77.934 61.8505 83.6445L52.2407 91.4626C51.3278 92.2055 50.177 92.6144 49 92.6144V92.6144Z" fill="url(#paint1_linear_6601_251082)"/>
        <path d="M49 89.0305C47.9224 89.0305 46.8686 88.656 46.0327 87.9759L37.234 80.8177C30.8074 75.5891 25.5296 68.8705 21.9714 61.3887C18.4132 53.9069 16.5324 45.5729 16.5324 37.2878V25.4016C16.5324 23.9637 17.708 22.741 19.144 22.6649C28.9363 22.147 38.4033 18.5158 46.0327 12.3086C46.8688 11.6286 47.9226 11.2538 49 11.2538C50.0776 11.2538 51.1314 11.6284 51.9671 12.3084C59.5969 18.5158 69.0641 22.147 78.8564 22.6649C80.2922 22.7408 81.4676 23.9633 81.4676 25.401V37.2869C81.4676 45.5719 79.5868 53.9059 76.0286 61.3881C72.4704 68.8703 67.1926 75.5889 60.766 80.8175L51.9671 87.9757C51.1314 88.656 50.0776 89.0305 49 89.0305V89.0305Z" fill="url(#paint2_linear_6601_251082)"/>
        <path d="M91.8375 19.1577C91.8375 15.7866 89.1049 13.0553 85.7339 13.0553C74.9385 13.0553 64.4729 9.33575 56.0987 2.52302C54.0312 0.841071 51.5157 0 49 0V98C53.2826 98 57.5652 96.5684 61.0847 93.7051L66.1091 89.6175C82.3878 76.3737 91.8375 56.5026 91.8377 35.5169C91.8375 29.2363 91.8375 23.3342 91.8375 19.1577V19.1577Z" fill="url(#paint3_linear_6601_251082)"/>
        <path d="M80.9799 28.518C79.0601 26.5984 75.9475 26.9919 74.0277 28.9115L50.0755 52.8635C49.842 53.097 49.1822 53.5395 49 53.5395C48.8178 53.5395 48.5515 53.4905 48.3178 53.2569L39.1366 44.0756C37.2167 42.1559 34.301 42.1559 32.3811 44.0756C30.4613 45.9954 30.2645 48.7145 32.1844 50.6343L68.8317 87.2817C82.4997 74.9427 90.7342 57.6899 91.7338 39.309L80.9799 28.518Z" fill="url(#paint4_linear_6601_251082)"/>
        <path d="M66.1091 89.6174C77.7282 80.1644 85.867 67.3347 89.5751 53.1337L67.4223 30.9811C62.799 26.098 56.2557 23.4447 49.0002 23.4447C35.1766 23.4445 24.0273 34.594 24.0275 48.4176C24.0275 55.6731 26.6808 62.2162 31.5641 66.8395L58.1889 93.4644C59.0023 94.2778 60.2994 94.3442 61.1918 93.6183L66.1091 89.6174Z" fill="url(#paint5_linear_6601_251082)"/>
        <path d="M49 73.7831C63.0093 73.7831 74.366 62.4263 74.366 48.417C74.366 34.4077 63.0093 23.051 49 23.051C34.9907 23.051 23.6339 34.4077 23.6339 48.417C23.6339 62.4263 34.9907 73.7831 49 73.7831Z" fill="url(#paint6_linear_6601_251082)"/>
        <path d="M69.4837 33.4554L50.0755 52.8635C49.842 53.0969 49.1822 53.5395 49 53.5395C48.8178 53.5395 48.5515 53.4905 48.3178 53.2568L39.1366 44.0756C37.2167 42.1559 34.301 42.1559 32.3811 44.0756C30.4613 45.9954 30.2645 48.7144 32.1844 50.6343L54.6917 73.1416C65.9603 70.5581 74.3661 60.4694 74.3661 48.417C74.3661 42.8214 72.5527 37.65 69.4837 33.4554V33.4554Z" fill="url(#paint7_linear_6601_251082)"/>
        <path d="M49 62.9779C46.1161 62.9779 43.4048 61.8547 41.3656 59.8155L32.1844 50.6345C30.2645 48.7146 30.2645 45.6021 32.1844 43.6822C34.104 41.7626 37.2166 41.7626 39.1366 43.6822L48.3178 52.8635C48.5515 53.0971 48.8178 53.1461 49 53.1461C49.1822 53.1461 49.4485 53.0971 49.6822 52.8635L74.0277 28.518C75.9475 26.5983 79.0601 26.5983 80.9799 28.518C82.8997 30.4378 82.8997 33.5504 80.9799 35.4702L56.6344 59.8155C54.5952 61.8547 51.8839 62.9779 49 62.9779V62.9779Z" fill="url(#paint8_linear_6601_251082)"/>
    </g>
    <defs>
        <linearGradient id="paint0_linear_6601_251082" x1="13.1084" y1="4.62652" x2="86.9861" y2="78.5043" gradientUnits="userSpaceOnUse">
            <stop stop-color="#B5DBFF"/>
            <stop offset="1" stop-color="#76E2F8"/>
        </linearGradient>
        <linearGradient id="paint1_linear_6601_251082" x1="97.2064" y1="89.9006" x2="31.84" y2="24.534" gradientUnits="userSpaceOnUse">
            <stop stop-color="#B5DBFF" stop-opacity="0"/>
            <stop offset="0.2428" stop-color="#93CEF6" stop-opacity="0.243"/>
            <stop offset="0.5763" stop-color="#6ABFEC" stop-opacity="0.576"/>
            <stop offset="0.8403" stop-color="#51B5E5" stop-opacity="0.84"/>
            <stop offset="1" stop-color="#48B2E3"/>
        </linearGradient>
        <linearGradient id="paint2_linear_6601_251082" x1="36.3617" y1="29.7687" x2="65.0757" y2="58.4827" gradientUnits="userSpaceOnUse">
            <stop stop-color="#EDF5FF"/>
            <stop offset="1" stop-color="#D5E8FE"/>
        </linearGradient>
        <linearGradient id="paint3_linear_6601_251082" x1="57.9034" y1="50.6508" x2="-1.08742" y2="22.3354" gradientUnits="userSpaceOnUse">
            <stop stop-color="#B5DBFF" stop-opacity="0"/>
            <stop offset="0.1734" stop-color="#8FC5E9" stop-opacity="0.173"/>
            <stop offset="0.4541" stop-color="#56A4C8" stop-opacity="0.454"/>
            <stop offset="0.6955" stop-color="#2D8DB1" stop-opacity="0.696"/>
            <stop offset="0.8853" stop-color="#147EA2" stop-opacity="0.885"/>
            <stop offset="1" stop-color="#0B799D"/>
        </linearGradient>
        <linearGradient id="paint4_linear_6601_251082" x1="80.4699" y1="62.1018" x2="60.2819" y2="46.7641" gradientUnits="userSpaceOnUse">
            <stop stop-color="#B5DBFF" stop-opacity="0"/>
            <stop offset="0.1734" stop-color="#8FC5E9" stop-opacity="0.173"/>
            <stop offset="0.4541" stop-color="#56A4C8" stop-opacity="0.454"/>
            <stop offset="0.6955" stop-color="#2D8DB1" stop-opacity="0.696"/>
            <stop offset="0.8853" stop-color="#147EA2" stop-opacity="0.885"/>
            <stop offset="1" stop-color="#0B799D"/>
        </linearGradient>
        <linearGradient id="paint5_linear_6601_251082" x1="77.0714" y1="76.4887" x2="43.425" y2="42.8422" gradientUnits="userSpaceOnUse">
            <stop stop-color="#B5DBFF" stop-opacity="0"/>
            <stop offset="0.1734" stop-color="#8FC5E9" stop-opacity="0.173"/>
            <stop offset="0.4541" stop-color="#56A4C8" stop-opacity="0.454"/>
            <stop offset="0.6955" stop-color="#2D8DB1" stop-opacity="0.696"/>
            <stop offset="0.8853" stop-color="#147EA2" stop-opacity="0.885"/>
            <stop offset="1" stop-color="#0B799D"/>
        </linearGradient>
        <linearGradient id="paint6_linear_6601_251082" x1="37.2018" y1="36.619" x2="61.6512" y2="61.0682" gradientUnits="userSpaceOnUse">
            <stop stop-color="#B9DD39"/>
            <stop offset="1" stop-color="#90CC1C"/>
        </linearGradient>
        <linearGradient id="paint7_linear_6601_251082" x1="72.0561" y1="63.267" x2="62.9646" y2="54.1753" gradientUnits="userSpaceOnUse">
            <stop stop-color="#66BB00" stop-opacity="0"/>
            <stop offset="1" stop-color="#66BB00"/>
        </linearGradient>
        <linearGradient id="paint8_linear_6601_251082" x1="46.7675" y1="29.7614" x2="72.0905" y2="55.0844" gradientUnits="userSpaceOnUse">
            <stop stop-color="#0B799D"/>
            <stop offset="1" stop-color="#07485E"/>
        </linearGradient>
        <clipPath id="clip0_6601_251082">
            <rect width="98" height="98" fill="white"/>
        </clipPath>
    </defs>
</svg>
