<svg width="17" height="16" viewBox="0 0 17 16" fill="none" xmlns="http://www.w3.org/2000/svg">
<g clip-path="url(#clip0_4944_29422)">
<path d="M10.9167 2H0.916656V10.6667H10.9167V2Z" stroke="#036FE3" stroke-width="1.5" stroke-linecap="round" stroke-linejoin="round"/>
<path d="M10.9167 5.33301H13.5833L15.5833 7.33301V10.6663H10.9167V5.33301Z" stroke="#036FE3" stroke-width="1.5" stroke-linecap="round" stroke-linejoin="round"/>
<path d="M3.91667 14.0003C4.83714 14.0003 5.58333 13.2541 5.58333 12.3337C5.58333 11.4132 4.83714 10.667 3.91667 10.667C2.99619 10.667 2.25 11.4132 2.25 12.3337C2.25 13.2541 2.99619 14.0003 3.91667 14.0003Z" stroke="#036FE3" stroke-width="1.5" stroke-linecap="round" stroke-linejoin="round"/>
<path d="M12.5833 14.0003C13.5038 14.0003 14.25 13.2541 14.25 12.3337C14.25 11.4132 13.5038 10.667 12.5833 10.667C11.6628 10.667 10.9167 11.4132 10.9167 12.3337C10.9167 13.2541 11.6628 14.0003 12.5833 14.0003Z" stroke="#036FE3" stroke-width="1.5" stroke-linecap="round" stroke-linejoin="round"/>
</g>
<defs>
<clipPath id="clip0_4944_29422">
<rect width="16" height="16" fill="white" transform="translate(0.25)"/>
</clipPath>
</defs>
</svg>
