<svg width="36" height="36" viewBox="0 0 36 36" fill="none" xmlns="http://www.w3.org/2000/svg">
<rect width="36" height="36" rx="18" fill="white"/>
<path d="M10.5 13H12.1667H25.5" stroke="#2E5B83" stroke-width="2" stroke-linecap="round" stroke-linejoin="round"/>
<path d="M14.6667 13V11.3333C14.6667 10.8913 14.8423 10.4673 15.1548 10.1548C15.4674 9.84222 15.8913 9.66663 16.3333 9.66663H19.6667C20.1087 9.66663 20.5326 9.84222 20.8452 10.1548C21.1577 10.4673 21.3333 10.8913 21.3333 11.3333V13M23.8333 13V24.6666C23.8333 25.1087 23.6577 25.5326 23.3452 25.8451C23.0326 26.1577 22.6087 26.3333 22.1667 26.3333H13.8333C13.3913 26.3333 12.9674 26.1577 12.6548 25.8451C12.3423 25.5326 12.1667 25.1087 12.1667 24.6666V13H23.8333Z" stroke="#2E5B83" stroke-width="2" stroke-linecap="round" stroke-linejoin="round"/>
<path d="M16.3333 17.1666V22.1666" stroke="#2E5B83" stroke-width="2" stroke-linecap="round" stroke-linejoin="round"/>
<path d="M19.6667 17.1666V22.1666" stroke="#2E5B83" stroke-width="2" stroke-linecap="round" stroke-linejoin="round"/>
</svg>
