<svg width="32" height="32" viewBox="0 0 32 32" fill="none" xmlns="http://www.w3.org/2000/svg">
<path d="M4 8H6.66667H28" fill="#DA294A"/>
<path d="M4 8H6.66667H28" stroke="#DA294A" stroke-width="2" stroke-linecap="round" stroke-linejoin="round"/>
<path d="M10.6665 8.00002V5.33335C10.6665 4.62611 10.9475 3.94783 11.4476 3.44774C11.9477 2.94764 12.6259 2.66669 13.3332 2.66669H18.6665C19.3737 2.66669 20.052 2.94764 20.5521 3.44774C21.0522 3.94783 21.3332 4.62611 21.3332 5.33335V8.00002M25.3332 8.00002V26.6667C25.3332 27.3739 25.0522 28.0522 24.5521 28.5523C24.052 29.0524 23.3737 29.3334 22.6665 29.3334H9.33317C8.62593 29.3334 7.94765 29.0524 7.44755 28.5523C6.94746 28.0522 6.6665 27.3739 6.6665 26.6667V8.00002H25.3332Z" stroke="#DA294A" stroke-width="2" stroke-linecap="round" stroke-linejoin="round"/>
<path d="M13.3335 14.6667V22.6667" stroke="#DA294A" stroke-width="2" stroke-linecap="round" stroke-linejoin="round"/>
<path d="M18.6665 14.6667V22.6667" stroke="#DA294A" stroke-width="2" stroke-linecap="round" stroke-linejoin="round"/>
</svg>
