<svg width="24" height="24" viewBox="0 0 24 24" fill="none" xmlns="http://www.w3.org/2000/svg">
<rect width="24" height="24" rx="12" fill="#E8F5FF"/>
<path d="M7.76037 15.8335C7.48767 15.8418 7.27328 16.0696 7.28154 16.3423C7.2898 16.6149 7.5176 16.8293 7.7903 16.8211C8.05138 16.8132 8.26117 16.6034 8.26912 16.3423C8.26912 16.0613 8.04136 15.8335 7.76037 15.8335Z" fill="#003567"/>
<path d="M16.3284 15.8337C16.3234 15.8336 16.3184 15.8335 16.3134 15.8335C16.0324 15.8335 15.8046 16.0613 15.8046 16.3423C15.8204 16.6105 16.0448 16.8186 16.3134 16.8141C16.5793 16.8183 16.7994 16.6081 16.8074 16.3423C16.8155 16.0696 16.601 15.8419 16.3284 15.8337Z" fill="#003567"/>
<path d="M19.6387 10.8711H18.1641L16.7484 8.6591C16.6807 8.55361 16.5641 8.48971 16.4387 8.4895H15.1926V6.1448C15.1926 5.94119 15.0276 5.77612 14.824 5.77612H4.36868C4.16507 5.77612 4 5.94119 4 6.1448V16.4674C4 16.671 4.16507 16.8361 4.36868 16.8361H5.96867C6.18261 17.6509 6.91795 18.2198 7.76037 18.2223C8.60822 18.2311 9.35179 17.6581 9.55944 16.8361H14.5216C14.7776 17.8256 15.7873 18.4203 16.7769 18.1643C17.4281 17.9958 17.9366 17.4873 18.1051 16.8361H19.6313C19.8349 16.8361 20 16.671 20 16.4674V11.2176C19.9885 11.0255 19.8311 10.8746 19.6387 10.8711ZM6.06451 15.5752C6.0166 15.699 5.98201 15.8275 5.96127 15.9586C5.96127 15.9586 5.96127 15.9586 5.96127 16.0102H4.73732V15.2139H6.27095C6.18858 15.3261 6.11932 15.4473 6.06451 15.5752ZM8.8 16.2978C8.8 16.2978 8.8 16.3715 8.8 16.3863C8.78573 16.9599 8.33514 17.4272 7.76269 17.4626C7.18709 17.4516 6.71044 17.0114 6.65438 16.4379C6.65718 16.4109 6.65718 16.3837 6.65438 16.3568C6.64619 15.7419 7.13797 15.2368 7.7528 15.2287C7.76269 15.2285 7.77261 15.2285 7.78249 15.2287C7.85853 15.2215 7.93505 15.2215 8.01105 15.2287H8.05529L8.21749 15.2803H8.26909L8.40917 15.354L8.45341 15.3909L8.57137 15.4867L8.62298 15.5531L8.70409 15.6563L8.74833 15.7448C8.76734 15.7782 8.78459 15.8127 8.79993 15.848C8.79993 15.848 8.79993 15.9217 8.79993 15.9512C8.80177 15.9881 8.80177 16.025 8.79993 16.0618C8.79993 16.0618 8.79993 16.1356 8.79993 16.1724C8.80218 16.2142 8.80218 16.2561 8.8 16.2978ZM8.6894 14.4766H4.73732V6.51347H14.4553V12.1098H13.2608V8.83606C13.2608 8.63245 13.0957 8.46738 12.8921 8.46738C12.6885 8.46738 12.5235 8.63245 12.5235 8.83606V12.1098H11.565V8.83606C11.565 8.63245 11.3999 8.46738 11.1963 8.46738C10.9927 8.46738 10.8276 8.63245 10.8276 8.83606V12.1614C10.8164 12.2124 10.8164 12.2652 10.8276 12.3162L8.6894 14.4766ZM14.4406 12.8692V14.4987H9.7364L11.3585 12.8692H14.4406ZM14.8608 15.3172C14.7578 15.4145 14.6663 15.5234 14.588 15.6416C14.5353 15.7745 14.4982 15.9131 14.4774 16.0545C14.4774 16.0545 14.4774 16.0545 14.4774 16.0988H9.61108C9.61108 16.0988 9.61108 16.0988 9.61108 16.0472C9.58716 15.908 9.54758 15.7719 9.49311 15.6416C9.43833 15.5137 9.36907 15.3925 9.28667 15.2804H14.8609V15.3172H14.8608ZM16.8 10.0895L17.3014 10.871H16.8V10.0895ZM17.4562 16.4379C17.3991 17.0224 16.9056 17.4665 16.3189 17.4627C15.7419 17.4533 15.2636 17.0124 15.2074 16.4379C15.2108 16.4134 15.2108 16.3886 15.2074 16.3642C15.2577 15.7431 15.8019 15.2805 16.4229 15.3309C16.974 15.3755 17.4116 15.813 17.4563 16.3642V16.4379H17.4562ZM15.1926 14.4692V9.23421H16.0627V11.2176C16.0627 11.4212 16.2277 11.5863 16.4313 11.5863H18.1936L18.1641 11.6084H19.2553V12.0877H18.6507C18.4471 12.0877 18.282 12.2528 18.282 12.4564C18.282 12.66 18.4471 12.8251 18.6507 12.8251H19.2553V13.1716H18.6507C18.4471 13.1716 18.282 13.3367 18.282 13.5403C18.282 13.7439 18.4471 13.909 18.6507 13.909H19.2553V14.4693H15.1926V14.4692ZM19.27 16.0766H18.1641C18.1641 16.0766 18.1641 16.0766 18.1641 16.025C18.1433 15.8939 18.1087 15.7654 18.0608 15.6416C18.006 15.5137 17.9368 15.3924 17.8544 15.2803H19.329L19.27 16.0766Z" fill="#003567"/>
<path d="M6.06448 8.46753C5.86087 8.46753 5.6958 8.6326 5.6958 8.8362V12.1615C5.6958 12.3651 5.86087 12.5302 6.06448 12.5302C6.26808 12.5302 6.43315 12.3651 6.43315 12.1615V8.8362C6.43315 8.6326 6.26808 8.46753 6.06448 8.46753Z" fill="#003567"/>
<path d="M7.7604 8.46753C7.55679 8.46753 7.39172 8.6326 7.39172 8.8362V12.1615C7.39172 12.3651 7.55679 12.5302 7.7604 12.5302C7.964 12.5302 8.12907 12.3651 8.12907 12.1615V12.1542V8.8362C8.12907 8.6326 7.964 8.46753 7.7604 8.46753Z" fill="#003567"/>
<path d="M9.49306 8.46753C9.28946 8.46753 9.12439 8.6326 9.12439 8.8362V12.1615C9.1284 12.3623 9.29229 12.5229 9.49306 12.5228C9.69667 12.5228 9.86174 12.3578 9.86174 12.1541V8.83617C9.86174 8.6326 9.69667 8.46753 9.49306 8.46753Z" fill="#003567"/>
</svg>
