<svg width="44" height="44" viewBox="0 0 44 44" fill="none" xmlns="http://www.w3.org/2000/svg">
    <g clip-path="url(#clip0_8876_317054)">
        <path d="M10.9085 29.2939L10.1941 30.0083C10.0095 30.1929 10.0095 30.4922 10.1941 30.6768C10.2864 30.7691 10.4074 30.8152 10.5283 30.8152C10.6492 30.8152 10.7702 30.7691 10.8625 30.6768L11.5769 29.9623C11.7615 29.7777 11.7615 29.4784 11.5769 29.2939C11.3924 29.1093 11.0931 29.1092 10.9085 29.2939Z" fill="#0A2C08"/>
        <path d="M15.9143 29.2938C15.7297 29.1092 15.4304 29.1093 15.2459 29.2938C15.0613 29.4784 15.0613 29.7777 15.2459 29.9623L15.9603 30.6767C16.0525 30.7691 16.1735 30.8152 16.2945 30.8152C16.4154 30.8152 16.5364 30.7691 16.6287 30.6767C16.8133 30.4922 16.8133 30.1929 16.6287 30.0083L15.9143 29.2938Z" fill="#0A2C08"/>
        <path d="M6.59961 19.0666H26.3996L27.4996 17.6H28.9663L28.5996 27.8666H6.59961V19.0666Z" fill="#8FD28C"/>
        <path d="M31.0695 29.2938C30.8849 29.1092 30.5857 29.1093 30.4011 29.2938C30.2165 29.4784 30.2165 29.7777 30.4011 29.9623L31.1155 30.6767C31.2078 30.7691 31.3288 30.8152 31.4497 30.8152C31.5707 30.8152 31.6917 30.7691 31.7839 30.6767C31.9685 30.4922 31.9685 30.1929 31.7839 30.0083L31.0695 29.2938Z" fill="#0A2C08"/>
        <path d="M38.0064 23.9375L36.8134 19.9606C36.6237 19.3285 36.0529 18.9038 35.3929 18.9038H31.5981C31.0588 18.9038 30.6202 19.3424 30.6202 19.8816V20.9245H29.5448V17.8284H32.1032C32.3643 17.8284 32.5759 17.6167 32.5759 17.3557C32.5759 17.0947 32.3643 16.8831 32.1032 16.8831H28.1843C27.6533 16.8831 27.154 17.0899 26.7785 17.4654L25.6455 18.5983C25.4485 18.7953 25.1866 18.9038 24.9081 18.9038H6.84404C6.30484 18.9038 5.86621 19.3424 5.86621 19.8816V26.9542C5.86621 27.4934 6.30484 27.932 6.84404 27.932H8.70322C8.19773 28.469 7.88697 29.1913 7.88697 29.9853C7.88697 31.6387 9.23215 32.9839 10.8856 32.9839C11.9455 32.9839 12.8781 32.4305 13.4115 31.5981C13.9449 32.4305 14.8775 32.9839 15.9374 32.9839C17.43 32.9839 18.671 31.8876 18.8984 30.4579H28.1319C28.3593 31.8876 29.6003 32.9839 31.0929 32.9839C32.5855 32.9839 33.8265 31.8876 34.0539 30.4579H36.6499C37.4677 30.4579 38.1329 29.7927 38.1329 28.9749V24.7992C38.1329 24.507 38.0903 24.2171 38.0064 23.9375ZM35.908 20.2322L36.7218 22.9452H34.124C33.8275 22.9452 33.5863 22.704 33.5863 22.4075V19.8491H35.393C35.6322 19.8491 35.8392 20.003 35.908 20.2322ZM6.81152 26.9541V19.8816C6.81152 19.8636 6.82608 19.8491 6.84404 19.8491H24.9081C25.4391 19.8491 25.9384 19.6423 26.3139 19.2668L27.4469 18.1338C27.6438 17.9368 27.9057 17.8284 28.1843 17.8284H28.5995V25.4386C28.5995 26.2923 27.905 26.9867 27.0514 26.9867H19.9788C19.7178 26.9867 19.5062 27.1983 19.5062 27.4593C19.5062 27.7204 19.7178 27.932 19.9788 27.932H27.0514C28.4263 27.932 29.5448 26.8134 29.5448 25.4386V21.8698H30.6202V22.4075C30.6202 22.6686 30.8318 22.8802 31.0929 22.8802C31.3539 22.8802 31.5655 22.6686 31.5655 22.4075V19.8816C31.5655 19.8636 31.5801 19.8491 31.5981 19.8491H32.6409V22.4075C32.6409 23.2253 33.3062 23.8905 34.1239 23.8905H37.0054L37.101 24.2092C37.1584 24.4007 37.1876 24.5991 37.1876 24.7991V25.4712H36.6499C36.3888 25.4712 36.1772 25.6828 36.1772 25.9438C36.1772 26.2048 36.3888 26.4165 36.6499 26.4165H37.1876V27.4919H32.7563C32.4045 27.2564 32.0005 27.0934 31.5655 27.0242V24.4282C31.5655 24.1671 31.3538 23.9555 31.0928 23.9555C30.8318 23.9555 30.6202 24.1671 30.6202 24.4282V27.0242C29.3446 27.2271 28.3347 28.237 28.1318 29.5126H18.8984C18.671 28.0829 17.43 26.9866 15.9374 26.9866H6.84404C6.82608 26.9867 6.81152 26.9721 6.81152 26.9541ZM13.755 27.932C13.6274 28.0676 13.5123 28.215 13.4114 28.3724C13.3105 28.215 13.1955 28.0676 13.0679 27.932H13.755ZM10.8855 32.0385C9.75334 32.0385 8.83222 31.1174 8.83222 29.9852C8.83222 28.853 9.75334 27.9319 10.8855 27.9319C12.0177 27.9319 12.9388 28.853 12.9388 29.9852C12.9388 31.1174 12.0177 32.0385 10.8855 32.0385ZM15.9374 32.0385C14.8052 32.0385 13.8841 31.1174 13.8841 29.9852C13.8841 28.853 14.8052 27.9319 15.9374 27.9319C17.0695 27.9319 17.9907 28.853 17.9907 29.9852C17.9907 31.1174 17.0695 32.0385 15.9374 32.0385ZM31.0929 32.0385C29.9607 32.0385 29.0396 31.1174 29.0396 29.9852C29.0396 28.853 29.9607 27.9319 31.0929 27.9319C32.225 27.9319 33.1462 28.853 33.1462 29.9852C33.1462 31.1174 32.225 32.0385 31.0929 32.0385ZM36.6499 29.5126H34.0539C33.9922 29.1244 33.8559 28.7608 33.66 28.4371H37.1876V28.9748C37.1876 29.2714 36.9463 29.5126 36.6499 29.5126Z" fill="#0A2C08"/>
        <path d="M8.86523 21.4297C8.6042 21.4297 8.39258 21.6413 8.39258 21.9023V24.9335C8.39258 25.1945 8.6042 25.4061 8.86523 25.4061C9.12627 25.4061 9.33789 25.1945 9.33789 24.9335V21.9023C9.33789 21.6413 9.12627 21.4297 8.86523 21.4297Z" fill="#0A2C08"/>
        <path d="M11.3906 25.4061C11.6517 25.4061 11.8633 25.1945 11.8633 24.9335V21.9023C11.8633 21.6413 11.6517 21.4297 11.3906 21.4297C11.1296 21.4297 10.918 21.6413 10.918 21.9023V24.9335C10.918 25.1945 11.1296 25.4061 11.3906 25.4061Z" fill="#0A2C08"/>
        <path d="M13.917 25.4061C14.178 25.4061 14.3896 25.1945 14.3896 24.9335V21.9023C14.3896 21.6413 14.178 21.4297 13.917 21.4297C13.656 21.4297 13.4443 21.6413 13.4443 21.9023V24.9335C13.4443 25.1945 13.656 25.4061 13.917 25.4061Z" fill="#0A2C08"/>
        <path d="M16.4424 25.4061C16.7034 25.4061 16.915 25.1945 16.915 24.9335V21.9023C16.915 21.6413 16.7034 21.4297 16.4424 21.4297C16.1814 21.4297 15.9697 21.6413 15.9697 21.9023V24.9335C15.9697 25.1945 16.1814 25.4061 16.4424 25.4061Z" fill="#0A2C08"/>
        <path d="M18.9688 25.4061C19.2298 25.4061 19.4414 25.1945 19.4414 24.9335V21.9023C19.4414 21.6413 19.2298 21.4297 18.9688 21.4297C18.7077 21.4297 18.4961 21.6413 18.4961 21.9023V24.9335C18.4961 25.1945 18.7077 25.4061 18.9688 25.4061Z" fill="#0A2C08"/>
        <path d="M21.4941 25.4061C21.7552 25.4061 21.9668 25.1945 21.9668 24.9335V21.9023C21.9668 21.6413 21.7552 21.4297 21.4941 21.4297C21.2331 21.4297 21.0215 21.6413 21.0215 21.9023V24.9335C21.0215 25.1945 21.2331 25.4061 21.4941 25.4061Z" fill="#0A2C08"/>
        <path d="M24.0205 25.4061C24.2815 25.4061 24.4932 25.1945 24.4932 24.9335V21.9023C24.4932 21.6413 24.2815 21.4297 24.0205 21.4297C23.7595 21.4297 23.5479 21.6413 23.5479 21.9023V24.9335C23.5479 25.1945 23.7595 25.4061 24.0205 25.4061Z" fill="#0A2C08"/>
        <path d="M26.5459 25.4061C26.8069 25.4061 27.0186 25.1945 27.0186 24.9335V21.9023C27.0186 21.6413 26.8069 21.4297 26.5459 21.4297C26.2849 21.4297 26.0732 21.6413 26.0732 21.9023V24.9335C26.0732 25.1945 26.2849 25.4061 26.5459 25.4061Z" fill="#0A2C08"/>
    </g>
    <rect x="0.5" y="0.5" width="43" height="43" rx="21.5" stroke="#51B747" stroke-linecap="round" stroke-dasharray="4 5"/>
    <defs>
        <clipPath id="clip0_8876_317054">
            <rect width="32.2667" height="32.2667" fill="white" transform="translate(5.86621 8.80005)"/>
        </clipPath>
    </defs>
</svg>
