<svg width="24" height="24" viewBox="0 0 24 24" fill="none" xmlns="http://www.w3.org/2000/svg">
<rect width="24" height="24" rx="12" fill="#E8F5FF"/>
<g clip-path="url(#clip0_5650_235765)">
<path d="M18.4425 19.5H5.5575C5.28 19.5 5.01813 19.3781 4.83938 19.165C4.66063 18.9525 4.58625 18.6731 4.63438 18.3994L6.28875 9.02437C6.3675 8.57562 6.75625 8.25 7.21188 8.25H16.7881C17.2437 8.25 17.6325 8.57562 17.7112 9.02437L19.3656 18.3994C19.4137 18.6731 19.3394 18.9525 19.1606 19.165C18.9819 19.3781 18.72 19.5 18.4425 19.5ZM7.21188 8.875C7.06 8.875 6.93063 8.98375 6.90375 9.13313L5.24938 18.5081C5.2275 18.6325 5.28313 18.7219 5.31813 18.7631C5.35313 18.805 5.43063 18.875 5.5575 18.875H18.4425C18.5694 18.875 18.6469 18.805 18.6819 18.7631C18.7169 18.7219 18.7725 18.6325 18.7506 18.5081L17.0962 9.13313C17.0694 8.98375 16.94 8.875 16.7881 8.875H7.21188Z" fill="#003567"/>
<path d="M12 8.875C10.7937 8.875 9.8125 7.89375 9.8125 6.6875C9.8125 5.48125 10.7937 4.5 12 4.5C13.2062 4.5 14.1875 5.48125 14.1875 6.6875C14.1875 7.89375 13.2062 8.875 12 8.875ZM12 5.125C11.1387 5.125 10.4375 5.82625 10.4375 6.6875C10.4375 7.54875 11.1387 8.25 12 8.25C12.8612 8.25 13.5625 7.54875 13.5625 6.6875C13.5625 5.82625 12.8612 5.125 12 5.125Z" fill="#003567"/>
<path d="M8.5625 16.375C8.39 16.375 8.25 16.235 8.25 16.0625V11.6875C8.25 11.515 8.39 11.375 8.5625 11.375C8.735 11.375 8.875 11.515 8.875 11.6875V16.0625C8.875 16.235 8.735 16.375 8.5625 16.375Z" fill="#003567"/>
<path d="M14.1875 16.375C13.3263 16.375 12.625 15.6744 12.625 14.8125V12.9375C12.625 12.0762 13.3263 11.375 14.1875 11.375C15.0488 11.375 15.75 12.0762 15.75 12.9375C15.75 13.11 15.61 13.25 15.4375 13.25C15.265 13.25 15.125 13.11 15.125 12.9375C15.125 12.4206 14.7044 12 14.1875 12C13.6706 12 13.25 12.4206 13.25 12.9375V14.8125C13.25 15.3294 13.6706 15.75 14.1875 15.75C14.7044 15.75 15.125 15.3294 15.125 14.8125V14.5H14.1875C14.015 14.5 13.875 14.36 13.875 14.1875C13.875 14.015 14.015 13.875 14.1875 13.875H15.4375C15.61 13.875 15.75 14.015 15.75 14.1875V14.8125C15.75 15.6744 15.0488 16.375 14.1875 16.375Z" fill="#003567"/>
<path d="M11.0625 16.4136C10.9881 16.4136 10.9144 16.3874 10.8544 16.3343L8.35437 14.108C8.28812 14.0486 8.25 13.9636 8.25 13.8736C8.25 13.7836 8.28937 13.6986 8.35687 13.6399L10.8569 11.4524C10.9862 11.3386 11.1831 11.3511 11.2981 11.4818C11.4119 11.6118 11.3987 11.8086 11.2687 11.923L9.035 13.8768L11.2706 15.8686C11.3994 15.9836 11.4112 16.1805 11.2962 16.3099C11.2337 16.3786 11.1487 16.4136 11.0625 16.4136Z" fill="#003567"/>
</g>
<defs>
<clipPath id="clip0_5650_235765">
<rect width="15" height="15" fill="white" transform="translate(4.5 4.5)"/>
</clipPath>
</defs>
</svg>
