<svg width="32" height="32" viewBox="0 0 32 32" fill="none" xmlns="http://www.w3.org/2000/svg">
    <path d="M5.75957 2.55957C3.99988 2.55957 2.55957 3.99988 2.55957 5.75957V26.2396C2.55957 27.9993 3.99988 29.4396 5.75957 29.4396H26.2396C27.9993 29.4396 29.4396 27.9993 29.4396 26.2396V5.75957C29.4396 3.99988 27.9993 2.55957 26.2396 2.55957H5.75957ZM5.75957 3.83957H9.97082C7.68532 6.21761 6.39957 9.29114 6.39957 12.4796C6.39957 15.782 7.75007 18.9435 10.1821 21.3371C10.2589 21.4715 10.3227 22.1305 10.0283 22.8921C9.84272 23.3721 9.47137 23.999 8.75457 24.2358C8.47937 24.3254 8.30037 24.5953 8.31957 24.8833C8.33877 25.1713 8.55047 25.4145 8.83207 25.4721C10.6689 25.8369 11.8583 25.286 12.8183 24.8508C13.6823 24.454 14.2528 24.1849 15.1296 24.5433C16.9216 25.2409 18.8284 25.5996 20.7996 25.5996C23.4195 25.5996 25.9397 24.96 28.1596 23.7521V26.2396C28.1596 27.3074 27.3074 28.1596 26.2396 28.1596H5.75957C4.69174 28.1596 3.83957 27.3074 3.83957 26.2396V5.75957C3.83957 4.69174 4.69174 3.83957 5.75957 3.83957ZM21.1196 9.59957C21.4716 9.59957 21.7596 9.88757 21.7596 10.2396V15.9996C21.7596 16.3516 21.4716 16.6396 21.1196 16.6396C20.7676 16.6396 20.4796 16.3516 20.4796 15.9996V10.2396C20.4796 9.88757 20.7676 9.59957 21.1196 9.59957ZM11.5196 10.2396H14.7196C14.95 10.2396 15.1681 10.3673 15.2833 10.5721C15.3921 10.7705 15.3849 11.0199 15.2633 11.2183L12.6721 15.3596H14.7196C15.0716 15.3596 15.3596 15.6476 15.3596 15.9996C15.3596 16.3516 15.0716 16.6396 14.7196 16.6396H11.5196C11.2892 16.6396 11.071 16.5119 10.9558 16.3071C10.847 16.1087 10.8542 15.8592 10.9758 15.6608L13.5671 11.5196H11.5196C11.1676 11.5196 10.8796 11.2316 10.8796 10.8796C10.8796 10.5276 11.1676 10.2396 11.5196 10.2396ZM17.5996 12.1596C17.99 12.1596 18.3544 12.2679 18.6808 12.4471C18.796 12.2807 18.9756 12.1596 19.1996 12.1596C19.5516 12.1596 19.8396 12.4476 19.8396 12.7996V15.9996C19.8396 16.3516 19.5516 16.6396 19.1996 16.6396C18.9756 16.6396 18.796 16.5185 18.6808 16.3521C18.3544 16.5313 17.99 16.6396 17.5996 16.6396C16.3644 16.6396 15.3596 15.6348 15.3596 14.3996C15.3596 13.1644 16.3644 12.1596 17.5996 12.1596ZM24.6396 12.1596C25.8748 12.1596 26.8796 13.1644 26.8796 14.3996C26.8796 15.6348 25.8748 16.6396 24.6396 16.6396C23.4044 16.6396 22.3996 15.6348 22.3996 14.3996C22.3996 13.1644 23.4044 12.1596 24.6396 12.1596ZM17.5996 13.4396C17.5332 13.4396 17.4684 13.4468 17.4058 13.4596C17.2807 13.4851 17.1642 13.5344 17.0621 13.6033C16.9599 13.6722 16.8722 13.7599 16.8033 13.8621C16.7344 13.9642 16.6851 14.0807 16.6596 14.2058C16.6468 14.2684 16.6396 14.3332 16.6396 14.3996C16.6396 14.466 16.6468 14.5308 16.6596 14.5933C16.6723 14.6559 16.6903 14.7159 16.7146 14.7733C16.7388 14.8308 16.7689 14.886 16.8033 14.9371C16.8378 14.9881 16.8774 15.0349 16.9208 15.0783C16.9642 15.1217 17.011 15.1614 17.0621 15.1958C17.1642 15.2647 17.2807 15.314 17.4058 15.3396C17.4684 15.3523 17.5332 15.3596 17.5996 15.3596C17.666 15.3596 17.7308 15.3523 17.7933 15.3396C18.2313 15.2502 18.5596 14.8644 18.5596 14.3996C18.5596 13.8684 18.1308 13.4396 17.5996 13.4396ZM24.6396 13.4396C24.5732 13.4396 24.5084 13.4468 24.4458 13.4596C24.3833 13.4723 24.3233 13.4903 24.2658 13.5146C24.2084 13.5388 24.1531 13.5689 24.1021 13.6033C24.051 13.6378 24.0042 13.6774 23.9608 13.7208C23.874 13.8076 23.8031 13.9109 23.7546 14.0258C23.7303 14.0833 23.7123 14.1433 23.6996 14.2058C23.6868 14.2684 23.6796 14.3332 23.6796 14.3996C23.6796 14.466 23.6868 14.5308 23.6996 14.5933C23.7123 14.6559 23.7303 14.7159 23.7546 14.7733C23.7788 14.8308 23.8089 14.886 23.8433 14.9371C23.8778 14.9881 23.9174 15.0349 23.9608 15.0783C24.0042 15.1217 24.051 15.1614 24.1021 15.1958C24.1531 15.2303 24.2084 15.2603 24.2658 15.2846C24.3233 15.3088 24.3833 15.3268 24.4458 15.3396C24.5084 15.3523 24.5732 15.3596 24.6396 15.3596C24.706 15.3596 24.7708 15.3523 24.8333 15.3396C25.2713 15.2502 25.5996 14.8644 25.5996 14.3996C25.5996 13.8684 25.1708 13.4396 24.6396 13.4396Z" fill="#2597A2"/>
</svg>
