<svg width="32" height="32" viewBox="0 0 32 32" fill="none" xmlns="http://www.w3.org/2000/svg">
<path d="M16.6635 29.7793L17.0896 29.6527C18.1746 29.3305 19.2285 28.5098 20.1375 27.2795C21.0074 26.1022 21.7509 24.5441 22.2877 22.7738L22.4462 22.2507L21.9091 22.3516C20.3478 22.6444 18.6914 22.8174 16.9858 22.8659L16.6635 22.875V29.7793Z" fill="url(#paint0_linear_3435_184594)"/>
<path d="M29.6362 19.1794L28.8254 19.7455C28.1994 20.1826 27.4653 20.5864 26.6432 20.9457C25.8679 21.2846 25.0107 21.5868 24.0953 21.8439L23.9096 21.8961L23.8631 22.0832C23.4564 23.7199 22.8961 25.2042 22.1979 26.4949C21.8677 27.1053 21.5056 27.671 21.1218 28.1762L20.36 29.1791L21.5169 28.6817C25.2352 27.0831 28.0832 23.9625 29.3308 20.12L29.6362 19.1794Z" fill="url(#paint1_linear_3435_184594)"/>
<path d="M23.863 9.52016L23.9095 9.70733L24.0953 9.75947C25.0107 10.0165 25.8678 10.3188 26.6431 10.6577C27.4652 11.017 28.1994 11.4208 28.8253 11.8579L29.6361 12.424L29.3307 11.4835C28.0831 7.64088 25.235 4.52031 21.5168 2.92176L20.3599 2.42438L21.1217 3.42723C21.5055 3.93246 21.8675 4.49817 22.1978 5.10855C22.8961 6.39915 23.4563 7.88339 23.863 9.52016Z" fill="url(#paint2_linear_3435_184594)"/>
<path d="M24.7332 11.3451L24.217 11.1705L24.299 11.7092C24.5009 13.0357 24.6032 14.4125 24.6032 15.8016C24.6032 17.1907 24.5008 18.5676 24.299 19.894L24.217 20.4327L24.7332 20.2582C28.039 19.1403 30.0126 17.4743 30.0126 15.8016C30.0126 14.1288 28.039 12.463 24.7332 11.3451Z" fill="url(#paint3_linear_3435_184594)"/>
<path d="M17.0896 1.95072L16.6635 1.8241V8.72844L16.9858 8.7376C18.6914 8.78598 20.3478 8.95903 21.9091 9.25193L22.4462 9.35276L22.2877 8.82965C21.7509 7.05936 21.0074 5.50127 20.1375 4.32399C19.2285 3.09362 18.1746 2.27298 17.0896 1.95072Z" fill="url(#paint4_linear_3435_184594)"/>
<path d="M16.6635 21.5481L17.005 21.538C18.971 21.4797 20.8437 21.2521 22.571 20.8616L22.7822 20.8138L22.8235 20.6012C23.124 19.0531 23.2764 17.4383 23.2764 15.8017C23.2764 14.1652 23.124 12.5504 22.8235 11.0022L22.7822 10.7897L22.571 10.7419C20.8437 10.3513 18.971 10.1238 17.005 10.0655L16.6635 10.0554V21.5481Z" fill="url(#paint5_linear_3435_184594)"/>
<path d="M7.26667 20.2583L7.78288 20.4328L7.70093 19.8942C7.49902 18.5677 7.39668 17.1908 7.39668 15.8017C7.39668 14.4127 7.49908 13.0358 7.70093 11.7093L7.78288 11.1707L7.26667 11.3452C3.96095 12.463 1.98743 14.129 1.98743 15.8017C1.98743 17.4744 3.96095 19.1404 7.26667 20.2583Z" fill="url(#paint6_linear_3435_184594)"/>
<path d="M15.3365 1.8241L14.9103 1.95072C13.8253 2.27298 12.7715 3.09362 11.8624 4.32392C10.9925 5.50121 10.249 7.05936 9.71227 8.82959L9.55371 9.35269L10.0909 9.25186C11.6521 8.95903 13.3085 8.78598 15.0141 8.73754L15.3364 8.72838V1.8241H15.3365Z" fill="url(#paint7_linear_3435_184594)"/>
<path d="M14.9104 29.6527L15.3365 29.7793V22.8749L15.0142 22.8657C13.3086 22.8173 11.6522 22.6443 10.091 22.3514L9.55383 22.2505L9.71239 22.7737C10.2491 24.5439 10.9926 26.102 11.8625 27.2793C12.7715 28.5097 13.8254 29.3304 14.9104 29.6527Z" fill="url(#paint8_linear_3435_184594)"/>
<path d="M15.3365 10.0552L14.9949 10.0653C13.0289 10.1236 11.1562 10.3513 9.42889 10.7418L9.21769 10.7895L9.17641 11.0021C8.87592 12.5502 8.72351 14.165 8.72351 15.8016C8.72351 17.4382 8.87592 19.053 9.17641 20.6011L9.21769 20.8137L9.42889 20.8615C11.1562 21.252 13.0289 21.4796 14.9949 21.5379L15.3365 21.548V10.0552Z" fill="url(#paint9_linear_3435_184594)"/>
<path d="M10.4831 28.6817L11.6401 29.1791L10.8783 28.1762C10.4945 27.671 10.1325 27.1053 9.80213 26.4949C9.10391 25.2042 8.54366 23.7199 8.13694 22.0832L8.09045 21.8961L7.90472 21.8439C6.98934 21.5868 6.13217 21.2846 5.3569 20.9457C4.53475 20.5864 3.80063 20.1826 3.17468 19.7455L2.36389 19.1794L2.66927 20.1199C3.91677 23.9625 6.7649 27.0831 10.4831 28.6817Z" fill="url(#paint10_linear_3435_184594)"/>
<path d="M5.35677 10.6577C6.13205 10.3188 6.98921 10.0165 7.9046 9.75947L8.09033 9.70733L8.13682 9.52016C8.54353 7.88339 9.10379 6.39916 9.80201 5.10849C10.1323 4.49811 10.4943 3.93239 10.8782 3.42717L11.6399 2.42432L10.483 2.9217C6.76484 4.52032 3.91671 7.64088 2.66915 11.4835L2.36377 12.424L3.17456 11.8579C3.80044 11.4208 4.53462 11.017 5.35677 10.6577Z" fill="url(#paint11_linear_3435_184594)"/>
<path d="M27.0812 4.72049C24.1213 1.76055 20.1859 0.130493 15.9999 0.130493C11.814 0.130493 7.8786 1.76055 4.91873 4.72049C1.95885 7.68042 0.328735 11.6158 0.328735 15.8017C0.328735 19.9876 1.95879 23.9231 4.91873 26.8829C7.87866 29.8428 11.814 31.4729 15.9999 31.4729C20.1859 31.4729 24.1213 29.8429 27.0812 26.8829C30.041 23.923 31.6712 19.9876 31.6712 15.8017C31.6712 11.6158 30.0411 7.68036 27.0812 4.72049ZM9.05526 15.8017C9.05526 14.1466 9.21407 12.5491 9.50207 11.0655C11.129 10.6976 12.9815 10.457 15.0048 10.397V21.2064C12.9814 21.1464 11.129 20.9058 9.50207 20.5379C9.21407 19.0544 9.05526 17.4569 9.05526 15.8017ZM7.37294 19.9441C4.21059 18.8747 2.31914 17.289 2.31914 15.8017C2.31914 14.3145 4.21059 12.7288 7.37294 11.6593C7.17002 12.9927 7.06492 14.3833 7.06492 15.8017C7.06492 17.2201 7.16996 18.6107 7.37294 19.9441ZM21.9701 8.92591C20.4025 8.63183 18.7255 8.45514 16.9951 8.40607V2.26872C19.0886 2.89059 20.9114 5.43402 21.9701 8.92591ZM15.0048 2.26872V8.40607C13.2744 8.45514 11.5974 8.63183 10.0298 8.92591C11.0885 5.43402 12.9113 2.89059 15.0048 2.26872ZM15.0048 23.1973V29.3347C12.9113 28.7128 11.0884 26.1694 10.0298 22.6775C11.5974 22.9716 13.2745 23.1483 15.0048 23.1973ZM16.9951 29.3347V23.1973C18.7255 23.1483 20.4025 22.9716 21.9701 22.6775C20.9114 26.1694 19.0886 28.7128 16.9951 29.3347ZM16.9951 21.2064V10.397C19.0185 10.457 20.8709 10.6975 22.4978 11.0655C22.7858 12.5491 22.9446 14.1466 22.9446 15.8017C22.9446 17.4569 22.7858 19.0544 22.4978 20.538C20.8709 20.9058 19.0184 21.1465 16.9951 21.2064ZM24.627 11.6593C27.7893 12.7288 29.6808 14.3145 29.6808 15.8017C29.6808 17.289 27.7893 18.8747 24.627 19.9441C24.8299 18.6107 24.935 17.2201 24.935 15.8017C24.935 14.3833 24.8299 12.9927 24.627 11.6593ZM29.0152 11.5859C28.376 11.1396 27.6282 10.7263 26.776 10.3537C25.9783 10.0051 25.1095 9.69981 24.185 9.44011C23.776 7.7943 23.2062 6.27525 22.4896 4.95063C22.1465 4.31653 21.7771 3.74166 21.3859 3.22646C24.9869 4.7747 27.7944 7.82587 29.0152 11.5859ZM10.614 3.22652C10.2228 3.74172 9.85338 4.31659 9.51035 4.9507C8.79368 6.27537 8.22395 7.79437 7.81492 9.44017C6.89043 9.69981 6.0216 10.0051 5.22392 10.3538C4.37172 10.7263 3.62386 11.1396 2.98467 11.586C4.2055 7.82586 7.01297 4.7747 10.614 3.22652ZM2.98467 20.0175C3.62386 20.4639 4.37165 20.8772 5.22392 21.2497C6.0216 21.5984 6.89043 21.9036 7.81492 22.1633C8.22389 23.8091 8.79368 25.3282 9.51035 26.6528C9.85338 27.2869 10.2228 27.8618 10.614 28.377C7.01297 26.8287 4.2055 23.7776 2.98467 20.0175ZM21.3859 28.3769C21.7771 27.8617 22.1465 27.2868 22.4896 26.6527C23.2062 25.328 23.776 23.809 24.185 22.1632C25.1095 21.9036 25.9783 21.5984 26.776 21.2496C27.6282 20.8771 28.376 20.4639 29.0152 20.0174C27.7944 23.7775 24.9869 26.8287 21.3859 28.3769Z" fill="url(#paint12_linear_3435_184594)"/>
<path d="M27.0812 26.8829C30.0412 23.9231 31.6712 19.9876 31.6712 15.8017C31.6712 11.6158 30.0412 7.68036 27.0812 4.72049C24.1213 1.76061 20.1859 0.130493 16 0.130493V31.4729C20.1859 31.4729 24.1213 29.8429 27.0812 26.8829Z" fill="url(#paint13_linear_3435_184594)"/>
<path d="M27.1524 26.81L11.4665 11.1242C11.2974 10.8166 10.9706 10.797 10.5732 10.8028L4.55152 10.9559C3.76344 10.9672 3.56159 11.576 3.98989 12.2377L4.64946 13.2563C2.91475 14.6428 1.30396 16.5116 0.582764 18.6303C1.1464 21.7393 2.63685 24.6012 4.91864 26.8829C7.87858 29.8429 11.814 31.4729 15.9999 31.4729C20.1858 31.4729 24.1213 29.8429 27.0812 26.8829C27.1052 26.8589 27.1285 26.8343 27.1524 26.81Z" fill="url(#paint14_linear_3435_184594)"/>
<path d="M4.58671 26.53C4.33278 25.7395 3.95286 22.7957 3.98153 21.9157C4.05093 19.7872 5.02517 17.8811 6.52685 16.566L7.20255 17.6096C7.63091 18.2712 8.62003 18.2026 8.95289 17.4882L11.4965 12.0294C11.8088 11.3591 11.3127 10.5929 10.5732 10.6035L4.55157 10.6902C3.76349 10.7016 3.2961 11.5759 3.7244 12.2376L4.38398 13.2562C1.81193 15.3121 0.0938458 18.4273 0.00104583 21.8471C-0.00874241 22.2083 0.0510537 22.7668 0.143665 23.3903C0.459022 25.5132 2.48092 26.9448 4.58671 26.53Z" fill="url(#paint15_linear_3435_184594)"/>
<path d="M27.421 5.07202C27.4184 5.07252 27.4158 5.0729 27.4132 5.0734C27.6671 5.86386 28.0471 8.80768 28.0184 9.68768C27.9523 11.7157 27.0643 13.5414 25.6818 14.8468L24.7554 13.9335C24.3075 13.3371 23.3695 13.4231 23.047 14.1152L20.5035 19.5739C20.2906 20.0306 20.4533 20.5317 20.8124 20.8014L26.9864 26.9754C27.0179 26.9445 27.0499 26.9142 27.0811 26.883C30.0411 23.923 31.6712 19.9876 31.6712 15.8017C31.6712 11.7792 30.1652 7.98848 27.421 5.07202Z" fill="url(#paint16_linear_3435_184594)"/>
<path d="M27.4132 5.07346C27.6672 5.86392 28.0471 8.80773 28.0184 9.68773C27.949 11.8162 26.9748 13.7223 25.4731 15.0374L24.7974 13.9938C24.369 13.3322 23.3799 13.4008 23.0471 14.1152L20.5035 19.574C20.1912 20.2443 20.6873 21.0105 21.4267 20.9999L27.4484 20.9132C28.2365 20.9018 28.7038 20.0275 28.2756 19.3658L27.616 18.3472C30.188 16.2915 31.9061 13.1763 31.999 9.75644C32.0088 9.39528 31.949 8.83678 31.8564 8.21322C31.5409 6.09018 29.519 4.65865 27.4132 5.07346Z" fill="url(#paint17_linear_3435_184594)"/>
<defs>
<linearGradient id="paint0_linear_3435_184594" x1="2.65254" y1="9.11272" x2="26.8841" y2="33.3443" gradientUnits="userSpaceOnUse">
<stop stop-color="#B5DBFF"/>
<stop offset="1" stop-color="#76E2F8"/>
</linearGradient>
<linearGradient id="paint1_linear_3435_184594" x1="7.48626" y1="6.66738" x2="25.4794" y2="24.6605" gradientUnits="userSpaceOnUse">
<stop stop-color="#EDF5FF"/>
<stop offset="1" stop-color="#D5E8FE"/>
</linearGradient>
<linearGradient id="paint2_linear_3435_184594" x1="15.6299" y1="-1.47623" x2="33.623" y2="16.5169" gradientUnits="userSpaceOnUse">
<stop stop-color="#EDF5FF"/>
<stop offset="1" stop-color="#D5E8FE"/>
</linearGradient>
<linearGradient id="paint3_linear_3435_184594" x1="10.6482" y1="1.11701" x2="34.8798" y2="25.3486" gradientUnits="userSpaceOnUse">
<stop stop-color="#B5DBFF"/>
<stop offset="1" stop-color="#76E2F8"/>
</linearGradient>
<linearGradient id="paint4_linear_3435_184594" x1="11.8548" y1="-0.0895663" x2="36.0864" y2="24.142" gradientUnits="userSpaceOnUse">
<stop stop-color="#B5DBFF"/>
<stop offset="1" stop-color="#76E2F8"/>
</linearGradient>
<linearGradient id="paint5_linear_3435_184594" x1="8.85382" y1="5.29984" x2="26.847" y2="23.2929" gradientUnits="userSpaceOnUse">
<stop stop-color="#EDF5FF"/>
<stop offset="1" stop-color="#D5E8FE"/>
</linearGradient>
<linearGradient id="paint6_linear_3435_184594" x1="2.50953" y1="11.6442" x2="20.5026" y2="29.6373" gradientUnits="userSpaceOnUse">
<stop stop-color="#EDF5FF"/>
<stop offset="1" stop-color="#D5E8FE"/>
</linearGradient>
<linearGradient id="paint7_linear_3435_184594" x1="10.5052" y1="3.64847" x2="28.4983" y2="21.6416" gradientUnits="userSpaceOnUse">
<stop stop-color="#EDF5FF"/>
<stop offset="1" stop-color="#D5E8FE"/>
</linearGradient>
<linearGradient id="paint8_linear_3435_184594" x1="1.30298" y1="12.8507" x2="19.2961" y2="30.8439" gradientUnits="userSpaceOnUse">
<stop stop-color="#EDF5FF"/>
<stop offset="1" stop-color="#D5E8FE"/>
</linearGradient>
<linearGradient id="paint9_linear_3435_184594" x1="4.30387" y1="7.46129" x2="28.5355" y2="31.6929" gradientUnits="userSpaceOnUse">
<stop stop-color="#B5DBFF"/>
<stop offset="1" stop-color="#76E2F8"/>
</linearGradient>
<linearGradient id="paint10_linear_3435_184594" x1="-2.47213" y1="14.2374" x2="21.7595" y2="38.469" gradientUnits="userSpaceOnUse">
<stop stop-color="#B5DBFF"/>
<stop offset="1" stop-color="#76E2F8"/>
</linearGradient>
<linearGradient id="paint11_linear_3435_184594" x1="5.6715" y1="6.09378" x2="29.903" y2="30.3254" gradientUnits="userSpaceOnUse">
<stop stop-color="#B5DBFF"/>
<stop offset="1" stop-color="#76E2F8"/>
</linearGradient>
<linearGradient id="paint12_linear_3435_184594" x1="8.85253" y1="2.98295" x2="21.0602" y2="24.8771" gradientUnits="userSpaceOnUse">
<stop stop-color="#B5DBFF"/>
<stop offset="1" stop-color="#48B2E3"/>
</linearGradient>
<linearGradient id="paint13_linear_3435_184594" x1="22.6817" y1="17.7917" x2="0.190492" y2="9.23305" gradientUnits="userSpaceOnUse">
<stop stop-color="#B5DBFF" stop-opacity="0"/>
<stop offset="0.1734" stop-color="#8FC5E9" stop-opacity="0.173"/>
<stop offset="0.4541" stop-color="#56A4C8" stop-opacity="0.454"/>
<stop offset="0.6955" stop-color="#2D8DB1" stop-opacity="0.696"/>
<stop offset="0.8853" stop-color="#147EA2" stop-opacity="0.885"/>
<stop offset="1" stop-color="#0B799D"/>
</linearGradient>
<linearGradient id="paint14_linear_3435_184594" x1="16.288" y1="25.2794" x2="1.95726" y2="14.266" gradientUnits="userSpaceOnUse">
<stop stop-color="#B5DBFF" stop-opacity="0"/>
<stop offset="0.1734" stop-color="#8FC5E9" stop-opacity="0.173"/>
<stop offset="0.4541" stop-color="#56A4C8" stop-opacity="0.454"/>
<stop offset="0.6955" stop-color="#2D8DB1" stop-opacity="0.696"/>
<stop offset="0.8853" stop-color="#147EA2" stop-opacity="0.885"/>
<stop offset="1" stop-color="#0B799D"/>
</linearGradient>
<linearGradient id="paint15_linear_3435_184594" x1="5.79579" y1="26.6016" x2="5.79579" y2="10.6033" gradientUnits="userSpaceOnUse">
<stop stop-color="#0969DB"/>
<stop offset="1" stop-color="#4F8AFF"/>
</linearGradient>
<linearGradient id="paint16_linear_3435_184594" x1="32.4786" y1="21.3056" x2="26.0203" y2="14.8473" gradientUnits="userSpaceOnUse">
<stop stop-color="#B5DBFF" stop-opacity="0"/>
<stop offset="0.1734" stop-color="#8FC5E9" stop-opacity="0.173"/>
<stop offset="0.4541" stop-color="#56A4C8" stop-opacity="0.454"/>
<stop offset="0.6955" stop-color="#2D8DB1" stop-opacity="0.696"/>
<stop offset="0.8853" stop-color="#147EA2" stop-opacity="0.885"/>
<stop offset="1" stop-color="#0B799D"/>
</linearGradient>
<linearGradient id="paint17_linear_3435_184594" x1="26.2043" y1="21" x2="26.2043" y2="5.00178" gradientUnits="userSpaceOnUse">
<stop stop-color="#0969DB"/>
<stop offset="1" stop-color="#4F8AFF"/>
</linearGradient>
</defs>
</svg>
