<svg width="28" height="28" viewBox="0 0 28 28" fill="none" xmlns="http://www.w3.org/2000/svg">
<path fill-rule="evenodd" clip-rule="evenodd" d="M13.9994 0.665894C6.48785 0.665894 0.665283 6.16808 0.665283 13.5999C0.665283 17.4873 2.25845 20.8464 4.85291 23.1666C5.07074 23.3616 5.2022 23.6347 5.21111 23.9269L5.28372 26.2988C5.3069 27.0554 6.0884 27.5477 6.78073 27.242L9.42734 26.0737C9.65167 25.9747 9.90309 25.9563 10.1395 26.0214C11.3557 26.3558 12.6501 26.534 13.9993 26.534C21.5108 26.534 27.3334 21.0318 27.3334 13.5999C27.3334 6.16802 21.5108 0.665894 13.9994 0.665894V0.665894Z" fill="white"/>
<path fill-rule="evenodd" clip-rule="evenodd" d="M5.99272 17.3829L9.90961 11.1687C10.5327 10.1801 11.8668 9.9339 12.8017 10.635L15.917 12.9715C16.2028 13.186 16.5961 13.1848 16.8807 12.9688L21.0881 9.77567C21.6497 9.3495 22.3827 10.0216 22.0069 10.618L18.09 16.8322C17.4669 17.8208 16.1327 18.067 15.1979 17.3658L12.0825 15.0292C11.7967 14.8149 11.4034 14.8161 11.1188 15.0321L6.91147 18.2251C6.34987 18.6513 5.61681 17.9792 5.99272 17.3829Z" fill="#378333"/>
</svg>
