<svg width="62" height="59" viewBox="0 0 62 59" fill="none" xmlns="http://www.w3.org/2000/svg">
<g filter="url(#filter0_ddd_3648_192780)">
<rect x="10" y="11.5796" width="29.2221" height="29.2221" rx="14.611" fill="#0059C8"/>
<rect x="11" y="12.5796" width="27.2221" height="27.2221" rx="13.611" stroke="white" stroke-width="2"/>
</g>
<g clip-path="url(#clip0_3648_192780)">
<path d="M30.4381 25.1417L30.2579 25.0151C29.0042 24.1353 26.9591 23.0908 24.4895 23.1116C22.0199 23.1325 19.9928 24.2114 18.7541 25.1123L18.5761 25.242C18.4546 26.5621 18.5736 26.6734 18.5936 27.1386L19.5188 27.1308C21.7117 27.1123 23.5443 28.9141 23.5628 31.107L23.5706 32.0323C25.1165 32.1505 25.0095 32.0399 25.5591 32.0155L25.5512 31.0902C25.5327 28.8974 27.3346 27.0648 29.5274 27.0462L30.4527 27.0384C30.4666 26.5048 30.587 26.5059 30.4381 25.1417Z" fill="white"/>
<path d="M24.4431 17.6102C19.7801 17.6496 15.9913 21.5031 16.0307 26.166C16.0701 30.8289 19.9236 34.6178 24.5865 34.5784C29.2494 34.539 33.0382 30.6855 32.9988 26.0226C32.9594 21.3597 29.106 17.5708 24.4431 17.6102ZM24.5613 31.5957C21.5487 31.6212 19.0388 29.1533 19.0134 26.1408C18.9879 23.1283 21.4557 20.6184 24.4683 20.5929C27.4808 20.5675 29.9907 23.0353 30.0162 26.0478C30.0416 29.0603 27.5738 31.5702 24.5613 31.5957ZM24.5022 24.603C23.6798 24.6099 23.0165 25.2846 23.0234 26.1069C23.0304 26.9293 23.705 27.5926 24.5274 27.5856C25.3497 27.5787 26.0131 26.9041 26.0061 26.0817C25.9992 25.2593 25.3245 24.596 24.5022 24.603Z" fill="url(#paint0_linear_3648_192780)"/>
</g>
<g filter="url(#filter1_ddd_3648_192780)">
<path d="M36.3002 14.6188C35.931 14.6073 35.6277 14.8996 35.6165 15.2614L35.5197 18.3737C35.5082 18.7429 35.8005 19.0462 36.1622 19.0574C36.5315 19.0689 36.8348 18.7766 36.846 18.4149L36.9428 15.3026C36.9543 14.9333 36.6695 14.6303 36.3002 14.6188Z" fill="white"/>
<path d="M36.8018 13.5428C37.0689 13.2919 37.0819 12.872 36.831 12.605C36.5801 12.3379 36.1602 12.3249 35.8932 12.5758C35.6261 12.8267 35.6131 13.2466 35.864 13.5136C36.1149 13.7807 36.5348 13.7937 36.8018 13.5428Z" fill="white"/>
<path d="M36.4386 10.1727C33.3715 10.0773 30.8071 12.4944 30.712 15.5539C30.6827 16.4959 30.8952 17.4228 31.3291 18.266L30.6041 20.2349C30.4146 20.7495 30.8965 21.2623 31.4219 21.1051L33.432 20.5038C34.2391 20.9891 35.1585 21.259 36.1005 21.2883C39.1676 21.3837 41.732 18.9666 41.8271 15.9071C41.915 12.8397 39.5057 10.268 36.4386 10.1727ZM36.8461 18.4149C36.8346 18.7842 36.5241 19.0687 36.1623 19.0575C35.7931 19.046 35.5085 18.7354 35.5198 18.3737L35.6166 15.2614C35.628 14.8921 35.9386 14.6076 36.3003 14.6188C36.6696 14.6303 36.9541 14.9409 36.9429 15.3026L36.8461 18.4149ZM36.328 13.7296C35.9587 13.7181 35.6742 13.4076 35.6854 13.0458C35.6969 12.6766 36.0075 12.3921 36.3692 12.4033C36.7385 12.4148 37.023 12.7254 37.0118 13.0871C37.0005 13.4488 36.6972 13.7411 36.328 13.7296Z" fill="white"/>
<path d="M36.4386 10.1727C33.3715 10.0773 30.8071 12.4944 30.712 15.5539C30.6827 16.4959 30.8952 17.4228 31.3291 18.266L30.6041 20.2349C30.4146 20.7495 30.8965 21.2623 31.4219 21.1051L33.432 20.5038C34.2391 20.9891 35.1585 21.259 36.1005 21.2883C39.1676 21.3837 41.732 18.9666 41.8271 15.9071C41.915 12.8397 39.5057 10.268 36.4386 10.1727ZM36.8461 18.4149C36.8346 18.7842 36.5241 19.0687 36.1623 19.0575C35.7931 19.046 35.5085 18.7354 35.5198 18.3737L35.6166 15.2614C35.628 14.8921 35.9386 14.6076 36.3003 14.6188C36.6696 14.6303 36.9541 14.9409 36.9429 15.3026L36.8461 18.4149ZM36.328 13.7296C35.9587 13.7181 35.6742 13.4076 35.6854 13.0458C35.6969 12.6766 36.0075 12.3921 36.3692 12.4033C36.7385 12.4148 37.023 12.7254 37.0118 13.0871C37.0005 13.4488 36.6972 13.7411 36.328 13.7296Z" fill="url(#paint1_linear_3648_192780)"/>
</g>
<defs>
<filter id="filter0_ddd_3648_192780" x="0" y="7.57959" width="49.222" height="51.2221" filterUnits="userSpaceOnUse" color-interpolation-filters="sRGB">
<feFlood flood-opacity="0" result="BackgroundImageFix"/>
<feColorMatrix in="SourceAlpha" type="matrix" values="0 0 0 0 0 0 0 0 0 0 0 0 0 0 0 0 0 0 127 0" result="hardAlpha"/>
<feOffset/>
<feGaussianBlur stdDeviation="0.5"/>
<feColorMatrix type="matrix" values="0 0 0 0 0 0 0 0 0 0 0 0 0 0 0 0 0 0 0.04 0"/>
<feBlend mode="normal" in2="BackgroundImageFix" result="effect1_dropShadow_3648_192780"/>
<feColorMatrix in="SourceAlpha" type="matrix" values="0 0 0 0 0 0 0 0 0 0 0 0 0 0 0 0 0 0 127 0" result="hardAlpha"/>
<feOffset dy="2"/>
<feGaussianBlur stdDeviation="3"/>
<feColorMatrix type="matrix" values="0 0 0 0 0 0 0 0 0 0 0 0 0 0 0 0 0 0 0.04 0"/>
<feBlend mode="normal" in2="effect1_dropShadow_3648_192780" result="effect2_dropShadow_3648_192780"/>
<feColorMatrix in="SourceAlpha" type="matrix" values="0 0 0 0 0 0 0 0 0 0 0 0 0 0 0 0 0 0 127 0" result="hardAlpha"/>
<feOffset dy="8"/>
<feGaussianBlur stdDeviation="5"/>
<feColorMatrix type="matrix" values="0 0 0 0 0 0 0 0 0 0 0 0 0 0 0 0 0 0 0.1 0"/>
<feBlend mode="normal" in2="effect2_dropShadow_3648_192780" result="effect3_dropShadow_3648_192780"/>
<feBlend mode="normal" in="SourceGraphic" in2="effect3_dropShadow_3648_192780" result="shape"/>
</filter>
<filter id="filter1_ddd_3648_192780" x="10.562" y="0.169983" width="51.2675" height="51.121" filterUnits="userSpaceOnUse" color-interpolation-filters="sRGB">
<feFlood flood-opacity="0" result="BackgroundImageFix"/>
<feColorMatrix in="SourceAlpha" type="matrix" values="0 0 0 0 0 0 0 0 0 0 0 0 0 0 0 0 0 0 127 0" result="hardAlpha"/>
<feOffset/>
<feGaussianBlur stdDeviation="0.5"/>
<feColorMatrix type="matrix" values="0 0 0 0 0 0 0 0 0 0 0 0 0 0 0 0 0 0 0.04 0"/>
<feBlend mode="normal" in2="BackgroundImageFix" result="effect1_dropShadow_3648_192780"/>
<feColorMatrix in="SourceAlpha" type="matrix" values="0 0 0 0 0 0 0 0 0 0 0 0 0 0 0 0 0 0 127 0" result="hardAlpha"/>
<feOffset dy="2"/>
<feGaussianBlur stdDeviation="3"/>
<feColorMatrix type="matrix" values="0 0 0 0 0 0 0 0 0 0 0 0 0 0 0 0 0 0 0.04 0"/>
<feBlend mode="normal" in2="effect1_dropShadow_3648_192780" result="effect2_dropShadow_3648_192780"/>
<feColorMatrix in="SourceAlpha" type="matrix" values="0 0 0 0 0 0 0 0 0 0 0 0 0 0 0 0 0 0 127 0" result="hardAlpha"/>
<feOffset dy="10"/>
<feGaussianBlur stdDeviation="10"/>
<feColorMatrix type="matrix" values="0 0 0 0 0 0 0 0 0 0 0 0 0 0 0 0 0 0 0.1 0"/>
<feBlend mode="normal" in2="effect2_dropShadow_3648_192780" result="effect3_dropShadow_3648_192780"/>
<feBlend mode="normal" in="SourceGraphic" in2="effect3_dropShadow_3648_192780" result="shape"/>
</filter>
<linearGradient id="paint0_linear_3648_192780" x1="24.6499" y1="42.8497" x2="24.3562" y2="8.10813" gradientUnits="userSpaceOnUse">
<stop stop-color="#5CB1FF"/>
<stop offset="1" stop-color="#C1EBFB"/>
</linearGradient>
<linearGradient id="paint1_linear_3648_192780" x1="35.924" y1="26.7064" x2="36.6316" y2="3.94804" gradientUnits="userSpaceOnUse">
<stop stop-color="#49A740"/>
<stop offset="1" stop-color="#9DFF99"/>
</linearGradient>
<clipPath id="clip0_3648_192780">
<rect width="16.9687" height="16.9687" fill="white" transform="translate(15.959 17.6819) rotate(-0.484273)"/>
</clipPath>
</defs>
</svg>
