<svg width="32" height="32" viewBox="0 0 32 32" fill="none" xmlns="http://www.w3.org/2000/svg">
<path d="M14.2639 32C13.3326 32 12.5747 31.2423 12.5747 30.3109V29.5206C12.5747 29.0373 12.2641 28.6077 11.8019 28.4519C11.2445 28.264 10.6942 28.0359 10.1665 27.7739C10.0083 27.6954 9.83206 27.6539 9.65669 27.6539C9.35575 27.6539 9.0735 27.7705 8.86187 27.9821L8.30269 28.5413C7.98369 28.8603 7.5595 29.0361 7.10831 29.0361C6.65706 29.0361 6.23287 28.8603 5.91388 28.5413L3.45881 26.0861C3.13975 25.7671 2.964 25.3429 2.964 24.8918C2.964 24.4406 3.13969 24.0164 3.45881 23.6974L4.018 23.1382C4.36 22.7962 4.44369 22.2719 4.226 21.8336C3.96406 21.3059 3.736 20.7557 3.54813 20.1982C3.39231 19.7359 2.96281 19.4254 2.47938 19.4254H1.68913C0.757813 19.4252 0 18.6675 0 17.7361V14.264C0 13.3326 0.757813 12.5749 1.68913 12.5749H2.47931C2.96269 12.5749 3.39225 12.2642 3.54806 11.8021C3.73594 11.2445 3.964 10.6943 4.22594 10.1667C4.44362 9.72838 4.35994 9.20406 4.01794 8.86206L3.45875 8.30281C3.13969 7.98381 2.96394 7.55963 2.96394 7.10844C2.96394 6.65725 3.13963 6.23306 3.45875 5.914L5.91375 3.45875C6.23275 3.13969 6.65694 2.96394 7.10819 2.96394C7.55931 2.96394 7.98356 3.13969 8.30256 3.45869L8.86175 4.01794C9.07337 4.2295 9.35562 4.34606 9.65656 4.34606C9.83187 4.34606 10.0082 4.3045 10.1664 4.226C10.6942 3.96406 11.2444 3.73594 11.8018 3.548C12.2641 3.39219 12.5746 2.96275 12.5746 2.47931V1.68912C12.5747 0.75775 13.3326 0 14.2639 0H17.736C18.6673 0 19.4251 0.75775 19.4251 1.68912V2.47937C19.4251 2.96275 19.7358 3.39225 20.1979 3.54806C20.7554 3.736 21.3056 3.96406 21.8334 4.22606C21.9916 4.30462 22.1678 4.34613 22.3432 4.34613C22.6441 4.34606 22.9264 4.2295 23.138 4.01794L23.6972 3.45875C24.0162 3.13969 24.4404 2.96394 24.8916 2.96394C25.3427 2.96394 25.7669 3.13969 26.086 3.45869L28.5411 5.91388C28.8601 6.23287 29.0359 6.65706 29.0359 7.10825C29.0359 7.55938 28.8602 7.98362 28.5411 8.30262L27.9819 8.86181C27.6399 9.20381 27.5562 9.72806 27.7739 10.1664C28.0358 10.6941 28.2639 11.2443 28.4517 11.8018C28.6076 12.2641 29.0371 12.5746 29.5205 12.5746H30.3107C31.242 12.5746 31.9998 13.3324 31.9998 14.2638V17.7359C31.9998 18.6672 31.242 19.425 30.3107 19.425H29.5206C29.0372 19.425 28.6076 19.7356 28.4518 20.1978C28.2639 20.7554 28.0359 21.3056 27.7739 21.8332C27.5562 22.2715 27.6399 22.7958 27.9819 23.1378L28.5411 23.6971C28.8602 24.0161 29.0359 24.4403 29.0359 24.8914C29.0359 25.3426 28.8602 25.7668 28.5411 26.0859L26.0861 28.541C25.7671 28.8601 25.3429 29.0358 24.8917 29.0358C24.4404 29.0358 24.0163 28.8601 23.6973 28.5411L23.1381 27.9818C22.9264 27.7703 22.6442 27.6537 22.3433 27.6537C22.1679 27.6537 21.9916 27.6952 21.8334 27.7738C21.3056 28.0357 20.7554 28.2638 20.198 28.4517C19.7358 28.6076 19.4252 29.037 19.4252 29.5204V30.3107C19.4252 31.2421 18.6674 31.9998 17.7361 31.9998L14.2639 32ZM16 10.8387C14.7641 10.8387 13.5007 11.2806 12.3463 12.1166C12.258 12.1806 12.1806 12.2579 12.1166 12.3464C10.7082 14.2912 10.4469 16.477 11.3997 18.3433C12.2871 20.0815 14.0499 21.1614 16 21.1614C17.2359 21.1614 18.4992 20.7195 19.6537 19.8836C19.742 19.8196 19.8194 19.7422 19.8834 19.6537C21.2917 17.7089 21.5531 15.5231 20.6003 13.6568C19.7128 11.9186 17.9501 10.8387 16 10.8387Z" fill="url(#paint0_linear_9263_239136)"/>
<path d="M31.7182 17.7358V14.2637C31.7182 13.4863 31.088 12.8561 30.3106 12.8561H29.5203C28.9137 12.8561 28.3786 12.4664 28.1849 11.8916C27.9992 11.3406 27.7771 10.8063 27.5216 10.2915C27.2514 9.74725 27.3532 9.09231 27.7828 8.66263L28.3421 8.10338C28.8918 7.55363 28.8918 6.66237 28.3421 6.11269L25.8869 3.6575C25.3371 3.10775 24.4459 3.10775 23.8962 3.6575L23.3369 4.21675C22.9072 4.64644 22.2523 4.74806 21.7081 4.47794C21.1933 4.22238 20.659 4.00031 20.1079 3.81462C19.5331 3.62087 19.1435 3.08575 19.1435 2.47925V1.68887C19.1435 0.9115 18.5133 0.28125 17.7359 0.28125H14.2638C13.4864 0.28125 12.8561 0.911437 12.8561 1.68887V2.47912C12.8561 3.08569 12.4664 3.62081 11.8917 3.8145C11.3406 4.00025 10.8064 4.22231 10.2916 4.47781C9.74731 4.748 9.09237 4.64625 8.66269 4.21662L8.10344 3.65737C7.55369 3.10763 6.66244 3.10763 6.11275 3.65737L3.6575 6.11269C3.10775 6.66244 3.10775 7.55369 3.6575 8.10338L4.21675 8.66263C4.64644 9.09231 4.74806 9.74725 4.47794 10.2915C4.22238 10.8063 4.00031 11.3406 3.81463 11.8916C3.62088 12.4664 3.08575 12.8561 2.47925 12.8561H1.68887C0.9115 12.8561 0.28125 13.4863 0.28125 14.2637V17.7358C0.28125 18.5132 0.911437 19.1434 1.68887 19.1434H2.47913C3.08569 19.1434 3.62081 19.5331 3.8145 20.1079C4.00025 20.6589 4.22231 21.1932 4.47781 21.708C4.748 22.2523 4.64625 22.9072 4.21662 23.3369L3.65737 23.8961C3.10763 24.4459 3.10763 25.3371 3.65737 25.8868L6.11256 28.342C6.66231 28.8918 7.55356 28.8918 8.10325 28.342L8.6625 27.7828C9.09219 27.3531 9.74713 27.2514 10.2914 27.5216C10.8062 27.7771 11.3404 27.9992 11.8915 28.1849C12.4663 28.3786 12.8559 28.9137 12.8559 29.5203V30.3105C12.8559 31.0879 13.4861 31.7181 14.2636 31.7181H17.7357C18.5131 31.7181 19.1433 31.0879 19.1433 30.3105V29.5203C19.1433 28.9137 19.533 28.3785 20.1077 28.1849C20.6588 27.9991 21.1931 27.7771 21.7079 27.5216C22.2521 27.2514 22.9071 27.3531 23.3368 27.7828L23.896 28.342C24.4457 28.8918 25.337 28.8918 25.8867 28.342L28.3419 25.8868C28.8916 25.3371 28.8916 24.4458 28.3419 23.8961L27.7826 23.3369C27.3529 22.9072 27.2513 22.2523 27.5214 21.708C27.777 21.1932 27.9991 20.6589 28.1847 20.1079C28.3785 19.5331 28.9136 19.1434 29.5201 19.1434H30.3104C31.088 19.1434 31.7182 18.5132 31.7182 17.7358ZM19.8185 20.1112C14.0924 24.2577 7.74169 17.907 11.8882 12.1809C11.9695 12.0687 12.0686 11.9696 12.1809 11.8883C17.907 7.74169 24.2577 14.0924 20.1112 19.8185C20.0299 19.9308 19.9308 20.0299 19.8185 20.1112Z" fill="url(#paint1_linear_9263_239136)"/>
<path d="M31.7065 17.9081C31.7017 17.9035 31.6972 17.8985 31.6923 17.894C31.5951 17.7925 31.4957 17.6931 31.3942 17.5959C31.297 17.4945 31.1976 17.395 31.0962 17.2979C30.999 17.1964 30.8995 17.097 30.7981 16.9998C30.7009 16.8984 30.6015 16.7989 30.5 16.7017C30.4029 16.6003 30.3034 16.5009 30.202 16.4037C30.1048 16.3022 30.0054 16.2028 29.9039 16.1056C29.8067 16.0042 29.7073 15.9047 29.6059 15.8075C29.5087 15.7061 29.4092 15.6067 29.3078 15.5095C29.2106 15.408 29.1112 15.3086 29.0097 15.2114C28.9125 15.11 28.8131 15.0105 28.7117 14.9134C28.6145 14.8119 28.515 14.7125 28.4136 14.6153C28.3164 14.5139 28.217 14.4144 28.1155 14.3172C28.0184 14.2158 27.9189 14.1164 27.8175 14.0192C27.7203 13.9177 27.6209 13.8183 27.5194 13.7211C27.4222 13.6197 27.3228 13.5202 27.2214 13.423C27.1242 13.3216 27.0247 13.2222 26.9233 13.125C26.8261 13.0235 26.7267 12.9241 26.6252 12.8269C26.528 12.7255 26.4286 12.626 26.3272 12.5289C26.23 12.4274 26.1305 12.328 26.0291 12.2308C25.9319 12.1294 25.8325 12.0299 25.731 11.9327C25.6339 11.8313 25.5344 11.7319 25.433 11.6347C25.3358 11.5332 25.2364 11.4338 25.1349 11.3366C25.0377 11.2352 24.9383 11.1357 24.8369 11.0385C24.7397 10.9371 24.6402 10.8377 24.5388 10.7405C24.4416 10.639 24.3422 10.5396 24.2407 10.4424C24.1435 10.341 24.0441 10.2415 23.9427 10.1444C23.8455 10.0429 23.746 9.94348 23.6446 9.8463C23.5474 9.74486 23.448 9.64542 23.3465 9.54823C23.2494 9.4468 23.1499 9.34736 23.0485 9.25017C21.2714 7.39517 18.7705 6.24023 15.9998 6.24023C10.61 6.24023 6.24023 10.61 6.24023 15.9998C6.24023 18.7705 7.39517 21.2715 9.24961 23.048C9.3468 23.1494 9.44623 23.2489 9.54767 23.346C9.64486 23.4475 9.7443 23.5469 9.84573 23.6441C9.94292 23.7455 10.0424 23.845 10.1438 23.9422C10.241 24.0436 10.3404 24.143 10.4419 24.2402C10.539 24.3417 10.6385 24.4411 10.7399 24.5383C10.8371 24.6397 10.9365 24.7392 11.038 24.8364C11.1352 24.9378 11.2346 25.0372 11.336 25.1344C11.4332 25.2359 11.5327 25.3353 11.6341 25.4325C11.7313 25.5339 11.8307 25.6334 11.9322 25.7305C12.0294 25.832 12.1288 25.9314 12.2302 26.0286C12.3274 26.13 12.4269 26.2295 12.5283 26.3267C12.6255 26.4281 12.7249 26.5275 12.8264 26.6247C12.9235 26.7262 13.023 26.8256 13.1244 26.9228C13.2216 27.0242 13.321 27.1237 13.4225 27.2209C13.5197 27.3223 13.6191 27.4217 13.7205 27.5189C13.8177 27.6204 13.9172 27.7198 14.0186 27.817C14.1158 27.9184 14.2152 28.0179 14.3167 28.115C14.4139 28.2165 14.5133 28.3159 14.6147 28.4131C14.7119 28.5145 14.8114 28.614 14.9128 28.7112C15.01 28.8126 15.1094 28.912 15.2109 29.0092C15.308 29.1107 15.4075 29.2101 15.5089 29.3073C15.6061 29.4087 15.7055 29.5082 15.807 29.6054C15.9042 29.7068 16.0036 29.8062 16.105 29.9034C16.2022 30.0049 16.3017 30.1043 16.4031 30.2015C16.5003 30.3029 16.5997 30.4024 16.7012 30.4995C16.7984 30.601 16.8978 30.7004 16.9992 30.7976C17.0964 30.899 17.1959 30.9985 17.2973 31.0957C17.3945 31.1971 17.4939 31.2965 17.5954 31.3937C17.6925 31.4952 17.792 31.5946 17.8934 31.6918C17.898 31.6966 17.903 31.7011 17.9075 31.706C18.6035 31.6208 19.1427 31.0289 19.1427 30.31V29.5197C19.1427 28.9132 19.5324 28.378 20.1072 28.1843C20.6582 27.9985 21.1925 27.7765 21.7073 27.521C22.2515 27.2508 22.9065 27.3525 23.3362 27.7822L23.8954 28.3414C24.4452 28.8912 25.3364 28.8912 25.8861 28.3414L28.3413 25.8862C28.891 25.3365 28.891 24.4453 28.3413 23.8955L27.782 23.3363C27.3524 22.9066 27.2507 22.2517 27.5209 21.7074C27.7764 21.1926 27.9985 20.6584 28.1842 20.1073C28.3779 19.5325 28.913 19.1429 29.5196 19.1429H30.3099C31.0294 19.1434 31.6213 18.604 31.7065 17.9081ZM20.1111 19.8185C20.0299 19.9307 19.9307 20.0299 19.8184 20.1112C14.0924 24.2577 7.74161 17.907 11.8882 12.1809C11.9694 12.0687 12.0685 11.9695 12.1809 11.8882C17.9069 7.74167 24.2577 14.0924 20.1111 19.8185Z" fill="url(#paint2_linear_9263_239136)"/>
<path d="M15.9998 25.7594C21.3896 25.7594 25.7594 21.3896 25.7594 15.9998C25.7594 10.61 21.3895 6.24023 15.9998 6.24023C10.61 6.24023 6.24023 10.61 6.24023 15.9998C6.24023 21.3896 10.61 25.7594 15.9998 25.7594ZM15.9998 9.26105C19.7212 9.26105 22.7385 12.2784 22.7385 15.9998C22.7385 19.7212 19.7212 22.7385 15.9998 22.7385C12.2784 22.7385 9.26105 19.7212 9.26105 15.9998C9.26105 12.2784 12.2784 9.26105 15.9998 9.26105Z" fill="url(#paint3_linear_9263_239136)"/>
<path d="M15.9999 6.70508C10.8668 6.70508 6.70508 10.8667 6.70508 15.9999C6.70508 21.1331 10.8668 25.2947 15.9999 25.2947C21.133 25.2947 25.2946 21.133 25.2946 15.9999C25.2946 10.8668 21.133 6.70508 15.9999 6.70508ZM15.9999 20.7635C13.3692 20.7635 11.2363 18.6306 11.2363 15.9999C11.2363 13.3692 13.3692 11.2363 15.9999 11.2363C18.6306 11.2363 20.7635 13.3692 20.7635 15.9999C20.7635 18.6306 18.6305 20.7635 15.9999 20.7635Z" fill="url(#paint4_linear_9263_239136)"/>
<path d="M25.687 17.1959C25.6261 17.1343 25.5643 17.0737 25.5008 17.0148C25.3986 16.9046 25.2923 16.7983 25.1821 16.6961C25.08 16.586 24.9737 16.4797 24.8635 16.3775C24.7613 16.2673 24.6551 16.1611 24.5448 16.0588C24.4426 15.9487 24.3364 15.8425 24.2261 15.7401C24.124 15.63 24.0177 15.5238 23.9075 15.4215C23.8053 15.3114 23.6991 15.2051 23.5888 15.1029C23.4866 14.9928 23.3804 14.8865 23.2702 14.7843C23.168 14.6741 23.0616 14.5678 22.9515 14.4656C22.8493 14.3555 22.7431 14.2492 22.6328 14.147C22.5306 14.0368 22.4244 13.9306 22.3142 13.8283C22.212 13.7182 22.1056 13.6119 21.9955 13.5096C21.8933 13.3995 21.787 13.2932 21.6768 13.191C21.5746 13.0808 21.4684 12.9746 21.3582 12.8723C21.256 12.7622 21.1498 12.656 21.0396 12.5537C20.9374 12.4436 20.8311 12.3373 20.7209 12.2351C20.6187 12.125 20.5125 12.0187 20.4023 11.9164C19.3055 10.7345 17.7395 9.99414 16 9.99414C12.6832 9.99414 9.99414 12.6832 9.99414 16C9.99414 17.7395 10.7345 19.3054 11.9164 20.4023C12.0186 20.5124 12.1248 20.6186 12.2351 20.7209C12.3373 20.831 12.4435 20.9373 12.5537 21.0396C12.6559 21.1497 12.7621 21.256 12.8723 21.3582C12.9745 21.4683 13.0808 21.5746 13.191 21.6768C13.2931 21.787 13.3995 21.8933 13.5096 21.9955C13.6119 22.1056 13.7182 22.212 13.8283 22.3142C13.9305 22.4243 14.0368 22.5306 14.147 22.6328C14.2491 22.743 14.3554 22.8492 14.4656 22.9515C14.5678 23.0616 14.6741 23.168 14.7843 23.2702C14.8865 23.3803 14.9927 23.4866 15.1029 23.5888C15.2051 23.699 15.3113 23.8052 15.4215 23.9075C15.5237 24.0176 15.63 24.1239 15.7401 24.2261C15.8423 24.3363 15.9486 24.4425 16.0588 24.5448C16.161 24.655 16.2673 24.7612 16.3775 24.8635C16.4796 24.9736 16.5859 25.0798 16.6961 25.1821C16.7983 25.2923 16.9046 25.3986 17.0148 25.5008C17.0737 25.5643 17.1343 25.6261 17.1959 25.687C21.63 25.1451 25.1452 21.6298 25.687 17.1959ZM16.0005 20.7639C13.3698 20.7639 11.2368 18.631 11.2368 16.0003C11.2368 13.3696 13.3698 11.2366 16.0005 11.2366C18.6311 11.2366 20.7641 13.3696 20.7641 16.0003C20.7641 18.631 18.6311 20.7639 16.0005 20.7639Z" fill="url(#paint5_linear_9263_239136)"/>
<path d="M16.0001 10.2803C12.8413 10.2803 10.2803 12.8413 10.2803 16.0001C10.2803 19.159 12.8413 21.72 16.0001 21.72C19.159 21.72 21.72 19.159 21.72 16.0001C21.72 12.8413 19.159 10.2803 16.0001 10.2803ZM16.0001 18.9316C14.3813 18.9316 13.0687 17.619 13.0687 16.0001C13.0687 14.3813 14.3813 13.0687 16.0001 13.0687C17.619 13.0687 18.9316 14.3813 18.9316 16.0001C18.9316 17.619 17.619 18.9316 16.0001 18.9316Z" fill="url(#paint6_linear_9263_239136)"/>
<path d="M16 22.0059C19.3168 22.0059 22.0059 19.3168 22.0059 16C22.0059 12.6832 19.3168 9.99414 16 9.99414C12.6832 9.99414 9.99414 12.6832 9.99414 16C9.99414 19.3168 12.6832 22.0059 16 22.0059ZM16 11.8531C18.2901 11.8531 20.147 13.7099 20.147 16C20.147 18.2901 18.2901 20.147 16 20.147C13.71 20.147 11.8531 18.2901 11.8531 16C11.8531 13.71 13.7099 11.8531 16 11.8531Z" fill="url(#paint7_linear_9263_239136)"/>
<defs>
<linearGradient id="paint0_linear_9263_239136" x1="29.8895" y1="2.11037" x2="7.09677" y2="24.903" gradientUnits="userSpaceOnUse">
<stop stop-color="#5B6A6A"/>
<stop offset="0.311" stop-color="#C2CECE" stop-opacity="0"/>
<stop offset="0.348" stop-color="#CAD5D5" stop-opacity="0.157"/>
<stop offset="0.47" stop-color="#E0E8E7" stop-opacity="0.669"/>
<stop offset="0.549" stop-color="#E8EFEE"/>
<stop offset="0.788" stop-color="#97AAAA"/>
<stop offset="0.861" stop-color="#9CAEAE" stop-opacity="0.724"/>
<stop offset="0.946" stop-color="#AAB9B9" stop-opacity="0.402"/>
<stop offset="1" stop-color="#B7C3C3" stop-opacity="0.196"/>
</linearGradient>
<linearGradient id="paint1_linear_9263_239136" x1="15.9996" y1="31.7181" x2="15.9996" y2="0.28125" gradientUnits="userSpaceOnUse">
<stop offset="0.0168" stop-color="#ECECEC"/>
<stop offset="1" stop-color="#F2F2F2"/>
</linearGradient>
<linearGradient id="paint2_linear_9263_239136" x1="18.9734" y1="31.7064" x2="18.9734" y2="6.24023" gradientUnits="userSpaceOnUse">
<stop offset="0.0168" stop-color="#FCFCFC"/>
<stop offset="1" stop-color="#F2F2F2"/>
</linearGradient>
<linearGradient id="paint3_linear_9263_239136" x1="20.9251" y1="20.924" x2="10.4081" y2="10.407" gradientUnits="userSpaceOnUse">
<stop stop-color="#C2CECE"/>
<stop offset="0.293" stop-color="#BBC8C8"/>
<stop offset="0.72" stop-color="#A8B8B8"/>
<stop offset="1" stop-color="#97AAAA"/>
</linearGradient>
<linearGradient id="paint4_linear_9263_239136" x1="23.0432" y1="8.95641" x2="7.95809" y2="24.0416" gradientUnits="userSpaceOnUse">
<stop stop-color="#00A6F9"/>
<stop offset="1" stop-color="#0071E2"/>
</linearGradient>
<linearGradient id="paint5_linear_9263_239136" x1="24.8125" y1="24.8113" x2="16.7982" y2="16.7971" gradientUnits="userSpaceOnUse">
<stop offset="0.0001" stop-color="#008BF2" stop-opacity="0"/>
<stop offset="1" stop-color="#0046E2"/>
</linearGradient>
<linearGradient id="paint6_linear_9263_239136" x1="16.0006" y1="14.6209" x2="16.0006" y2="20.9237" gradientUnits="userSpaceOnUse">
<stop stop-color="#C2CECE"/>
<stop offset="1" stop-color="#97AAAA"/>
</linearGradient>
<linearGradient id="paint7_linear_9263_239136" x1="19.0312" y1="19.0302" x2="12.559" y2="12.558" gradientUnits="userSpaceOnUse">
<stop stop-color="#C2CECE"/>
<stop offset="0.293" stop-color="#BBC8C8"/>
<stop offset="0.72" stop-color="#A8B8B8"/>
<stop offset="1" stop-color="#97AAAA"/>
</linearGradient>
</defs>
</svg>
