<svg width="32" height="32" viewBox="0 0 32 32" fill="none" xmlns="http://www.w3.org/2000/svg">
<path d="M5.76006 2.56006C4.00037 2.56006 2.56006 4.00037 2.56006 5.76006V26.2401C2.56006 27.9997 4.00037 29.4401 5.76006 29.4401H26.2401C27.9997 29.4401 29.4401 27.9997 29.4401 26.2401V5.76006C29.4401 4.00037 27.9997 2.56006 26.2401 2.56006H5.76006ZM5.76006 3.84006H9.97131C7.68581 6.2181 6.40006 9.29163 6.40006 12.4801C6.40006 15.7825 7.75056 18.944 10.1826 21.3376C10.2594 21.472 10.3232 22.131 10.0288 22.8926C9.84321 23.3726 9.47186 23.9995 8.75506 24.2363C8.47986 24.3259 8.30086 24.5958 8.32006 24.8838C8.33926 25.1718 8.55096 25.415 8.83256 25.4726C10.6694 25.8374 11.8588 25.2865 12.8188 24.8513C13.6828 24.4545 14.2533 24.1854 15.1301 24.5438C16.9221 25.2414 18.8289 25.6001 20.8001 25.6001C23.42 25.6001 25.9402 24.9605 28.1601 23.7526V26.2401C28.1601 27.3079 27.3079 28.1601 26.2401 28.1601H5.76006C4.69223 28.1601 3.84006 27.3079 3.84006 26.2401V5.76006C3.84006 4.69223 4.69223 3.84006 5.76006 3.84006ZM21.1201 9.60006C21.4721 9.60006 21.7601 9.88806 21.7601 10.2401V16.0001C21.7601 16.3521 21.4721 16.6401 21.1201 16.6401C20.7681 16.6401 20.4801 16.3521 20.4801 16.0001V10.2401C20.4801 9.88806 20.7681 9.60006 21.1201 9.60006ZM11.5201 10.2401H14.7201C14.9505 10.2401 15.1686 10.3678 15.2838 10.5726C15.3926 10.771 15.3854 11.0204 15.2638 11.2188L12.6726 15.3601H14.7201C15.0721 15.3601 15.3601 15.6481 15.3601 16.0001C15.3601 16.3521 15.0721 16.6401 14.7201 16.6401H11.5201C11.2897 16.6401 11.0715 16.5124 10.9563 16.3076C10.8475 16.1092 10.8547 15.8597 10.9763 15.6613L13.5676 11.5201H11.5201C11.1681 11.5201 10.8801 11.2321 10.8801 10.8801C10.8801 10.5281 11.1681 10.2401 11.5201 10.2401ZM17.6001 12.1601C17.9905 12.1601 18.3549 12.2684 18.6813 12.4476C18.7965 12.2812 18.9761 12.1601 19.2001 12.1601C19.5521 12.1601 19.8401 12.4481 19.8401 12.8001V16.0001C19.8401 16.3521 19.5521 16.6401 19.2001 16.6401C18.9761 16.6401 18.7965 16.519 18.6813 16.3526C18.3549 16.5318 17.9905 16.6401 17.6001 16.6401C16.3649 16.6401 15.3601 15.6353 15.3601 14.4001C15.3601 13.1649 16.3649 12.1601 17.6001 12.1601ZM24.6401 12.1601C25.8753 12.1601 26.8801 13.1649 26.8801 14.4001C26.8801 15.6353 25.8753 16.6401 24.6401 16.6401C23.4049 16.6401 22.4001 15.6353 22.4001 14.4001C22.4001 13.1649 23.4049 12.1601 24.6401 12.1601ZM17.6001 13.4401C17.5337 13.4401 17.4689 13.4473 17.4063 13.4601C17.2812 13.4856 17.1647 13.5349 17.0626 13.6038C16.9604 13.6727 16.8727 13.7604 16.8038 13.8626C16.7349 13.9647 16.6856 14.0812 16.6601 14.2063C16.6473 14.2689 16.6401 14.3337 16.6401 14.4001C16.6401 14.4665 16.6473 14.5312 16.6601 14.5938C16.6728 14.6564 16.6908 14.7164 16.7151 14.7738C16.7393 14.8313 16.7693 14.8865 16.8038 14.9376C16.8383 14.9886 16.8779 15.0354 16.9213 15.0788C16.9647 15.1222 17.0115 15.1618 17.0626 15.1963C17.1647 15.2652 17.2812 15.3145 17.4063 15.3401C17.4689 15.3528 17.5337 15.3601 17.6001 15.3601C17.6665 15.3601 17.7312 15.3528 17.7938 15.3401C18.2317 15.2507 18.5601 14.8649 18.5601 14.4001C18.5601 13.8689 18.1313 13.4401 17.6001 13.4401ZM24.6401 13.4401C24.5737 13.4401 24.5089 13.4473 24.4463 13.4601C24.3837 13.4728 24.3238 13.4908 24.2663 13.5151C24.2089 13.5393 24.1536 13.5693 24.1026 13.6038C24.0515 13.6383 24.0047 13.6779 23.9613 13.7213C23.8745 13.8081 23.8036 13.9114 23.7551 14.0263C23.7308 14.0838 23.7128 14.1437 23.7001 14.2063C23.6873 14.2689 23.6801 14.3337 23.6801 14.4001C23.6801 14.4665 23.6873 14.5312 23.7001 14.5938C23.7128 14.6564 23.7308 14.7164 23.7551 14.7738C23.7793 14.8313 23.8093 14.8865 23.8438 14.9376C23.8783 14.9886 23.9179 15.0354 23.9613 15.0788C24.0047 15.1222 24.0515 15.1618 24.1026 15.1963C24.1536 15.2308 24.2089 15.2608 24.2663 15.2851C24.3238 15.3093 24.3837 15.3273 24.4463 15.3401C24.5089 15.3528 24.5737 15.3601 24.6401 15.3601C24.7065 15.3601 24.7712 15.3528 24.8338 15.3401C25.2717 15.2507 25.6001 14.8649 25.6001 14.4001C25.6001 13.8689 25.1713 13.4401 24.6401 13.4401Z" fill="white"/>
</svg>
