<svg width="24" height="24" viewBox="0 0 24 24" fill="none" xmlns="http://www.w3.org/2000/svg">
<path d="M11 12V10.2222C11 9.63285 11.2107 9.06762 11.5858 8.65087C11.9609 8.23413 12.4696 8 13 8C13.5304 8 14.0391 8.23413 14.4142 8.65087C14.7893 9.06762 15 9.63285 15 10.2222V12" stroke="#51B747" stroke-width="2" stroke-linecap="round" stroke-linejoin="round"/>
<path d="M15.3333 12H10.6667C10.2985 12 10 12.3256 10 12.7273V15.2727C10 15.6744 10.2985 16 10.6667 16H15.3333C15.7015 16 16 15.6744 16 15.2727V12.7273C16 12.3256 15.7015 12 15.3333 12Z" stroke="#51B747" stroke-width="2" stroke-linecap="round" stroke-linejoin="round"/>
<path d="M11.4498 20.8668C14.2379 21.3506 17.2101 20.5163 19.3632 18.364C22.879 14.8492 22.8789 9.15076 19.3632 5.63604C15.8474 2.12132 10.1471 2.12132 6.63132 5.63604C4.95391 7.31293 4.07681 9.48691 4 11.6837M4 11.6837L2 8.5M4 11.6837L7.5 10" stroke="#51B747" stroke-width="2" stroke-linecap="round"/>
</svg>
