<svg width="24" height="24" viewBox="0 0 24 24" fill="none" xmlns="http://www.w3.org/2000/svg">
<g clip-path="url(#clip0_4283_15965)">
<path d="M23.2535 18.759V19.4492H16.3588V18.759H23.2535Z" fill="url(#paint0_linear_4283_15965)" stroke="#91A9BE" stroke-width="1.00392"/>
<path d="M22.2821 18.759V19.4492H17.3303V18.759H22.2821Z" fill="url(#paint1_linear_4283_15965)" stroke="#91A9BE" stroke-width="1.00392"/>
<path d="M20.7551 19.9512H18.8571C18.7832 19.9512 18.7233 19.8912 18.7233 19.8173V18.391C18.7233 18.317 18.7832 18.2571 18.8571 18.2571H20.7551C20.8291 18.2571 20.889 18.317 20.889 18.391V19.8173C20.889 19.8912 20.8291 19.9512 20.7551 19.9512Z" fill="url(#paint2_linear_4283_15965)"/>
<path d="M16.3355 18.4631C16.1943 18.4631 16.0798 18.5776 16.0798 18.7188V19.9016C16.0798 19.918 16.0815 19.934 16.0845 19.9495C16.0937 19.9505 16.1031 19.9511 16.1126 19.9511H23.4997C23.6409 19.9511 23.7554 19.8367 23.7554 19.6955V18.5127C23.7554 18.4963 23.7537 18.4803 23.7508 18.4647C23.7415 18.4637 23.7322 18.4631 23.7227 18.4631H16.3355Z" fill="url(#paint3_linear_4283_15965)"/>
<path d="M23.4997 18.257H16.1125C15.9714 18.257 15.8569 18.1425 15.8569 18.0013V16.8185C15.8569 16.6773 15.9713 16.5629 16.1125 16.5629H23.4997C23.6409 16.5629 23.7554 16.6773 23.7554 16.8185V18.0013C23.7554 18.1425 23.641 18.257 23.4997 18.257Z" fill="url(#paint4_linear_4283_15965)"/>
<path d="M22.562 18.257H17.0503C16.9277 18.257 16.8283 18.1576 16.8283 18.035V16.7849C16.8283 16.6623 16.9277 16.5629 17.0503 16.5629H22.562C22.6846 16.5629 22.7841 16.6623 22.7841 16.7849V18.035C22.7841 18.1576 22.6847 18.257 22.562 18.257Z" fill="url(#paint5_linear_4283_15965)"/>
<path d="M20.7551 18.257H18.8571C18.7832 18.257 18.7233 18.197 18.7233 18.1231V16.6967C18.7233 16.6228 18.7832 16.5629 18.8571 16.5629H20.7551C20.8291 16.5629 20.889 16.6228 20.889 16.6967V18.1231C20.889 18.197 20.8291 18.257 20.7551 18.257Z" fill="url(#paint6_linear_4283_15965)"/>
<path d="M16.3355 16.769C16.1943 16.769 16.0798 16.8835 16.0798 17.0247V18.2075C16.0798 18.2239 16.0815 18.2399 16.0845 18.2554C16.0937 18.2565 16.1031 18.257 16.1126 18.257H23.4997C23.6409 18.257 23.7554 18.1426 23.7554 18.0014V16.8186C23.7554 16.8022 23.7537 16.7862 23.7508 16.7706C23.7415 16.7696 23.7322 16.769 23.7227 16.769H16.3355Z" fill="url(#paint7_linear_4283_15965)"/>
<path d="M23.4997 16.5629H16.1125C15.9714 16.5629 15.8569 16.4484 15.8569 16.3072V15.1244C15.8569 14.9832 15.9713 14.8688 16.1125 14.8688H23.4997C23.6409 14.8688 23.7554 14.9832 23.7554 15.1244V16.3072C23.7554 16.4484 23.641 16.5629 23.4997 16.5629Z" fill="url(#paint8_linear_4283_15965)"/>
<path d="M22.562 16.5629H17.0503C16.9277 16.5629 16.8283 16.4635 16.8283 16.3409V15.0908C16.8283 14.9682 16.9277 14.8688 17.0503 14.8688H22.562C22.6846 14.8688 22.7841 14.9682 22.7841 15.0908V16.3409C22.7841 16.4635 22.6847 16.5629 22.562 16.5629Z" fill="url(#paint9_linear_4283_15965)"/>
<path d="M20.7551 16.5629H18.8571C18.7832 16.5629 18.7233 16.5029 18.7233 16.429V15.0027C18.7233 14.9287 18.7832 14.8688 18.8571 14.8688H20.7551C20.8291 14.8688 20.889 14.9287 20.889 15.0027V16.429C20.889 16.5029 20.8291 16.5629 20.7551 16.5629Z" fill="url(#paint10_linear_4283_15965)"/>
<path d="M16.3355 15.075C16.1943 15.075 16.0798 15.1894 16.0798 15.3306V16.5134C16.0798 16.5298 16.0815 16.5458 16.0845 16.5614C16.0937 16.5623 16.1031 16.563 16.1126 16.563H23.4997C23.6409 16.563 23.7554 16.4485 23.7554 16.3073V15.1245C23.7554 15.1081 23.7537 15.0921 23.7508 15.0766C23.7415 15.0756 23.7322 15.075 23.7227 15.075H16.3355Z" fill="url(#paint11_linear_4283_15965)"/>
<path d="M23.4997 14.8688H16.1125C15.9714 14.8688 15.8569 14.7544 15.8569 14.6131V13.4304C15.8569 13.2891 15.9713 13.1747 16.1125 13.1747H23.4997C23.6409 13.1747 23.7554 13.2891 23.7554 13.4304V14.6131C23.7554 14.7544 23.641 14.8688 23.4997 14.8688Z" fill="url(#paint12_linear_4283_15965)"/>
<path d="M22.562 14.8688H17.0503C16.9277 14.8688 16.8283 14.7694 16.8283 14.6468V13.3967C16.8283 13.2741 16.9277 13.1747 17.0503 13.1747H22.562C22.6846 13.1747 22.7841 13.2741 22.7841 13.3967V14.6468C22.7841 14.7694 22.6847 14.8688 22.562 14.8688Z" fill="url(#paint13_linear_4283_15965)"/>
<path d="M20.7551 14.8688H18.8571C18.7832 14.8688 18.7233 14.8088 18.7233 14.7349V13.3086C18.7233 13.2346 18.7832 13.1747 18.8571 13.1747H20.7551C20.8291 13.1747 20.889 13.2346 20.889 13.3086V14.7349C20.889 14.8088 20.8291 14.8688 20.7551 14.8688Z" fill="url(#paint14_linear_4283_15965)"/>
<path d="M16.3355 13.3809C16.1943 13.3809 16.0798 13.4953 16.0798 13.6365V14.8193C16.0798 14.8357 16.0815 14.8517 16.0845 14.8673C16.0937 14.8683 16.1031 14.8689 16.1126 14.8689H23.4997C23.6409 14.8689 23.7554 14.7544 23.7554 14.6132V13.4304C23.7554 13.414 23.7537 13.398 23.7508 13.3825C23.7415 13.3814 23.7322 13.3809 23.7227 13.3809H16.3355Z" fill="url(#paint15_linear_4283_15965)"/>
<path d="M23.4997 13.1747H16.1125C15.9714 13.1747 15.8569 13.0603 15.8569 12.919V11.7363C15.8569 11.595 15.9713 11.4806 16.1125 11.4806H23.4997C23.6409 11.4806 23.7554 11.595 23.7554 11.7363V12.919C23.7554 13.0603 23.641 13.1747 23.4997 13.1747Z" fill="url(#paint16_linear_4283_15965)"/>
<path d="M22.562 13.1747H17.0503C16.9277 13.1747 16.8283 13.0753 16.8283 12.9527V11.7026C16.8283 11.58 16.9277 11.4806 17.0503 11.4806H22.562C22.6846 11.4806 22.7841 11.58 22.7841 11.7026V12.9527C22.7841 13.0753 22.6847 13.1747 22.562 13.1747Z" fill="url(#paint17_linear_4283_15965)"/>
<path d="M20.7551 13.1747H18.8571C18.7832 13.1747 18.7233 13.1148 18.7233 13.0408V11.6145C18.7233 11.5405 18.7832 11.4806 18.8571 11.4806H20.7551C20.8291 11.4806 20.889 11.5405 20.889 11.6145V13.0408C20.889 13.1148 20.8291 13.1747 20.7551 13.1747Z" fill="url(#paint18_linear_4283_15965)"/>
<path d="M16.3355 11.6866C16.1943 11.6866 16.0798 11.8011 16.0798 11.9423V13.1251C16.0798 13.1415 16.0815 13.1575 16.0845 13.173C16.0937 13.174 16.1031 13.1746 16.1126 13.1746H23.4997C23.6409 13.1746 23.7554 13.0602 23.7554 12.919V11.7362C23.7554 11.7198 23.7537 11.7038 23.7508 11.6882C23.7415 11.6873 23.7322 11.6866 23.7227 11.6866H16.3355Z" fill="url(#paint19_linear_4283_15965)"/>
<path d="M23.4997 11.4806H16.1125C15.9714 11.4806 15.8569 11.3662 15.8569 11.2249V10.0422C15.8569 9.90095 15.9713 9.7865 16.1125 9.7865H23.4997C23.6409 9.7865 23.7554 9.90095 23.7554 10.0422V11.2249C23.7554 11.3662 23.641 11.4806 23.4997 11.4806Z" fill="url(#paint20_linear_4283_15965)"/>
<path d="M22.562 11.4806H17.0503C16.9277 11.4806 16.8283 11.3812 16.8283 11.2586V10.0085C16.8283 9.88593 16.9277 9.7865 17.0503 9.7865H22.562C22.6846 9.7865 22.7841 9.88589 22.7841 10.0085V11.2586C22.7841 11.3812 22.6847 11.4806 22.562 11.4806Z" fill="url(#paint21_linear_4283_15965)"/>
<path d="M20.7551 11.4806H18.8571C18.7832 11.4806 18.7233 11.4207 18.7233 11.3467V9.92038C18.7233 9.84645 18.7832 9.7865 18.8571 9.7865H20.7551C20.8291 9.7865 20.889 9.84645 20.889 9.92038V11.3467C20.889 11.4207 20.8291 11.4806 20.7551 11.4806Z" fill="url(#paint22_linear_4283_15965)"/>
<path d="M16.3355 9.99255C16.1943 9.99255 16.0798 10.107 16.0798 10.2482V11.431C16.0798 11.4474 16.0815 11.4634 16.0845 11.479C16.0937 11.4799 16.1031 11.4806 16.1126 11.4806H23.4997C23.6409 11.4806 23.7554 11.3661 23.7554 11.2249V10.0421C23.7554 10.0257 23.7537 10.0097 23.7508 9.99415C23.7415 9.99317 23.7322 9.99255 23.7227 9.99255H16.3355Z" fill="url(#paint23_linear_4283_15965)"/>
<path d="M23.4997 9.78652H16.1125C15.9714 9.78652 15.8569 9.67208 15.8569 9.53085V8.34808C15.8569 8.20685 15.9713 8.09241 16.1125 8.09241H23.4997C23.6409 8.09241 23.7554 8.20685 23.7554 8.34808V9.53085C23.7554 9.67203 23.641 9.78652 23.4997 9.78652Z" fill="url(#paint24_linear_4283_15965)"/>
<path d="M22.562 9.78645H17.0503C16.9277 9.78645 16.8283 9.68706 16.8283 9.56443V8.31431C16.8283 8.19172 16.9277 8.09229 17.0503 8.09229H22.562C22.6846 8.09229 22.7841 8.19167 22.7841 8.31431V9.56438C22.7841 9.68701 22.6847 9.78645 22.562 9.78645Z" fill="url(#paint25_linear_4283_15965)"/>
<path d="M20.7551 9.78652H18.8571C18.7832 9.78652 18.7233 9.72657 18.7233 9.65264V8.22629C18.7233 8.15236 18.7832 8.09241 18.8571 8.09241H20.7551C20.8291 8.09241 20.889 8.15236 20.889 8.22629V9.65264C20.889 9.72657 20.8291 9.78652 20.7551 9.78652Z" fill="url(#paint26_linear_4283_15965)"/>
<path d="M16.3355 8.29846C16.1943 8.29846 16.0798 8.41291 16.0798 8.55413V9.73691C16.0798 9.75333 16.0815 9.76933 16.0845 9.78486C16.0937 9.78585 16.1031 9.78646 16.1126 9.78646H23.4997C23.6409 9.78646 23.7554 9.67201 23.7554 9.53079V8.34802C23.7554 8.33159 23.7537 8.31559 23.7508 8.30006C23.7415 8.29907 23.7322 8.29846 23.7227 8.29846H16.3355Z" fill="url(#paint27_linear_4283_15965)"/>
<path d="M23.4997 8.09243H16.1125C15.9714 8.09243 15.8569 7.97799 15.8569 7.83676V6.65399C15.8569 6.51276 15.9713 6.39832 16.1125 6.39832H23.4997C23.6409 6.39832 23.7554 6.51276 23.7554 6.65399V7.83676C23.7554 7.97794 23.641 8.09243 23.4997 8.09243Z" fill="url(#paint28_linear_4283_15965)"/>
<path d="M22.562 8.09243H17.0503C16.9277 8.09243 16.8283 7.99305 16.8283 7.87041V6.62034C16.8283 6.49775 16.9277 6.39832 17.0503 6.39832H22.562C22.6846 6.39832 22.7841 6.4977 22.7841 6.62034V7.87041C22.7841 7.99305 22.6847 8.09243 22.562 8.09243Z" fill="url(#paint29_linear_4283_15965)"/>
<path d="M20.7551 8.09243H18.8571C18.7832 8.09243 18.7233 8.03248 18.7233 7.95855V6.5322C18.7233 6.45827 18.7832 6.39832 18.8571 6.39832H20.7551C20.8291 6.39832 20.889 6.45827 20.889 6.5322V7.95855C20.889 8.03248 20.8291 8.09243 20.7551 8.09243Z" fill="url(#paint30_linear_4283_15965)"/>
<path d="M16.3355 6.60437C16.1943 6.60437 16.0798 6.71882 16.0798 6.86004V8.04282C16.0798 8.05924 16.0815 8.07519 16.0845 8.09077C16.0937 8.09176 16.1031 8.09237 16.1126 8.09237H23.4997C23.6409 8.09237 23.7554 7.97792 23.7554 7.8367V6.65392C23.7554 6.6375 23.7537 6.6215 23.7508 6.60597C23.7415 6.60498 23.7322 6.60437 23.7227 6.60437H16.3355Z" fill="url(#paint31_linear_4283_15965)"/>
<path d="M19.6561 12.5963L18.9773 9.03616C18.4709 6.38063 16.149 4.45959 13.4456 4.45959H10.8986C8.19519 4.45959 5.87326 6.38063 5.36691 9.03616L4.98202 11.0547C4.61213 12.9944 4.02089 14.8921 3.13665 16.6578C2.87811 17.174 2.74235 17.7624 2.7678 18.3848C2.84136 20.1855 4.42616 21.7349 6.22804 21.7702C6.24126 21.7704 6.25444 21.7706 6.26762 21.7707C7.08512 21.7778 7.87223 22.0964 8.44555 22.6792C9.0863 23.3306 9.97759 23.7346 10.9636 23.7346C12.1603 23.7346 13.2177 23.1397 13.8569 22.2296C14.0627 21.9366 14.4002 21.7701 14.7583 21.7708H14.7645C14.9183 21.7708 15.0695 21.7595 15.2172 21.7375C15.4958 21.6963 15.7776 21.7674 16.0076 21.93C16.6296 22.3699 17.3998 22.6142 18.2288 22.5722C20.0031 22.4824 21.4505 21.0621 21.5711 19.2896C21.6144 18.6519 21.4883 18.0474 21.2333 17.5165C20.485 15.9582 19.9799 14.2944 19.6561 12.5963Z" fill="url(#paint32_radial_4283_15965)"/>
<path d="M6.29884 21.7708C8.25065 21.7708 9.83291 20.1885 9.83291 18.2367C9.83291 16.2849 8.25065 14.7026 6.29884 14.7026C4.34703 14.7026 2.76477 16.2849 2.76477 18.2367C2.76477 20.1885 4.34703 21.7708 6.29884 21.7708Z" fill="url(#paint33_linear_4283_15965)"/>
<path d="M10.9636 23.7346C12.9154 23.7346 14.4977 22.1524 14.4977 20.2006C14.4977 18.2488 12.9154 16.6665 10.9636 16.6665C9.01182 16.6665 7.42957 18.2488 7.42957 20.2006C7.42957 22.1524 9.01182 23.7346 10.9636 23.7346Z" fill="url(#paint34_linear_4283_15965)"/>
<path d="M18.0454 22.5769C19.9972 22.5769 21.5794 20.9947 21.5794 19.0429C21.5794 17.091 19.9972 15.5088 18.0454 15.5088C16.0935 15.5088 14.5113 17.091 14.5113 19.0429C14.5113 20.9947 16.0935 22.5769 18.0454 22.5769Z" fill="url(#paint35_linear_4283_15965)"/>
<path d="M21.571 19.2897C21.6144 18.6519 21.4883 18.0475 21.2333 17.5165C20.485 15.9582 19.9799 14.2944 19.6562 12.5963L18.9773 9.03616C18.7936 8.07258 18.3699 7.20656 17.7766 6.49305C16.7947 5.68002 15.5377 5.19922 14.1852 5.19922H11.6382C8.93484 5.19922 6.61286 7.12025 6.10651 9.77578L5.72162 11.7943C5.35173 13.734 4.76049 15.6317 3.87625 17.3974C3.61771 17.9136 3.48195 18.5019 3.50736 19.1243C3.5363 19.8328 3.79988 20.5019 4.21785 21.0556C4.79305 21.4888 5.49235 21.7557 6.22802 21.7701C6.24124 21.7704 6.25442 21.7706 6.26759 21.7707C7.0851 21.7778 7.87225 22.0963 8.44557 22.6792C9.08632 23.3306 9.97762 23.7346 10.9636 23.7346C12.1603 23.7346 13.2177 23.1396 13.857 22.2296C14.0627 21.9366 14.4003 21.7701 14.7583 21.7708H14.7645C14.9184 21.7708 15.0695 21.7594 15.2172 21.7375C15.4958 21.6962 15.7777 21.7673 16.0076 21.9299C16.6296 22.3699 17.3998 22.6141 18.2289 22.5722C20.0031 22.4825 21.4505 21.0621 21.571 19.2897Z" fill="url(#paint36_linear_4283_15965)"/>
<path d="M14.2254 8.61977C13.9695 8.54062 13.7264 8.48363 13.4962 8.44848C13.3851 8.43149 13.2729 8.41775 13.1598 8.40693C13.1589 8.40641 13.158 8.40589 13.1571 8.40537L12.639 7.86881C12.5367 7.80203 12.4258 7.76843 12.3064 7.76843C12.1699 7.76843 12.0548 7.80024 11.961 7.8634C11.8671 7.92674 11.8203 8.00194 11.8203 8.08867V8.42086C11.0783 8.52519 10.4663 8.79926 9.98459 9.24279C9.50261 9.68632 9.26181 10.295 9.26181 11.069C9.26181 11.3846 9.3172 11.6724 9.42807 11.9325C9.53885 12.1927 9.6668 12.4058 9.81193 12.5721L11.8204 14.5824V15.7767C11.4877 15.7171 11.1252 15.5486 10.733 15.2714C10.3406 14.9943 10.0634 14.8556 9.90144 14.8556C9.67118 14.8556 9.46854 14.9751 9.29377 15.2138C9.1189 15.4527 9.03156 15.6915 9.03156 15.9302C9.03156 16.2413 9.18417 16.5286 9.48887 16.7924L14.4972 21.8007C14.5819 21.7809 14.6695 21.7706 14.7584 21.7708H14.7646C14.9185 21.7708 15.0696 21.7594 15.2173 21.7375C15.4959 21.6962 15.7778 21.7674 16.0077 21.93C16.6297 22.3699 17.3999 22.6142 18.229 22.5722C20.0033 22.4824 21.4506 21.0621 21.5712 19.2896C21.6146 18.6519 21.4884 18.0474 21.2334 17.5165C20.7126 16.432 20.31 15.2962 20.0039 14.1335L14.8458 8.97559C14.6879 8.81747 14.4812 8.69893 14.2254 8.61977Z" fill="url(#paint37_linear_4283_15965)"/>
<path d="M15.1529 13.845C15.046 13.5722 14.9182 13.3461 14.7691 13.167C14.6197 12.9879 14.4214 12.8174 14.1741 12.6553C13.9267 12.4934 13.7051 12.3697 13.5089 12.2843C13.3127 12.1992 13.074 12.101 12.7926 11.9901V10.1223C13.0996 10.1479 13.3958 10.2332 13.6817 10.3782C13.9673 10.5233 14.1698 10.5957 14.2893 10.5957C14.5366 10.5957 14.7307 10.4743 14.8714 10.2317C15.0121 9.989 15.0825 9.75474 15.0825 9.52928C15.0825 9.31841 15.0036 9.13394 14.8458 8.97559C14.6879 8.81747 14.4812 8.69897 14.2254 8.61977C13.9695 8.54062 13.7264 8.48363 13.4962 8.44848C13.2659 8.41328 13.0312 8.3913 12.7926 8.3825V8.08726C12.7926 8.00848 12.7414 7.93573 12.639 7.86876C12.5367 7.80199 12.4258 7.76843 12.3064 7.76843C12.1699 7.76843 12.0548 7.80024 11.961 7.8634C11.8671 7.92674 11.8203 8.00194 11.8203 8.08867V8.42086C11.0783 8.52519 10.4663 8.79926 9.98459 9.24279C9.50261 9.68632 9.26181 10.295 9.26181 11.069C9.26181 11.3846 9.31715 11.6724 9.42807 11.9325C9.53885 12.1927 9.6668 12.4058 9.81193 12.5721C9.95683 12.7384 10.1615 12.9005 10.426 13.0582C10.6902 13.2162 10.9121 13.3333 11.0912 13.41C11.2703 13.4867 11.5133 13.5849 11.8204 13.7042V15.7767C11.4877 15.7171 11.1252 15.5486 10.733 15.2714C10.3406 14.9943 10.0634 14.8556 9.90144 14.8556C9.67118 14.8556 9.46854 14.9751 9.29377 15.2138C9.1189 15.4527 9.03156 15.6915 9.03156 15.9302C9.03156 16.3482 9.30661 16.7234 9.85668 17.056C10.4068 17.3886 11.0612 17.5677 11.8204 17.5933V17.9131C11.8204 18.0068 11.8672 18.0878 11.9611 18.1562C12.0548 18.2243 12.1699 18.2585 12.3065 18.2585C12.4258 18.2585 12.5368 18.2221 12.6391 18.1498C12.7415 18.0772 12.7926 17.9982 12.7926 17.9131V17.5421C13.5602 17.4142 14.172 17.1115 14.6284 16.6338C15.0845 16.1562 15.3128 15.5294 15.3128 14.7532C15.3127 14.4207 15.2594 14.118 15.1529 13.845ZM11.9483 11.683C11.4024 11.4528 11.1295 11.1841 11.1295 10.8771C11.1295 10.5105 11.4023 10.2716 11.9483 10.1607V11.683ZM12.6646 15.7639V14.0497C13.1847 14.2971 13.445 14.5998 13.445 14.958C13.445 15.3759 13.1847 15.6446 12.6646 15.7639Z" fill="url(#paint38_linear_4283_15965)"/>
<path d="M13.9079 4.45961H10.4363L8.85689 1.43185C8.62371 0.984883 8.88992 0.439847 9.38578 0.348929L10.4201 0.159282C11.5784 -0.0530941 12.7657 -0.0530941 13.924 0.159282L14.9583 0.348929C15.4542 0.439847 15.7204 0.984836 15.4872 1.43185L13.9079 4.45961Z" fill="url(#paint39_linear_4283_15965)"/>
<path d="M12.7494 4.45961H11.5948L11.0695 1.43185C10.9919 0.984883 11.0805 0.439847 11.2454 0.348929L11.5894 0.159282C11.9746 -0.0530941 12.3695 -0.0530941 12.7548 0.159282L13.0988 0.348929C13.2637 0.439847 13.3522 0.984836 13.2747 1.43185L12.7494 4.45961Z" fill="url(#paint40_linear_4283_15965)"/>
<path d="M15.4351 0.653605C15.5028 0.749887 15.4687 0.884052 15.3637 0.937275C14.8712 1.18777 14.2887 1.18777 13.7962 0.937275L13.3608 0.716193C12.8683 0.465699 12.2858 0.465699 11.7933 0.716193L11.3584 0.937275C10.8658 1.18777 10.2834 1.18777 9.7908 0.937275L9.33532 0.705605C9.17575 0.624428 9.20549 0.383063 9.38144 0.350028C9.38295 0.349746 9.3844 0.349463 9.38591 0.349181L10.4202 0.159157C11.5783 -0.0528897 12.7659 -0.0528897 13.924 0.159157L14.9583 0.349181C15.1626 0.386404 15.3276 0.500663 15.4351 0.653605Z" fill="url(#paint41_linear_4283_15965)"/>
<path d="M15.4973 1.07801C15.5205 1.02159 15.5374 0.963706 15.5498 0.905353C15.4818 0.633635 15.2639 0.404977 14.9584 0.348929L13.9241 0.159282C12.7657 -0.0530941 11.5784 -0.0530941 10.4201 0.159282L9.64869 0.300741C9.55203 0.532318 9.5397 0.819565 9.64624 1.07801L11.04 4.45961H13.9079L14.8402 2.67227L15.4973 1.07801Z" fill="url(#paint42_linear_4283_15965)"/>
<path d="M12.1721 4.79899C11.4196 4.79899 10.7073 4.75038 10.1236 4.66054C9.93135 4.63094 9.80241 4.4477 9.84118 4.25711C9.87723 4.07989 10.0456 3.96191 10.2244 3.9893C10.7726 4.07335 11.4623 4.1204 12.1721 4.1204C12.8819 4.1204 13.5715 4.07335 14.1198 3.9893C14.2986 3.96191 14.467 4.07984 14.503 4.25711C14.5418 4.4477 14.4129 4.63099 14.2206 4.66054C13.6369 4.75038 12.9246 4.79899 12.1721 4.79899Z" fill="url(#paint43_linear_4283_15965)"/>
<path d="M8.13503 14.0315C8.10806 13.9191 8.00802 13.8353 7.88745 13.8353H6.94971H5.14284H4.2794C3.96957 14.803 3.59225 15.748 3.13663 16.6578C2.87809 17.174 2.74232 17.7623 2.76773 18.3847C2.84129 20.1854 4.42613 21.7349 6.22802 21.7702C6.24124 21.7704 6.25442 21.7706 6.26759 21.7707C7.0851 21.7778 7.87225 22.0964 8.44557 22.6792C9.08632 23.3306 9.97762 23.7346 10.9636 23.7346C12.1603 23.7346 13.2177 23.1397 13.857 22.2296C14.0627 21.9366 14.4003 21.7701 14.7583 21.7708H14.7645C14.9184 21.7708 15.0695 21.7594 15.2172 21.7375C15.4958 21.6962 15.7777 21.7673 16.0076 21.93C16.034 21.9486 16.0611 21.9665 16.088 21.9844L8.13503 14.0315Z" fill="url(#paint44_linear_4283_15965)"/>
<path d="M7.88744 24H0.500238C0.359062 24 0.244568 23.8856 0.244568 23.7444V22.5616C0.244568 22.4204 0.359015 22.3059 0.500238 22.3059H7.88744C8.02862 22.3059 8.14311 22.4204 8.14311 22.5616V23.7444C8.14311 23.8856 8.02862 24 7.88744 24Z" fill="url(#paint45_linear_4283_15965)"/>
<path d="M6.94968 24H1.43797C1.31533 24 1.21594 23.9006 1.21594 23.778V22.5279C1.21594 22.4053 1.31533 22.3059 1.43797 22.3059H6.94968C7.07227 22.3059 7.17171 22.4053 7.17171 22.5279V23.778C7.17171 23.9006 7.07232 24 6.94968 24Z" fill="url(#paint46_linear_4283_15965)"/>
<path d="M5.14282 24H3.24484C3.17091 24 3.11096 23.9401 3.11096 23.8661V22.4398C3.11096 22.3659 3.17091 22.3059 3.24484 22.3059H5.14282C5.21675 22.3059 5.2767 22.3659 5.2767 22.4398V23.8661C5.2767 23.9401 5.21675 24 5.14282 24Z" fill="url(#paint47_linear_4283_15965)"/>
<path d="M0.723139 22.512C0.581915 22.512 0.467468 22.6264 0.467468 22.7676V23.9504C0.467468 23.9668 0.469162 23.9828 0.472127 23.9984C0.481351 23.9994 0.490715 24 0.500221 24H7.88742C8.02865 24 8.14309 23.8855 8.14309 23.7443V22.5615C8.14309 22.5451 8.1414 22.5291 8.13843 22.5136C8.12921 22.5126 8.11985 22.512 8.11034 22.512H0.723139Z" fill="url(#paint48_linear_4283_15965)"/>
<path d="M7.88744 22.3059H0.500238C0.359062 22.3059 0.244568 22.1915 0.244568 22.0503V20.8675C0.244568 20.7263 0.359015 20.6118 0.500238 20.6118H7.88744C8.02862 20.6118 8.14311 20.7263 8.14311 20.8675V22.0503C8.14311 22.1915 8.02862 22.3059 7.88744 22.3059Z" fill="url(#paint49_linear_4283_15965)"/>
<path d="M6.94968 22.3059H1.43797C1.31533 22.3059 1.21594 22.2065 1.21594 22.0838V20.8337C1.21594 20.7111 1.31533 20.6117 1.43797 20.6117H6.94968C7.07227 20.6117 7.17171 20.7111 7.17171 20.8337V22.0838C7.17171 22.2065 7.07232 22.3059 6.94968 22.3059Z" fill="url(#paint50_linear_4283_15965)"/>
<path d="M5.14282 22.3059H3.24484C3.17091 22.3059 3.11096 22.246 3.11096 22.1721V20.7457C3.11096 20.6718 3.17091 20.6118 3.24484 20.6118H5.14282C5.21675 20.6118 5.2767 20.6718 5.2767 20.7457V22.1721C5.2767 22.246 5.21675 22.3059 5.14282 22.3059Z" fill="url(#paint51_linear_4283_15965)"/>
<path d="M0.723139 20.8179C0.581915 20.8179 0.467468 20.9323 0.467468 21.0735V22.2563C0.467468 22.2727 0.469162 22.2887 0.472127 22.3043C0.481351 22.3053 0.490715 22.3059 0.500221 22.3059H7.88742C8.02865 22.3059 8.14309 22.1914 8.14309 22.0502V20.8674C8.14309 20.851 8.1414 20.835 8.13843 20.8195C8.12921 20.8184 8.11985 20.8179 8.11034 20.8179H0.723139Z" fill="url(#paint52_linear_4283_15965)"/>
<path d="M7.88744 20.6117H0.500238C0.359062 20.6117 0.244568 20.4973 0.244568 20.356V19.1733C0.244568 19.0321 0.359015 18.9176 0.500238 18.9176H7.88744C8.02862 18.9176 8.14311 19.0321 8.14311 19.1733V20.356C8.14311 20.4973 8.02862 20.6117 7.88744 20.6117Z" fill="url(#paint53_linear_4283_15965)"/>
<path d="M6.94968 20.6117H1.43797C1.31533 20.6117 1.21594 20.5123 1.21594 20.3897V19.1396C1.21594 19.017 1.31533 18.9176 1.43797 18.9176H6.94968C7.07227 18.9176 7.17171 19.017 7.17171 19.1396V20.3897C7.17171 20.5123 7.07232 20.6117 6.94968 20.6117Z" fill="url(#paint54_linear_4283_15965)"/>
<path d="M5.14282 20.6117H3.24484C3.17091 20.6117 3.11096 20.5518 3.11096 20.4778V19.0515C3.11096 18.9776 3.17091 18.9176 3.24484 18.9176H5.14282C5.21675 18.9176 5.2767 18.9776 5.2767 19.0515V20.4778C5.2767 20.5518 5.21675 20.6117 5.14282 20.6117Z" fill="url(#paint55_linear_4283_15965)"/>
<path d="M0.723139 19.1238C0.581915 19.1238 0.467468 19.2382 0.467468 19.3794V20.5622C0.467468 20.5786 0.469162 20.5946 0.472127 20.6102C0.481351 20.6112 0.490715 20.6118 0.500221 20.6118H7.88742C8.02865 20.6118 8.14309 20.4973 8.14309 20.3561V19.1733C8.14309 19.1569 8.1414 19.141 8.13843 19.1254C8.12921 19.1244 8.11985 19.1238 8.11034 19.1238H0.723139Z" fill="url(#paint56_linear_4283_15965)"/>
<path d="M7.88744 18.9176H0.500238C0.359062 18.9176 0.244568 18.8032 0.244568 18.662V17.4792C0.244568 17.338 0.359015 17.2235 0.500238 17.2235H7.88744C8.02862 17.2235 8.14311 17.338 8.14311 17.4792V18.662C8.14311 18.8032 8.02862 18.9176 7.88744 18.9176Z" fill="url(#paint57_linear_4283_15965)"/>
<path d="M6.94968 18.9177H1.43797C1.31533 18.9177 1.21594 18.8183 1.21594 18.6957V17.4455C1.21594 17.3229 1.31533 17.2235 1.43797 17.2235H6.94968C7.07227 17.2235 7.17171 17.3229 7.17171 17.4455V18.6957C7.17171 18.8183 7.07232 18.9177 6.94968 18.9177Z" fill="url(#paint58_linear_4283_15965)"/>
<path d="M5.14282 18.9176H3.24484C3.17091 18.9176 3.11096 18.8577 3.11096 18.7837V17.3574C3.11096 17.2835 3.17091 17.2235 3.24484 17.2235H5.14282C5.21675 17.2235 5.2767 17.2835 5.2767 17.3574V18.7837C5.2767 18.8577 5.21675 18.9176 5.14282 18.9176Z" fill="url(#paint59_linear_4283_15965)"/>
<path d="M0.723139 17.4297C0.581915 17.4297 0.467468 17.5441 0.467468 17.6854V18.8681C0.467468 18.8846 0.469162 18.9005 0.472127 18.9161C0.481351 18.9171 0.490715 18.9177 0.500221 18.9177H7.88742C8.02865 18.9177 8.14309 18.8032 8.14309 18.662V17.4792C8.14309 17.4628 8.1414 17.4469 8.13843 17.4313C8.12921 17.4303 8.11985 17.4297 8.11034 17.4297H0.723139Z" fill="url(#paint60_linear_4283_15965)"/>
<path d="M7.88744 17.2235H0.500238C0.359062 17.2235 0.244568 17.1091 0.244568 16.9679V15.7851C0.244568 15.6439 0.359015 15.5294 0.500238 15.5294H7.88744C8.02862 15.5294 8.14311 15.6439 8.14311 15.7851V16.9679C8.14311 17.109 8.02862 17.2235 7.88744 17.2235Z" fill="url(#paint61_linear_4283_15965)"/>
<path d="M6.94968 17.2235H1.43797C1.31533 17.2235 1.21594 17.1241 1.21594 17.0015V15.7514C1.21594 15.6289 1.31533 15.5294 1.43797 15.5294H6.94968C7.07227 15.5294 7.17171 15.6288 7.17171 15.7514V17.0015C7.17171 17.1241 7.07232 17.2235 6.94968 17.2235Z" fill="url(#paint62_linear_4283_15965)"/>
<path d="M5.14282 17.2235H3.24484C3.17091 17.2235 3.11096 17.1636 3.11096 17.0897V15.6633C3.11096 15.5894 3.17091 15.5294 3.24484 15.5294H5.14282C5.21675 15.5294 5.2767 15.5894 5.2767 15.6633V17.0897C5.2767 17.1636 5.21675 17.2235 5.14282 17.2235Z" fill="url(#paint63_linear_4283_15965)"/>
<path d="M0.723139 15.7355C0.581915 15.7355 0.467468 15.8499 0.467468 15.9911V17.1739C0.467468 17.1903 0.469162 17.2063 0.472127 17.2219C0.481351 17.2229 0.490715 17.2235 0.500221 17.2235H7.88742C8.02865 17.2235 8.14309 17.109 8.14309 16.9678V15.785C8.14309 15.7686 8.1414 15.7526 8.13843 15.7371C8.12921 15.7361 8.11985 15.7355 8.11034 15.7355H0.723139Z" fill="url(#paint64_linear_4283_15965)"/>
<path d="M7.88744 15.5294H0.500238C0.359062 15.5294 0.244568 15.415 0.244568 15.2738V14.091C0.244568 13.9498 0.359015 13.8353 0.500238 13.8353H7.88744C8.02862 13.8353 8.14311 13.9498 8.14311 14.091V15.2738C8.14311 15.4149 8.02862 15.5294 7.88744 15.5294Z" fill="url(#paint65_linear_4283_15965)"/>
<path d="M6.94968 15.5295H1.43797C1.31533 15.5295 1.21594 15.4301 1.21594 15.3075V14.0574C1.21594 13.9348 1.31533 13.8353 1.43797 13.8353H6.94968C7.07227 13.8353 7.17171 13.9347 7.17171 14.0574V15.3075C7.17171 15.4301 7.07232 15.5295 6.94968 15.5295Z" fill="url(#paint66_linear_4283_15965)"/>
<path d="M5.14282 15.5294H3.24484C3.17091 15.5294 3.11096 15.4695 3.11096 15.3956V13.9692C3.11096 13.8953 3.17091 13.8353 3.24484 13.8353H5.14282C5.21675 13.8353 5.2767 13.8953 5.2767 13.9692V15.3956C5.2767 15.4695 5.21675 15.5294 5.14282 15.5294Z" fill="url(#paint67_linear_4283_15965)"/>
<path d="M0.723139 14.0415C0.581915 14.0415 0.467468 14.156 0.467468 14.2972V15.48C0.467468 15.4964 0.469162 15.5123 0.472127 15.5279C0.481351 15.5289 0.490715 15.5295 0.500221 15.5295H7.88742C8.02865 15.5295 8.14309 15.4151 8.14309 15.2738V14.0911C8.14309 14.0746 8.1414 14.0587 8.13843 14.0431C8.12921 14.0421 8.11985 14.0415 8.11034 14.0415H0.723139Z" fill="url(#paint68_linear_4283_15965)"/>
<path d="M21.7389 24H14.3517C14.2105 24 14.0961 23.8856 14.0961 23.7444V22.5616C14.0961 22.4204 14.2105 22.3059 14.3517 22.3059H21.7389C21.8801 22.3059 21.9946 22.4204 21.9946 22.5616V23.7444C21.9946 23.8856 21.8801 24 21.7389 24Z" fill="url(#paint69_linear_4283_15965)"/>
<path d="M20.8012 24H15.2895C15.1669 24 15.0675 23.9006 15.0675 23.778V22.5279C15.0675 22.4053 15.1669 22.3059 15.2895 22.3059H20.8012C20.9238 22.3059 21.0233 22.4053 21.0233 22.5279V23.778C21.0233 23.9006 20.9238 24 20.8012 24Z" fill="url(#paint70_linear_4283_15965)"/>
<path d="M18.9944 24H17.0964C17.0225 24 16.9625 23.9401 16.9625 23.8661V22.4398C16.9625 22.3659 17.0225 22.3059 17.0964 22.3059H18.9944C19.0683 22.3059 19.1283 22.3659 19.1283 22.4398V23.8661C19.1283 23.9401 19.0683 24 18.9944 24Z" fill="url(#paint71_linear_4283_15965)"/>
<path d="M14.5747 22.512C14.4335 22.512 14.319 22.6264 14.319 22.7676V23.9504C14.319 23.9668 14.3207 23.9828 14.3237 23.9984C14.3329 23.9994 14.3423 24 14.3518 24H21.739C21.8802 24 21.9947 23.8855 21.9947 23.7443V22.5615C21.9947 22.5451 21.993 22.5291 21.99 22.5136C21.9808 22.5126 21.9714 22.512 21.9619 22.512H14.5747Z" fill="url(#paint72_linear_4283_15965)"/>
<path d="M21.7389 22.3059H14.3517C14.2105 22.3059 14.0961 22.1915 14.0961 22.0503V20.8675C14.0961 20.7263 14.2105 20.6118 14.3517 20.6118H21.7389C21.8801 20.6118 21.9946 20.7263 21.9946 20.8675V22.0503C21.9946 22.1915 21.8801 22.3059 21.7389 22.3059Z" fill="url(#paint73_linear_4283_15965)"/>
<path d="M20.8012 22.3059H15.2895C15.1669 22.3059 15.0675 22.2065 15.0675 22.0838V20.8337C15.0675 20.7111 15.1669 20.6117 15.2895 20.6117H20.8012C20.9238 20.6117 21.0233 20.7111 21.0233 20.8337V22.0838C21.0233 22.2065 20.9238 22.3059 20.8012 22.3059Z" fill="url(#paint74_linear_4283_15965)"/>
<path d="M18.9944 22.3059H17.0964C17.0225 22.3059 16.9625 22.246 16.9625 22.1721V20.7457C16.9625 20.6718 17.0225 20.6118 17.0964 20.6118H18.9944C19.0683 20.6118 19.1283 20.6718 19.1283 20.7457V22.1721C19.1283 22.246 19.0683 22.3059 18.9944 22.3059Z" fill="url(#paint75_linear_4283_15965)"/>
<path d="M14.5747 20.8179C14.4335 20.8179 14.319 20.9323 14.319 21.0735V22.2563C14.319 22.2727 14.3207 22.2887 14.3237 22.3043C14.3329 22.3053 14.3423 22.3059 14.3518 22.3059H21.739C21.8802 22.3059 21.9947 22.1914 21.9947 22.0502V20.8674C21.9947 20.851 21.993 20.835 21.99 20.8195C21.9808 20.8184 21.9714 20.8179 21.9619 20.8179H14.5747Z" fill="url(#paint76_linear_4283_15965)"/>
<path d="M4.37906 9.86719C3.67252 10.3276 3.06969 10.9341 2.61317 11.6436C2.51049 11.8031 2.2736 11.8027 2.17153 11.6428C1.7176 10.9317 1.11699 10.323 0.412139 9.85999C0.255668 9.75721 0.256091 9.52357 0.412938 9.42135C1.11948 8.96093 1.7223 8.35448 2.17882 7.64502C2.28146 7.48549 2.5184 7.48592 2.62047 7.64582C3.0744 8.35693 3.67501 8.96559 4.3799 9.4286C4.53633 9.53133 4.5359 9.76502 4.37906 9.86719Z" fill="url(#paint77_linear_4283_15965)"/>
<path d="M7.19337 3.4584C6.69375 3.784 6.26744 4.21284 5.94462 4.71458C5.872 4.82738 5.70447 4.8271 5.63229 4.71402C5.3113 4.21115 4.88655 3.78075 4.3881 3.45331C4.27746 3.38066 4.27775 3.21538 4.38866 3.1431C4.88829 2.8175 5.31459 2.38866 5.63742 1.88691C5.71003 1.77411 5.87756 1.7744 5.94975 1.88748C6.27073 2.39035 6.69549 2.82075 7.19393 3.14818C7.30457 3.22089 7.30429 3.38611 7.19337 3.4584Z" fill="url(#paint78_linear_4283_15965)"/>
<path d="M20.7637 4.61721C20.2641 4.94281 19.8378 5.37166 19.515 5.8734C19.4424 5.9862 19.2748 5.98592 19.2027 5.87283C18.8817 5.36996 18.4569 4.93956 17.9585 4.61213C17.8478 4.53947 17.8481 4.3742 17.959 4.30192C18.4587 3.97632 18.885 3.54747 19.2078 3.04573C19.2804 2.93293 19.4479 2.93321 19.5201 3.04629C19.8412 3.54916 20.2659 3.97956 20.7643 4.307C20.8749 4.3797 20.8747 4.54493 20.7637 4.61721Z" fill="url(#paint79_linear_4283_15965)"/>
</g>
<defs>
<linearGradient id="paint0_linear_4283_15965" x1="19.8061" y1="18.292" x2="19.8061" y2="20.4885" gradientUnits="userSpaceOnUse">
<stop stop-color="#E4F2FF"/>
<stop offset="1" stop-color="#B2CBFF"/>
</linearGradient>
<linearGradient id="paint1_linear_4283_15965" x1="19.8062" y1="18.3238" x2="19.8062" y2="22.0178" gradientUnits="userSpaceOnUse">
<stop stop-color="#3F3CED" stop-opacity="0"/>
<stop offset="0.2796" stop-color="#3C3DE4" stop-opacity="0.28"/>
<stop offset="0.7305" stop-color="#3541CC" stop-opacity="0.731"/>
<stop offset="1" stop-color="#2F43BB"/>
</linearGradient>
<linearGradient id="paint2_linear_4283_15965" x1="19.8061" y1="18.3238" x2="19.8061" y2="22.0178" gradientUnits="userSpaceOnUse">
<stop stop-color="#3F3CED" stop-opacity="0"/>
<stop offset="0.2796" stop-color="#3C3DE4" stop-opacity="0.28"/>
<stop offset="0.7305" stop-color="#3541CC" stop-opacity="0.731"/>
<stop offset="1" stop-color="#2F43BB"/>
</linearGradient>
<linearGradient id="paint3_linear_4283_15965" x1="19.7971" y1="18.9156" x2="18.9212" y2="16.7976" gradientUnits="userSpaceOnUse">
<stop stop-color="white" stop-opacity="0"/>
<stop offset="1" stop-color="white"/>
</linearGradient>
<linearGradient id="paint4_linear_4283_15965" x1="19.8061" y1="16.5978" x2="19.8061" y2="18.7943" gradientUnits="userSpaceOnUse">
<stop stop-color="#E4F2FF"/>
<stop offset="1" stop-color="#B2CBFF"/>
</linearGradient>
<linearGradient id="paint5_linear_4283_15965" x1="19.8062" y1="16.6296" x2="19.8062" y2="20.3236" gradientUnits="userSpaceOnUse">
<stop stop-color="#3F3CED" stop-opacity="0"/>
<stop offset="0.2796" stop-color="#3C3DE4" stop-opacity="0.28"/>
<stop offset="0.7305" stop-color="#3541CC" stop-opacity="0.731"/>
<stop offset="1" stop-color="#2F43BB"/>
</linearGradient>
<linearGradient id="paint6_linear_4283_15965" x1="19.8061" y1="16.6296" x2="19.8061" y2="20.3236" gradientUnits="userSpaceOnUse">
<stop stop-color="#3F3CED" stop-opacity="0"/>
<stop offset="0.2796" stop-color="#3C3DE4" stop-opacity="0.28"/>
<stop offset="0.7305" stop-color="#3541CC" stop-opacity="0.731"/>
<stop offset="1" stop-color="#2F43BB"/>
</linearGradient>
<linearGradient id="paint7_linear_4283_15965" x1="19.7971" y1="17.2215" x2="18.9212" y2="15.1035" gradientUnits="userSpaceOnUse">
<stop stop-color="white" stop-opacity="0"/>
<stop offset="1" stop-color="white"/>
</linearGradient>
<linearGradient id="paint8_linear_4283_15965" x1="19.8061" y1="14.9037" x2="19.8061" y2="17.1002" gradientUnits="userSpaceOnUse">
<stop stop-color="#E4F2FF"/>
<stop offset="1" stop-color="#B2CBFF"/>
</linearGradient>
<linearGradient id="paint9_linear_4283_15965" x1="19.8062" y1="14.9356" x2="19.8062" y2="18.6295" gradientUnits="userSpaceOnUse">
<stop stop-color="#3F3CED" stop-opacity="0"/>
<stop offset="0.2796" stop-color="#3C3DE4" stop-opacity="0.28"/>
<stop offset="0.7305" stop-color="#3541CC" stop-opacity="0.731"/>
<stop offset="1" stop-color="#2F43BB"/>
</linearGradient>
<linearGradient id="paint10_linear_4283_15965" x1="19.8061" y1="14.9356" x2="19.8061" y2="18.6295" gradientUnits="userSpaceOnUse">
<stop stop-color="#3F3CED" stop-opacity="0"/>
<stop offset="0.2796" stop-color="#3C3DE4" stop-opacity="0.28"/>
<stop offset="0.7305" stop-color="#3541CC" stop-opacity="0.731"/>
<stop offset="1" stop-color="#2F43BB"/>
</linearGradient>
<linearGradient id="paint11_linear_4283_15965" x1="19.7971" y1="15.5274" x2="18.9212" y2="13.4094" gradientUnits="userSpaceOnUse">
<stop stop-color="white" stop-opacity="0"/>
<stop offset="1" stop-color="white"/>
</linearGradient>
<linearGradient id="paint12_linear_4283_15965" x1="19.8061" y1="13.2096" x2="19.8061" y2="15.4061" gradientUnits="userSpaceOnUse">
<stop stop-color="#E4F2FF"/>
<stop offset="1" stop-color="#B2CBFF"/>
</linearGradient>
<linearGradient id="paint13_linear_4283_15965" x1="19.8062" y1="13.2415" x2="19.8062" y2="16.9354" gradientUnits="userSpaceOnUse">
<stop stop-color="#3F3CED" stop-opacity="0"/>
<stop offset="0.2796" stop-color="#3C3DE4" stop-opacity="0.28"/>
<stop offset="0.7305" stop-color="#3541CC" stop-opacity="0.731"/>
<stop offset="1" stop-color="#2F43BB"/>
</linearGradient>
<linearGradient id="paint14_linear_4283_15965" x1="19.8061" y1="13.2415" x2="19.8061" y2="16.9354" gradientUnits="userSpaceOnUse">
<stop stop-color="#3F3CED" stop-opacity="0"/>
<stop offset="0.2796" stop-color="#3C3DE4" stop-opacity="0.28"/>
<stop offset="0.7305" stop-color="#3541CC" stop-opacity="0.731"/>
<stop offset="1" stop-color="#2F43BB"/>
</linearGradient>
<linearGradient id="paint15_linear_4283_15965" x1="19.7971" y1="13.8333" x2="18.9212" y2="11.7154" gradientUnits="userSpaceOnUse">
<stop stop-color="white" stop-opacity="0"/>
<stop offset="1" stop-color="white"/>
</linearGradient>
<linearGradient id="paint16_linear_4283_15965" x1="19.8061" y1="11.5155" x2="19.8061" y2="13.712" gradientUnits="userSpaceOnUse">
<stop stop-color="#E4F2FF"/>
<stop offset="1" stop-color="#B2CBFF"/>
</linearGradient>
<linearGradient id="paint17_linear_4283_15965" x1="19.8062" y1="11.5474" x2="19.8062" y2="15.2413" gradientUnits="userSpaceOnUse">
<stop stop-color="#3F3CED" stop-opacity="0"/>
<stop offset="0.2796" stop-color="#3C3DE4" stop-opacity="0.28"/>
<stop offset="0.7305" stop-color="#3541CC" stop-opacity="0.731"/>
<stop offset="1" stop-color="#2F43BB"/>
</linearGradient>
<linearGradient id="paint18_linear_4283_15965" x1="19.8061" y1="11.5474" x2="19.8061" y2="15.2413" gradientUnits="userSpaceOnUse">
<stop stop-color="#3F3CED" stop-opacity="0"/>
<stop offset="0.2796" stop-color="#3C3DE4" stop-opacity="0.28"/>
<stop offset="0.7305" stop-color="#3541CC" stop-opacity="0.731"/>
<stop offset="1" stop-color="#2F43BB"/>
</linearGradient>
<linearGradient id="paint19_linear_4283_15965" x1="19.7971" y1="12.1391" x2="18.9212" y2="10.0211" gradientUnits="userSpaceOnUse">
<stop stop-color="white" stop-opacity="0"/>
<stop offset="1" stop-color="white"/>
</linearGradient>
<linearGradient id="paint20_linear_4283_15965" x1="19.8061" y1="9.82142" x2="19.8061" y2="12.0179" gradientUnits="userSpaceOnUse">
<stop stop-color="#E4F2FF"/>
<stop offset="1" stop-color="#B2CBFF"/>
</linearGradient>
<linearGradient id="paint21_linear_4283_15965" x1="19.8062" y1="9.85328" x2="19.8062" y2="13.5473" gradientUnits="userSpaceOnUse">
<stop stop-color="#3F3CED" stop-opacity="0"/>
<stop offset="0.2796" stop-color="#3C3DE4" stop-opacity="0.28"/>
<stop offset="0.7305" stop-color="#3541CC" stop-opacity="0.731"/>
<stop offset="1" stop-color="#2F43BB"/>
</linearGradient>
<linearGradient id="paint22_linear_4283_15965" x1="19.8061" y1="9.85328" x2="19.8061" y2="13.5473" gradientUnits="userSpaceOnUse">
<stop stop-color="#3F3CED" stop-opacity="0"/>
<stop offset="0.2796" stop-color="#3C3DE4" stop-opacity="0.28"/>
<stop offset="0.7305" stop-color="#3541CC" stop-opacity="0.731"/>
<stop offset="1" stop-color="#2F43BB"/>
</linearGradient>
<linearGradient id="paint23_linear_4283_15965" x1="19.7971" y1="10.445" x2="18.9212" y2="8.32705" gradientUnits="userSpaceOnUse">
<stop stop-color="white" stop-opacity="0"/>
<stop offset="1" stop-color="white"/>
</linearGradient>
<linearGradient id="paint24_linear_4283_15965" x1="19.8061" y1="8.12732" x2="19.8061" y2="10.3238" gradientUnits="userSpaceOnUse">
<stop stop-color="#E4F2FF"/>
<stop offset="1" stop-color="#B2CBFF"/>
</linearGradient>
<linearGradient id="paint25_linear_4283_15965" x1="19.8062" y1="8.15906" x2="19.8062" y2="11.8531" gradientUnits="userSpaceOnUse">
<stop stop-color="#3F3CED" stop-opacity="0"/>
<stop offset="0.2796" stop-color="#3C3DE4" stop-opacity="0.28"/>
<stop offset="0.7305" stop-color="#3541CC" stop-opacity="0.731"/>
<stop offset="1" stop-color="#2F43BB"/>
</linearGradient>
<linearGradient id="paint26_linear_4283_15965" x1="19.8061" y1="8.15914" x2="19.8061" y2="11.8532" gradientUnits="userSpaceOnUse">
<stop stop-color="#3F3CED" stop-opacity="0"/>
<stop offset="0.2796" stop-color="#3C3DE4" stop-opacity="0.28"/>
<stop offset="0.7305" stop-color="#3541CC" stop-opacity="0.731"/>
<stop offset="1" stop-color="#2F43BB"/>
</linearGradient>
<linearGradient id="paint27_linear_4283_15965" x1="19.7971" y1="8.75093" x2="18.9212" y2="6.63296" gradientUnits="userSpaceOnUse">
<stop stop-color="white" stop-opacity="0"/>
<stop offset="1" stop-color="white"/>
</linearGradient>
<linearGradient id="paint28_linear_4283_15965" x1="19.8061" y1="6.43323" x2="19.8061" y2="8.6297" gradientUnits="userSpaceOnUse">
<stop stop-color="#E4F2FF"/>
<stop offset="1" stop-color="#B2CBFF"/>
</linearGradient>
<linearGradient id="paint29_linear_4283_15965" x1="19.8062" y1="6.46509" x2="19.8062" y2="10.1591" gradientUnits="userSpaceOnUse">
<stop stop-color="#3F3CED" stop-opacity="0"/>
<stop offset="0.2796" stop-color="#3C3DE4" stop-opacity="0.28"/>
<stop offset="0.7305" stop-color="#3541CC" stop-opacity="0.731"/>
<stop offset="1" stop-color="#2F43BB"/>
</linearGradient>
<linearGradient id="paint30_linear_4283_15965" x1="19.8061" y1="6.46509" x2="19.8061" y2="10.1591" gradientUnits="userSpaceOnUse">
<stop stop-color="#3F3CED" stop-opacity="0"/>
<stop offset="0.2796" stop-color="#3C3DE4" stop-opacity="0.28"/>
<stop offset="0.7305" stop-color="#3541CC" stop-opacity="0.731"/>
<stop offset="1" stop-color="#2F43BB"/>
</linearGradient>
<linearGradient id="paint31_linear_4283_15965" x1="19.7971" y1="7.05679" x2="18.9212" y2="4.93882" gradientUnits="userSpaceOnUse">
<stop stop-color="white" stop-opacity="0"/>
<stop offset="1" stop-color="white"/>
</linearGradient>
<radialGradient id="paint32_radial_4283_15965" cx="0" cy="0" r="1" gradientUnits="userSpaceOnUse" gradientTransform="translate(9.34461 9.74251) scale(15.886 15.886)">
<stop stop-color="#49AA6E"/>
<stop offset="0.3386" stop-color="#3F895D"/>
<stop offset="0.5502" stop-color="#2A8153"/>
<stop offset="0.727" stop-color="#1C714C"/>
<stop offset="0.8837" stop-color="#106F53"/>
<stop offset="1" stop-color="#126D60"/>
</radialGradient>
<linearGradient id="paint33_linear_4283_15965" x1="6.33555" y1="17.0925" x2="5.82665" y2="32.9538" gradientUnits="userSpaceOnUse">
<stop stop-color="#005A01" stop-opacity="0"/>
<stop offset="1" stop-color="#005A01"/>
</linearGradient>
<linearGradient id="paint34_linear_4283_15965" x1="10.9681" y1="20.2176" x2="13.2301" y2="28.8509" gradientUnits="userSpaceOnUse">
<stop stop-color="#005A01" stop-opacity="0"/>
<stop offset="1" stop-color="#005A01"/>
</linearGradient>
<linearGradient id="paint35_linear_4283_15965" x1="17.9669" y1="20.048" x2="17.1375" y2="30.6794" gradientUnits="userSpaceOnUse">
<stop stop-color="#005A01" stop-opacity="0"/>
<stop offset="1" stop-color="#005A01"/>
</linearGradient>
<linearGradient id="paint36_linear_4283_15965" x1="11.0685" y1="13.8399" x2="0.437192" y2="-5.16074" gradientUnits="userSpaceOnUse">
<stop stop-color="#6DFF55" stop-opacity="0"/>
<stop offset="1" stop-color="white"/>
</linearGradient>
<linearGradient id="paint37_linear_4283_15965" x1="18.4845" y1="17.5193" x2="5.01264" y2="9.89653" gradientUnits="userSpaceOnUse">
<stop stop-color="#005A01" stop-opacity="0"/>
<stop offset="1" stop-color="#005A01"/>
</linearGradient>
<linearGradient id="paint38_linear_4283_15965" x1="10.6283" y1="11.5552" x2="18.0076" y2="17.9166" gradientUnits="userSpaceOnUse">
<stop stop-color="#FFC738"/>
<stop offset="0.1876" stop-color="#FDBF3C"/>
<stop offset="0.4837" stop-color="#F7A848"/>
<stop offset="0.8493" stop-color="#ED835B"/>
<stop offset="1" stop-color="#E97264"/>
</linearGradient>
<linearGradient id="paint39_linear_4283_15965" x1="11.3206" y1="-0.714177" x2="13.8088" y2="4.54493" gradientUnits="userSpaceOnUse">
<stop stop-color="#2B854D"/>
<stop offset="0.3386" stop-color="#158140"/>
<stop offset="0.5502" stop-color="#147642"/>
<stop offset="0.727" stop-color="#106B44"/>
<stop offset="0.8837" stop-color="#0D533F"/>
<stop offset="1" stop-color="#07594D"/>
</linearGradient>
<linearGradient id="paint40_linear_4283_15965" x1="12.1379" y1="2.06192" x2="15.4931" y2="7.26446" gradientUnits="userSpaceOnUse">
<stop stop-color="#005A01" stop-opacity="0"/>
<stop offset="1" stop-color="#005A01"/>
</linearGradient>
<linearGradient id="paint41_linear_4283_15965" x1="12.3023" y1="0.175581" x2="12.472" y2="1.84377" gradientUnits="userSpaceOnUse">
<stop stop-color="#005A01" stop-opacity="0"/>
<stop offset="1" stop-color="#005A01"/>
</linearGradient>
<linearGradient id="paint42_linear_4283_15965" x1="11.5662" y1="2.22836" x2="5.14784" y2="2.11528" gradientUnits="userSpaceOnUse">
<stop stop-color="#249D0E" stop-opacity="0"/>
<stop offset="1" stop-color="#1B1704"/>
</linearGradient>
<linearGradient id="paint43_linear_4283_15965" x1="12.1721" y1="4.1253" x2="12.1721" y2="4.92502" gradientUnits="userSpaceOnUse">
<stop stop-color="#FFC738"/>
<stop offset="0.1876" stop-color="#FDBF3C"/>
<stop offset="0.4837" stop-color="#F7A848"/>
<stop offset="0.8493" stop-color="#ED835B"/>
<stop offset="1" stop-color="#E97264"/>
</linearGradient>
<linearGradient id="paint44_linear_4283_15965" x1="11.5516" y1="18.9679" x2="6.57526" y2="18.5532" gradientUnits="userSpaceOnUse">
<stop stop-color="#005A01" stop-opacity="0"/>
<stop offset="1" stop-color="#005A01"/>
</linearGradient>
<linearGradient id="paint45_linear_4283_15965" x1="4.19384" y1="22.3408" x2="4.19384" y2="24.5373" gradientUnits="userSpaceOnUse">
<stop stop-color="#FFD945"/>
<stop offset="0.3043" stop-color="#FFCD3E"/>
<stop offset="0.8558" stop-color="#FFAD2B"/>
<stop offset="1" stop-color="#FFA325"/>
</linearGradient>
<linearGradient id="paint46_linear_4283_15965" x1="4.19382" y1="22.3727" x2="4.19382" y2="26.0667" gradientUnits="userSpaceOnUse">
<stop stop-color="#E87264" stop-opacity="0"/>
<stop offset="1" stop-color="#FF7044"/>
</linearGradient>
<linearGradient id="paint47_linear_4283_15965" x1="4.19383" y1="22.3727" x2="4.19383" y2="26.0667" gradientUnits="userSpaceOnUse">
<stop stop-color="#E87264" stop-opacity="0"/>
<stop offset="1" stop-color="#FF7044"/>
</linearGradient>
<linearGradient id="paint48_linear_4283_15965" x1="4.18469" y1="22.9644" x2="3.30888" y2="20.8464" gradientUnits="userSpaceOnUse">
<stop stop-color="#FFD945" stop-opacity="0"/>
<stop offset="1" stop-color="#FBED21"/>
</linearGradient>
<linearGradient id="paint49_linear_4283_15965" x1="4.19384" y1="20.6467" x2="4.19384" y2="22.8432" gradientUnits="userSpaceOnUse">
<stop stop-color="#FFD945"/>
<stop offset="0.3043" stop-color="#FFCD3E"/>
<stop offset="0.8558" stop-color="#FFAD2B"/>
<stop offset="1" stop-color="#FFA325"/>
</linearGradient>
<linearGradient id="paint50_linear_4283_15965" x1="4.19382" y1="20.6785" x2="4.19382" y2="24.3725" gradientUnits="userSpaceOnUse">
<stop stop-color="#E87264" stop-opacity="0"/>
<stop offset="1" stop-color="#FF7044"/>
</linearGradient>
<linearGradient id="paint51_linear_4283_15965" x1="4.19383" y1="20.6786" x2="4.19383" y2="24.3726" gradientUnits="userSpaceOnUse">
<stop stop-color="#E87264" stop-opacity="0"/>
<stop offset="1" stop-color="#FF7044"/>
</linearGradient>
<linearGradient id="paint52_linear_4283_15965" x1="4.18469" y1="21.2703" x2="3.30888" y2="19.1524" gradientUnits="userSpaceOnUse">
<stop stop-color="#FFD945" stop-opacity="0"/>
<stop offset="1" stop-color="#FBED21"/>
</linearGradient>
<linearGradient id="paint53_linear_4283_15965" x1="4.19384" y1="18.9525" x2="4.19384" y2="21.149" gradientUnits="userSpaceOnUse">
<stop stop-color="#FFD945"/>
<stop offset="0.3043" stop-color="#FFCD3E"/>
<stop offset="0.8558" stop-color="#FFAD2B"/>
<stop offset="1" stop-color="#FFA325"/>
</linearGradient>
<linearGradient id="paint54_linear_4283_15965" x1="4.19382" y1="18.9844" x2="4.19382" y2="22.6784" gradientUnits="userSpaceOnUse">
<stop stop-color="#E87264" stop-opacity="0"/>
<stop offset="1" stop-color="#FF7044"/>
</linearGradient>
<linearGradient id="paint55_linear_4283_15965" x1="4.19383" y1="18.9844" x2="4.19383" y2="22.6784" gradientUnits="userSpaceOnUse">
<stop stop-color="#E87264" stop-opacity="0"/>
<stop offset="1" stop-color="#FF7044"/>
</linearGradient>
<linearGradient id="paint56_linear_4283_15965" x1="4.18469" y1="19.5762" x2="3.30888" y2="17.4583" gradientUnits="userSpaceOnUse">
<stop stop-color="#FFD945" stop-opacity="0"/>
<stop offset="1" stop-color="#FBED21"/>
</linearGradient>
<linearGradient id="paint57_linear_4283_15965" x1="4.19384" y1="17.2584" x2="4.19384" y2="19.4549" gradientUnits="userSpaceOnUse">
<stop stop-color="#FFD945"/>
<stop offset="0.3043" stop-color="#FFCD3E"/>
<stop offset="0.8558" stop-color="#FFAD2B"/>
<stop offset="1" stop-color="#FFA325"/>
</linearGradient>
<linearGradient id="paint58_linear_4283_15965" x1="4.19382" y1="17.2903" x2="4.19382" y2="20.9844" gradientUnits="userSpaceOnUse">
<stop stop-color="#E87264" stop-opacity="0"/>
<stop offset="1" stop-color="#FF7044"/>
</linearGradient>
<linearGradient id="paint59_linear_4283_15965" x1="4.19383" y1="17.2903" x2="4.19383" y2="20.9843" gradientUnits="userSpaceOnUse">
<stop stop-color="#E87264" stop-opacity="0"/>
<stop offset="1" stop-color="#FF7044"/>
</linearGradient>
<linearGradient id="paint60_linear_4283_15965" x1="4.18469" y1="17.8821" x2="3.30888" y2="15.7642" gradientUnits="userSpaceOnUse">
<stop stop-color="#FFD945" stop-opacity="0"/>
<stop offset="1" stop-color="#FBED21"/>
</linearGradient>
<linearGradient id="paint61_linear_4283_15965" x1="4.19384" y1="15.5643" x2="4.19384" y2="17.7608" gradientUnits="userSpaceOnUse">
<stop stop-color="#FFD945"/>
<stop offset="0.3043" stop-color="#FFCD3E"/>
<stop offset="0.8558" stop-color="#FFAD2B"/>
<stop offset="1" stop-color="#FFA325"/>
</linearGradient>
<linearGradient id="paint62_linear_4283_15965" x1="4.19382" y1="15.5961" x2="4.19382" y2="19.2902" gradientUnits="userSpaceOnUse">
<stop stop-color="#E87264" stop-opacity="0"/>
<stop offset="1" stop-color="#FF7044"/>
</linearGradient>
<linearGradient id="paint63_linear_4283_15965" x1="4.19383" y1="15.5961" x2="4.19383" y2="19.2902" gradientUnits="userSpaceOnUse">
<stop stop-color="#E87264" stop-opacity="0"/>
<stop offset="1" stop-color="#FF7044"/>
</linearGradient>
<linearGradient id="paint64_linear_4283_15965" x1="4.18469" y1="16.1879" x2="3.30888" y2="14.07" gradientUnits="userSpaceOnUse">
<stop stop-color="#FFD945" stop-opacity="0"/>
<stop offset="1" stop-color="#FBED21"/>
</linearGradient>
<linearGradient id="paint65_linear_4283_15965" x1="4.19384" y1="13.8702" x2="4.19384" y2="16.0667" gradientUnits="userSpaceOnUse">
<stop stop-color="#FFD945"/>
<stop offset="0.3043" stop-color="#FFCD3E"/>
<stop offset="0.8558" stop-color="#FFAD2B"/>
<stop offset="1" stop-color="#FFA325"/>
</linearGradient>
<linearGradient id="paint66_linear_4283_15965" x1="4.19382" y1="13.9021" x2="4.19382" y2="17.5961" gradientUnits="userSpaceOnUse">
<stop stop-color="#E87264" stop-opacity="0"/>
<stop offset="1" stop-color="#FF7044"/>
</linearGradient>
<linearGradient id="paint67_linear_4283_15965" x1="4.19383" y1="13.9021" x2="4.19383" y2="17.5961" gradientUnits="userSpaceOnUse">
<stop stop-color="#E87264" stop-opacity="0"/>
<stop offset="1" stop-color="#FF7044"/>
</linearGradient>
<linearGradient id="paint68_linear_4283_15965" x1="4.18469" y1="14.4939" x2="3.30888" y2="12.376" gradientUnits="userSpaceOnUse">
<stop stop-color="#FFD945" stop-opacity="0"/>
<stop offset="1" stop-color="#FBED21"/>
</linearGradient>
<linearGradient id="paint69_linear_4283_15965" x1="18.0453" y1="22.3408" x2="18.0453" y2="24.5373" gradientUnits="userSpaceOnUse">
<stop stop-color="#FFD945"/>
<stop offset="0.3043" stop-color="#FFCD3E"/>
<stop offset="0.8558" stop-color="#FFAD2B"/>
<stop offset="1" stop-color="#FFA325"/>
</linearGradient>
<linearGradient id="paint70_linear_4283_15965" x1="18.0454" y1="22.3727" x2="18.0454" y2="26.0667" gradientUnits="userSpaceOnUse">
<stop stop-color="#E87264" stop-opacity="0"/>
<stop offset="1" stop-color="#FF7044"/>
</linearGradient>
<linearGradient id="paint71_linear_4283_15965" x1="18.0454" y1="22.3727" x2="18.0454" y2="26.0667" gradientUnits="userSpaceOnUse">
<stop stop-color="#E87264" stop-opacity="0"/>
<stop offset="1" stop-color="#FF7044"/>
</linearGradient>
<linearGradient id="paint72_linear_4283_15965" x1="18.0363" y1="22.9644" x2="17.1604" y2="20.8464" gradientUnits="userSpaceOnUse">
<stop stop-color="#FFD945" stop-opacity="0"/>
<stop offset="1" stop-color="#FBED21"/>
</linearGradient>
<linearGradient id="paint73_linear_4283_15965" x1="18.0453" y1="20.6467" x2="18.0453" y2="22.8432" gradientUnits="userSpaceOnUse">
<stop stop-color="#FFD945"/>
<stop offset="0.3043" stop-color="#FFCD3E"/>
<stop offset="0.8558" stop-color="#FFAD2B"/>
<stop offset="1" stop-color="#FFA325"/>
</linearGradient>
<linearGradient id="paint74_linear_4283_15965" x1="18.0454" y1="20.6785" x2="18.0454" y2="24.3725" gradientUnits="userSpaceOnUse">
<stop stop-color="#E87264" stop-opacity="0"/>
<stop offset="1" stop-color="#FF7044"/>
</linearGradient>
<linearGradient id="paint75_linear_4283_15965" x1="18.0454" y1="20.6786" x2="18.0454" y2="24.3726" gradientUnits="userSpaceOnUse">
<stop stop-color="#E87264" stop-opacity="0"/>
<stop offset="1" stop-color="#FF7044"/>
</linearGradient>
<linearGradient id="paint76_linear_4283_15965" x1="18.0363" y1="21.2703" x2="17.1604" y2="19.1524" gradientUnits="userSpaceOnUse">
<stop stop-color="#FFD945" stop-opacity="0"/>
<stop offset="1" stop-color="#FBED21"/>
</linearGradient>
<linearGradient id="paint77_linear_4283_15965" x1="1.70926" y1="8.72781" x2="3.93221" y2="11.7042" gradientUnits="userSpaceOnUse">
<stop stop-color="#FFD945"/>
<stop offset="0.3043" stop-color="#FFCD3E"/>
<stop offset="0.8558" stop-color="#FFAD2B"/>
<stop offset="1" stop-color="#FFA325"/>
</linearGradient>
<linearGradient id="paint78_linear_4283_15965" x1="5.30609" y1="2.65348" x2="6.87807" y2="4.75823" gradientUnits="userSpaceOnUse">
<stop stop-color="#FFD945"/>
<stop offset="0.3043" stop-color="#FFCD3E"/>
<stop offset="0.8558" stop-color="#FFAD2B"/>
<stop offset="1" stop-color="#FFA325"/>
</linearGradient>
<linearGradient id="paint79_linear_4283_15965" x1="18.8762" y1="3.81501" x2="20.4482" y2="5.91977" gradientUnits="userSpaceOnUse">
<stop stop-color="#FFD945"/>
<stop offset="0.3043" stop-color="#FFCD3E"/>
<stop offset="0.8558" stop-color="#FFAD2B"/>
<stop offset="1" stop-color="#FFA325"/>
</linearGradient>
<clipPath id="clip0_4283_15965">
<rect width="24" height="24" fill="white"/>
</clipPath>
</defs>
</svg>
