<svg width="25" height="24" viewBox="0 0 25 24" fill="none" xmlns="http://www.w3.org/2000/svg">
<g clip-path="url(#clip0_4283_6078)">
<path d="M19.7624 20.3072H8.24587C8.04116 20.3072 7.87518 20.1412 7.87518 19.9365V10.0974C7.87518 9.89266 8.04116 9.72668 8.24587 9.72668H19.7624C19.9671 9.72668 20.1331 9.89266 20.1331 10.0974V19.9365C20.1331 20.1412 19.9671 20.3072 19.7624 20.3072Z" fill="url(#paint0_linear_4283_6078)"/>
<path d="M10.0869 9.72661V12.278C10.0869 12.3992 10.2139 12.4786 10.3229 12.4254C10.4709 12.3531 10.6447 12.3512 10.7924 12.4242C10.8676 12.4614 10.9492 12.48 11.0308 12.48C11.1116 12.48 11.1923 12.4618 11.2667 12.4254H11.2668C11.4157 12.3527 11.5898 12.3527 11.7387 12.4254L11.7388 12.4255C11.8877 12.4982 12.0618 12.4982 12.2107 12.4255L12.2108 12.4254C12.3597 12.3527 12.5338 12.3527 12.6828 12.4254L12.6829 12.4255C12.8317 12.4982 13.0058 12.4982 13.1547 12.4255C13.3018 12.352 13.4747 12.3512 13.6224 12.4233L13.6268 12.4254C13.7358 12.4786 13.8629 12.3992 13.8629 12.2779V9.72656H10.0869V9.72661Z" fill="url(#paint1_linear_4283_6078)"/>
<path d="M19.6312 19.8052H8.37714V18.8114H19.6312V19.8052Z" fill="url(#paint2_linear_4283_6078)" stroke="#91A9BE" stroke-width="1.00392"/>
<path d="M10.5614 16.5858H8.89256C8.82216 16.5858 8.76508 16.5287 8.76508 16.4583V15.8752C8.76508 15.8048 8.82216 15.7477 8.89256 15.7477H10.5614C10.6318 15.7477 10.6889 15.8048 10.6889 15.8752V16.4583C10.6889 16.5287 10.6318 16.5858 10.5614 16.5858Z" fill="url(#paint3_linear_4283_6078)"/>
<path d="M12.7735 17.4782H8.84371C8.80028 17.4782 8.76508 17.443 8.76508 17.3995V17.0446C8.76508 17.0011 8.80028 16.9659 8.84371 16.9659H12.7735C12.8169 16.9659 12.8521 17.0011 12.8521 17.0446V17.3996C12.8522 17.443 12.817 17.4782 12.7735 17.4782Z" fill="#FFA325"/>
<path d="M13.6298 18.3094H8.84377C8.80034 18.3094 8.76514 18.2742 8.76514 18.2307V17.8757C8.76514 17.8322 8.80034 17.797 8.84377 17.797H13.6298C13.6732 17.797 13.7084 17.8322 13.7084 17.8757V18.2307C13.7084 18.2741 13.6732 18.3094 13.6298 18.3094Z" fill="#FFA325"/>
<path d="M11.8952 19.1405H8.84377C8.80034 19.1405 8.76514 19.1053 8.76514 19.0619V18.7069C8.76514 18.6634 8.80034 18.6282 8.84377 18.6282H11.8952C11.9386 18.6282 11.9738 18.6634 11.9738 18.7069V19.0619C11.9738 19.1053 11.9386 19.1405 11.8952 19.1405Z" fill="#FFA325"/>
<path d="M17.0126 9.72662H8.16012C8.00276 9.72662 7.87518 9.59904 7.87518 9.44168V1.87857C7.87518 1.7212 8.00276 1.59363 8.16012 1.59363H17.0126C17.17 1.59363 17.2976 1.7212 17.2976 1.87857V9.44168C17.2975 9.59904 17.17 9.72662 17.0126 9.72662Z" fill="url(#paint4_linear_4283_6078)"/>
<path d="M9.57526 1.59363V3.5548C9.57526 3.64803 9.6729 3.70906 9.75667 3.66817C9.87046 3.61264 10.004 3.61113 10.1176 3.66728C10.1753 3.69584 10.2381 3.71015 10.3008 3.71015C10.3629 3.71015 10.4249 3.69617 10.4822 3.66817H10.4823C10.5967 3.61231 10.7305 3.61231 10.8449 3.66817L10.845 3.66826C10.9595 3.72412 11.0933 3.72412 11.2077 3.66826L11.2078 3.66817C11.3223 3.61231 11.4561 3.61231 11.5706 3.66817L11.5707 3.66826C11.6851 3.72412 11.8189 3.72412 11.9334 3.66826C12.0464 3.61175 12.1793 3.61109 12.2929 3.66652L12.2962 3.66817C12.38 3.70906 12.4777 3.64803 12.4777 3.5548V1.59363H9.57526Z" fill="url(#paint5_linear_4283_6078)"/>
<path d="M7.87518 8.19104V9.44168C7.87518 9.59904 8.00276 9.72662 8.16012 9.72662H17.0126C17.17 9.72662 17.2976 9.59904 17.2976 9.44168V8.19104H7.87518Z" fill="url(#paint6_linear_4283_6078)"/>
<path d="M9.94 6.86611H8.65718C8.60306 6.86611 8.5592 6.82225 8.5592 6.76814V6.3199C8.5592 6.26578 8.60306 6.22192 8.65718 6.22192H9.94C9.99412 6.22192 10.038 6.26578 10.038 6.3199V6.76814C10.038 6.82225 9.99412 6.86611 9.94 6.86611Z" fill="url(#paint7_linear_4283_6078)"/>
<path d="M11.6404 7.55216H8.61967C8.58626 7.55216 8.5592 7.5251 8.5592 7.49169V7.2188C8.5592 7.18538 8.58626 7.15833 8.61967 7.15833H11.6404C11.6738 7.15833 11.7009 7.18538 11.7009 7.2188V7.49169C11.7009 7.5251 11.6738 7.55216 11.6404 7.55216Z" fill="#B72546"/>
<path d="M12.2985 8.19108H8.61967C8.58626 8.19108 8.5592 8.16402 8.5592 8.13061V7.85771C8.5592 7.8243 8.58626 7.79724 8.61967 7.79724H12.2985C12.332 7.79724 12.359 7.8243 12.359 7.85771V8.13061C12.359 8.16402 12.332 8.19108 12.2985 8.19108Z" fill="#B72546"/>
<path d="M10.9652 8.82987H8.61967C8.58626 8.82987 8.5592 8.80281 8.5592 8.7694V8.49651C8.5592 8.46309 8.58626 8.43604 8.61967 8.43604H10.9652C10.9986 8.43604 11.0257 8.46309 11.0257 8.49651V8.7694C11.0257 8.80281 10.9986 8.82987 10.9652 8.82987Z" fill="#B72546"/>
<path d="M7.87519 22.0651H6.8205C6.43213 22.0651 6.11726 21.7502 6.11726 21.3618V6.3151C6.11726 4.95077 5.69288 3.62023 4.90295 2.50785L4.1077 1.38794C3.82662 0.99218 3.91966 0.443474 4.31542 0.162391C4.71119 -0.118691 5.25994 -0.0256559 5.54097 0.370109L6.66088 1.94714C7.45081 3.05952 7.87519 4.39006 7.87519 5.75439V22.0651Z" fill="url(#paint8_linear_4283_6078)"/>
<path d="M20.7213 21.6491V20.7231C20.7213 20.4934 20.535 20.3071 20.3053 20.3071H6.11725V21.3618C6.11725 21.7502 6.43212 22.0651 6.8205 22.0651H20.3053C20.535 22.0651 20.7213 21.8788 20.7213 21.6491Z" fill="url(#paint9_linear_4283_6078)"/>
<path d="M9.29596 22.0651H11.6283C11.0255 21.4657 10.1266 20.5203 9.92457 20.3071H9.29601C9.29596 20.9192 9.29596 21.6075 9.29596 22.0651Z" fill="url(#paint10_linear_4283_6078)"/>
<path d="M18.7142 22.0651H20.3136C20.5844 22.0651 20.7219 21.7392 20.5327 21.5454C20.0227 21.0229 19.4922 20.4648 19.3428 20.3073H18.7142V22.0651H18.7142Z" fill="url(#paint11_linear_4283_6078)"/>
<path d="M7.2241 24C8.77816 24 10.038 22.7401 10.038 21.1861C10.038 19.632 8.77816 18.3722 7.2241 18.3722C5.67004 18.3722 4.41022 19.632 4.41022 21.1861C4.41022 22.7401 5.67004 24 7.2241 24Z" fill="url(#paint12_linear_4283_6078)"/>
<path d="M7.22412 23.1423C8.30452 23.1423 9.18035 22.2665 9.18035 21.1861C9.18035 20.1057 8.30452 19.2299 7.22412 19.2299C6.14372 19.2299 5.26788 20.1057 5.26788 21.1861C5.26788 22.2665 6.14372 23.1423 7.22412 23.1423Z" fill="url(#paint13_linear_4283_6078)"/>
<path d="M9.88299 22.1105L8.11156 20.339C7.874 20.0902 7.53287 19.9411 7.15734 19.961C6.53673 19.9938 6.03174 20.4989 5.9989 21.1194C5.97904 21.4949 6.12812 21.8361 6.37692 22.0736L8.14116 23.8378C8.95367 23.5593 9.59805 22.9199 9.88299 22.1105Z" fill="url(#paint14_linear_4283_6078)"/>
<path d="M7.22412 22.413C7.90171 22.413 8.45099 21.8637 8.45099 21.1861C8.45099 20.5085 7.90171 19.9592 7.22412 19.9592C6.54654 19.9592 5.99725 20.5085 5.99725 21.1861C5.99725 21.8637 6.54654 22.413 7.22412 22.413Z" fill="url(#paint15_linear_4283_6078)"/>
<path d="M16.6767 24C18.2307 24 19.4906 22.7401 19.4906 21.1861C19.4906 19.632 18.2307 18.3722 16.6767 18.3722C15.1226 18.3722 13.8628 19.632 13.8628 21.1861C13.8628 22.7401 15.1226 24 16.6767 24Z" fill="url(#paint16_linear_4283_6078)"/>
<path d="M16.6767 23.1423C17.7571 23.1423 18.6329 22.2665 18.6329 21.1861C18.6329 20.1057 17.7571 19.2299 16.6767 19.2299C15.5963 19.2299 14.7205 20.1057 14.7205 21.1861C14.7205 22.2665 15.5963 23.1423 16.6767 23.1423Z" fill="url(#paint17_linear_4283_6078)"/>
<path d="M19.3356 22.1105L17.5641 20.339C17.3266 20.0902 16.9855 19.9411 16.61 19.961C15.9894 19.9938 15.4844 20.4989 15.4515 21.1194C15.4317 21.4949 15.5808 21.8361 15.8296 22.0736L17.5938 23.8378C18.4063 23.5593 19.0506 22.9199 19.3356 22.1105Z" fill="url(#paint18_linear_4283_6078)"/>
<path d="M16.6767 22.413C17.3543 22.413 17.9036 21.8637 17.9036 21.1861C17.9036 20.5085 17.3543 19.9592 16.6767 19.9592C15.9991 19.9592 15.4498 20.5085 15.4498 21.1861C15.4498 21.8637 15.9991 22.413 16.6767 22.413Z" fill="url(#paint19_linear_4283_6078)"/>
</g>
<defs>
<linearGradient id="paint0_linear_4283_6078" x1="13.9776" y1="15.0006" x2="19.0172" y2="18.1067" gradientUnits="userSpaceOnUse">
<stop stop-color="#FFD945"/>
<stop offset="0.3043" stop-color="#FFCD3E"/>
<stop offset="0.8558" stop-color="#FFAD2B"/>
<stop offset="1" stop-color="#FFA325"/>
</linearGradient>
<linearGradient id="paint1_linear_4283_6078" x1="11.5293" y1="9.65216" x2="12.5939" y2="12.9102" gradientUnits="userSpaceOnUse">
<stop stop-color="#FF7044"/>
<stop offset="1" stop-color="#F82814"/>
</linearGradient>
<linearGradient id="paint2_linear_4283_6078" x1="14.0041" y1="19.2743" x2="14.0041" y2="20.611" gradientUnits="userSpaceOnUse">
<stop stop-color="#E87264" stop-opacity="0"/>
<stop offset="1" stop-color="#FF7044"/>
</linearGradient>
<linearGradient id="paint3_linear_4283_6078" x1="9.68606" y1="15.9534" x2="9.79538" y2="16.5234" gradientUnits="userSpaceOnUse">
<stop stop-color="#F8F6FB"/>
<stop offset="1" stop-color="#EFDCFB"/>
</linearGradient>
<linearGradient id="paint4_linear_4283_6078" x1="12.566" y1="5.64756" x2="16.4397" y2="8.03518" gradientUnits="userSpaceOnUse">
<stop stop-color="#FF7044"/>
<stop offset="1" stop-color="#F82814"/>
</linearGradient>
<linearGradient id="paint5_linear_4283_6078" x1="10.6841" y1="1.5364" x2="11.5023" y2="4.04078" gradientUnits="userSpaceOnUse">
<stop stop-color="#FFD945"/>
<stop offset="0.3043" stop-color="#FFCD3E"/>
<stop offset="0.8558" stop-color="#FFAD2B"/>
<stop offset="1" stop-color="#FFA325"/>
</linearGradient>
<linearGradient id="paint6_linear_4283_6078" x1="12.5863" y1="8.93269" x2="12.5863" y2="9.96017" gradientUnits="userSpaceOnUse">
<stop stop-color="#F82814" stop-opacity="0"/>
<stop offset="1" stop-color="#C0272D"/>
</linearGradient>
<linearGradient id="paint7_linear_4283_6078" x1="9.26716" y1="6.37999" x2="9.35116" y2="6.81816" gradientUnits="userSpaceOnUse">
<stop stop-color="#F8F6FB"/>
<stop offset="1" stop-color="#EFDCFB"/>
</linearGradient>
<linearGradient id="paint8_linear_4283_6078" x1="6.24912" y1="11.0326" x2="9.63053" y2="11.0326" gradientUnits="userSpaceOnUse">
<stop stop-color="#8A7889"/>
<stop offset="1" stop-color="#6E566E"/>
</linearGradient>
<linearGradient id="paint9_linear_4283_6078" x1="13.4193" y1="20.4011" x2="13.4193" y2="22.1133" gradientUnits="userSpaceOnUse">
<stop stop-color="#8A7889"/>
<stop offset="1" stop-color="#6E566E"/>
</linearGradient>
<linearGradient id="paint10_linear_4283_6078" x1="10.6679" y1="21.5916" x2="9.85624" y2="21.2804" gradientUnits="userSpaceOnUse">
<stop stop-color="#6E566E" stop-opacity="0"/>
<stop offset="0.8228" stop-color="#59465A" stop-opacity="0.866"/>
<stop offset="1" stop-color="#564357"/>
</linearGradient>
<linearGradient id="paint11_linear_4283_6078" x1="20.1075" y1="21.6699" x2="18.9306" y2="21.1423" gradientUnits="userSpaceOnUse">
<stop stop-color="#6E566E" stop-opacity="0"/>
<stop offset="1" stop-color="#564357"/>
</linearGradient>
<linearGradient id="paint12_linear_4283_6078" x1="5.53031" y1="19.4923" x2="8.78692" y2="22.7489" gradientUnits="userSpaceOnUse">
<stop stop-color="#8A7889"/>
<stop offset="1" stop-color="#6E566E"/>
</linearGradient>
<linearGradient id="paint13_linear_4283_6078" x1="8.40167" y1="22.3636" x2="6.13762" y2="20.0996" gradientUnits="userSpaceOnUse">
<stop stop-color="#8A7889"/>
<stop offset="1" stop-color="#6E566E"/>
</linearGradient>
<linearGradient id="paint14_linear_4283_6078" x1="9.2284" y1="23.1905" x2="7.63989" y2="21.6019" gradientUnits="userSpaceOnUse">
<stop stop-color="#6E566E" stop-opacity="0"/>
<stop offset="0.8228" stop-color="#59465A" stop-opacity="0.866"/>
<stop offset="1" stop-color="#564357"/>
</linearGradient>
<linearGradient id="paint15_linear_4283_6078" x1="6.77283" y1="20.5249" x2="7.6454" y2="21.8033" gradientUnits="userSpaceOnUse">
<stop stop-color="#F8F6FB"/>
<stop offset="1" stop-color="#EFDCFB"/>
</linearGradient>
<linearGradient id="paint16_linear_4283_6078" x1="14.9829" y1="19.4923" x2="18.2395" y2="22.7489" gradientUnits="userSpaceOnUse">
<stop stop-color="#8A7889"/>
<stop offset="1" stop-color="#6E566E"/>
</linearGradient>
<linearGradient id="paint17_linear_4283_6078" x1="17.8542" y1="22.3636" x2="15.5902" y2="20.0996" gradientUnits="userSpaceOnUse">
<stop stop-color="#8A7889"/>
<stop offset="1" stop-color="#6E566E"/>
</linearGradient>
<linearGradient id="paint18_linear_4283_6078" x1="18.681" y1="23.1905" x2="17.0925" y2="21.6019" gradientUnits="userSpaceOnUse">
<stop stop-color="#6E566E" stop-opacity="0"/>
<stop offset="0.8228" stop-color="#59465A" stop-opacity="0.866"/>
<stop offset="1" stop-color="#564357"/>
</linearGradient>
<linearGradient id="paint19_linear_4283_6078" x1="16.2254" y1="20.5249" x2="17.098" y2="21.8033" gradientUnits="userSpaceOnUse">
<stop stop-color="#F8F6FB"/>
<stop offset="1" stop-color="#EFDCFB"/>
</linearGradient>
<clipPath id="clip0_4283_6078">
<rect width="24" height="24" fill="white" transform="translate(0.333313)"/>
</clipPath>
</defs>
</svg>
