<svg width="25" height="20" viewBox="0 0 25 20" fill="none" xmlns="http://www.w3.org/2000/svg">
<mask id="path-1-inside-1_4283_11384" fill="white">
<path d="M19.9967 17.6054L17.3402 14.8892C17.2429 14.7898 17.2449 14.6305 17.3441 14.5334C17.4437 14.4362 17.6029 14.4381 17.7 14.5373L20.3565 17.2535C20.4538 17.3529 20.4518 17.5122 20.3525 17.6093C20.2542 17.7057 20.095 17.7056 19.9967 17.6054Z"/>
</mask>
<path d="M19.9967 17.6054L17.3402 14.8892C17.2429 14.7898 17.2449 14.6305 17.3441 14.5334C17.4437 14.4362 17.6029 14.4381 17.7 14.5373L20.3565 17.2535C20.4538 17.3529 20.4518 17.5122 20.3525 17.6093C20.2542 17.7057 20.095 17.7056 19.9967 17.6054Z" fill="url(#paint0_linear_4283_11384)"/>
<path d="M17.3402 14.8892L18.0551 14.19L18.0549 14.1897L17.3402 14.8892ZM17.3441 14.5334L16.6455 13.8179L16.6447 13.8187L17.3441 14.5334ZM17.7 14.5373L18.4149 13.8381L18.4146 13.8378L17.7 14.5373ZM20.3565 17.2535L19.6415 17.9527L19.6418 17.953L20.3565 17.2535ZM20.3525 17.6093L19.6531 16.8947L19.6526 16.8951L20.3525 17.6093ZM20.7116 16.9062L18.0551 14.19L16.6253 15.5884L19.2818 18.3046L20.7116 16.9062ZM18.0549 14.1897C18.3448 14.486 18.338 14.9598 18.0436 15.248L16.6447 13.8187C16.1517 14.3012 16.141 15.0936 16.6256 15.5887L18.0549 14.1897ZM18.0428 15.2488C17.7474 15.5372 17.2741 15.5319 16.9853 15.2368L18.4146 13.8378C17.9316 13.3443 17.1399 13.3351 16.6455 13.8179L18.0428 15.2488ZM16.985 15.2365L19.6415 17.9527L21.0714 16.5543L18.4149 13.8381L16.985 15.2365ZM19.6418 17.953C19.3518 17.6567 19.3586 17.1829 19.6531 16.8947L21.052 18.324C21.545 17.8415 21.5557 17.0491 21.0711 16.554L19.6418 17.953ZM19.6526 16.8951C19.9457 16.6079 20.4196 16.6083 20.7108 16.9053L19.2826 18.3055C19.7703 18.8029 20.5627 18.8035 21.0525 18.3236L19.6526 16.8951Z" fill="#91A9BE" mask="url(#path-1-inside-1_4283_11384)"/>
<mask id="path-3-inside-2_4283_11384" fill="white">
<path d="M18.7913 5.25587C18.7019 5.14961 18.7154 4.99084 18.8216 4.90126L22.0023 2.22016C22.1087 2.13044 22.2672 2.14422 22.3569 2.25039C22.4463 2.35666 22.4328 2.51542 22.3266 2.605L19.1459 5.28611C19.04 5.37555 18.8812 5.36228 18.7913 5.25587Z"/>
</mask>
<path d="M18.7913 5.25587C18.7019 5.14961 18.7154 4.99084 18.8216 4.90126L22.0023 2.22016C22.1087 2.13044 22.2672 2.14422 22.3569 2.25039C22.4463 2.35666 22.4328 2.51542 22.3266 2.605L19.1459 5.28611C19.04 5.37555 18.8812 5.36228 18.7913 5.25587Z" fill="url(#paint1_linear_4283_11384)"/>
<path d="M18.8216 4.90126L18.1771 4.13666L18.1767 4.13696L18.8216 4.90126ZM22.0023 2.22016L22.6468 2.98476L22.6469 2.98466L22.0023 2.22016ZM22.3569 2.25039L23.122 1.60646L23.1208 1.60514L22.3569 2.25039ZM22.3266 2.605L22.9711 3.3696L22.9715 3.36931L22.3266 2.605ZM19.1459 5.28611L18.5014 4.52151L18.501 4.52186L19.1459 5.28611ZM19.5564 4.61195C19.8221 4.92759 19.7823 5.39908 19.4664 5.66557L18.1767 4.13696C17.6485 4.5826 17.5817 5.37163 18.0262 5.8998L19.5564 4.61195ZM19.4661 5.66587L22.6468 2.98476L21.3578 1.45556L18.1771 4.13666L19.4661 5.66587ZM22.6469 2.98466C22.3297 3.25208 21.858 3.20956 21.5929 2.89564L23.1208 1.60514C22.6764 1.07887 21.8876 1.00879 21.3577 1.45565L22.6469 2.98466ZM21.5918 2.89432C21.3261 2.57866 21.3659 2.10718 21.6818 1.84069L22.9715 3.36931C23.4997 2.92367 23.5665 2.13465 23.122 1.60646L21.5918 2.89432ZM21.6821 1.8404L18.5014 4.52151L19.7904 6.05071L22.9711 3.3696L21.6821 1.8404ZM18.501 4.52186C18.8173 4.25492 19.2892 4.29558 19.5553 4.61067L18.0273 5.90108C18.4731 6.42898 19.2626 6.49618 19.7909 6.05035L18.501 4.52186Z" fill="#91A9BE" mask="url(#path-3-inside-2_4283_11384)"/>
<path d="M6.34088 6.36245L3.12825 4.35629C3.01031 4.2827 2.97441 4.12749 3.04791 4.00955C3.12164 3.89171 3.27717 3.85562 3.39464 3.92945L6.60727 5.9356C6.72521 6.0092 6.76111 6.1644 6.68761 6.28234C6.61252 6.4021 6.45633 6.43496 6.34088 6.36245Z" fill="url(#paint2_linear_4283_11384)"/>
<path d="M3.58505 17.2814C3.49289 17.1774 3.50245 17.0184 3.60642 16.9262L7.34887 13.6095C7.45256 13.5175 7.61156 13.5265 7.704 13.631C7.79615 13.7349 7.78659 13.894 7.68262 13.9862L3.94017 17.3029C3.83611 17.3949 3.67711 17.3856 3.58505 17.2814Z" fill="url(#paint3_linear_4283_11384)"/>
<path d="M13.0416 17.9944C17.8051 17.9944 21.6666 14.1328 21.6666 9.36938C21.6666 4.60593 17.8051 0.744385 13.0416 0.744385C8.27817 0.744385 4.41663 4.60593 4.41663 9.36938C4.41663 14.1328 8.27817 17.9944 13.0416 17.9944Z" fill="url(#paint4_linear_4283_11384)"/>
<path d="M15.6666 7.86752C15.6666 9.31855 14.4937 10.4944 13.0416 10.4944C11.5895 10.4944 10.4166 9.31855 10.4166 7.86752C10.4166 6.42017 11.5895 5.24438 13.0416 5.24438C14.4938 5.24433 15.6666 6.42011 15.6666 7.86752Z" fill="url(#paint5_linear_4283_11384)"/>
<path d="M19.4166 15.5058C17.7771 17.0468 15.5255 17.9944 13.0416 17.9944C10.5577 17.9944 8.3062 17.0468 6.66663 15.5058C7.24739 12.6501 9.88317 10.4944 13.0416 10.4944C16.2001 10.4944 18.8358 12.6501 19.4166 15.5058Z" fill="url(#paint6_linear_4283_11384)"/>
<path d="M24.4938 1.52414C24.4938 2.24409 23.9123 2.8275 23.1924 2.8275C22.4724 2.8275 21.8909 2.24409 21.8909 1.52414C21.8909 0.806016 22.4724 0.222656 23.1924 0.222656C23.9123 0.222609 24.4938 0.805969 24.4938 1.52414Z" fill="url(#paint7_linear_4283_11384)"/>
<path d="M22.0168 17.4302C22.5259 17.9392 22.5272 18.763 22.0181 19.2721C21.5091 19.7811 20.6853 19.7798 20.1763 19.2708C19.6685 18.763 19.6672 17.9393 20.1763 17.4302C20.6853 16.9211 21.509 16.9224 22.0168 17.4302Z" fill="url(#paint8_linear_4283_11384)"/>
<path d="M3.06136 2.50413C3.57043 3.01319 3.57179 3.83692 3.06268 4.34603C2.55361 4.85509 1.72988 4.85378 1.22082 4.34472C0.713021 3.83692 0.711708 3.01323 1.22082 2.50413C1.72988 1.99506 2.55357 1.99633 3.06136 2.50413Z" fill="url(#paint9_linear_4283_11384)"/>
<path d="M1.00049 18.2515C0.979025 17.3864 1.66049 16.668 2.52571 16.6465C3.39088 16.625 4.10713 17.3088 4.12856 18.174C4.14993 19.037 3.46851 19.7554 2.60329 19.7768C1.73812 19.7983 1.02192 19.1146 1.00049 18.2515Z" fill="url(#paint10_linear_4283_11384)"/>
<defs>
<linearGradient id="paint0_linear_4283_11384" x1="18.8484" y1="17.6811" x2="18.8484" y2="14.4617" gradientUnits="userSpaceOnUse">
<stop offset="0.0168" stop-color="#CCCCCC"/>
<stop offset="1" stop-color="#F2F2F2"/>
</linearGradient>
<linearGradient id="paint1_linear_4283_11384" x1="20.5741" y1="5.34531" x2="20.5741" y2="2.16091" gradientUnits="userSpaceOnUse">
<stop offset="0.0168" stop-color="#CCCCCC"/>
<stop offset="1" stop-color="#F2F2F2"/>
</linearGradient>
<linearGradient id="paint2_linear_4283_11384" x1="4.86774" y1="6.40065" x2="4.86774" y2="3.8911" gradientUnits="userSpaceOnUse">
<stop offset="0.0168" stop-color="#CCCCCC"/>
<stop offset="1" stop-color="#F2F2F2"/>
</linearGradient>
<linearGradient id="paint3_linear_4283_11384" x1="5.6445" y1="17.3662" x2="5.6445" y2="13.5461" gradientUnits="userSpaceOnUse">
<stop offset="0.0168" stop-color="#CCCCCC"/>
<stop offset="1" stop-color="#F2F2F2"/>
</linearGradient>
<linearGradient id="paint4_linear_4283_11384" x1="13.0417" y1="17.9944" x2="13.0417" y2="0.744328" gradientUnits="userSpaceOnUse">
<stop stop-color="#0969DB"/>
<stop offset="1" stop-color="#4F8AFF"/>
</linearGradient>
<linearGradient id="paint5_linear_4283_11384" x1="13.0417" y1="10.4944" x2="13.0417" y2="5.24433" gradientUnits="userSpaceOnUse">
<stop offset="0.0168" stop-color="#CCCCCC"/>
<stop offset="1" stop-color="#F2F2F2"/>
</linearGradient>
<linearGradient id="paint6_linear_4283_11384" x1="13.0416" y1="17.9944" x2="13.0416" y2="10.4944" gradientUnits="userSpaceOnUse">
<stop offset="0.0168" stop-color="#CCCCCC"/>
<stop offset="1" stop-color="#F2F2F2"/>
</linearGradient>
<linearGradient id="paint7_linear_4283_11384" x1="23.1923" y1="2.82745" x2="23.1923" y2="0.222609" gradientUnits="userSpaceOnUse">
<stop stop-color="#F9403E"/>
<stop offset="1" stop-color="#F77953"/>
</linearGradient>
<linearGradient id="paint8_linear_4283_11384" x1="21.0971" y1="19.6532" x2="21.0971" y2="17.0488" gradientUnits="userSpaceOnUse">
<stop stop-color="#F79808"/>
<stop offset="1" stop-color="#ECBD0B"/>
</linearGradient>
<linearGradient id="paint9_linear_4283_11384" x1="2.14162" y1="4.72717" x2="2.14162" y2="2.12281" gradientUnits="userSpaceOnUse">
<stop stop-color="#F79808"/>
<stop offset="1" stop-color="#ECBD0B"/>
</linearGradient>
<linearGradient id="paint10_linear_4283_11384" x1="2.56452" y1="19.7773" x2="2.56452" y2="16.646" gradientUnits="userSpaceOnUse">
<stop stop-color="#F9403E"/>
<stop offset="1" stop-color="#F77953"/>
</linearGradient>
</defs>
</svg>
